<?xml version="1.0" encoding="utf-8"?>
<!-- Generator: Adobe Illustrator 21.0.2, SVG Export Plug-In . SVG Version: 6.00 Build 0)  -->
<svg version="1.1" id="Capa_1" xmlns="http://www.w3.org/2000/svg" xmlns:xlink="http://www.w3.org/1999/xlink" x="0px" y="0px"
	 viewBox="0 0 512 512" style="enable-background:new 0 0 512 512;" xml:space="preserve">
<style type="text/css">
	.st0{fill:#E5F5FC;}
	.st1{fill:#EF9D75;}
	.st2{fill:#AAB1BA;}
	.st3{fill:#CAD0D8;}
	.st4{fill:#51565F;}
	.st5{fill:#F2F2F2;stroke:#51565F;stroke-width:7;stroke-linecap:round;stroke-miterlimit:10;}
	.st6{fill:#EF9D75;stroke:#51565F;stroke-width:7;stroke-linecap:round;stroke-miterlimit:10;}
	.st7{fill:#F2F2F2;}
	.st8{display:none;}
	.st9{display:inline;}
	.st10{clip-path:url(#SVGID_2_);}
	.st11{clip-path:url(#SVGID_4_);fill:#568CE2;}
	.st12{fill:none;stroke:#EF9D75;stroke-width:6;stroke-linecap:round;stroke-miterlimit:10;}
	.st13{fill:none;stroke:#EF9D75;stroke-width:6;stroke-miterlimit:10;}
	.st14{fill:none;stroke:#E5F5FC;stroke-width:6;stroke-miterlimit:10;}
</style>
<image style="display:none;overflow:visible;" width="400" height="300" xlink:href="../../../../Wallpaper/icon_portfolio27_1x.png"  transform="matrix(2.065 0 0 2.065 -136 -75)">
</image>
<path class="st0" d="M296,62h-96c-9.4,0-17-7.6-17-17v0c0-9.4,7.6-17,17-17h96c9.4,0,17,7.6,17,17v0C313,54.4,305.4,62,296,62z"/>
<path class="st0" d="M317,329h-96c-9.4,0-17-7.6-17-17v0c0-9.4,7.6-17,17-17h96c9.4,0,17,7.6,17,17v0C334,321.4,326.4,329,317,329z"
	/>
<path class="st0" d="M446.5,215h-19c-9.1,0-16.5-7.4-16.5-16.5v0c0-9.1,7.4-16.5,16.5-16.5h19c9.1,0,16.5,7.4,16.5,16.5v0
	C463,207.6,455.6,215,446.5,215z"/>
<path class="st0" d="M44.5,165h-29C9.7,165,5,160.3,5,154.5v0c0-5.8,4.7-10.5,10.5-10.5h29c5.8,0,10.5,4.7,10.5,10.5v0
	C55,160.3,50.3,165,44.5,165z"/>
<path class="st0" d="M390,198.5c0,4.6-1.8,8.7-4.8,11.7c-3,3-7.1,4.8-11.7,4.8H301v1h-21c-3.9,0-7.4,1.6-9.9,4.1
	c-2.5,2.5-4.1,6-4.1,9.9c0,7.7,6.3,14,14,14h21v1h28c8.3,0,15,6.7,15,15c0,4.1-1.7,7.9-4.4,10.6c-2.7,2.7-6.5,4.4-10.6,4.4H126
	c-8.3,0-15-6.7-15-15c0-4.1,1.7-7.9,4.4-10.6c2.7-2.7,6.5-4.4,10.6-4.4h11v-1h9c3.9,0,7.4-1.6,9.9-4.1c2.5-2.5,4.1-6,4.1-9.9
	c0-7.7-6.3-14-14-14h-9v-1h-18.5c-9.1,0-16.5-7.4-16.5-16.5c0-4.6,1.8-8.7,4.8-11.7c3-3,7.1-4.8,11.7-4.8H150v0
	c2.1-0.1,4.1-1,5.5-2.5c1.5-1.5,2.5-3.7,2.5-6c0-4.5-3.5-8.2-8-8.5v0H74.5c-5.8,0-10.5-4.7-10.5-10.5c0-2.9,1.2-5.5,3.1-7.4
	c1.9-1.9,4.5-3.1,7.4-3.1H144c3.9,0,7.4-1.6,9.9-4.1c2.5-2.5,4.1-6,4.1-9.9c0-7.7-6.3-14-14-14h-23.5c-9.1,0-16.5-7.4-16.5-16.5
	c0-4.6,1.8-8.7,4.8-11.7c3-3,7.1-4.8,11.7-4.8h255c9.1,0,16.5,7.4,16.5,16.5c0,4.6-1.8,8.7-4.8,11.7c-3,3-7.1,4.8-11.7,4.8H301v0.3
	c-2.7,0.6-5,1.9-6.9,3.8c-2.5,2.5-4.1,6-4.1,9.9c0,6.7,4.7,12.3,11,13.7v0.3h15.5c5.8,0,10.5,4.7,10.5,10.5c0,2.9-1.2,5.5-3.1,7.4
	c-1.9,1.9-4.5,3.1-7.4,3.1H290v0.1c-1.7,0.3-3.3,1.1-4.5,2.3c-1.5,1.5-2.5,3.7-2.5,6c0,4.2,3,7.7,7,8.4v0.1h83.5
	C382.6,182,390,189.4,390,198.5z"/>
<g transform="translate(15 1)">
	<path class="st1" d="M389,148.6v22.7H218.4v-22.7c0-11.4,11.4-22.7,22.7-22.7h125.1C377.7,125.8,389,137.2,389,148.6z M389,398.8
		v34.1c0,11.4-11.4,22.7-22.7,22.7H241.2c-11.4,0-22.7-11.4-22.7-22.7v-34.1H389z"/>
	<g>
		<path class="st2" d="M290.7,415.5c2.8,0,5.7,2.8,5.7,5.7c0,2.8-2.8,5.7-5.7,5.7c-2.8,0-5.7-2.8-5.7-5.7
			C285,418.4,287.9,415.5,290.7,415.5L290.7,415.5z"/>
		<polygon class="st3" points="205.4,392.8 376,392.8 376,165.3 205.4,165.3 		"/>
	</g>
</g>
<path class="st4" d="M368.3,453.5H243.2c-13.1,0-25.6-12.5-25.6-25.6v-34.1c0-1.7,1.1-2.8,2.8-2.8h147.8c1.7,0,2.8,1.1,2.8,2.8
	s-1.1,2.8-2.8,2.8h-145v31.3c0,9.7,10.2,19.9,19.9,19.9h125.1c9.7,0,19.9-10.2,19.9-19.9V169.2h-145c-1.7,0-2.8-1.1-2.8-2.8
	s1.1-2.8,2.8-2.8H391c1.7,0,2.8,1.1,2.8,2.8v261.6C393.9,441,381.4,453.5,368.3,453.5z M305.7,430.7c-4.5,0-8.5-4-8.5-8.5
	s4-8.5,8.5-8.5c4.5,0,8.5,4,8.5,8.5S310.3,430.7,305.7,430.7z M305.7,419.4c-1.7,0-2.8,1.1-2.8,2.8c0,1.7,1.1,2.8,2.8,2.8
	c1.7,0,2.8-1.1,2.8-2.8C308.6,420.5,307.4,419.4,305.7,419.4z M220.4,373.9c-1.7,0-2.8-1.1-2.8-2.8V143.6
	c0-13.1,12.5-25.6,25.6-25.6h125.1c13.1,0,25.6,12.5,25.6,25.6c0,1.7-1.1,2.8-2.8,2.8s-2.8-1.1-2.8-2.8c0-9.7-10.2-19.9-19.9-19.9
	H243.2c-9.7,0-19.9,10.2-19.9,19.9V371C223.3,372.7,222.2,373.9,220.4,373.9z M356.9,248.8c-0.6,0-1.7,0-2.3-0.6l-45.5-45.5
	c-0.6-0.6-0.6-1.1-0.6-2.3c0-1.1,0-1.7,0.6-2.3c1.1-1.1,2.8-1.1,4,0l45.5,45.5c0.6,0.6,0.6,1.1,0.6,2.3c0,1.1,0,1.7-0.6,2.3
	C358,248.8,357.5,248.8,356.9,248.8z M356.9,214.7c-0.6,0-1.7,0-2.3-0.6l-11.4-11.4c-0.6-0.6-0.6-1.1-0.6-2.3c0-1.1,0-1.7,0.6-2.3
	c1.1-1.1,2.8-1.1,4,0l11.4,11.4c0.6,0.6,0.6,1.1,0.6,2.3c0,1.1,0,1.7-0.6,2.3C358,214.7,357.5,214.7,356.9,214.7z M334.2,146.4
	h-22.7c-1.7,0-2.8-1.1-2.8-2.8c0-1.7,1.1-2.8,2.8-2.8h22.7c1.7,0,2.8,1.1,2.8,2.8C337,145.3,335.9,146.4,334.2,146.4z"/>
<path class="st5" d="M431,215.2V227c0,3.9-3.1,7-7,7H260c-3.9,0-7-3.1-7-7v-38c0-3.9,3.1-7,7-7h164c3.9,0,7,3.1,7,7v8.2"/>
<path class="st5" d="M431,287.2V299c0,3.9-3.1,7-7,7H260c-3.9,0-7-3.1-7-7v-38c0-3.9,3.1-7,7-7h164c3.9,0,7,3.1,7,7v8.2"/>
<circle class="st6" cx="282.5" cy="208.5" r="14"/>
<circle class="st6" cx="282.5" cy="280.5" r="14"/>
<g>
	<path class="st7" d="M212.5,309.9c-1,1.6-0.5,3.7,1.1,4.7c1.6,1,3.7,0.5,4.7-1.1L225,303l4,3.6c-0.2,0.2-0.4,0.5-0.6,0.7
		c-0.8,1.4-0.5,3.1,0.6,4.2c0.2,0.2,0.4,0.4,0.7,0.5c4.5,2.6,5.4,6.6,5.4,9.5c-0.1,4.6-2.4,9.4-6.1,13c-1.4,1.4-3,2.6-4.8,3.6
		c-2.5,1.3-5,2.7-7.5,4.2c-23.4,13.4-41,26.4-52.6,38.9l-66.4-38.4c3.2-8.7,4-15.3,4.8-21.6c1.1-8.6,2.1-16.7,9.5-29.6l22.3-38.7
		c1.7-3,6.4-4.2,9.4-2.5c1.5,0.8,2.6,2.4,3.1,4.2c0.5,1.8,0.3,3.7-0.6,5.2c-1,1.6-0.4,3.7,1.2,4.7c1.6,0.9,3.8,0.4,4.7-1.3
		c0,0,0,0,0,0l5.1-8.9c1.4-2.4,3.6-4.1,6.2-4.8c2.6-0.7,5.4-0.3,7.8,1c4.9,2.8,6.6,9.2,3.8,14.1c-0.9,1.7-0.4,3.8,1.3,4.7
		c1.6,1,3.7,0.4,4.7-1.2c0,0,0,0,0,0l3.4-5.9c2.8-4.9,9.2-6.6,14.1-3.8c2.4,1.4,4.1,3.6,4.8,6.2c0.7,2.7,0.3,5.4-1,7.8
		c-0.9,1.6-0.4,3.6,1.1,4.6c1.6,1,3.6,0.6,4.7-0.9l20.9-29.3l15.9-22.3c6.3-8.6,11-5.9,12.6-5c2.2,1.3,3.7,3.2,4.1,5.6
		c0.4,2.4-0.1,5.1-1.6,7.7L229,283L212.5,309.9z"/>
	<g>
		<g>
			<path class="st4" d="M259.9,232.8c1.5-2.6,2-5.3,1.6-7.7c-0.4-2.4-1.8-4.3-4.1-5.6c-1.5-0.9-6.2-3.6-12.6,5L229,246.8l-20.9,29.3
				c-1.1,1.5-3.1,1.9-4.7,0.9c-1.5-1-2-3-1.1-4.6c1.4-2.4,1.7-5.2,1-7.8c-0.7-2.7-2.4-4.9-4.8-6.2c-4.9-2.8-11.2-1.2-14.1,3.8
				l-3.4,5.9c0,0,0,0,0,0c-1,1.6-3,2.2-4.7,1.2c-1.6-0.9-2.2-3-1.3-4.7c2.8-4.9,1.2-11.2-3.8-14.1c-2.4-1.4-5.2-1.7-7.8-1
				c-2.7,0.7-4.9,2.4-6.2,4.8l-5.1,8.9c0,0,0,0,0,0c-1,1.6-3.1,2.2-4.7,1.3c-1.6-1-2.2-3-1.2-4.7c0.9-1.5,1.1-3.4,0.6-5.2
				c-0.5-1.8-1.6-3.3-3.1-4.2c-3-1.7-7.6-0.5-9.4,2.5L112,291.6c-7.4,12.9-8.4,21-9.5,29.6c-0.8,6.4-1.6,12.9-4.8,21.6l66.4,38.4
				c11.6-12.5,29.2-25.5,52.6-38.9c2.5-1.4,5-2.8,7.5-4.2c1.8-1,3.4-2.2,4.8-3.6c3.7-3.6,6-8.5,6.1-13c0-2.9-0.9-6.9-5.4-9.5
				c-0.3-0.1-0.5-0.3-0.7-0.5v-4.9c1.1-1.1,2.8-1.3,4.1-0.5c5.8,3.3,8.9,8.8,8.8,15.5c-0.1,8.3-5.2,16.9-13,21.7
				c-0.5,0.3-1,0.6-1.5,0.9c-2.4,1.3-4.9,2.7-7.4,4.1c-24,13.7-41.8,27-52.8,39.6c-0.7,0.8-1.6,1.2-2.6,1.2c-0.6,0-1.2-0.2-1.7-0.5
				l-71.4-41.2c-1.5-0.9-2.1-2.7-1.5-4.3c3.7-9.3,4.6-16.1,5.4-22.7c1.1-8.9,2.2-18.1,10.4-32.2l22.3-38.7c3.6-6.2,12.5-8.6,18.8-5
				c2.1,1.2,3.8,3,5,5.2c2.3-3.3,5.7-5.7,9.6-6.8c4.4-1.2,9.1-0.6,13,1.7c3.8,2.2,6.4,5.6,7.7,9.4c5.4-4.4,13.2-5.3,19.5-1.6
				c3.7,2.1,6.4,5.5,7.8,9.6L229,235l10.3-14.5c8.7-11.8,17.2-9.4,21.6-6.9c4,2.3,6.6,6,7.4,10.3c0.7,4-0.1,8.4-2.5,12.5L229,296.1
				l-10.7,17.4c-1,1.6-3.1,2.1-4.7,1.1c-1.6-1-2.1-3.1-1.1-4.7L229,283L259.9,232.8z"/>
			<path class="st4" d="M229,306.6v4.9c-1.1-1.1-1.4-2.8-0.6-4.2C228.6,307.1,228.8,306.8,229,306.6z"/>
		</g>
	</g>
</g>
<g id="Ilustración_2" class="st8">
	<g class="st9">
		<defs>
			<rect id="SVGID_1_" x="104.6" y="100.3" width="30" height="30"/>
		</defs>
		<clipPath id="SVGID_2_">
			<use xlink:href="#SVGID_1_"  style="overflow:visible;"/>
		</clipPath>
		<g class="st10">
			<defs>
				<rect id="SVGID_3_" x="104.6" y="100.3" width="30" height="30"/>
			</defs>
			<clipPath id="SVGID_4_">
				<use xlink:href="#SVGID_3_"  style="overflow:visible;"/>
			</clipPath>
			<path class="st11" d="M134.6,115.3c0,1.1-0.4,2.1-1.2,2.8c-0.7,0.7-1.7,1.2-2.8,1.2h-7v7c0,2.2-1.8,4-4,4c-2.2,0-4-1.8-4-4v-7h-7
				c-2.2,0-4-1.8-4-4s1.8-4,4-4h7v-7c0-2.2,1.8-4,4-4c1.1,0,2.1,0.5,2.8,1.2c0.7,0.7,1.2,1.7,1.2,2.8v7h7
				C132.8,111.3,134.6,113.1,134.6,115.3"/>
		</g>
	</g>
</g>
<path class="st4" d="M136,115c0,2.2-1.8,4-4,4h-7v7c0,1.1-0.5,2.1-1.2,2.8c-0.7,0.7-1.7,1.2-2.8,1.2c-2.2,0-4-1.8-4-4v-7h-7
	c-1.1,0-2.1-0.5-2.8-1.2c-0.7-0.7-1.2-1.7-1.2-2.8c0-2.2,1.8-4,4-4h7v-7c0-2.2,1.8-4,4-4s4,1.8,4,4v7h7C134.2,111,136,112.8,136,115
	z"/>
<path class="st4" d="M441,43c0,2.2-1.8,4-4,4h-7v7c0,1.1-0.5,2.1-1.2,2.8c-0.7,0.7-1.7,1.2-2.8,1.2c-2.2,0-4-1.8-4-4v-7h-7
	c-1.1,0-2.1-0.5-2.8-1.2c-0.7-0.7-1.2-1.7-1.2-2.8c0-2.2,1.8-4,4-4h7v-7c0-2.2,1.8-4,4-4s4,1.8,4,4v7h7C439.2,39,441,40.8,441,43z"
	/>
<path class="st1" d="M52,425c-1,1-2.6,1-3.6,0l-3.2-3.2L42,425c-0.5,0.5-1.2,0.7-1.8,0.8c-0.7,0-1.3-0.3-1.8-0.8c-1-1-1-2.6,0-3.6
	l3.2-3.2l-3.2-3.2c-0.5-0.5-0.7-1.2-0.8-1.8c0-0.7,0.3-1.3,0.8-1.8c1-1,2.6-1,3.6,0l3.2,3.2l3.2-3.2c1-1,2.6-1,3.6,0
	c1,1,1,2.6,0,3.6l-3.2,3.2l3.2,3.2C53,422.4,53,424,52,425z"/>
<path class="st1" d="M482,273c-1,1-2.6,1-3.6,0l-3.2-3.2L472,273c-0.5,0.5-1.2,0.7-1.8,0.8c-0.7,0-1.3-0.3-1.8-0.8c-1-1-1-2.6,0-3.6
	l3.2-3.2l-3.2-3.2c-0.5-0.5-0.7-1.2-0.8-1.8c0-0.7,0.3-1.3,0.8-1.8c1-1,2.6-1,3.6,0l3.2,3.2l3.2-3.2c1-1,2.6-1,3.6,0
	c1,1,1,2.6,0,3.6l-3.2,3.2l3.2,3.2C483,270.4,483,272,482,273z"/>
<path class="st12" d="M349.4,71.9c-0.3,0.3-0.6,0.5-0.9,0.7c-5.7,4.1-13.6,3.2-18.3-2.2c-4.9-5.7-4.2-14.3,1.5-19.2
	c5.7-4.9,14.3-4.2,19.2,1.5c1.5,1.8,2.5,3.9,3,6"/>
<circle class="st13" cx="56.6" cy="249.6" r="11.6"/>
<circle class="st14" cx="440.6" cy="427.6" r="11.6"/>
</svg>
