<?xml version="1.0" encoding="utf-8"?>
<!-- Generator: Adobe Illustrator 22.0.1, SVG Export Plug-In . SVG Version: 6.00 Build 0)  -->
<svg version="1.1" xmlns="http://www.w3.org/2000/svg" xmlns:xlink="http://www.w3.org/1999/xlink" x="0px" y="0px"
	 viewBox="0 0 512 512" style="enable-background:new 0 0 512 512;" xml:space="preserve">
<style type="text/css">
	.st0{fill:#E5F5FC;}
	.st1{fill:none;stroke:#51565F;stroke-width:6;stroke-miterlimit:10;}
	.st2{fill:#88C9FF;}
	.st3{fill:#EF9D75;}
	.st4{fill:#F9ECDE;}
	.st5{fill:#51565F;}
	.st6{fill:#CAD0D8;}
	.st7{clip-path:url(#SVGID_2_);}
	.st8{clip-path:url(#SVGID_4_);fill:#568CE2;}
	.st9{clip-path:url(#SVGID_6_);}
	.st10{clip-path:url(#SVGID_8_);fill:none;stroke:#EF9D75;stroke-width:6;stroke-linecap:round;stroke-miterlimit:10;}
	.st11{clip-path:url(#SVGID_10_);}
	.st12{clip-path:url(#SVGID_12_);fill:#51565F;}
</style>
<g id="Capa_2">
	<path class="st0" d="M237.9,101l-66.4,92.1c-6.5,9-19.1,11.1-28.1,4.6l0,0c-9-6.5-11.1-19.1-4.6-28.1l66.4-92.1
		c6.5-9,19.1-11.1,28.1-4.6l0,0C242.4,79.5,244.4,92,237.9,101z"/>
	<path class="st0" d="M162.8,413.6l-20.1,27.8c-4,5.6-11.8,6.8-17.3,2.8l0,0c-5.6-4-6.8-11.8-2.8-17.3l20.1-27.8
		c4-5.6,11.8-6.8,17.3-2.8l0,0C165.5,400.2,166.8,408,162.8,413.6z"/>
	<path class="st0" d="M433.9,105.3c4.4,3.2,7.1,7.7,7.9,12.7c0.8,5-0.3,10.1-3.5,14.5l-50.1,69.6l1,0.7l-14.5,20.1
		c-2.7,3.7-3.6,8.2-2.9,12.3c0.7,4.1,2.9,8.1,6.7,10.8c7.4,5.3,17.8,3.6,23.1-3.7l14.5-20.1l1,0.7l19.4-26.9c5.7-8,16.8-9.8,24.8-4
		c3.9,2.8,6.4,7.1,7.1,11.6c0.7,4.5-0.3,9.3-3.1,13.2L324.7,411.5c-5.7,8-16.8,9.8-24.8,4c-3.9-2.8-6.4-7.1-7.1-11.6
		c-0.7-4.5,0.3-9.3,3.1-13.2l7.6-10.6l-1-0.7l6.2-8.6c2.7-3.7,3.6-8.2,2.9-12.3c-0.7-4.1-2.9-8.1-6.7-10.8
		c-7.4-5.3-17.8-3.6-23.1,3.7l-6.2,8.6l-1-0.7l-12.8,17.7c-6.3,8.7-18.5,10.7-27.2,4.4c-4.4-3.2-7.1-7.7-7.9-12.7
		c-0.8-5,0.3-10.1,3.5-14.5l21.8-30.2l0,0c1.4-2.1,1.9-4.6,1.4-7c-0.4-2.5-1.8-5-4-6.5c-4.3-3.1-10.3-2.3-13.7,1.8l0,0l-52.2,72.4
		c-4,5.6-11.8,6.8-17.3,2.8c-2.8-2-4.4-5-5-8.1c-0.5-3.1,0.1-6.5,2.1-9.2l48.1-66.7c2.7-3.7,3.6-8.2,2.9-12.3
		c-0.7-4.1-2.9-8.1-6.7-10.8c-7.4-5.3-17.8-3.6-23.1,3.7l-16.3,22.5c-6.3,8.7-18.5,10.7-27.2,4.4c-4.4-3.2-7.1-7.7-7.9-12.7
		c-0.8-5,0.3-10.1,3.5-14.5L313.1,39.3c6.3-8.7,18.5-10.7,27.2-4.4c4.4,3.2,7.1,7.7,7.9,12.7s-0.3,10.1-3.5,14.5l-51.5,71.5l0.3,0.2
		c-1.3,3-1.6,6.1-1.1,9.2c0.7,4.1,2.9,8.1,6.7,10.8c6.4,4.6,15.1,4,20.8-1.1l0.3,0.2l10.7-14.9c4-5.6,11.8-6.8,17.3-2.8
		c2.8,2,4.4,5,5,8.1c0.5,3.1-0.1,6.5-2.1,9.2L332.6,178l0.1,0.1c-0.9,1.8-1.2,3.9-0.9,5.9c0.4,2.5,1.8,5,4,6.5
		c4,2.9,9.5,2.4,12.9-0.9l0.1,0.1l57.8-80.1C413,100.9,425.2,99,433.9,105.3z"/>
</g>
<g id="Capa_1">
	<rect x="283.6" y="190.5" class="st0" width="41" height="41"/>
</g>
<g id="Capa_3">
	<circle class="st1" cx="316.5" cy="454.5" r="10.5"/>
	<g>
		<g>
			<polygon class="st0" points="105.8,334.1 306.2,334.1 306.2,218.1 235.6,218.1 105.8,218.1 			"/>
			<g>
				<path class="st2" d="M306.2,334.1H105.8v-116h129.8h70.5V334.1L306.2,334.1z M322,212.8c0-5.8-4.7-10.5-10.5-10.5H100.5
					c-5.8,0-10.5,4.7-10.5,10.5v137.1h232V212.8L322,212.8z"/>
				<path class="st2" d="M322,349.9H90H76.3v10.5c0,5.8,4.7,10.5,10.5,10.5l82.8,0H206h36.4l82.8,0c5.8,0,10.5-4.7,10.5-10.5v-10.5
					H322z"/>
			</g>
			<circle class="st3" cx="113.2" cy="410.4" r="15.8"/>
			<circle class="st4" cx="206" cy="445.9" r="15.8"/>
			<circle class="st2" cx="298.8" cy="410.4" r="15.8"/>
		</g>
		<path class="st5" d="M295.2,212.8H94.8c-2.9,0-5.3,2.4-5.3,5.3v116c0,2.9,2.4,5.3,5.3,5.3h200.4c2.9,0,5.3-2.4,5.3-5.3v-116
			C300.5,215.2,298.1,212.8,295.2,212.8z M289.9,328.8H100.1V223.4h189.8V328.8z"/>
		<path class="st5" d="M324.7,344.7h-8.4V212.8c0-8.7-7.1-15.8-15.8-15.8H89.5c-8.7,0-15.8,7.1-15.8,15.8v131.8h-8.4
			c-2.9,0-5.3,2.4-5.3,5.3v10.5c0,8.7,7.1,15.8,15.8,15.8h77.5v28.9h-30.7c-2.3-9.1-10.6-15.8-20.4-15.8c-11.6,0-21.1,9.5-21.1,21.1
			c0,11.6,9.5,21.1,21.1,21.1c9.8,0,18.1-6.7,20.4-15.8h36c2.9,0,5.3-2.4,5.3-5.3v-34.1h25.8v49.2c-9.1,2.3-15.8,10.6-15.8,20.4
			c0,11.6,9.5,21.1,21.1,21.1s21.1-9.5,21.1-21.1c0-9.8-6.7-18.1-15.8-20.4v-49.2h25.8v34.1c0,2.9,2.4,5.3,5.3,5.3h36
			c2.3,9.1,10.6,15.8,20.4,15.8c11.6,0,21.1-9.5,21.1-21.1c0-11.6-9.5-21.1-21.1-21.1c-9.8,0-18.1,6.7-20.4,15.8h-30.7v-28.9h77.5
			c8.7,0,15.8-7.1,15.8-15.8v-10.5C330,347,327.6,344.7,324.7,344.7z M84.3,212.8c0-2.9,2.4-5.3,5.3-5.3h210.9
			c2.9,0,5.3,2.4,5.3,5.3v131.8H84.3V212.8z M102.2,421c-5.8,0-10.5-4.7-10.5-10.5c0-5.8,4.7-10.5,10.5-10.5s10.5,4.7,10.5,10.5
			C112.7,416.2,108,421,102.2,421z M205.5,445.9c0,5.8-4.7,10.5-10.5,10.5s-10.5-4.7-10.5-10.5c0-5.8,4.7-10.5,10.5-10.5
			C200.8,435.4,205.5,440.1,205.5,445.9z M287.8,399.9c5.8,0,10.5,4.7,10.5,10.5c0,5.8-4.7,10.5-10.5,10.5s-10.5-4.7-10.5-10.5
			S282,399.9,287.8,399.9z M319.5,360.5c0,2.9-2.4,5.3-5.3,5.3h-82.8c0,0,0,0,0,0c0,0,0,0,0,0H195c0,0,0,0,0,0c0,0,0,0,0,0h-36.3
			c0,0,0,0,0,0c0,0,0,0,0,0H75.8c-2.9,0-5.3-2.4-5.3-5.3v-5.3h248.9V360.5z"/>
		<path class="st5" d="M115.1,283.9c2.9,0,5.3-2.4,5.3-5.3v-0.3c0-2.9-2.4-5.3-5.3-5.3c-2.9,0-5.3,2.4-5.3,5.3v0.3
			C109.8,281.5,112.2,283.9,115.1,283.9z"/>
		<path class="st5" d="M115.1,321.1c2.9,0,5.3-2.4,5.3-5.3v-21.9c0-2.9-2.4-5.3-5.3-5.3c-2.9,0-5.3,2.4-5.3,5.3v21.9
			C109.8,318.7,112.2,321.1,115.1,321.1z"/>
		<path class="st5" d="M276.7,264.5c2.9,0,5.3-2.4,5.3-5.3v-21.9c0-2.9-2.4-5.3-5.3-5.3c-2.9,0-5.3,2.4-5.3,5.3v21.9
			C271.5,262.1,273.8,264.5,276.7,264.5z"/>
		<path class="st5" d="M276.7,280.1c2.9,0,5.3-2.4,5.3-5.3v-0.3c0-2.9-2.4-5.3-5.3-5.3c-2.9,0-5.3,2.4-5.3,5.3v0.3
			C271.5,277.7,273.8,280.1,276.7,280.1z"/>
		<rect x="192.5" y="152.1" class="st6" width="263.3" height="161.5"/>
		<rect x="192.5" y="111.8" class="st3" width="263.3" height="40.4"/>
		<g>
			<path class="st5" d="M455.8,319c3,0,5.5-2.4,5.5-5.5V111.8c0-3-2.4-5.5-5.5-5.5H192.5c-3,0-5.5,2.4-5.5,5.5v201.7
				c0,3,2.4,5.5,5.5,5.5H455.8z M450.3,227.3h-54.9v-29.4h54.9V227.3z M197.9,197.9h54.9v29.4h-54.9V197.9z M384.5,157.7V187h-54.9
				v-29.3H384.5z M318.6,157.7V187h-54.9v-29.3H318.6z M263.7,197.9h54.9v29.4h-54.9V197.9z M329.6,197.9h54.9v29.4h-54.9V197.9z
				 M395.4,187v-29.3h54.9V187H395.4z M252.8,157.7V187h-54.9v-29.3H252.8z M197.9,238.3h54.9v29.4h-54.9V238.3z M263.7,238.3h54.9
				v29.4h-54.9V238.3z M329.6,238.3h54.9v29.4h-54.9V238.3z M395.4,238.3h54.9v29.4h-54.9V238.3z M197.9,146.6v-29.3h252.4v29.3
				H197.9z M197.9,278.6h54.9v29.4h-54.9V278.6z M263.7,278.6h54.9v29.4h-54.9V278.6z M329.6,278.6h54.9v29.4h-54.9V278.6z
				 M450.3,308.1h-54.9v-29.4h54.9V308.1z"/>
			<path class="st5" d="M301.2,134.4H406c3,0,5.5-2.4,5.5-5.5c0-3-2.4-5.5-5.5-5.5H301.2c-3,0-5.5,2.4-5.5,5.5
				C295.7,131.9,298.1,134.4,301.2,134.4z"/>
			<path class="st5" d="M425.2,134.4h12c3,0,5.5-2.4,5.5-5.5c0-3-2.4-5.5-5.5-5.5h-12c-3,0-5.5,2.4-5.5,5.5
				C419.7,131.9,422.1,134.4,425.2,134.4z"/>
		</g>
	</g>
	<g id="Ilustración_2_1_">
		<g>
			<defs>
				<rect id="SVGID_1_" x="408" y="360" width="30" height="30"/>
			</defs>
			<clipPath id="SVGID_2_">
				<use xlink:href="#SVGID_1_"  style="overflow:visible;"/>
			</clipPath>
			<g class="st7">
				<defs>
					<rect id="SVGID_3_" x="408" y="360" width="30" height="30"/>
				</defs>
				<clipPath id="SVGID_4_">
					<use xlink:href="#SVGID_3_"  style="overflow:visible;"/>
				</clipPath>
				<path class="st8" d="M438,375c0,1.1-0.4,2.1-1.2,2.8c-0.7,0.7-1.7,1.2-2.8,1.2h-7v7c0,2.2-1.8,4-4,4s-4-1.8-4-4v-7h-7
					c-2.2,0-4-1.8-4-4c0-2.2,1.8-4,4-4h7v-7c0-2.2,1.8-4,4-4c1.1,0,2.1,0.5,2.8,1.2c0.7,0.7,1.2,1.7,1.2,2.8v7h7
					C436.2,371,438,372.8,438,375"/>
			</g>
		</g>
	</g>
	<g id="Ilustración_8_1_">
		<g>
			<defs>
				<rect id="SVGID_5_" x="78" y="84" width="33" height="33.2"/>
			</defs>
			<clipPath id="SVGID_6_">
				<use xlink:href="#SVGID_5_"  style="overflow:visible;"/>
			</clipPath>
			<g class="st9">
				<defs>
					<rect id="SVGID_7_" x="78" y="84" width="33" height="33.2"/>
				</defs>
				<clipPath id="SVGID_8_">
					<use xlink:href="#SVGID_7_"  style="overflow:visible;"/>
				</clipPath>
				<path class="st10" d="M103.5,111c-0.3,0.3-0.6,0.5-0.9,0.7c-5.7,4.1-13.6,3.2-18.3-2.2c-4.9-5.7-4.2-14.3,1.5-19.2
					c5.7-4.9,14.3-4.2,19.2,1.5c1.5,1.8,2.5,3.9,3,6"/>
			</g>
		</g>
	</g>
	<g id="Ilustración_4_1_">
		<g>
			<defs>
				<rect id="SVGID_9_" x="241" y="23" width="30" height="30"/>
			</defs>
			<clipPath id="SVGID_10_">
				<use xlink:href="#SVGID_9_"  style="overflow:visible;"/>
			</clipPath>
			<g class="st11">
				<defs>
					<rect id="SVGID_11_" x="241" y="23" width="30" height="30"/>
				</defs>
				<clipPath id="SVGID_12_">
					<use xlink:href="#SVGID_11_"  style="overflow:visible;"/>
				</clipPath>
				<path class="st12" d="M271,38c0,2.2-1.8,4-4,4h-7v7c0,1.1-0.5,2.1-1.2,2.8c-0.7,0.7-1.7,1.2-2.8,1.2c-2.2,0-4-1.8-4-4v-7h-7
					c-1.1,0-2.1-0.5-2.8-1.2c-0.7-0.7-1.2-1.7-1.2-2.8c0-2.2,1.8-4,4-4h7v-7c0-2.2,1.8-4,4-4s4,1.8,4,4v7h7
					C269.2,34,271,35.8,271,38"/>
			</g>
		</g>
	</g>
</g>
</svg>
