<?xml version="1.0" encoding="utf-8"?>
<!-- Generator: Adobe Illustrator 21.0.2, SVG Export Plug-In . SVG Version: 6.00 Build 0)  -->
<svg version="1.1" id="Capa_1" xmlns="http://www.w3.org/2000/svg" xmlns:xlink="http://www.w3.org/1999/xlink" x="0px" y="0px"
	 viewBox="0 0 512 512" style="enable-background:new 0 0 512 512;" xml:space="preserve">
<style type="text/css">
	.st0{fill:#656565;fill-opacity:0.168;}
	.st1{fill:#DCDDE0;stroke:#979797;}
	.st2{fill:#EEEEEE;}
	.st3{fill:#EEEEEE;stroke:#979797;}
	.st4{fill:#DCDDE0;stroke:#949495;}
	.st5{fill:#BCBDC1;stroke:#979797;}
	.st6{fill:none;stroke:#FFFFFF;stroke-width:2;stroke-linecap:round;}
	.st7{fill:none;stroke:#979797;stroke-linecap:round;}
	.st8{fill:#979797;}
	.st9{fill:none;stroke:#979797;stroke-width:2;stroke-linecap:round;}
	.st10{fill:none;stroke:#979797;stroke-width:2;stroke-linecap:round;stroke-dasharray:3.9767,3.9767;}
</style>
<g transform="translate(1 -18)">
	<ellipse class="st0" cx="382.8" cy="375.4" rx="76.8" ry="14.2"/>
	<ellipse class="st1" cx="283.4" cy="391.3" rx="137.8" ry="31.7"/>
	<ellipse class="st2" cx="284.3" cy="391.3" rx="80.2" ry="11.7"/>
	<g transform="rotate(30 42.05 164.81)">
		
			<ellipse transform="matrix(2.729302e-06 1 -1 2.729302e-06 340.7614 -408.3065)" class="st3" cx="374.5" cy="-33.8" rx="6.7" ry="6.7"/>
		<path class="st4" d="M479.8,73c0-57.1-46.4-103.5-103.6-103.5C319-30.4,272.6,15.9,272.6,73S479.8,130.2,479.8,73z"/>
		<path class="st5" d="M377,111.4c53.1,0,96.1-16,96.1-31.7s-43-28.4-96.1-28.4c-53.1,0-97.4,12.7-97.4,28.4S324,111.4,377,111.4
			L377,111.4z"/>
	</g>
	<path class="st6" d="M297.6,197.2c0,0,21.6-36.2,75.1-42.4"/>
	<path class="st7" d="M234.1,384.6l4.2-2.5 M239.1,396.3l5.8,2.5 M220.8,389.7h5.8"/>
	<ellipse class="st8" cx="215.8" cy="390.4" rx="1.7" ry="0.8"/>
	<ellipse class="st8" cx="219.1" cy="393.8" rx="1.7" ry="0.8"/>
	<ellipse class="st8" cx="332.7" cy="392.1" rx="1.7" ry="0.8"/>
	<ellipse class="st8" cx="230.8" cy="390.4" rx="1.7" ry="0.8"/>
	<ellipse class="st8" cx="344.4" cy="388.8" rx="1.7" ry="0.8"/>
	<path class="st0" d="M379.9,387.6c13.8,0,26.7-1,38.8-1.8c-9.1-18.3-112.7-30.8-132.2-25.7c-11.3,2.9-15.6,5-15.6,8.8
		C270.9,379.2,319.7,387.6,379.9,387.6L379.9,387.6z"/>
</g>
<g>
	<g>
		<path class="st9" d="M306.7,356.6c-0.1-0.5-0.2-1.1-0.3-2"/>
		<path class="st10" d="M305.6,350.7C300.4,324.9,276.5,233,190,191.8c-5-2.4-84-45.6-111.6-17.2c-13.9,14.4-14.7,47,3.4,65.2
			c15.4,15.5,43.6,19.7,58.4,6.9c13.5-11.7,11.1-33.7,10.3-41.2c-6-54.9-72.2-88.6-92.5-97.9"/>
		<path class="st9" d="M56.2,106.8c-0.7-0.3-1.3-0.6-1.8-0.8"/>
	</g>
</g>
<path class="st4" d="M38.1,99.3c4.2,0.4,7.4,1.9,7.1,3.4s-3.9,2.3-8.1,1.9c-4.2-0.4-7.4-1.9-7.1-3.4C30.3,99.8,33.9,98.9,38.1,99.3z
	"/>
<path class="st4" d="M51.8,92.7c-2.3,3.6-3.1,7-1.8,7.7c1.3,0.7,4.2-1.7,6.5-5.2c2.3-3.6,3.1-7,1.8-7.7C57,86.8,54.1,89.1,51.8,92.7
	z"/>
<ellipse transform="matrix(0.899 -0.438 0.438 0.899 -39.8675 31.5244)" class="st5" cx="48.4" cy="102.2" rx="5.1" ry="5.1"/>
</svg>
