<?xml version="1.0" encoding="utf-8"?>
<!-- Generator: Adobe Illustrator 21.0.2, SVG Export Plug-In . SVG Version: 6.00 Build 0)  -->
<svg version="1.1" xmlns="http://www.w3.org/2000/svg" xmlns:xlink="http://www.w3.org/1999/xlink" x="0px" y="0px"
	 viewBox="0 0 512 512" style="enable-background:new 0 0 512 512;" xml:space="preserve">
<style type="text/css">
	.st0{opacity:0.76;}
	.st1{fill:#EF9D75;}
	.st2{fill:#88C9FF;}
	.st3{fill:#51565F;}
	.st4{fill:#CAD0D8;}
	.st5{fill:#F9ECDE;}
	.st6{fill:#EDEDEF;stroke:#EF9D75;stroke-width:4;stroke-linecap:round;stroke-miterlimit:10;}
	.st7{fill:#3B9DFF;}
	.st8{fill:none;stroke:#51565F;stroke-width:6;stroke-miterlimit:10;}
</style>
<g id="Capa_1">
	<g id="Capa_2_1_" class="st0">
		<path class="st1" d="M188.9,103l-66.4,92.1c-6.5,9-19.1,11.1-28.1,4.6l0,0c-9-6.5-11.1-19.1-4.6-28.1l66.4-92.1
			c6.5-9,19.1-11.1,28.1-4.6l0,0C193.4,81.5,195.4,94,188.9,103z"/>
		<path class="st1" d="M113.8,415.6l-20.1,27.8c-4,5.6-11.8,6.8-17.3,2.8l0,0c-5.6-4-6.8-11.8-2.8-17.3l20.1-27.8
			c4-5.6,11.8-6.8,17.3-2.8l0,0C116.5,402.2,117.8,410,113.8,415.6z"/>
		<path class="st1" d="M384.9,107.3c4.4,3.2,7.1,7.7,7.9,12.7s-0.3,10.1-3.5,14.5l-50.1,69.6l1,0.7l-14.5,20.1
			c-2.7,3.7-3.6,8.2-2.9,12.3s2.9,8.1,6.7,10.8c7.4,5.3,17.8,3.6,23.1-3.7l14.5-20.1l1,0.7l19.4-26.9c5.7-8,16.8-9.8,24.8-4
			c3.9,2.8,6.4,7.1,7.1,11.6s-0.3,9.3-3.1,13.2L275.7,413.5c-5.7,8-16.8,9.8-24.8,4c-3.9-2.8-6.4-7.1-7.1-11.6s0.3-9.3,3.1-13.2
			l7.6-10.6l-1-0.7l6.2-8.6c2.7-3.7,3.6-8.2,2.9-12.3c-0.7-4.1-2.9-8.1-6.7-10.8c-7.4-5.3-17.8-3.6-23.1,3.7l-6.2,8.6l-1-0.7
			L212.8,379c-6.3,8.7-18.5,10.7-27.2,4.4c-4.4-3.2-7.1-7.7-7.9-12.7c-0.8-5,0.3-10.1,3.5-14.5L203,326l0,0c1.4-2.1,1.9-4.6,1.4-7
			c-0.4-2.5-1.8-5-4-6.5c-4.3-3.1-10.3-2.3-13.7,1.8l0,0l-52.2,72.4c-4,5.6-11.8,6.8-17.3,2.8c-2.8-2-4.4-5-5-8.1
			c-0.5-3.1,0.1-6.5,2.1-9.2l48.1-66.7c2.7-3.7,3.6-8.2,2.9-12.3c-0.7-4.1-2.9-8.1-6.7-10.8c-7.4-5.3-17.8-3.6-23.1,3.7l-16.3,22.5
			c-6.3,8.7-18.5,10.7-27.2,4.4c-4.4-3.2-7.1-7.7-7.9-12.7c-0.8-5,0.3-10.1,3.5-14.5L264.1,41.3c6.3-8.7,18.5-10.7,27.2-4.4
			c4.4,3.2,7.1,7.7,7.9,12.7s-0.3,10.1-3.5,14.5l-51.5,71.5l0.3,0.2c-1.3,3-1.6,6.1-1.1,9.2c0.7,4.1,2.9,8.1,6.7,10.8
			c6.4,4.6,15.1,4,20.8-1.1l0.3,0.2l10.7-14.9c4-5.6,11.8-6.8,17.3-2.8c2.8,2,4.4,5,5,8.1c0.5,3.1-0.1,6.5-2.1,9.2L283.6,180
			l0.1,0.1c-0.9,1.8-1.2,3.9-0.9,5.9c0.4,2.5,1.8,5,4,6.5c4,2.9,9.5,2.4,12.9-0.9l0.1,0.1l57.8-80.1
			C364,102.9,376.2,101,384.9,107.3z"/>
	</g>
	<path class="st2" d="M362,153.2c-2.1-0.5-3.6-2.3-3.6-4.5c-0.4-43-35.6-77.9-78.6-77.9c-28.6,0-55,15.6-68.9,40.6
		c-1.2,2.1-3.7,3-5.9,2c-3.9-1.7-8-2.5-12.2-2.5c-15.4,0-28.6,11.5-30.6,26.8c-0.3,2-1.8,3.6-3.7,4c-21.7,4.3-37.4,23.5-37.4,45.6
		c0,25.6,20.8,46.5,46.5,46.5H183c2.6,0,4.7,2.1,4.7,4.6v0.6h9.3c0-0.2,0-0.4,0-0.6c0-2.6,2.1-4.6,4.7-4.6h31c2.6,0,4.6,2.1,4.6,4.6
		v0.6h9.3c0-0.2,0-0.4,0-0.6c0-2.6,2.1-4.6,4.7-4.6h31c2.6,0,4.6,2.1,4.6,4.6v0.6h9.3c0-0.2,0-0.4,0-0.6c0-2.6,2.1-4.6,4.6-4.6h31
		c2.6,0,4.6,2.1,4.6,4.6v0.6h9.3c0-0.2,0-0.4,0-0.6c0-2.6,2.1-4.6,4.7-4.6h2.5c22.5,0,40.8-18.3,40.8-40.8
		C393.6,173.8,380.6,157.5,362,153.2z M327.8,115.9c-0.9,0.7-1.9,1.1-3,1.1c-1.3,0-2.7-0.6-3.6-1.7c-10.3-12.5-25.5-19.7-41.5-19.7
		c-2.6,0-4.6-2.1-4.6-4.6c0-2.6,2.1-4.6,4.6-4.6c18.9,0,36.6,8.4,48.7,23C330.1,111.3,329.8,114.2,327.8,115.9z M338.3,153.5
		L338.3,153.5c-2.6,0-4.7-2-4.7-4.6c-0.1-6.5-1.3-12.9-3.7-19c-0.9-2.4,0.2-5.1,2.6-6c2.4-0.9,5.1,0.2,6,2.6
		c2.8,7.1,4.2,14.6,4.3,22.2C343,151.4,340.9,153.5,338.3,153.5z"/>
	<g>
		<path class="st3" d="M244.1,322.5c-2.7-4.8-7.3-8.3-12.8-9.6v-74.4c0-2.6-2.1-4.6-4.6-4.6h-31c-2.6,0-4.7,2.1-4.7,4.6
			c0,0.2,0,0.4,0,0.6c0.3,2.3,2.2,4,4.6,4H222v69.8c-8.9,2.1-15.5,10.1-15.5,19.6c0,11.1,9,20.1,20.1,20.1c7.5,0,14-4.1,17.5-10.2
			c1.7-2.9,2.7-6.3,2.7-10S245.8,325.4,244.1,322.5z M226.6,343.3c-6,0-10.8-4.9-10.8-10.8c0-6,4.9-10.8,10.8-10.8
			c6,0,10.8,4.9,10.8,10.8C237.4,338.4,232.6,343.3,226.6,343.3z"/>
		<path class="st4" d="M237.4,332.4c0,6-4.9,10.8-10.8,10.8c-6,0-10.8-4.9-10.8-10.8c0-6,4.9-10.8,10.8-10.8
			C232.6,321.6,237.4,326.5,237.4,332.4z"/>
		<path class="st3" d="M280.8,312.9v-74.4c0-2.6-2.1-4.6-4.6-4.6h-31c-2.6,0-4.7,2.1-4.7,4.6c0,0.2,0,0.4,0,0.6c0.3,2.3,2.2,4,4.6,4
			h26.3v69.8c-8.9,2.1-15.5,10.1-15.5,19.6c0,11.1,9,20.1,20.1,20.1c11.1,0,20.1-9,20.1-20.1C296.2,322.9,289.6,315,280.8,312.9z
			 M276.1,343.3c-6,0-10.8-4.9-10.8-10.8c0-6,4.9-10.8,10.8-10.8c6,0,10.8,4.9,10.8,10.8C287,338.4,282.1,343.3,276.1,343.3z"/>
		<path class="st3" d="M359.7,281.3c-9.5,0-17.5,6.6-19.6,15.5h-9.8v-58.4c0-2.6-2.1-4.6-4.6-4.6h-31c-2.6,0-4.6,2.1-4.6,4.6
			c0,0.2,0,0.4,0,0.6c0.3,2.3,2.2,4,4.6,4H321v58.4c0,2.6,2.1,4.7,4.7,4.7h14.5c2.1,8.9,10.1,15.5,19.6,15.5
			c11.1,0,20.1-9,20.1-20.1C379.8,290.4,370.8,281.3,359.7,281.3z M359.7,312.3c-6,0-10.8-4.9-10.8-10.8c0-6,4.9-10.8,10.8-10.8
			c6,0,10.8,4.9,10.8,10.8C370.6,307.4,365.7,312.3,359.7,312.3z"/>
		<path class="st3" d="M385.8,161.6c-6.3-7.8-14.8-13.5-24.2-16.5c-1.1-22-10.2-42.5-25.9-58.1c-16.6-16.4-38.5-25.5-61.9-25.5
			c-30.6,0-59,16-75,42c-3.9-1.2-7.9-1.8-12-1.8c-19,0-35.3,13.4-39.2,31.6c-24.4,6.3-41.7,28.5-41.7,54c0,23.4,14.5,43.5,35,51.8
			c6.4,2.6,13.4,4,20.8,4h10.8v53.8h-9.8c-2.1-8.9-10.1-15.5-19.6-15.5c-11.1,0-20.1,9-20.1,20.1c0,11.1,9,20.1,20.1,20.1
			c9.5,0,17.5-6.6,19.6-15.5H177c2.6,0,4.7-2.1,4.7-4.7v-63c0-2.6-2.1-4.6-4.7-4.6h-15.4c-25.6,0-46.5-20.9-46.5-46.5
			c0-22.1,15.7-41.3,37.4-45.6c1.9-0.4,3.4-2,3.7-4c2-15.3,15.1-26.8,30.6-26.8c1,0,2,0,3,0.2c3.2,0.3,6.3,1.1,9.2,2.4
			c1.6,0.7,3.3,0.4,4.6-0.5c0.5-0.4,0.9-0.9,1.3-1.5c13.9-25.1,40.2-40.7,68.9-40.7c1,0,2,0,3,0.1c41.6,1.6,75.3,35.9,75.7,77.8
			c0,2.1,1.5,4,3.6,4.5c18.6,4.3,31.6,20.6,31.6,39.8c0,13.8-6.9,26-17.4,33.4c-1.6,1.1-3.3,2.2-5.1,3.1c0,0-0.1,0-0.1,0
			c-1.7,0.8-3.4,1.6-5.2,2.2c-1.3,0.4-2.6,0.8-4,1.1c-0.6,0.1-1.3,0.3-2,0.4c-1.3,0.2-2.6,0.4-4,0.5c-1,0.1-2,0.1-3.1,0.1h-2.5
			c-2.6,0-4.7,2.1-4.7,4.6c0,0.2,0,0.4,0,0.6c0.3,2.3,2.2,4,4.6,4h2.5c1,0,2.1,0,3.1-0.1c1.3-0.1,2.7-0.2,4-0.4
			c0.7-0.1,1.3-0.2,2-0.3c1.3-0.2,2.7-0.5,4-0.9c2.3-0.6,4.5-1.4,6.7-2.3c1.8-0.8,3.5-1.6,5.2-2.6c0,0,0.1,0,0.1,0
			c1.7-1,3.4-2.1,5-3.3c12.2-9.1,20.2-23.7,20.2-40.2C396.9,181.6,393,170.4,385.8,161.6z M143,312.3c-6,0-10.8-4.9-10.8-10.8
			c0-6,4.9-10.8,10.8-10.8c6,0,10.8,4.9,10.8,10.8C153.8,307.5,149,312.3,143,312.3z"/>
		<path class="st1" d="M153.8,301.5c0,6-4.9,10.8-10.8,10.8c-6,0-10.8-4.9-10.8-10.8c0-6,4.9-10.8,10.8-10.8
			C149,290.6,153.8,295.5,153.8,301.5z"/>
		<path class="st3" d="M336.9,148.8c0,2.6-2,4.7-4.6,4.7h0c-2.5,0-4.6-2-4.6-4.6c-0.1-6.5-1.3-12.9-3.7-19c-0.9-2.4,0.2-5.1,2.6-6
			c2.4-0.9,5.1,0.2,6,2.6C335.4,133.7,336.9,141.2,336.9,148.8z"/>
		<path class="st3" d="M321.8,115.9c-0.9,0.7-1.9,1.1-3,1.1c-1.3,0-2.7-0.6-3.6-1.7c-10.3-12.5-25.5-19.7-41.5-19.7
			c-2.6,0-4.6-2.1-4.6-4.6c0-2.6,2.1-4.6,4.6-4.6c18.9,0,36.6,8.4,48.7,23C324.1,111.3,323.8,114.2,321.8,115.9z"/>
	</g>
</g>
<g id="Capa_2">
	<path class="st5" d="M356.8,268.2c-1.6,0-3-1.3-3-3v-45.6h-91c-4.9,0-8.9,4-8.9,8.9V396c0,4.9,4,8.9,8.9,8.9h129.4
		c4.9,0,8.9-4,8.9-8.9V268.2H356.8z M355.1,318.3c-0.6,0.6-1.3,0.9-2.1,0.9c-0.8,0-1.5-0.3-2.1-0.9l-20.5-20.5v59.6c0,1.6-1.3,3-3,3
		s-3-1.3-3-3l0-59.6l-20.5,20.5c-1.2,1.2-3,1.2-4.2,0c-1.2-1.2-1.2-3,0-4.2l25.5-25.5h0c0.1-0.1,0.2-0.2,0.4-0.3
		c0.3-0.2,0.7-0.4,1.1-0.5c0.2,0,0.4-0.1,0.6-0.1c0,0,0,0,0,0c0.2,0,0.4,0,0.6,0.1c0.2,0,0.4,0.1,0.5,0.2c0.1,0,0.2,0.1,0.3,0.1
		c0.1,0,0.2,0.1,0.2,0.2c0.1,0,0.2,0.1,0.2,0.2c0.1,0.1,0.2,0.1,0.2,0.2l0.1,0.1l25.4,25.4C356.3,315.3,356.3,317.2,355.1,318.3z"/>
	<polygon class="st5" points="397,262.3 359.7,262.3 359.7,224 	"/>
	<g>
		<g>
			<path class="st1" d="M326.5,186.3v66.7c0,1.6-1.3,3-3,3s-3-1.3-3-3l0-59.6v-7.1c0-0.8,0.3-1.6,0.9-2.1c0.1-0.1,0.2-0.2,0.4-0.3
				c0.3-0.2,0.7-0.4,1.1-0.5c0.2,0,0.4-0.1,0.6-0.1c0,0,0,0,0,0c0.2,0,0.4,0,0.6,0.1c0.2,0,0.4,0.1,0.5,0.2c0.1,0,0.2,0.1,0.3,0.1
				c0.1,0,0.2,0.1,0.2,0.2c0.1,0,0.2,0.1,0.2,0.2c0.1,0.1,0.2,0.1,0.2,0.2l0.1,0.1C326.2,184.9,326.5,185.5,326.5,186.3z"/>
			<path class="st1" d="M351.1,213.9c-0.6,0.6-1.3,0.9-2.1,0.9c-0.8,0-1.5-0.3-2.1-0.9l-20.5-20.5l-3-3l-3,2.9l-20.5,20.5
				c-1.2,1.2-3,1.2-4.2,0c-1.2-1.2-1.2-3,0-4.2l25.5-25.5h0c0.1-0.1,0.2-0.2,0.4-0.3c0.3-0.2,0.7-0.4,1.1-0.5c0.2,0,0.4-0.1,0.6-0.1
				c0,0,0,0,0,0c0.2,0,0.4,0,0.6,0.1c0.2,0,0.4,0.1,0.5,0.2c0.1,0,0.2,0.1,0.3,0.1c0.1,0,0.2,0.1,0.2,0.2c0.1,0,0.2,0.1,0.2,0.2
				c0.1,0.1,0.2,0.1,0.2,0.2l0.1,0.1l25.4,25.4C352.3,210.9,352.3,212.8,351.1,213.9z"/>
		</g>
		<g>
			<path class="st3" d="M326.5,286.8v66.7c0,1.6-1.3,3-3,3s-3-1.3-3-3l0-59.6v-7.1c0-0.8,0.3-1.6,0.9-2.1c0.1-0.1,0.2-0.2,0.4-0.3
				c0.3-0.2,0.7-0.4,1.1-0.5c0.2,0,0.4-0.1,0.6-0.1c0,0,0,0,0,0c0.2,0,0.4,0,0.6,0.1c0.2,0,0.4,0.1,0.5,0.2c0.1,0,0.2,0.1,0.3,0.1
				c0.1,0,0.2,0.1,0.2,0.2c0.1,0,0.2,0.1,0.2,0.2c0.1,0.1,0.2,0.1,0.2,0.2l0.1,0.1C326.2,285.3,326.5,286,326.5,286.8z"/>
			<path class="st3" d="M351.2,314.4c-0.6,0.6-1.3,0.9-2.1,0.9c-0.8,0-1.5-0.3-2.1-0.9l-20.5-20.5l-3-3l-3,2.9l-20.5,20.5
				c-1.2,1.2-3,1.2-4.2,0c-1.2-1.2-1.2-3,0-4.2l25.5-25.5h0c0.1-0.1,0.2-0.2,0.4-0.3c0.3-0.2,0.7-0.4,1.1-0.5c0.2,0,0.4-0.1,0.6-0.1
				c0,0,0,0,0,0c0.2,0,0.4,0,0.6,0.1c0.2,0,0.4,0.1,0.5,0.2c0.1,0,0.2,0.1,0.3,0.1c0.1,0,0.2,0.1,0.2,0.2c0.1,0,0.2,0.1,0.2,0.2
				c0.1,0.1,0.2,0.1,0.2,0.2l0.1,0.1l25.4,25.4C352.3,311.4,352.3,313.3,351.2,314.4z"/>
		</g>
		<g>
			<path class="st3" d="M403,261.3V392c0,8.2-6.6,14.8-14.8,14.8H258.9c-8.2,0-14.8-6.6-14.8-14.8V224.6c0-6,3.6-11.2,8.8-13.5
				c1.8-0.8,3.9-1.3,6-1.3h94c0.2,0,0.3,0,0.5,0c0.3,0,0.6,0.2,0.9,0.3c0.1,0.1,0.3,0.2,0.4,0.2c0.1,0.1,0.2,0.2,0.3,0.3l0.2,0.2
				c0,0.1,0.1,0.1,0.2,0.2c0.3,0.5,0.5,1.1,0.5,1.7c0,0.2,0,0.4-0.1,0.6c-0.3,1.3-1.5,2.3-2.9,2.3h-94c-4.9,0-8.9,4-8.9,8.9V392
				c0,4.9,4,8.9,8.9,8.9h129.4c4.9,0,8.9-4,8.9-8.9V261.3c0-1.6,1.3-3,3-3c0.4,0,0.8,0.1,1.1,0.2c0.4,0.1,0.7,0.4,0.9,0.6l0,0
				c0.1,0.1,0.1,0.1,0.2,0.2c0,0,0.1,0.1,0.1,0.1c0.1,0.1,0.2,0.3,0.2,0.4c0,0.1,0.1,0.2,0.1,0.3c0,0.1,0.1,0.2,0.1,0.3
				c0,0.2,0.1,0.3,0.1,0.5C403,261.1,403,261.2,403,261.3z"/>
			<path class="st3" d="M403,261.3L403,261.3c0,0.1,0,0.2,0,0.3c0,0.1,0,0.2,0,0.3c0,0.2-0.1,0.3-0.1,0.5c0,0.1-0.1,0.2-0.1,0.2
				c0,0,0,0.1-0.1,0.1c-0.1,0.1-0.1,0.2-0.2,0.3c-0.1,0.1-0.2,0.2-0.3,0.4c-0.1,0.1-0.1,0.1-0.2,0.2c-0.1,0.1-0.1,0.1-0.2,0.2
				c-0.1,0.1-0.2,0.1-0.2,0.1c-0.4,0.2-0.9,0.4-1.4,0.4h-47.2c-1.6,0-3-1.3-3-3v-47.3c0-0.2,0-0.4,0.1-0.6c0.3-1.3,1.5-2.3,2.9-2.3
				c1.4,0,2.6,1,2.9,2.3c0,0.2,0.1,0.4,0.1,0.6v44.3h44.3c0.4,0,0.8,0.1,1.1,0.2c0.2,0.1,0.3,0.2,0.5,0.3c0,0,0,0,0,0
				c0.1,0,0.2,0.1,0.2,0.2c0,0,0.1,0.1,0.1,0.1l0.1,0.1l0,0c0.1,0.1,0.2,0.2,0.3,0.3c0.1,0.1,0.2,0.3,0.2,0.4c0,0.1,0.1,0.2,0.1,0.3
				c0,0.1,0.1,0.2,0.1,0.3c0,0.2,0.1,0.3,0.1,0.5C403,261.1,403,261.2,403,261.3z"/>
			<path class="st3" d="M403,261.3L403,261.3c0,0.1,0,0.2,0,0.3c0,0.1,0,0.2,0,0.3c0,0.2-0.1,0.3-0.1,0.5c0,0.1-0.1,0.2-0.1,0.2
				c0,0,0,0.1-0.1,0.1c-0.1,0.1-0.1,0.2-0.2,0.3c-0.1,0.1-0.2,0.2-0.3,0.4c0,0,0,0,0,0c-0.1,0.1-0.1,0.1-0.2,0.1
				c-0.1,0.1-0.1,0.1-0.2,0.2c-0.1,0.1-0.2,0.1-0.2,0.1c-0.4,0.2-0.9,0.4-1.4,0.4c-0.8,0-1.5-0.3-2.1-0.9l-0.8-0.9l-4.1-4.2
				l-37.3-38.3l-4.2-4.3l-0.9-0.9c-0.4-0.4-0.7-0.9-0.8-1.4c-0.2-0.8,0-1.6,0.5-2.3c0.1-0.1,0.2-0.3,0.4-0.4
				c0.6-0.6,1.3-0.8,2.1-0.8c0.1,0,0.2,0,0.2,0c0.1,0,0.2,0,0.2,0c0.1,0,0.2,0,0.4,0.1c0,0,0.1,0,0.1,0c0.1,0,0.3,0.1,0.4,0.2
				c0.1,0.1,0.2,0.1,0.2,0.2c0.1,0,0.2,0.1,0.2,0.2c0.1,0.1,0.2,0.1,0.2,0.2l0.2,0.2l0.2,0.2l46.7,48l0.1,0.1l0,0
				c0.1,0.1,0.2,0.2,0.3,0.3c0.1,0.1,0.2,0.3,0.2,0.4c0,0.1,0.1,0.2,0.1,0.3c0,0.1,0.1,0.2,0.1,0.3c0,0.2,0.1,0.3,0.1,0.5
				C403,261.1,403,261.2,403,261.3z"/>
		</g>
	</g>
</g>
<g id="Capa_3">
	<path class="st3" d="M426.6,68.6c-1.6,1.6-4.1,1.6-5.7,0l-4.9-4.9l-4.9,4.9c-0.8,0.8-1.8,1.1-2.8,1.1s-2.1-0.4-2.8-1.1
		c-1.6-1.6-1.6-4.1,0-5.7l4.9-4.9l-4.9-4.9c-0.8-0.8-1.1-1.8-1.1-2.8s0.4-2.1,1.1-2.8c1.6-1.6,4.1-1.6,5.7,0l4.9,4.9l4.9-4.9
		c1.6-1.6,4.1-1.6,5.7,0s1.6,4.1,0,5.7l-4.9,4.9l4.9,4.9C428.2,64.5,428.2,67.1,426.6,68.6z"/>
	<path class="st6" d="M450.4,472.5c-0.3,0.3-0.6,0.5-0.9,0.7c-5.7,4.1-13.6,3.2-18.3-2.2c-4.9-5.7-4.2-14.3,1.5-19.2
		c5.7-4.9,14.3-4.2,19.2,1.5c1.5,1.8,2.5,3.9,3,6"/>
	<path class="st2" d="M61.5,89.5c-2.9,0-5.2-2.3-5.2-5.2V75H47c-1.4,0-2.8-0.7-3.8-1.4c-1-1-1.4-2.3-1.4-3.8c0-2.9,2.3-5.2,5.2-5.2
		h9.3v-9.3c0-1.4,0.7-2.8,1.4-3.8c1-1,2.3-1.4,3.8-1.4c2.9,0,5.2,2.3,5.2,5.2v9.3H76c2.9,0,5.2,2.3,5.2,5.2S78.9,75,76,75h-9.3v9.3
		C66.8,87.1,64.4,89.5,61.5,89.5z"/>
	<path class="st7" d="M447.6,257.6c-2.1,0-3.8-1.7-3.8-3.8V247H437c-1,0-2-0.5-2.8-1c-0.7-0.7-1-1.7-1-2.8c0-2.1,1.7-3.8,3.8-3.8
		h6.8v-6.8c0-1,0.5-2,1-2.8c0.7-0.7,1.7-1,2.8-1c2.1,0,3.8,1.7,3.8,3.8v6.8h6.8c2.1,0,3.8,1.7,3.8,3.8c0,2.1-1.7,3.8-3.8,3.8h-6.8
		v6.8C451.5,255.8,449.7,257.6,447.6,257.6z"/>
	<path class="st1" d="M370.2,381.3c-1-1-1-2.7,0-3.7l3.3-3.3l-3.3-3.3c-0.5-0.5-0.7-1.2-0.8-1.9c0-0.7,0.3-1.3,0.8-1.9
		c1-1,2.7-1,3.7,0l3.3,3.3l3.3-3.3c0.5-0.5,1.2-0.7,1.9-0.8c0.7,0,1.3,0.3,1.9,0.8c1,1,1,2.7,0,3.7l-3.3,3.3l3.3,3.3
		c1,1,1,2.7,0,3.7s-2.7,1-3.7,0l-3.3-3.3l-3.3,3.3C372.9,382.3,371.2,382.3,370.2,381.3z"/>
	<g id="Capa_3_1_">
		<circle class="st8" cx="61.5" cy="374.2" r="10.5"/>
	</g>
</g>
</svg>
