<?xml version="1.0" encoding="utf-8"?>
<!-- Generator: Adobe Illustrator 21.0.2, SVG Export Plug-In . SVG Version: 6.00 Build 0)  -->
<svg version="1.1" id="Capa_1" xmlns="http://www.w3.org/2000/svg" xmlns:xlink="http://www.w3.org/1999/xlink" x="0px" y="0px"
	 viewBox="0 0 512 512" style="enable-background:new 0 0 512 512;" xml:space="preserve">
<style type="text/css">
	.st0{fill:#E5F5FC;}
	.st1{fill:#EF9D75;}
	.st2{fill:#CAD0D8;}
	.st3{fill:#51565F;}
	.st4{fill:#F2F2F2;stroke:#51565F;stroke-width:7;stroke-linecap:round;stroke-miterlimit:10;}
	.st5{fill:#EF9D75;stroke:#51565F;stroke-width:4;stroke-linecap:round;stroke-miterlimit:10;}
	.st6{fill:#E5F5FC;stroke:#51565F;stroke-width:4;stroke-linecap:round;stroke-miterlimit:10;}
	.st7{fill:#EF9D75;stroke:#51565F;stroke-width:3;stroke-linecap:round;stroke-miterlimit:10;}
	.st8{fill:#88C9FF;}
	.st9{fill:#2C2F33;}
	.st10{clip-path:url(#SVGID_2_);}
	.st11{clip-path:url(#SVGID_4_);fill:#568CE2;}
	.st12{clip-path:url(#SVGID_6_);}
	.st13{clip-path:url(#SVGID_8_);fill:#51565F;}
	.st14{clip-path:url(#SVGID_10_);}
	.st15{clip-path:url(#SVGID_12_);fill:none;stroke:#3B9DFF;stroke-width:6;stroke-miterlimit:10;}
	.st16{fill:#CAD0D8;stroke:#51565F;stroke-width:6;stroke-linecap:round;stroke-miterlimit:10;}
	.st17{fill:none;stroke:#F47027;stroke-width:6;stroke-linecap:round;stroke-miterlimit:10;}
</style>
<path class="st0" d="M384,199.5c0,4.6-1.8,8.7-4.8,11.7c-3,3-7.1,4.8-11.7,4.8H295v1h-21c-3.9,0-7.4,1.6-9.9,4.1
	c-2.5,2.5-4.1,6-4.1,9.9c0,7.7,6.3,14,14,14h21v1h28c8.3,0,15,6.7,15,15c0,4.1-1.7,7.9-4.4,10.6c-2.7,2.7-6.5,4.4-10.6,4.4H120
	c-8.3,0-15-6.7-15-15c0-4.1,1.7-7.9,4.4-10.6c2.7-2.7,6.5-4.4,10.6-4.4h11v-1h9c3.9,0,7.4-1.6,9.9-4.1c2.5-2.5,4.1-6,4.1-9.9
	c0-7.7-6.3-14-14-14h-9v-1h-18.5c-9.1,0-16.5-7.4-16.5-16.5c0-4.6,1.8-8.7,4.8-11.7c3-3,7.1-4.8,11.7-4.8H144v0
	c2.1-0.1,4.1-1,5.5-2.5c1.5-1.5,2.5-3.7,2.5-6c0-4.5-3.5-8.2-8-8.5v0H68.5c-5.8,0-10.5-4.7-10.5-10.5c0-2.9,1.2-5.5,3.1-7.4
	c1.9-1.9,4.5-3.1,7.4-3.1H138c3.9,0,7.4-1.6,9.9-4.1c2.5-2.5,4.1-6,4.1-9.9c0-7.7-6.3-14-14-14h-23.5c-9.1,0-16.5-7.4-16.5-16.5
	c0-4.6,1.8-8.7,4.8-11.7c3-3,7.1-4.8,11.7-4.8h255c9.1,0,16.5,7.4,16.5,16.5c0,4.6-1.8,8.7-4.8,11.7c-3,3-7.1,4.8-11.7,4.8H295v0.3
	c-2.7,0.6-5,1.9-6.9,3.8c-2.5,2.5-4.1,6-4.1,9.9c0,6.7,4.7,12.3,11,13.7v0.3h15.5c5.8,0,10.5,4.7,10.5,10.5c0,2.9-1.2,5.5-3.1,7.4
	c-1.9,1.9-4.5,3.1-7.4,3.1H284v0.1c-1.7,0.3-3.3,1.1-4.5,2.3c-1.5,1.5-2.5,3.7-2.5,6c0,4.2,3,7.7,7,8.4v0.1h83.5
	C376.6,183,384,190.4,384,199.5z"/>
<path class="st0" d="M239.2,354h-63.5c-9.3,0-16.8-7.5-16.8-16.8v0c0-9.3,7.5-16.8,16.8-16.8h63.5c9.3,0,16.8,7.5,16.8,16.8v0
	C256,346.5,248.5,354,239.2,354z"/>
<path class="st0" d="M475.2,118h-63.5c-9.3,0-16.8-7.5-16.8-16.8v0c0-9.3,7.5-16.8,16.8-16.8h63.5c9.3,0,16.8,7.5,16.8,16.8v0
	C492,110.5,484.5,118,475.2,118z"/>
<g transform="translate(9 1)">
	<path class="st1" d="M396.3,256l20.1,20.1c6.7,6.7,6.7,20.1,0,26.8L302.6,416.8c-6.7,6.7-20.1,6.7-26.8,0l-20.1-20.1L396.3,256z
		 M249,108.7l13.4,13.4L121.7,262.7l-13.4-13.4c-6.7-6.7-6.7-20.1,0-26.8l113.9-113.9C228.9,102,242.3,102,249,108.7z"/>
	<g>
		<path class="st2" d="M339.1,337.8c-1.7-1.7-4.7-2-6.7,0c-2,2-1.7,5,0,6.7c1.7,1.7,4.7,2,6.7,0
			C341.1,342.5,340.8,339.4,339.1,337.8L339.1,337.8z"/>
		<polygon class="st2" points="248.7,394.7 389.3,254 255.4,120.1 114.7,260.7 		"/>
	</g>
</g>
<path class="st3" d="M420.1,303.6L306.2,417.5c-7.7,7.7-22.4,7.7-30.1,0L256,397.4c-1-1-1-2.3,0-3.3l127.3-127.3c1-1,2.3-1,3.3,0
	c1,1,1,2.3,0,3.3L261,395.7l18.4,18.4c5.7,5.7,17.8,5.7,23.4,0l113.9-113.9c5.7-5.7,5.7-17.8,0-23.4L264.4,124.4L138.8,250
	c-1,1-2.3,1-3.3,0s-1-2.3,0-3.3l127.3-127.3c1-1,2.3-1,3.3,0l154.1,154.1C427.8,281.2,427.8,295.9,420.1,303.6z M349.8,347.1
	c-2.7,2.7-7.4,2.7-10,0s-2.7-7.4,0-10s7.4-2.7,10,0S352.4,344.5,349.8,347.1z M343.1,340.4c-1,1-1,2.3,0,3.3s2.3,1,3.3,0
	c1-1,1-2.3,0-3.3C345.4,339.4,344.1,339.4,343.1,340.4z M245.9,384c-1,1-2.3,1-3.3,0l-134-134c-7.7-7.7-7.7-22.4,0-30.1L222.5,106
	c7.7-7.7,22.4-7.7,30.1,0c1,1,1,2.3,0,3.3c-1,1-2.3,1-3.3,0c-5.7-5.7-17.8-5.7-23.4,0L112,223.2c-5.7,5.7-5.7,17.8,0,23.4l134,134
	C246.9,381.6,246.9,383,245.9,384z M292.8,189.7c-0.3,0.3-1,1-1.7,1h-53.6c-0.7,0-1-0.3-1.7-1c-0.7-0.7-1-1-1-1.7
	c0-1.3,1-2.3,2.3-2.3h53.6c0.7,0,1,0.3,1.7,1c0.7,0.7,1,1,1,1.7C293.5,189.1,293.2,189.4,292.8,189.7z M272.7,169.6
	c-0.3,0.3-1,1-1.7,1l-13.4,0c-0.7,0-1-0.3-1.7-1c-0.7-0.7-1-1-1-1.7c0-1.3,1-2.3,2.3-2.3h13.4c0.7,0,1,0.3,1.7,1c0.7,0.7,1,1,1,1.7
	C273.4,169,273.1,169.3,272.7,169.6z"/>
<path class="st4" d="M458.5,203.3v104.9c0,7.9-6.4,14.2-14.2,14.2H309.7c-7.9,0-14.2-6.4-14.2-14.2V147.7c0-7.9,6.4-14.2,14.2-14.2
	h134.5c7.9,0,14.2,6.4,14.2,14.2v15.9"/>
<circle class="st5" cx="376.5" cy="172.5" r="20"/>
<path class="st6" d="M438.4,235H318.6c-2.8,0-5.1-2.3-5.1-5.1v-12.3c0-2.8,2.3-5.1,5.1-5.1h119.8c2.8,0,5.1,2.3,5.1,5.1v12.3
	C443.5,232.7,441.2,235,438.4,235z"/>
<path class="st6" d="M438.4,273H318.6c-2.8,0-5.1-2.3-5.1-5.1v-12.3c0-2.8,2.3-5.1,5.1-5.1h119.8c2.8,0,5.1,2.3,5.1,5.1v12.3
	C443.5,270.7,441.2,273,438.4,273z"/>
<path class="st7" d="M439.4,311h-31.3c-2.8,0-5.1-2.3-5.1-5.1v-12.3c0-2.8,2.3-5.1,5.1-5.1h31.3c2.8,0,5.1,2.3,5.1,5.1v12.3
	C444.5,308.7,442.2,311,439.4,311z"/>
<path class="st8" d="M146.1,398h-43.1c-5.5,0-9.9-4.4-9.9-9.9v-24.1c0-5.5,4.4-9.9,9.9-9.9h43.1c5.5,0,9.9,4.4,9.9,9.9v24.1
	C156,393.6,151.6,398,146.1,398z"/>
<g>
	<g>
		<g>
			<circle class="st0" cx="58.5" cy="370.9" r="8.3"/>
		</g>
		<g>
			<circle class="st1" cx="58.5" cy="321.7" r="8.3"/>
		</g>
		<g>
			<circle class="st1" cx="58.5" cy="420" r="8.3"/>
		</g>
		<g>
			<circle class="st1" cx="205" cy="370.9" r="8.3"/>
		</g>
		<g>
			<circle class="st0" cx="205" cy="420" r="8.3"/>
		</g>
		<g>
			<circle class="st0" cx="205" cy="321.7" r="8.3"/>
		</g>
		<g>
			<path class="st9" d="M157.6,344.3h-0.9v-12.4c0-13.7-11.2-24.9-24.9-24.9s-24.9,11.2-24.9,24.9c0,1.7,1.4,3.2,3.2,3.2
				c1.7,0,3.2-1.4,3.2-3.2c0-10.3,8.4-18.7,18.7-18.7s18.7,8.4,18.7,18.7v12.4h-44.6c-4.5,0-8.2,3.7-8.2,8.2v34
				c0,4.5,3.7,8.2,8.2,8.2h51.7c4.5,0,8.2-3.7,8.2-8.2v-34C165.8,348,162.1,344.3,157.6,344.3z M159.5,386.5c0,1-0.8,1.9-1.9,1.9
				h-51.7c-1,0-1.9-0.8-1.9-1.9v-34c0-1,0.8-1.9,1.9-1.9h51.7c1,0,1.9,0.8,1.9,1.9L159.5,386.5L159.5,386.5z"/>
			<path class="st9" d="M132.6,360.6c-2.3-0.5-4.7,0.8-5.6,3c-1,2.3-0.3,4.8,1.7,6.3c0.4,0.3,0.5,0.6,0.5,1c0,2.3,0,4.5,0,6.7l0,0
				c0,1.8,1.9,3.3,3.9,2.3c0.8-0.4,1.3-1.3,1.2-2.3l0,0c0-2.3,0-4.5,0-6.7c0-0.5,0.1-0.8,0.6-1.1c1.4-1,2.1-2.5,2.1-4.2
				C136.9,363.2,135.2,361.1,132.6,360.6z"/>
			<path class="st9" d="M87,367.7H69.5c-1.4-4.8-5.8-8.3-11-8.3c-6.3,0-11.5,5.2-11.5,11.5s5.2,11.5,11.5,11.5c5.2,0,9.7-3.5,11-8.3
				H87c1.7,0,3.2-1.4,3.2-3.2C90.1,369.1,88.7,367.7,87,367.7z M58.5,376.1c-2.9,0-5.2-2.3-5.2-5.2c0-2.9,2.3-5.2,5.2-5.2
				s5.2,2.3,5.2,5.2C63.7,373.7,61.4,376.1,58.5,376.1z"/>
			<path class="st9" d="M87,349.3H67.9c-3.4,0-6.2-2.8-6.2-6.2v-10.3c4.8-1.4,8.3-5.8,8.3-11c0-6.3-5.2-11.5-11.5-11.5
				S47,315.4,47,321.7c0,5.2,3.5,9.7,8.3,11V343c0,6.9,5.6,12.5,12.5,12.5H87c1.7,0,3.2-1.4,3.2-3.2S88.7,349.3,87,349.3z
				 M53.3,321.7c0-2.9,2.3-5.2,5.2-5.2s5.2,2.3,5.2,5.2c0,2.9-2.3,5.2-5.2,5.2S53.3,324.6,53.3,321.7z"/>
			<path class="st9" d="M87,386.2H67.9c-6.9,0-12.5,5.6-12.5,12.5v10.3c-4.8,1.4-8.3,5.8-8.3,11c0,6.3,5.2,11.5,11.5,11.5
				S70,426.3,70,420c0-5.2-3.5-9.7-8.3-11v-10.3c0-3.4,2.8-6.2,6.2-6.2H87c1.7,0,3.2-1.4,3.2-3.2C90.1,387.6,88.7,386.2,87,386.2z
				 M63.7,420c0,2.9-2.3,5.2-5.2,5.2s-5.2-2.3-5.2-5.2c0-2.9,2.3-5.2,5.2-5.2S63.7,417.1,63.7,420z"/>
			<path class="st9" d="M205,359.4c-5.2,0-9.7,3.5-11,8.3h-17.5c-1.7,0-3.2,1.4-3.2,3.2c0,1.7,1.4,3.2,3.2,3.2h17.5
				c1.4,4.8,5.8,8.3,11,8.3c6.3,0,11.5-5.2,11.5-11.5S211.3,359.4,205,359.4z M205,376.1c-2.9,0-5.2-2.3-5.2-5.2
				c0-2.9,2.3-5.2,5.2-5.2s5.2,2.3,5.2,5.2C210.2,373.7,207.9,376.1,205,376.1z"/>
			<path class="st9" d="M208.1,408.9v-10.3c0-6.9-5.6-12.5-12.5-12.5h-19.1c-1.7,0-3.2,1.4-3.2,3.2s1.4,3.2,3.2,3.2h19.1
				c3.4,0,6.2,2.8,6.2,6.2V409c-4.8,1.4-8.3,5.8-8.3,11c0,6.3,5.2,11.5,11.5,11.5c6.3,0,11.5-5.2,11.5-11.5
				C216.5,414.7,213,410.3,208.1,408.9z M205,425.2c-2.9,0-5.2-2.3-5.2-5.2c0-2.9,2.3-5.2,5.2-5.2s5.2,2.3,5.2,5.2
				C210.2,422.8,207.9,425.2,205,425.2z"/>
			<path class="st9" d="M176.5,355.5h19.1c6.9,0,12.5-5.6,12.5-12.5v-10.3c4.8-1.4,8.3-5.8,8.3-11c0-6.3-5.2-11.5-11.5-11.5
				s-11.5,5.2-11.5,11.5c0,5.2,3.5,9.7,8.3,11V343c0,3.4-2.8,6.2-6.2,6.2h-19.1c-1.7,0-3.2,1.4-3.2,3.2
				C173.4,354.1,174.8,355.5,176.5,355.5z M199.8,321.7c0-2.9,2.3-5.2,5.2-5.2s5.2,2.3,5.2,5.2c0,2.9-2.3,5.2-5.2,5.2
				S199.8,324.6,199.8,321.7z"/>
		</g>
	</g>
</g>
<g id="Ilustración_2">
	<g>
		<defs>
			<rect id="SVGID_1_" x="54" y="44" width="30" height="30"/>
		</defs>
		<clipPath id="SVGID_2_">
			<use xlink:href="#SVGID_1_"  style="overflow:visible;"/>
		</clipPath>
		<g class="st10">
			<defs>
				<rect id="SVGID_3_" x="54" y="44" width="30" height="30"/>
			</defs>
			<clipPath id="SVGID_4_">
				<use xlink:href="#SVGID_3_"  style="overflow:visible;"/>
			</clipPath>
			<path class="st11" d="M84,59c0,1.1-0.4,2.1-1.2,2.8C82.1,62.5,81.1,63,80,63h-7v7c0,2.2-1.8,4-4,4s-4-1.8-4-4v-7h-7
				c-2.2,0-4-1.8-4-4c0-2.2,1.8-4,4-4h7v-7c0-2.2,1.8-4,4-4c1.1,0,2.1,0.5,2.8,1.2c0.7,0.7,1.2,1.7,1.2,2.8v7h7
				C82.2,55,84,56.8,84,59"/>
		</g>
	</g>
</g>
<g id="Ilustración_4">
	<g>
		<defs>
			<rect id="SVGID_5_" x="420.7" y="361.3" width="20.3" height="20.3"/>
		</defs>
		<clipPath id="SVGID_6_">
			<use xlink:href="#SVGID_5_"  style="overflow:visible;"/>
		</clipPath>
		<g class="st12">
			<defs>
				<rect id="SVGID_7_" x="420.7" y="361.3" width="20.3" height="20.3"/>
			</defs>
			<clipPath id="SVGID_8_">
				<use xlink:href="#SVGID_7_"  style="overflow:visible;"/>
			</clipPath>
			<path class="st13" d="M441,371.5c0,1.5-1.2,2.7-2.7,2.7h-4.7v4.7c0,0.7-0.3,1.4-0.8,1.9c-0.5,0.5-1.2,0.8-1.9,0.8
				c-1.5,0-2.7-1.2-2.7-2.7v-4.7h-4.7c-0.7,0-1.4-0.3-1.9-0.8c-0.5-0.5-0.8-1.2-0.8-1.9c0-1.5,1.2-2.7,2.7-2.7h4.7V364
				c0-1.5,1.2-2.7,2.7-2.7c1.5,0,2.7,1.2,2.7,2.7v4.7h4.7C439.8,368.8,441,370,441,371.5"/>
		</g>
	</g>
</g>
<g id="Ilustración_3">
	<g>
		<defs>
			<rect id="SVGID_9_" x="385" y="417" width="22.9" height="22.9"/>
		</defs>
		<clipPath id="SVGID_10_">
			<use xlink:href="#SVGID_9_"  style="overflow:visible;"/>
		</clipPath>
		<g class="st14">
			<defs>
				<rect id="SVGID_11_" x="385" y="417" width="22.9" height="22.9"/>
			</defs>
			<clipPath id="SVGID_12_">
				<use xlink:href="#SVGID_11_"  style="overflow:visible;"/>
			</clipPath>
			<circle class="st15" cx="396.5" cy="428.5" r="9.4"/>
		</g>
	</g>
</g>
<path class="st16" d="M333.9,53.9c-0.2-0.5-0.4-1.1-0.5-1.6c-2.7-9.7,2.5-20,12.2-23.5c10.2-3.7,21.4,1.5,25.1,11.7
	s-1.5,21.4-11.7,25.1c-3.2,1.2-6.5,1.5-9.6,1"/>
<path class="st1" d="M427.3,68.2c-0.9,1-2.5,1.1-3.6,0.1l-3.3-3l-3,3.3c-0.5,0.5-1.1,0.8-1.8,0.8c-0.6,0-1.3-0.2-1.8-0.7
	c-1-0.9-1.1-2.5-0.1-3.6l3-3.3l-3.3-3c-0.5-0.5-0.8-1.1-0.8-1.8c0-0.6,0.2-1.3,0.7-1.8c0.9-1,2.5-1.1,3.6-0.1l3.3,3l3-3.3
	c0.9-1,2.5-1.1,3.6-0.1c1,0.9,1.1,2.5,0.1,3.6l-3,3.3l3.3,3C428.2,65.6,428.2,67.2,427.3,68.2z"/>
<path class="st1" d="M156.3,471.2c-0.9,1-2.5,1.1-3.6,0.1l-3.3-3l-3,3.3c-0.5,0.5-1.1,0.8-1.8,0.8c-0.6,0-1.3-0.2-1.8-0.7
	c-1-0.9-1.1-2.5-0.1-3.6l3-3.3l-3.3-3c-0.5-0.5-0.8-1.1-0.8-1.8c0-0.6,0.2-1.3,0.7-1.8c0.9-1,2.5-1.1,3.6-0.1l3.3,3l3-3.3
	c0.9-1,2.5-1.1,3.6-0.1s1.1,2.5,0.1,3.6l-3,3.3l3.3,3C157.2,468.6,157.2,470.2,156.3,471.2z"/>
<path class="st17" d="M51.4,256.6c-0.2,0.2-0.5,0.4-0.7,0.6c-4.6,3.3-11,2.6-14.8-1.8c-3.9-4.6-3.4-11.5,1.2-15.5s11.5-3.4,15.5,1.2
	c1.2,1.4,2,3.1,2.4,4.9"/>
</svg>
