<?xml version="1.0" encoding="utf-8"?>
<!-- Generator: Adobe Illustrator 21.0.2, SVG Export Plug-In . SVG Version: 6.00 Build 0)  -->
<svg version="1.1" xmlns="http://www.w3.org/2000/svg" xmlns:xlink="http://www.w3.org/1999/xlink" x="0px" y="0px"
	 viewBox="0 0 512 512" style="enable-background:new 0 0 512 512;" xml:space="preserve">
<style type="text/css">
	.st0{fill:#E5F5FC;}
	.st1{fill:#EF9D75;}
	.st2{fill:#AAB1BA;}
	.st3{fill:#CAD0D8;}
	.st4{fill:#51565F;}
	.st5{fill:#88C9FF;}
	.st6{fill:#3B9DFF;}
	.st7{fill:#F47027;}
	.st8{fill:#EDEDEF;}
	.st9{fill:#FFFFFF;}
	.st10{fill:#88C9FF;stroke:#51565F;stroke-width:3;stroke-linecap:round;stroke-miterlimit:10;}
	.st11{fill:#EDEDEF;stroke:#EF9D75;stroke-width:4;stroke-linecap:round;stroke-miterlimit:10;}
	.st12{fill:none;stroke:#51565F;stroke-width:6;stroke-miterlimit:10;}
</style>
<g id="Capa_2">
	<path class="st0" d="M237.9,93l-66.4,92.1c-6.5,9-19.1,11.1-28.1,4.6l0,0c-9-6.5-11.1-19.1-4.6-28.1l66.4-92.1
		c6.5-9,19.1-11.1,28.1-4.6l0,0C242.4,71.5,244.4,84,237.9,93z"/>
	<path class="st0" d="M162.8,405.6l-20.1,27.8c-4,5.6-11.8,6.8-17.3,2.8l0,0c-5.6-4-6.8-11.8-2.8-17.3l20.1-27.8
		c4-5.6,11.8-6.8,17.3-2.8l0,0C165.5,392.2,166.8,400,162.8,405.6z"/>
	<path class="st0" d="M433.9,97.3c4.4,3.2,7.1,7.7,7.9,12.7c0.8,5-0.3,10.1-3.5,14.5l-50.1,69.6l1,0.7l-14.5,20.1
		c-2.7,3.7-3.6,8.2-2.9,12.3c0.7,4.1,2.9,8.1,6.7,10.8c7.4,5.3,17.8,3.6,23.1-3.7l14.5-20.1l1,0.7l19.4-26.9c5.7-8,16.8-9.8,24.8-4
		c3.9,2.8,6.4,7.1,7.1,11.6c0.7,4.5-0.3,9.3-3.1,13.2L324.7,403.5c-5.7,8-16.8,9.8-24.8,4c-3.9-2.8-6.4-7.1-7.1-11.6
		c-0.7-4.5,0.3-9.3,3.1-13.2l7.6-10.6l-1-0.7l6.2-8.6c2.7-3.7,3.6-8.2,2.9-12.3c-0.7-4.1-2.9-8.1-6.7-10.8
		c-7.4-5.3-17.8-3.6-23.1,3.7l-6.2,8.6l-1-0.7l-12.8,17.7c-6.3,8.7-18.5,10.7-27.2,4.4c-4.4-3.2-7.1-7.7-7.9-12.7
		c-0.8-5,0.3-10.1,3.5-14.5l21.8-30.2l0,0c1.4-2.1,1.9-4.6,1.4-7c-0.4-2.5-1.8-5-4-6.5c-4.3-3.1-10.3-2.3-13.7,1.8l0,0l-52.2,72.4
		c-4,5.6-11.8,6.8-17.3,2.8c-2.8-2-4.4-5-5-8.1c-0.5-3.1,0.1-6.5,2.1-9.2l48.1-66.7c2.7-3.7,3.6-8.2,2.9-12.3
		c-0.7-4.1-2.9-8.1-6.7-10.8c-7.4-5.3-17.8-3.6-23.1,3.7l-16.3,22.5c-6.3,8.7-18.5,10.7-27.2,4.4c-4.4-3.2-7.1-7.7-7.9-12.7
		c-0.8-5,0.3-10.1,3.5-14.5L313.1,31.3c6.3-8.7,18.5-10.7,27.2-4.4c4.4,3.2,7.1,7.7,7.9,12.7s-0.3,10.1-3.5,14.5l-51.5,71.5l0.3,0.2
		c-1.3,3-1.6,6.1-1.1,9.2c0.7,4.1,2.9,8.1,6.7,10.8c6.4,4.6,15.1,4,20.8-1.1l0.3,0.2l10.7-14.9c4-5.6,11.8-6.8,17.3-2.8
		c2.8,2,4.4,5,5,8.1c0.5,3.1-0.1,6.5-2.1,9.2L332.6,170l0.1,0.1c-0.9,1.8-1.2,3.9-0.9,5.9c0.4,2.5,1.8,5,4,6.5
		c4,2.9,9.5,2.4,12.9-0.9l0.1,0.1l57.8-80.1C413,92.9,425.2,91,433.9,97.3z"/>
</g>
<g id="Capa_1">
	<g transform="translate(15 1)">
		<path class="st1" d="M96.1,185.1h22.7v170.6H96.1c-11.4,0-22.7-11.4-22.7-22.7V207.9C73.3,196.4,84.7,185.1,96.1,185.1z
			 M346.3,185.1h34.1c11.4,0,22.7,11.4,22.7,22.7v125.1c0,11.4-11.4,22.7-22.7,22.7h-34.1V185.1z"/>
		<g>
			<path class="st2" d="M366,267.4c0-2.8,2.8-5.7,5.7-5.7c2.8,0,5.7,2.8,5.7,5.7c0,2.8-2.8,5.7-5.7,5.7
				C368.9,273.1,366,270.2,366,267.4L366,267.4z"/>
			<polygon class="st3" points="343.3,352.7 343.3,182.1 115.8,182.1 115.8,352.7 			"/>
		</g>
	</g>
	<path class="st4" d="M392.5,177.3H130.9c-1.7,0-2.8,1.1-2.8,2.8V328c0,1.7,1.1,2.8,2.8,2.8c1.7,0,2.8-1.1,2.8-2.8V183h258.7
		c9.7,0,19.9,10.2,19.9,19.9V328c0,9.7-10.2,19.9-19.9,19.9h-31.3v-145c0-1.7-1.1-2.8-2.8-2.8s-2.8,1.1-2.8,2.8v147.8
		c0,1.7,1.1,2.8,2.8,2.8h34.1c13.1,0,25.6-12.5,25.6-25.6V202.8C418,189.7,405.5,177.2,392.5,177.3z M386.7,256.9
		c-4.5,0-8.5,4-8.5,8.5s4,8.5,8.5,8.5s8.5-4,8.5-8.5C395.2,260.8,391.2,256.9,386.7,256.9z M386.7,268.2c-1.7,0-2.8-1.1-2.8-2.8
		c0-1.7,1.1-2.9,2.8-2.8c1.7,0,2.8,1.1,2.8,2.8C389.5,267.1,388.4,268.2,386.7,268.2z M335.5,347.8H108.1
		c-9.7,0-19.9-10.2-19.9-19.9V202.7c0-9.7,10.2-19.9,19.9-19.9c1.7,0,2.8-1.1,2.8-2.8s-1.1-2.8-2.8-2.8c-13.1,0-25.6,12.5-25.6,25.6
		v125.1c0,13.1,12.5,25.6,25.6,25.6h227.5c1.7,0,2.8-1.1,2.8-2.8C338.4,348.9,337.2,347.8,335.5,347.8z M108.1,234.1
		c-1.7,0-2.8,1.1-2.8,2.8v22.7c0,1.7,1.1,2.8,2.8,2.8c1.7,0,2.8-1.1,2.8-2.8v-22.7C110.9,235.2,109.8,234.1,108.1,234.1z"/>
	<rect x="229.5" y="190.5" class="st5" width="41" height="41"/>
	<rect x="229.5" y="244.5" class="st6" width="41" height="41"/>
	<rect x="175.5" y="190.5" class="st7" width="41" height="41"/>
	<rect x="175.5" y="244.5" class="st1" width="41" height="41"/>
	<rect x="175.5" y="298.6" class="st0" width="41" height="41"/>
	<rect x="229.5" y="298.6" class="st1" width="41" height="41"/>
	<rect x="283.6" y="298.6" class="st5" width="41" height="41"/>
	<rect x="283.6" y="244.5" class="st7" width="41" height="41"/>
	<rect x="283.6" y="190.5" class="st0" width="41" height="41"/>
	<g>
		<path class="st4" d="M270.5,188h-41c-1.4,0-2.5,1.1-2.5,2.5v41c0,1.4,1.1,2.5,2.5,2.5h41c1.4,0,2.5-1.1,2.5-2.5v-41
			C272.9,189.1,271.8,188,270.5,188z M268,229h-36v-36h36V229z"/>
		<path class="st4" d="M270.5,242.1h-41c-1.4,0-2.5,1.1-2.5,2.5v41c0,1.4,1.1,2.5,2.5,2.5h41c1.4,0,2.5-1.1,2.5-2.5v-41
			C272.9,243.2,271.8,242.1,270.5,242.1z M268,283h-36v-36h36V283z"/>
		<path class="st4" d="M216.4,188h-41c-1.4,0-2.5,1.1-2.5,2.5v41c0,1.4,1.1,2.5,2.5,2.5h41c1.4,0,2.5-1.1,2.5-2.5v-41
			C218.9,189.1,217.8,188,216.4,188z M214,229h-36v-36h36V229z"/>
		<path class="st4" d="M216.4,242.1h-41c-1.4,0-2.5,1.1-2.5,2.5v41c0,1.4,1.1,2.5,2.5,2.5h41c1.4,0,2.5-1.1,2.5-2.5v-41
			C218.9,243.2,217.8,242.1,216.4,242.1z M214,283h-36v-36h36V283z"/>
		<path class="st4" d="M216.4,296.1h-41c-1.4,0-2.5,1.1-2.5,2.5v41c0,1.4,1.1,2.5,2.5,2.5h41c1.4,0,2.5-1.1,2.5-2.5V324
			c0-1.4-1.1-2.5-2.5-2.5c-1.4,0-2.5,1.1-2.5,2.5v13.1h-36v-36h36v13.1c0,1.4,1.1,2.5,2.5,2.5c1.4,0,2.5-1.1,2.5-2.5v-15.6
			C218.9,297.2,217.8,296.1,216.4,296.1z"/>
		<path class="st4" d="M270.5,296.1h-41c-1.4,0-2.5,1.1-2.5,2.5v41c0,1.4,1.1,2.5,2.5,2.5h41c1.4,0,2.5-1.1,2.5-2.5v-41
			C272.9,297.2,271.8,296.1,270.5,296.1z M268,337.1h-36v-36h36V337.1z"/>
		<path class="st4" d="M324.5,296.1h-41c-1.4,0-2.5,1.1-2.5,2.5v41c0,1.4,1.1,2.5,2.5,2.5h41c1.4,0,2.5-1.1,2.5-2.5v-41
			C327,297.2,325.9,296.1,324.5,296.1z M322.1,337.1h-36v-36h36V337.1L322.1,337.1z"/>
		<path class="st4" d="M324.5,242.1h-41c-1.4,0-2.5,1.1-2.5,2.5v41c0,1.4,1.1,2.5,2.5,2.5h41c1.4,0,2.5-1.1,2.5-2.5v-15.6
			c0-1.4-1.1-2.5-2.5-2.5c-1.4,0-2.5,1.1-2.5,2.5V283h-36v-36h36v13.1c0,1.4,1.1,2.5,2.5,2.5c1.4,0,2.5-1.1,2.5-2.5v-15.6
			C327,243.2,325.9,242.1,324.5,242.1z"/>
		<path class="st4" d="M414,106.5v141c0,4.7-3.8,8.5-8.5,8.5H264.6c-4.7,0-8.5-3.8-8.5-8.5v-141c0-4.7,3.8-8.5,8.5-8.5h140.9
			C410.2,98,414,101.8,414,106.5z"/>
		<path class="st0" d="M406.1,248H264V105.9h142.1L406.1,248L406.1,248z"/>
	</g>
	<path class="st4" d="M213.3,214.2c0,0.6,0,1.7-0.6,2.3L167.2,262c-0.6,0.6-1.1,0.6-2.3,0.6c-1.1,0-1.7,0-2.3-0.6
		c-1.1-1.1-1.1-2.8,0-4l45.5-45.5c0.6-0.6,1.1-0.6,2.3-0.6c1.1,0,1.7,0,2.3,0.6C213.3,213.1,213.3,213.6,213.3,214.2z"/>
	<path class="st4" d="M179.2,214.2c0,0.6,0,1.7-0.6,2.3l-11.4,11.4c-0.6,0.6-1.1,0.6-2.3,0.6c-1.1,0-1.7,0-2.3-0.6
		c-1.1-1.1-1.1-2.8,0-4l11.4-11.4c0.6-0.6,1.1-0.6,2.3-0.6c1.1,0,1.7,0,2.3,0.6C179.2,213.1,179.2,213.6,179.2,214.2z"/>
	<rect x="275" y="114.8" class="st8" width="120.7" height="86.2"/>
	<rect x="285.6" y="125.4" class="st9" width="99.5" height="65"/>
	<polygon class="st5" points="356.2,161.6 335.3,182.4 314.4,161.6 285.6,190.4 385.1,190.4 	"/>
	<circle class="st1" cx="335.3" cy="140.8" r="8"/>
	<g>
		<path class="st4" d="M395.7,112.8H275c-1.1,0-2,0.9-2,2V201c0,1.1,0.9,2,2,2h120.7c1.1,0,2-0.9,2-2v-86.2
			C397.7,113.7,396.8,112.8,395.7,112.8z M393.7,199H277v-82.2h116.7V199z"/>
		<path class="st4" d="M345.3,141.3c0-5.5-4.5-9.9-9.9-9.9s-9.9,4.5-9.9,9.9c0,5.5,4.5,9.9,9.9,9.9S345.3,146.8,345.3,141.3z
			 M329.4,141.3c0-3.3,2.7-6,6-6s6,2.7,6,6c0,3.3-2.7,6-6,6C332,147.3,329.4,144.6,329.4,141.3z"/>
		<path class="st4" d="M313,160.1L292.2,181c-0.8,0.8-0.8,2,0,2.8c0.8,0.8,2,0.8,2.8,0l19.5-19.5l19.5,19.5c0.8,0.8,2,0.8,2.8,0
			l19.5-19.5l19.5,19.5c0.4,0.4,0.9,0.6,1.4,0.6c0.5,0,1-0.2,1.4-0.6c0.8-0.8,0.8-2,0-2.8l-20.9-20.9c-0.8-0.8-2-0.8-2.8,0
			l-19.5,19.5l-19.5-19.5C315.1,159.4,313.8,159.4,313,160.1z"/>
		<path class="st4" d="M285.6,192.4h99.5c1.1,0,2-0.9,2-2v-28.5c0-1.1-0.9-2-2-2c-1.1,0-2,0.9-2,2v26.5h-95.5v-61h95.5v26.5
			c0,1.1,0.9,2,2,2c1.1,0,2-0.9,2-2v-28.5c0-1.1-0.9-2-2-2h-99.5c-1.1,0-2,0.9-2,2v65C283.6,191.5,284.5,192.4,285.6,192.4z"/>
	</g>
	<path class="st10" d="M395.8,233.4v3.5c0,1.2-0.9,2.1-2.1,2.1h-48.7c-1.2,0-2.1-0.9-2.1-2.1v-11.3c0-1.2,0.9-2.1,2.1-2.1h48.7
		c1.2,0,2.1,0.9,2.1,2.1v2.4"/>
	<path class="st4" d="M433.6,93.6c-1.6,1.6-4.1,1.6-5.7,0l-4.9-4.9l-4.9,4.9c-0.8,0.8-1.8,1.1-2.8,1.1c-1,0-2.1-0.4-2.8-1.1
		c-1.6-1.6-1.6-4.1,0-5.7l4.9-4.9l-4.9-4.9c-0.8-0.8-1.1-1.8-1.1-2.8c0-1,0.4-2.1,1.1-2.8c1.6-1.6,4.1-1.6,5.7,0l4.9,4.9l4.9-4.9
		c1.6-1.6,4.1-1.6,5.7,0c1.6,1.6,1.6,4.1,0,5.7l-4.9,4.9l4.9,4.9C435.2,89.5,435.2,92.1,433.6,93.6z"/>
	<path class="st11" d="M162.4,102.9c-0.3,0.3-0.6,0.5-0.9,0.7c-5.7,4.1-13.6,3.2-18.3-2.2c-4.9-5.7-4.2-14.3,1.5-19.2
		c5.7-4.9,14.3-4.2,19.2,1.5c1.5,1.8,2.5,3.9,3,6"/>
	<path class="st5" d="M88.2,440.1c-2.9,0-5.2-2.3-5.2-5.2l0-9.3l-9.3,0c-1.4,0-2.8-0.7-3.8-1.4c-1-1-1.4-2.3-1.4-3.8
		c0-2.9,2.3-5.2,5.2-5.2H83l0-9.3c0-1.4,0.7-2.8,1.4-3.8c1-1,2.3-1.4,3.8-1.4c2.9,0,5.2,2.3,5.2,5.2l0,9.3l9.3,0
		c2.9,0,5.2,2.3,5.2,5.2s-2.3,5.2-5.2,5.2h-9.3l0,9.3C93.5,437.7,91.1,440.1,88.2,440.1z"/>
	<path class="st1" d="M377.2,406.3c-1-1-1-2.7,0-3.7l3.3-3.3l-3.3-3.3c-0.5-0.5-0.7-1.2-0.8-1.9c0-0.7,0.3-1.3,0.8-1.9
		c1-1,2.7-1,3.7,0l3.3,3.3l3.3-3.3c0.5-0.5,1.2-0.7,1.9-0.8c0.7,0,1.3,0.3,1.9,0.8c1,1,1,2.7,0,3.7l-3.3,3.3l3.3,3.3
		c1,1,1,2.7,0,3.7s-2.7,1-3.7,0l-3.3-3.3l-3.3,3.3C379.9,407.3,378.2,407.3,377.2,406.3z"/>
</g>
<g id="Capa_3">
	<circle class="st12" cx="316.5" cy="446.5" r="10.5"/>
</g>
</svg>
