<?xml version="1.0" encoding="utf-8"?>
<!-- Generator: Adobe Illustrator 21.0.2, SVG Export Plug-In . SVG Version: 6.00 Build 0)  -->
<svg version="1.1" xmlns="http://www.w3.org/2000/svg" xmlns:xlink="http://www.w3.org/1999/xlink" x="0px" y="0px"
	 viewBox="0 0 512 512" style="enable-background:new 0 0 512 512;" xml:space="preserve">
<style type="text/css">
	.st0{fill:#CAD0D8;}
	.st1{fill:#88C9FF;}
	.st2{fill:#F47027;}
	.st3{fill:#EF9D75;}
	.st4{fill:#F9ECDE;}
	.st5{fill:#51565F;}
	.st6{fill:#E5F5FC;}
	.st7{fill:none;stroke:#3B9DFF;stroke-width:6;stroke-miterlimit:10;}
	.st8{clip-path:url(#SVGID_2_);}
	.st9{clip-path:url(#SVGID_4_);fill:#51565F;}
	.st10{clip-path:url(#SVGID_6_);}
	.st11{clip-path:url(#SVGID_8_);fill:#568CE2;}
	.st12{fill:none;stroke:#EF9D75;stroke-width:6;stroke-linecap:round;stroke-miterlimit:10;}
</style>
<g id="Capa_2">
	<path class="st0" d="M469.3,324.3c0,6.1-2.5,11.7-6.5,15.7c-4,4-9.6,6.5-15.7,6.5h-97.5v1.3h-28.2c-5.2,0-9.9,2.1-13.3,5.5
		c-3.4,3.4-5.5,8.1-5.5,13.3c0,10.4,8.4,18.8,18.8,18.8h28.2v1.3h37.6c11.1,0,20.2,9,20.2,20.2c0,5.6-2.3,10.6-5.9,14.3
		c-3.6,3.7-8.7,5.9-14.3,5.9H114.4c-11.1,0-20.2-9-20.2-20.2c0-5.6,2.3-10.6,5.9-14.3c3.6-3.7,8.7-5.9,14.3-5.9h14.8v-1.3h12.1
		c5.2,0,9.9-2.1,13.3-5.5c3.4-3.4,5.5-8.1,5.5-13.3c0-10.4-8.4-18.8-18.8-18.8h-12.1v-1.3h-24.9c-12.2,0-22.2-9.9-22.2-22.2
		c0-6.1,2.5-11.7,6.5-15.7c4-4,9.6-6.5,15.7-6.5h42.4v0c2.9-0.2,5.5-1.4,7.4-3.3c2.1-2.1,3.3-4.9,3.3-8.1c0-6.1-4.8-11.1-10.8-11.4
		v0H45.1c-7.8,0-14.1-6.3-14.1-14.1c0-3.9,1.6-7.4,4.1-10c2.6-2.6,6.1-4.1,10-4.1h93.4c5.2,0,9.9-2.1,13.3-5.5
		c3.4-3.4,5.5-8.1,5.5-13.3c0-10.4-8.4-18.8-18.8-18.8H107c-12.2,0-22.2-9.9-22.2-22.2c0-6.1,2.5-11.7,6.5-15.7
		c4-4,9.6-6.5,15.7-6.5h342.9c12.2,0,22.2,9.9,22.2,22.2c0,6.1-2.5,11.7-6.5,15.7c-4,4-9.6,6.5-15.7,6.5H349.6v0.4
		c-3.6,0.8-6.8,2.6-9.3,5.1c-3.4,3.4-5.5,8.1-5.5,13.3c0,9,6.3,16.5,14.8,18.4v0.4h20.8c7.8,0,14.1,6.3,14.1,14.1
		c0,3.9-1.6,7.4-4.1,10c-2.6,2.6-6.1,4.1-10,4.1h-35.6v0.2c-2.3,0.4-4.5,1.5-6.1,3.2c-2.1,2.1-3.3,4.9-3.3,8.1
		c0,5.6,4.1,10.3,9.4,11.3v0.2h112.3C459.4,302.1,469.3,312,469.3,324.3z"/>
	<path class="st0" d="M481,138h-96c-9.4,0-17-7.6-17-17l0,0c0-9.4,7.6-17,17-17h96c9.4,0,17,7.6,17,17l0,0
		C498,130.4,490.4,138,481,138z"/>
	<path class="st0" d="M80,407c0,5.5-1.9,10.5-5,14.1c-3.1,3.6-7.3,5.9-12,5.9H36c-9.4,0-17-8.9-17-20c0-5.5,1.9-10.5,5-14.2
		c3.1-3.6,7.3-5.8,12-5.8h27C72.4,387,80,395.9,80,407z"/>
</g>
<g id="Capa_1">
	<path class="st1" d="M290.2,224.2h4.6V238v9.2V261v9.2V284v9.2v23l-95.4,109.1c-13,14.9-2.5,38.1,17.3,38.1h220.6
		c19.8,0,30.3-23.3,17.3-38.1l-95.4-109.1v-23v-23v-23v-23h4.6c7.6,0,13.8-6.2,13.8-13.8c0-7.6-6.2-13.8-13.8-13.8h-73.6
		c-7.6,0-13.8,6.2-13.8,13.8C276.4,218,282.6,224.2,290.2,224.2z M366,360c7.6,7.6,5.4,23-4.1,39c9.6,16,11.8,31.4,4.1,39
		s-23,5.4-39-4.1c-16,9.6-31.4,11.8-39,4.1s-5.4-23,4.1-39c-9.6-16-11.8-31.4-4.1-39s23-5.4,39,4.1C343,354.5,358.4,352.3,366,360z"
		/>
	<g>
		<path class="st2" d="M446.6,224.2c7.6,0,13.8-6.2,13.8-13.8c0-7.6-6.2-13.8-13.8-13.8c-7.6,0-13.8,6.2-13.8,13.8
			c0,3.8,1.5,7.3,4,9.8C439.3,222.7,442.8,224.2,446.6,224.2z"/>
		<path class="st2" d="M446.6,343.8c7.6,0,13.8-6.2,13.8-13.8s-6.2-13.8-13.8-13.8c-3.8,0-7.3,1.5-9.8,4c-2.5,2.5-4,5.9-4,9.8
			C432.8,337.6,439,343.8,446.6,343.8z"/>
		<circle class="st3" cx="446.6" cy="270.2" r="13.8"/>
		<path class="st3" d="M207.4,224.2c3.8,0,7.3-1.5,9.8-4s4-5.9,4-9.8c0-7.6-6.2-13.8-13.8-13.8c-7.6,0-13.8,6.2-13.8,13.8
			C193.6,218,199.8,224.2,207.4,224.2z"/>
		<path class="st3" d="M207.4,343.8c7.6,0,13.8-6.2,13.8-13.8c0-3.8-1.5-7.3-4-9.8s-5.9-4-9.8-4c-7.6,0-13.8,6.2-13.8,13.8
			S199.8,343.8,207.4,343.8z"/>
		<circle class="st2" cx="207.4" cy="270.2" r="13.8"/>
	</g>
	<path class="st4" d="M288,360c-7.6,7.6-5.4,23,4.1,39c-9.6,16-11.8,31.4-4.1,39s23,5.4,39-4.1c16,9.6,31.4,11.8,39,4.1
		s5.4-23-4.1-39c9.6-16,11.8-31.4,4.1-39s-23-5.4-39,4.1C311,354.5,295.6,352.3,288,360z"/>
	<g>
		<rect x="432.8" y="440.4" class="st5" width="9.2" height="9.2"/>
		<rect x="414.4" y="440.4" class="st5" width="9.2" height="9.2"/>
		<rect x="414.4" y="422" class="st5" width="9.2" height="9.2"/>
		<rect x="212" y="440.4" class="st5" width="9.2" height="9.2"/>
		<rect x="230.4" y="440.4" class="st5" width="9.2" height="9.2"/>
		<rect x="230.4" y="422" class="st5" width="9.2" height="9.2"/>
		<path class="st5" d="M244.2,288.6c-1.2,0-2.4,0.5-3.3,1.3l-24.3,24.3c-2.7-1.6-5.9-2.6-9.3-2.6c-10.1,0-18.4,8.3-18.4,18.4
			c0,10.1,8.3,18.4,18.4,18.4s18.4-8.3,18.4-18.4c0-3.4-1-6.6-2.6-9.3l22.9-22.9h44.1v16.7l-94.3,107.8c-7.2,8.3-8.9,19.6-4.4,29.6
			c4.5,10,14.2,16.2,25.1,16.2h220.6c11,0,20.6-6.2,25.1-16.2s2.9-21.3-4.4-29.6l-94.3-107.8v-16.7h44.1l22.9,22.9
			c-1.6,2.7-2.6,5.9-2.6,9.3c0,10.1,8.3,18.4,18.4,18.4S465,340.1,465,330s-8.3-18.4-18.4-18.4c-3.4,0-6.6,1-9.3,2.6l-24.3-24.3
			c-0.9-0.9-2-1.3-3.3-1.3h-46v-13.8h65.1c2.1,7.9,9.2,13.8,17.7,13.8c10.1,0,18.4-8.3,18.4-18.4c0-10.1-8.3-18.4-18.4-18.4
			c-8.5,0-15.7,5.9-17.7,13.8h-65.1v-13.8h46c1.2,0,2.4-0.5,3.3-1.3l24.3-24.3c2.7,1.6,5.9,2.6,9.3,2.6c10.1,0,18.4-8.3,18.4-18.4
			s-8.3-18.4-18.4-18.4s-18.4,8.3-18.4,18.4c0,3.4,1,6.6,2.6,9.3l-22.9,22.9h-44.1v-13.8c10.1,0,18.4-8.3,18.4-18.4
			s-8.3-18.4-18.4-18.4h-73.6c-10.1,0-18.4,8.3-18.4,18.4s8.3,18.4,18.4,18.4v13.8h-44.1l-22.9-22.9c1.6-2.7,2.6-5.9,2.6-9.3
			c0-10.1-8.3-18.4-18.4-18.4s-18.4,8.3-18.4,18.4s8.3,18.4,18.4,18.4c3.4,0,6.6-1,9.3-2.6l24.3,24.3c0.9,0.9,2,1.3,3.3,1.3h46v13.8
			h-65.1c-2.1-7.9-9.2-13.8-17.7-13.8c-10.1,0-18.4,8.3-18.4,18.4c0,10.1,8.3,18.4,18.4,18.4c8.5,0,15.7-5.9,17.7-13.8h65.1v13.8
			H244.2z M207.4,339.2c-5.1,0-9.2-4.1-9.2-9.2s4.1-9.2,9.2-9.2c5.1,0,9.2,4.1,9.2,9.2S212.5,339.2,207.4,339.2z M455.8,330
			c0,5.1-4.1,9.2-9.2,9.2c-5.1,0-9.2-4.1-9.2-9.2s4.1-9.2,9.2-9.2C451.7,320.8,455.8,324.9,455.8,330z M446.6,261
			c5.1,0,9.2,4.1,9.2,9.2c0,5.1-4.1,9.2-9.2,9.2c-5.1,0-9.2-4.1-9.2-9.2C437.4,265.1,441.5,261,446.6,261z M446.6,201.2
			c5.1,0,9.2,4.1,9.2,9.2c0,5.1-4.1,9.2-9.2,9.2c-5.1,0-9.2-4.1-9.2-9.2C437.4,205.3,441.5,201.2,446.6,201.2z M198.2,210.4
			c0-5.1,4.1-9.2,9.2-9.2c5.1,0,9.2,4.1,9.2,9.2c0,5.1-4.1,9.2-9.2,9.2C202.3,219.6,198.2,215.5,198.2,210.4z M207.4,279.4
			c-5.1,0-9.2-4.1-9.2-9.2c0-5.1,4.1-9.2,9.2-9.2c5.1,0,9.2,4.1,9.2,9.2C216.6,275.3,212.5,279.4,207.4,279.4z M281,210.4
			c0-5.1,4.1-9.2,9.2-9.2h73.6c5.1,0,9.2,4.1,9.2,9.2c0,5.1-4.1,9.2-9.2,9.2h-4.6c-2.5,0-4.6,2.1-4.6,4.6v92c0,1.1,0.4,2.2,1.1,3
			l95.4,109.1c4.8,5.5,5.9,13.1,2.9,19.7c-3,6.7-9.4,10.8-16.8,10.8H216.7c-7.3,0-13.7-4.1-16.8-10.8c-3-6.7-1.9-14.2,2.9-19.7
			l95.4-109.1c0.7-0.8,1.1-1.9,1.1-3v-27.6h13.8v-9.2h-13.8v-13.8h13.8v-9.2h-13.8v-13.8h13.8v-9.2h-13.8v-9.2
			c0-2.5-2.1-4.6-4.6-4.6h-4.6C285.1,219.6,281,215.5,281,210.4z"/>
		<path class="st5" d="M284.7,356.7c-8.8,8.8-7.4,25.2,2.1,42.3c-9.5,17.1-10.9,33.5-2.1,42.3c4,4,9.6,5.9,16,5.9
			c7.8,0,16.9-2.9,26.3-8c9.3,5.2,18.5,8,26.3,8c6.5,0,12-1.9,16-5.9c8.8-8.8,7.4-25.2-2.1-42.3c9.5-17.1,10.9-33.5,2.1-42.3
			c-8.8-8.8-25.2-7.4-42.3,2.1C309.9,349.3,293.5,347.9,284.7,356.7z M291.2,363.2c2.1-2.1,5.4-3.2,9.5-3.2c4.8,0,10.7,1.6,17.2,4.5
			c-4.6,3.3-9.2,7.2-13.7,11.7c-4.4,4.4-8.4,9.1-11.7,13.7C287,378,286.6,367.8,291.2,363.2z M327,369.6c5.4,3.5,10.9,7.8,16.3,13.2
			c5.4,5.4,9.8,10.9,13.2,16.3c-3.4,5.4-7.8,10.9-13.2,16.3c-5.4,5.4-10.9,9.8-16.3,13.2c-5.4-3.4-10.9-7.8-16.3-13.2
			c-5.4-5.4-9.8-10.9-13.2-16.3c3.4-5.4,7.8-10.9,13.2-16.3C316.1,377.4,321.6,373,327,369.6z M291.2,434.8
			c-4.6-4.6-4.2-14.8,1.3-26.7c3.3,4.7,7.3,9.3,11.7,13.7c4.5,4.5,9.1,8.3,13.8,11.7C306,439,295.8,439.4,291.2,434.8z M362.8,434.8
			c-4.6,4.6-14.8,4.2-26.8-1.3c4.7-3.3,9.3-7.2,13.8-11.7c4.4-4.4,8.4-9.1,11.7-13.7C367,420,367.4,430.2,362.8,434.8z M353.3,360
			c4.1,0,7.4,1.1,9.5,3.2c4.6,4.6,4.2,14.8-1.3,26.7c-3.3-4.7-7.3-9.3-11.7-13.7c-4.4-4.4-9-8.3-13.7-11.7
			C342.5,361.6,348.5,360,353.3,360z"/>
		<rect x="322.4" y="394.4" class="st5" width="9.2" height="9.2"/>
	</g>
	<g>
		<rect x="38" y="104" class="st6" width="307" height="241"/>
		<path class="st5" d="M344.8,53.5H26.2c-2.9,0-5.2,2.4-5.2,5.2v287c0,2.9,2.3,5.2,5.2,5.2h318.5c2.9,0,5.2-2.4,5.2-5.2v-56
			c0-2.9-2.3-5.2-5.2-5.2s-5.2,2.4-5.2,5.2v50.8h-308V106h308v162.8c0,2.9,2.3,5.2,5.2,5.2s5.2-2.4,5.2-5.2v-210
			C350,55.9,347.7,53.5,344.8,53.5z M31.5,64h194.2v31.5H31.5V64z M236.2,95.5V64h103.2v31.5H236.2z"/>
		<path class="st5" d="M288,74.2c-3.1,0-5.6,2.5-5.6,5.6s2.5,5.6,5.6,5.6s5.6-2.5,5.6-5.6S291.1,74.2,288,74.2z"/>
		<path class="st5" d="M259.4,74.2c-3.1,0-5.6,2.5-5.6,5.6s2.5,5.6,5.6,5.6s5.6-2.5,5.6-5.6S262.4,74.2,259.4,74.2z"/>
		<path class="st5" d="M316.8,74.2c-3.1,0-5.6,2.5-5.6,5.6s2.5,5.6,5.6,5.6s5.6-2.5,5.6-5.6S319.8,74.2,316.8,74.2z"/>
	</g>
	<rect x="56" y="131" class="st6" width="266" height="39"/>
	<g transform="translate(0 1)">
		<path class="st3" d="M68.2,133v168.8H231V133H68.2z M100.7,257.3c5,0,8.9,3.9,8.9,8.9c0,5-3.8,8.9-8.9,8.9c-5,0-8.9-3.8-8.9-8.9
			C91.9,261.2,95.7,257.3,100.7,257.3z M100.7,227.7c-5,0-8.9-3.8-8.9-8.9c0-5,3.9-8.9,8.9-8.9c5,0,8.9,3.8,8.9,8.9
			C109.6,223.9,105.8,227.7,100.7,227.7z M100.7,180.3c-5,0-8.9-3.8-8.9-8.9c0-5,3.9-8.9,8.9-8.9c5,0,8.9,3.8,8.9,8.9
			C109.6,176.5,105.8,180.3,100.7,180.3z"/>
		<path class="st5" d="M234,304.7H56.3V171.5c0-1.8,1.2-3,3-3s3,1.2,3,3v127.3h165.8v-26.7c0-1.8,1.2-3,3-3s3,1.2,3,3L234,304.7
			L234,304.7z"/>
		<path class="st5" d="M231,248.5c-1.8,0-3-1.2-3-3V135.9H62.2v11.8c0,1.8-1.2,3-3,3s-3-1.2-3-3V130H234v115.5
			C234,247.3,232.8,248.5,231,248.5z"/>
		<path class="st5" d="M62.2,159.6c0-1.8-1.2-3-3-3s-3,1.2-3,3s1.2,3,3,3S62.2,161.4,62.2,159.6L62.2,159.6z"/>
		<path class="st5" d="M231,263.3c-1.8,0-3-1.2-3-3v-3c0-1.8,1.2-3,3-3s3,1.2,3,3v3C234,262.1,232.8,263.3,231,263.3z"/>
		<path class="st5" d="M100.7,156.6c-8.3,0-14.8,6.5-14.8,14.8c0,8.3,6.5,14.8,14.8,14.8c8.3,0,14.8-6.5,14.8-14.8
			C115.5,163.2,109,156.6,100.7,156.6z M100.7,180.3c-5,0-8.9-3.8-8.9-8.9c0-5,3.9-8.9,8.9-8.9c5,0,8.9,3.8,8.9,8.9
			C109.6,176.5,105.8,180.3,100.7,180.3z"/>
		<path class="st0" d="M109.6,171.5c0,5-3.8,8.9-8.9,8.9c-5,0-8.9-3.8-8.9-8.9c0-5,3.9-8.9,8.9-8.9
			C105.8,162.6,109.6,166.4,109.6,171.5z"/>
		<path class="st5" d="M100.7,204c-8.3,0-14.8,6.5-14.8,14.8c0,8.3,6.5,14.8,14.8,14.8c8.3,0,14.8-6.5,14.8-14.8
			C115.5,210.5,109,204,100.7,204z M100.7,227.7c-5,0-8.9-3.8-8.9-8.9c0-5,3.9-8.9,8.9-8.9c5,0,8.9,3.8,8.9,8.9
			C109.6,223.9,105.8,227.7,100.7,227.7z"/>
		<path class="st0" d="M109.6,218.8c0,5-3.8,8.9-8.9,8.9c-5,0-8.9-3.8-8.9-8.9c0-5,3.9-8.9,8.9-8.9
			C105.8,210,109.6,213.8,109.6,218.8z"/>
		<path class="st5" d="M100.7,251.4c-8.3,0-14.8,6.5-14.8,14.8c0,8.3,6.5,14.8,14.8,14.8c8.3,0,14.8-6.5,14.8-14.8
			C115.5,257.9,109,251.4,100.7,251.4z M100.7,275.1c-5,0-8.9-3.8-8.9-8.9c0-5,3.9-8.9,8.9-8.9c5,0,8.9,3.9,8.9,8.9
			C109.6,271.2,105.8,275.1,100.7,275.1z"/>
		<path class="st0" d="M109.6,266.2c0,5-3.8,8.9-8.9,8.9c-5,0-8.9-3.8-8.9-8.9c0-5,3.9-8.9,8.9-8.9
			C105.8,257.3,109.6,261.2,109.6,266.2z"/>
		<path class="st5" d="M198.5,174.4h-68.1c-1.8,0-3-1.2-3-3s1.2-3,3-3h68.1c1.8,0,3,1.2,3,3S200.2,174.4,198.5,174.4z"/>
		<path class="st5" d="M198.5,221.8h-68.1c-1.8,0-3-1.2-3-3s1.2-3,3-3h68.1c1.8,0,3,1.2,3,3S200.2,221.8,198.5,221.8z"/>
		<path class="st5" d="M198.5,269.2h-68.1c-1.8,0-3-1.2-3-3c0-1.8,1.2-3,3-3h68.1c1.8,0,3,1.2,3,3
			C201.4,268,200.2,269.2,198.5,269.2z"/>
	</g>
	<g transform="translate(0 1)">
		<rect x="254" y="134" class="st4" width="70" height="168"/>
		<path class="st5" d="M327,273.1v32.6h-75.7V172.5c0-1.8,1.2-3,3-3c1.8,0,3,1.2,3,3v127.3h63.8v-26.6c0-1.8,1.2-2.9,2.9-3h0
			C325.8,270.2,327,271.4,327,273.1z"/>
		<path class="st5" d="M327,131v115.5c0,1.8-1.2,3-3,3h0c-1.8,0-2.9-1.2-2.9-3V136.9h-63.8v11.8c0,1.8-1.2,3-3,3c-1.8,0-3-1.2-3-3
			V131H327z"/>
		<path class="st5" d="M257.2,160.6c0-1.8-1.2-3-3-3s-3,1.2-3,3s1.2,3,3,3S257.2,162.4,257.2,160.6L257.2,160.6z"/>
		<path class="st5" d="M327,258.3v3c0,1.8-1.2,3-3,3h0c-1.8,0-2.9-1.2-2.9-3v-3c0-1.8,1.2-2.9,2.9-3h0
			C325.8,255.4,327,256.6,327,258.3z"/>
	</g>
</g>
<g id="Capa_3">
	<circle class="st7" cx="423.6" cy="53.6" r="13.6"/>
	<g id="Ilustración_4">
		<g>
			<defs>
				<rect id="SVGID_1_" x="65" y="448" width="30" height="30"/>
			</defs>
			<clipPath id="SVGID_2_">
				<use xlink:href="#SVGID_1_"  style="overflow:visible;"/>
			</clipPath>
			<g class="st8">
				<defs>
					<rect id="SVGID_3_" x="65" y="448" width="30" height="30"/>
				</defs>
				<clipPath id="SVGID_4_">
					<use xlink:href="#SVGID_3_"  style="overflow:visible;"/>
				</clipPath>
				<path class="st9" d="M95,463c0,2.2-1.8,4-4,4h-7v7c0,1.1-0.4,2.1-1.2,2.8c-0.7,0.7-1.7,1.2-2.8,1.2c-2.2,0-4-1.8-4-4v-7h-7
					c-1.1,0-2.1-0.5-2.8-1.2c-0.7-0.7-1.2-1.7-1.2-2.8c0-2.2,1.8-4,4-4h7v-7c0-2.2,1.8-4,4-4s4,1.8,4,4v7h7
					C93.2,459,95,460.8,95,463"/>
			</g>
		</g>
	</g>
	<g id="Ilustración_2">
		<g>
			<defs>
				<rect id="SVGID_5_" x="353" y="120" width="30" height="30"/>
			</defs>
			<clipPath id="SVGID_6_">
				<use xlink:href="#SVGID_5_"  style="overflow:visible;"/>
			</clipPath>
			<g class="st10">
				<defs>
					<rect id="SVGID_7_" x="353" y="120" width="30" height="30"/>
				</defs>
				<clipPath id="SVGID_8_">
					<use xlink:href="#SVGID_7_"  style="overflow:visible;"/>
				</clipPath>
				<path class="st11" d="M383,135c0,1.1-0.4,2.1-1.2,2.8c-0.7,0.7-1.7,1.2-2.8,1.2h-7v7c0,2.2-1.8,4-4,4s-4-1.8-4-4v-7h-7
					c-2.2,0-4-1.8-4-4s1.8-4,4-4h7v-7c0-2.2,1.8-4,4-4c1.1,0,2.1,0.5,2.8,1.2c0.7,0.7,1.2,1.7,1.2,2.8v7h7
					C381.2,131,383,132.8,383,135"/>
			</g>
		</g>
	</g>
	<path class="st12" d="M100.5,37c-0.3,0.3-0.6,0.5-0.9,0.7c-5.7,4.1-13.6,3.2-18.3-2.2c-4.9-5.7-4.2-14.3,1.5-19.2
		s14.3-4.2,19.2,1.5c1.5,1.8,2.5,3.9,3,6"/>
	<path class="st2" d="M496.6,409.6c-1.6,1.6-4.1,1.6-5.7,0l-4.9-4.9l-4.9,4.9c-0.8,0.8-1.8,1.2-2.8,1.2c-1,0-2.1-0.4-2.8-1.2
		c-1.6-1.6-1.6-4.1,0-5.7l4.9-4.9l-4.9-4.9c-0.8-0.8-1.2-1.8-1.2-2.8c0-1,0.4-2.1,1.2-2.8c1.6-1.6,4.1-1.6,5.7,0l4.9,4.9l4.9-4.9
		c1.6-1.6,4.1-1.6,5.7,0s1.6,4.1,0,5.7l-4.9,4.9l4.9,4.9C498.2,405.5,498.2,408,496.6,409.6z"/>
</g>
</svg>
