<?xml version="1.0" encoding="utf-8"?>
<!-- Generator: Adobe Illustrator 21.0.2, SVG Export Plug-In . SVG Version: 6.00 Build 0)  -->
<svg version="1.1" id="Capa_1" xmlns="http://www.w3.org/2000/svg" xmlns:xlink="http://www.w3.org/1999/xlink" x="0px" y="0px"
	 viewBox="0 0 512 512" style="enable-background:new 0 0 512 512;" xml:space="preserve">
<style type="text/css">
	.st0{opacity:0.56;fill:#EF9D75;}
	.st1{fill:#E5F5FC;}
	.st2{fill:#CAD0D8;}
	.st3{fill:#EF9D75;}
	.st4{fill:#FFFFFF;}
	.st5{fill:#EDBA89;}
	.st6{fill:#FBCB99;}
	.st7{fill:#88C9FF;}
	.st8{fill:#51565F;}
	.st9{fill:none;stroke:#CAD0D8;stroke-width:6;stroke-linecap:round;stroke-miterlimit:10;}
	.st10{fill:#E5F5FC;stroke:#51565F;stroke-width:6;stroke-linecap:round;stroke-miterlimit:10;}
	.st11{fill:none;stroke:#E5F5FC;stroke-width:6;stroke-miterlimit:10;}
</style>
<path class="st0" d="M32.8,189c0-6.5,2.6-12.3,6.8-16.5c4.2-4.2,10.1-6.8,16.5-6.8H159v-1.4h29.8c5.5,0,10.4-2.2,14-5.8
	c3.6-3.6,5.8-8.6,5.8-14c0-11-8.9-19.8-19.8-19.8H159v-1.4h-39.7c-11.7,0-21.3-9.5-21.3-21.3c0-5.9,2.4-11.2,6.2-15
	c3.8-3.9,9.2-6.2,15-6.2h287.8c11.7,0,21.3,9.5,21.3,21.3c0,5.9-2.4,11.2-6.2,15c-3.8,3.9-9.2,6.2-15,6.2h-15.6v1.4h-12.8
	c-5.5,0-10.4,2.2-14,5.8c-3.6,3.6-5.8,8.6-5.8,14c0,11,8.9,19.8,19.8,19.8h12.8v1.4h26.2c12.9,0,23.4,10.5,23.4,23.4
	c0,6.5-2.6,12.3-6.8,16.5c-4.2,4.2-10.1,6.8-16.5,6.8h-44.7v0c-3,0.2-5.8,1.5-7.8,3.5c-2.2,2.2-3.5,5.2-3.5,8.5
	c0,6.4,5,11.7,11.3,12v0h107c8.2,0,14.9,6.7,14.9,14.9c0,4.1-1.7,7.8-4.4,10.5c-2.7,2.7-6.4,4.4-10.5,4.4h-98.5
	c-5.5,0-10.4,2.2-14,5.8c-3.6,3.6-5.8,8.6-5.8,14c0,11,8.9,19.8,19.8,19.8h33.3c12.9,0,23.4,10.5,23.4,23.4c0,6.5-2.6,12.3-6.8,16.5
	c-4.2,4.2-10.1,6.8-16.5,6.8H53.4c-12.9,0-23.4-10.5-23.4-23.4c0-6.5,2.6-12.3,6.8-16.5c4.2-4.2,10.1-6.8,16.5-6.8H159v-0.5
	c3.8-0.8,7.1-2.7,9.8-5.4c3.6-3.6,5.8-8.6,5.8-14c0-9.5-6.7-17.4-15.6-19.4v-0.5h-22c-8.2,0-14.9-6.7-14.9-14.9
	c0-4.1,1.7-7.8,4.4-10.5c2.7-2.7,6.4-4.4,10.5-4.4h37.6v-0.2c2.5-0.4,4.7-1.6,6.4-3.3c2.2-2.2,3.5-5.2,3.5-8.5
	c0-5.9-4.3-10.9-9.9-11.9v-0.2H56.2C43.3,212.4,32.8,202,32.8,189z"/>
<g>
	<path class="st1" d="M337,314.4c-7.2-3.9-12.6-10.7-14.9-18.6l-0.2-0.7l-0.8,0c-8.5,0-15.4-6.9-15.4-15.4c0-0.6,0-1.3,0.1-2l0.1-1
		H137.3v58.5H303c0.2,0,0.4,0,0.6,0.1l0.3,0.1l0.3-0.2c1.7-1.1,3.5-1.9,5.1-2.5l28.1-11v-7L337,314.4z M184.9,309.4
		c2,0,3.7,1.7,3.7,3.7v8.2c0,2-1.7,3.7-3.7,3.7h-32.1c-2,0-3.7-1.7-3.7-3.7v-30.6c0-2,1.7-3.7,3.7-3.7h23.3c2,0,3.7,1.7,3.7,3.7
		c0,2-1.7,3.7-3.7,3.7h-19.6v23.2h24.7V313C181.2,311,182.9,309.4,184.9,309.4z M172,314.3c-1,0-2-0.4-2.7-1.2l-8.1-8.8
		c-1.4-1.5-1.3-3.8,0.2-5.2c0.7-0.6,1.6-1,2.5-1c1,0,2,0.4,2.7,1.2l5.4,5.9l16-17c0.7-0.7,1.7-1.2,2.7-1.2c0.9,0,1.8,0.4,2.5,1
		c0.7,0.7,1.1,1.6,1.2,2.6c0,1-0.3,1.9-1,2.6l-18.7,19.9C174,313.9,173.1,314.3,172,314.3z M257.6,299.5h-50.8c-2,0-3.7-1.7-3.7-3.7
		c0-2,1.7-3.7,3.7-3.7h50.8c2,0,3.7,1.7,3.7,3.7C261.3,297.9,259.7,299.5,257.6,299.5z M206.8,312.5h99.9c2,0,3.7,1.7,3.7,3.7
		c0,2-1.7,3.7-3.7,3.7h-99.9c-2,0-3.7-1.7-3.7-3.7C203.1,314.2,204.7,312.5,206.8,312.5z"/>
	<path class="st2" d="M312.6,250.7c1.3-13.7,9.3-25.6,21.5-32l0.5-0.3v-29H137.3v62.2h175.2L312.6,250.7z M172,230.5
		c-1,0-2-0.4-2.7-1.2l-8.1-8.8c-0.7-0.7-1-1.7-1-2.7c0-1,0.5-1.9,1.2-2.6c0.7-0.6,1.6-1,2.5-1c1,0,2,0.4,2.7,1.2l5.4,5.9l16-17
		c0.7-0.7,1.7-1.2,2.7-1.2c0.9,0,1.8,0.4,2.5,1c0.7,0.7,1.1,1.6,1.2,2.6c0,1-0.3,1.9-1,2.6l-18.7,19.9
		C174,230.1,173.1,230.5,172,230.5z M176.1,210.7h-19.6v23.2h24.7v-4.6c0-2,1.7-3.7,3.7-3.7c2,0,3.7,1.7,3.7,3.7v8.2
		c0,2-1.7,3.7-3.7,3.7h-32.1c-2,0-3.7-1.7-3.7-3.7V207c0-2,1.7-3.7,3.7-3.7h23.3c2,0,3.7,1.7,3.7,3.7
		C179.8,209,178.1,210.7,176.1,210.7z M257.6,215.8h-50.8c-2,0-3.7-1.7-3.7-3.7s1.7-3.7,3.7-3.7h50.8c2,0,3.7,1.7,3.7,3.7
		C261.3,214.1,259.7,215.8,257.6,215.8z M203.1,232.4c0-2,1.7-3.7,3.7-3.7h100.6c2,0,3.7,1.7,3.7,3.7c0,2-1.7,3.7-3.7,3.7H206.8
		C204.7,236.1,203.1,234.5,203.1,232.4z"/>
	<path class="st1" d="M334.6,105.6H137.3v62.2h197.3V105.6z M172,146.8c-1,0-2-0.4-2.7-1.2l-8.1-8.8c-0.7-0.7-1-1.7-1-2.7
		c0-1,0.5-1.9,1.2-2.6c0.7-0.6,1.6-1,2.5-1c1,0,2,0.4,2.7,1.2l5.4,5.9l16-17c0.7-0.7,1.7-1.2,2.7-1.2c0.9,0,1.8,0.4,2.5,1
		c0.7,0.7,1.1,1.6,1.2,2.6c0,1-0.3,1.9-1,2.6l-18.7,19.9C174,146.4,173.1,146.8,172,146.8z M176.1,126.9h-19.6v23.2h24.7v-4.6
		c0-2,1.7-3.7,3.7-3.7c2,0,3.7,1.7,3.7,3.7v8.2c0,2-1.7,3.7-3.7,3.7h-32.1c-2,0-3.7-1.7-3.7-3.7v-30.6c0-2,1.7-3.7,3.7-3.7h23.3
		c2,0,3.7,1.7,3.7,3.7S178.1,126.9,176.1,126.9z M257.6,132h-50.8c-2,0-3.7-1.7-3.7-3.7c0-2,1.7-3.7,3.7-3.7h50.8
		c2,0,3.7,1.7,3.7,3.7S259.7,132,257.6,132z M206.8,145h101.7c2,0,3.7,1.7,3.7,3.7s-1.7,3.7-3.7,3.7H206.8c-2,0-3.7-1.7-3.7-3.7
		S204.7,145,206.8,145z"/>
</g>
<path class="st3" d="M355.9,220.8h-3.1c-18.5,0-33.6,15.1-33.6,33.6v13l2.8-4.5l0.2-0.3l0.6-0.6c0,0,0.1,0,0.1-0.1l0.1-0.1
	c0,0,0.1,0,0.1-0.1l0.2-0.1c0,0,0.1,0,0.1-0.1l0.5-0.2c0.1,0,0.1,0,0.2,0l0.1,0c0.1,0,0.2,0,0.3,0c0.3,0,27.9-0.2,40.4-17.6
	c0.7-1,1.9-1.4,3.1-1.2c1.2,0.2,2.1,1.2,2.4,2.3c0,0.1,3.4,14,14.3,16.5l0.1,0c0.1,0,0.1,0,0.2,0l0.1,0c0.1,0,0.1,0,0.2,0.1l0.3,0.1
	c0,0,0.1,0.1,0.2,0.1l0.1,0.1c0,0,0.1,0.1,0.2,0.1l0.1,0c0,0,0.1,0.1,0.2,0.1l0.1,0.1c0,0,0.1,0.1,0.1,0.1c0,0,0.1,0.1,0.1,0.1
	l2.9,4v-12.3C389.5,235.9,374.4,220.8,355.9,220.8z"/>
<path class="st4" d="M367.4,253.8l-0.9-1.8l-1.5,1.4c-11.4,10.6-27.4,13.4-35.8,14.1l-1.4,0.1v19.9c0,13.1,10.7,23.8,23.8,23.8h5.8
	c13.1,0,23.8-10.7,23.8-23.8V267l-1-0.4C373.5,263.8,369.5,258.1,367.4,253.8z"/>
<path class="st5" d="M312.5,279.8c0,4.2,3.1,7.9,7.3,8.5l1.8,0.3V271l-1.8,0.3C315.6,271.9,312.5,275.6,312.5,279.8z"/>
<g>
	<path class="st2" d="M357.4,317.5h-5.8c-1.8,0-3.7-0.2-5.5-0.5l-1.8-0.3v9.7l10.1,9.8l10.4-10.8v-8.8l-1.8,0.3
		C361,317.3,359.2,317.5,357.4,317.5z"/>
	<path class="st6" d="M389.1,271.3l-1.8-0.3v17.6l1.8-0.3c4.1-0.8,7.1-4.3,7.1-8.5C396.2,275.7,393.2,272.1,389.1,271.3z"/>
</g>
<path class="st7" d="M396.6,339.1c0,0-0.1,0-0.2-0.1l-26.2-10.5l-13.7,14.2c-0.6,0.6-1.3,0.9-2.2,0.9c-0.8,0-1.6-0.3-2.1-0.9
	L339,329.9c-0.1-0.1-0.2-0.2-0.2-0.3l-0.7-0.9l-26.3,10.3c0,0-0.1,0-0.2,0.1c-0.7,0.2-16.7,6.1-16.7,26.3V389h118.5v-23.5
	C413.3,345.2,397.2,339.3,396.6,339.1z"/>
<g>
	<path class="st8" d="M257.6,133h-50.8c-2.5,0-4.6-2.1-4.6-4.6c0-2.5,2.1-4.6,4.6-4.6h50.8c2.5,0,4.6,2.1,4.6,4.6
		C262.2,130.9,260.2,133,257.6,133z"/>
	<path class="st8" d="M308.5,153.3H206.8c-2.5,0-4.6-2.1-4.6-4.6c0-2.5,2.1-4.6,4.6-4.6h101.7c2.5,0,4.6,2.1,4.6,4.6
		C313.1,151.3,311,153.3,308.5,153.3z"/>
	<path class="st8" d="M257.6,216.7h-50.8c-2.5,0-4.6-2.1-4.6-4.6c0-2.5,2.1-4.6,4.6-4.6h50.8c2.5,0,4.6,2.1,4.6,4.6
		C262.2,214.6,260.2,216.7,257.6,216.7z"/>
	<path class="st8" d="M307.4,237.1H206.8c-2.5,0-4.6-2.1-4.6-4.6c0-2.5,2.1-4.6,4.6-4.6h100.6c2.5,0,4.6,2.1,4.6,4.6
		C312,235,309.9,237.1,307.4,237.1z"/>
	<path class="st8" d="M257.6,300.4h-50.8c-2.5,0-4.6-2.1-4.6-4.6c0-2.5,2.1-4.6,4.6-4.6h50.8c2.5,0,4.6,2.1,4.6,4.6
		C262.2,298.4,260.2,300.4,257.6,300.4z"/>
	<path class="st8" d="M306.6,320.8h-99.9c-2.5,0-4.6-2.1-4.6-4.6c0-2.5,2.1-4.6,4.6-4.6h99.9c2.5,0,4.6,2.1,4.6,4.6
		S309.2,320.8,306.6,320.8z"/>
	<path class="st8" d="M399.1,331.9l-26.8-10.7v-5.9c7.4-4,13-10.9,15.3-19.1c9,0,16.2-7.3,16.2-16.3c0-5.4-2.6-10.2-6.7-13.1v-12.2
		c0-22.8-18.5-41.3-41.3-41.3h-3.1c-3.4,0-6.7,0.4-9.9,1.2v-25c0-2.5-2.1-4.6-4.6-4.6h-13.7c-2.5,0-4.6,2.1-4.6,4.6
		c0,2.5,2.1,4.6,4.6,4.6h9.1v23.9c-12.1,6.3-20.7,18.5-22,32.8H138.2V194h171c2.5,0,4.6-2.1,4.6-4.6c0-2.5-2.1-4.6-4.6-4.6H133.6
		c-2.5,0-4.6,2.1-4.6,4.6v65.8c0,2.5,2.1,4.6,4.6,4.6h177.9v6.8c-0.8,0.6-1.5,1.2-2.1,1.8H133.6c-2.5,0-4.6,2.1-4.6,4.6v65.8
		c0,2.5,2.1,4.6,4.6,4.6H294c-3.9,5.4-6.8,12.6-6.8,21.9v22.9c0,2.5,2.1,4.6,4.6,4.6h17.4c2.5,0,4.6-2.1,4.6-4.6
		c0-2.5-2.1-4.6-4.6-4.6h-12.8v-18.3c0-19.2,15.1-24.7,15.7-24.9c0.1,0,0.1,0,0.2-0.1l25.2-9.9c0.1,0.1,0.2,0.3,0.4,0.4l13.2,12.9
		c0.9,0.8,2,1.3,3.2,1.3c0,0,0,0,0.1,0c1.2,0,2.4-0.5,3.2-1.4l12.9-13.4l25.2,10.1c0.1,0,0.2,0.1,0.2,0.1
		c0.6,0.2,15.7,5.7,15.7,24.9v18.3h-37.9h-32.7h-6.8h-5.7h-4.6c-2.5,0-4.6,2.1-4.6,4.6c0,2.5,2.1,4.6,4.6,4.6h4.6h5.7h6.8h32.7h42.5
		c2.5,0,4.6-2.1,4.6-4.7v-22.9C421,344.8,406.8,334.5,399.1,331.9z M357.4,309.8h-5.8c-12.3,0-22.3-10-22.3-22.3V269
		c8-0.7,24.8-3.5,36.7-14.5c2.4,4.8,6.7,10.6,13.7,13.5v19.6C379.6,299.8,369.6,309.8,357.4,309.8z M320,272.8v14
		c-3.4-0.5-6-3.5-6-7C314,276.3,316.6,273.3,320,272.8z M388.9,286.8v-13.9c3.3,0.6,5.8,3.5,5.8,7
		C394.7,283.3,392.2,286.2,388.9,286.8z M352.8,222.3h3.1c17.7,0,32.1,14.4,32.1,32.1v7.5c0,0,0,0,0,0c0-0.1-0.1-0.1-0.1-0.2
		c0-0.1-0.1-0.1-0.1-0.2c-0.1-0.1-0.1-0.1-0.2-0.2c0,0-0.1-0.1-0.1-0.1c-0.1-0.1-0.1-0.1-0.2-0.2c0,0-0.1-0.1-0.1-0.1
		c-0.1-0.1-0.1-0.1-0.2-0.2c-0.1,0-0.1-0.1-0.2-0.1c-0.1,0-0.1-0.1-0.2-0.1c-0.1,0-0.1-0.1-0.2-0.1c-0.1,0-0.1-0.1-0.2-0.1
		c-0.1,0-0.2-0.1-0.2-0.1c-0.1,0-0.1,0-0.2-0.1c-0.1,0-0.2-0.1-0.3-0.1c0,0-0.1,0-0.1,0c-10-2.3-13.2-15.3-13.2-15.4
		c-0.4-1.8-1.8-3.1-3.6-3.5c-1.8-0.4-3.6,0.3-4.7,1.8C351.7,259.9,325,260,324.6,260c0,0,0,0,0,0c0,0,0,0,0,0c-0.2,0-0.3,0-0.5,0
		c0,0-0.1,0-0.1,0c-0.1,0-0.2,0-0.3,0c-0.1,0-0.1,0-0.2,0c-0.1,0-0.2,0-0.3,0.1c-0.1,0-0.1,0.1-0.2,0.1c-0.1,0-0.1,0-0.2,0.1
		c-0.1,0-0.2,0.1-0.3,0.1c0,0-0.1,0-0.1,0.1c-0.1,0-0.2,0.1-0.2,0.1c0,0-0.1,0.1-0.1,0.1c-0.1,0.1-0.1,0.1-0.2,0.2
		c0,0-0.1,0.1-0.1,0.1c-0.1,0.1-0.1,0.1-0.2,0.2c0,0-0.1,0.1-0.1,0.1c-0.1,0.1-0.1,0.1-0.2,0.2c0,0-0.1,0.1-0.1,0.1
		c0,0.1-0.1,0.1-0.1,0.2c0,0.1-0.1,0.1-0.1,0.2c0,0,0,0.1-0.1,0.1v-7.7C320.7,236.7,335.1,222.3,352.8,222.3z M309,331.9
		c-1.5,0.5-3.3,1.4-5.2,2.5c-0.3,0-0.5-0.1-0.8-0.1H138.2v-56.6h166.7c-0.1,0.7-0.1,1.4-0.1,2.1c0,9,7.3,16.3,16.3,16.3
		c0,0,0.1,0,0.1,0c2.3,8.2,7.9,15.1,15.3,19.1v5.9L309,331.9z M354.3,334.1l-8.5-8.3v-7.3c1.9,0.3,3.8,0.5,5.8,0.5h5.8
		c2,0,3.9-0.2,5.8-0.5v5.8c0,0,0,0,0,0v0.5L354.3,334.1z"/>
	<path class="st8" d="M184.9,158.4h-32.1c-2.5,0-4.6-2.1-4.6-4.6v-30.6c0-2.5,2.1-4.6,4.6-4.6h23.3c2.5,0,4.6,2.1,4.6,4.6
		c0,2.5-2.1,4.6-4.6,4.6h-18.6v21.3h22.8v-3.6c0-2.5,2.1-4.6,4.6-4.6c2.5,0,4.6,2.1,4.6,4.6v8.2
		C189.5,156.4,187.5,158.4,184.9,158.4z"/>
	<path class="st8" d="M172,147.7C172,147.7,172,147.7,172,147.7c-1.3,0-2.5-0.5-3.4-1.5l-8.1-8.8c-1.7-1.9-1.6-4.8,0.3-6.5
		c1.9-1.7,4.8-1.6,6.5,0.3l4.7,5.2l15.3-16.2c1.7-1.9,4.7-1.9,6.5-0.2c1.9,1.7,1.9,4.7,0.2,6.5l-18.7,19.9
		C174.5,147.2,173.3,147.7,172,147.7z"/>
	<path class="st8" d="M184.9,242.2h-32.1c-2.5,0-4.6-2.1-4.6-4.6V207c0-2.5,2.1-4.6,4.6-4.6h23.3c2.5,0,4.6,2.1,4.6,4.6
		c0,2.5-2.1,4.6-4.6,4.6h-18.6v21.3h22.8v-3.6c0-2.5,2.1-4.6,4.6-4.6c2.5,0,4.6,2.1,4.6,4.6v8.2
		C189.5,240.1,187.5,242.2,184.9,242.2z"/>
	<path class="st8" d="M172,231.5C172,231.5,172,231.5,172,231.5c-1.3,0-2.5-0.5-3.4-1.5l-8.1-8.8c-1.7-1.9-1.6-4.8,0.3-6.5
		c1.9-1.7,4.8-1.6,6.5,0.3l4.7,5.2l15.3-16.2c1.7-1.9,4.7-1.9,6.5-0.2c1.9,1.7,1.9,4.7,0.2,6.5L175.4,230
		C174.5,230.9,173.3,231.5,172,231.5z"/>
	<path class="st8" d="M184.9,325.9h-32.1c-2.5,0-4.6-2.1-4.6-4.6v-30.6c0-2.5,2.1-4.6,4.6-4.6h23.3c2.5,0,4.6,2.1,4.6,4.6
		c0,2.5-2.1,4.6-4.6,4.6h-18.6v21.3h22.8V313c0-2.5,2.1-4.6,4.6-4.6c2.5,0,4.6,2.1,4.6,4.6v8.2C189.5,323.8,187.5,325.9,184.9,325.9
		z"/>
	<path class="st8" d="M172,315.2C172,315.2,172,315.2,172,315.2c-1.3,0-2.5-0.5-3.4-1.5l-8.1-8.8c-1.7-1.9-1.6-4.8,0.3-6.5
		c1.9-1.7,4.8-1.6,6.5,0.3l4.7,5.2l15.3-16.2c1.7-1.9,4.7-1.9,6.5-0.2c1.9,1.7,1.9,4.7,0.2,6.5l-18.7,19.9
		C174.5,314.7,173.3,315.2,172,315.2z"/>
	<path class="st8" d="M338.3,176.1H133.6c-2.5,0-4.6-2.1-4.6-4.6v-65.8c0-2.5,2.1-4.6,4.6-4.6h175.6c2.5,0,4.6,2.1,4.6,4.6
		c0,2.5-2.1,4.6-4.6,4.6h-171v56.6h195.5v-56.6h-9.1c-2.5,0-4.6-2.1-4.6-4.6c0-2.5,2.1-4.6,4.6-4.6h13.7c2.5,0,4.6,2.1,4.6,4.6v65.8
		C342.9,174,340.9,176.1,338.3,176.1z"/>
</g>
<path class="st0" d="M93.2,267H41.8c-8.2,0-14.8-6.6-14.8-14.8v0c0-8.2,6.6-14.8,14.8-14.8h51.5c8.2,0,14.8,6.6,14.8,14.8v0
	C108,260.4,101.4,267,93.2,267z"/>
<path class="st0" d="M174.7,430H98.3c-11.2,0-20.3-9.1-20.3-20.3v0c0-11.2,9.1-20.3,20.3-20.3h76.5c11.2,0,20.3,9.1,20.3,20.3v0
	C195,420.9,185.9,430,174.7,430z"/>
<path class="st8" d="M320,430c0,2.2-1.8,4-4,4h-7v7c0,1.1-0.5,2.1-1.2,2.8c-0.7,0.7-1.7,1.2-2.8,1.2c-2.2,0-4-1.8-4-4v-7h-7
	c-1.1,0-2.1-0.5-2.8-1.2c-0.7-0.7-1.2-1.7-1.2-2.8c0-2.2,1.8-4,4-4h7v-7c0-2.2,1.8-4,4-4s4,1.8,4,4v7h7C318.2,426,320,427.8,320,430
	z"/>
<path class="st8" d="M98,217c0,2.2-1.8,4-4,4h-7v7c0,1.1-0.5,2.1-1.2,2.8c-0.7,0.7-1.7,1.2-2.8,1.2c-2.2,0-4-1.8-4-4v-7h-7
	c-1.1,0-2.1-0.5-2.8-1.2c-0.7-0.7-1.2-1.7-1.2-2.8c0-2.2,1.8-4,4-4h7v-7c0-2.2,1.8-4,4-4s4,1.8,4,4v7h7C96.2,213,98,214.8,98,217z"
	/>
<path class="st3" d="M56,76.2c-1.5,1.6-4,1.7-5.7,0.2l-5.1-4.7l-4.7,5.1c-0.7,0.8-1.8,1.2-2.8,1.3c-1,0-2.1-0.3-2.9-1.1
	c-1.6-1.5-1.7-4-0.2-5.7l4.7-5.1l-5.1-4.7c-0.8-0.7-1.2-1.8-1.3-2.8c0-1,0.3-2.1,1.1-2.9c1.5-1.6,4-1.7,5.7-0.2l5.1,4.7l4.7-5.1
	c1.5-1.6,4-1.7,5.7-0.2s1.7,4,0.2,5.7l-4.7,5.1l5.1,4.7C57.4,72,57.5,74.5,56,76.2z"/>
<path class="st9" d="M228.4,458.9c-0.3,0.3-0.6,0.5-0.9,0.7c-5.7,4.1-13.6,3.2-18.3-2.2c-4.9-5.7-4.2-14.3,1.5-19.2
	c5.7-4.9,14.3-4.2,19.2,1.5c1.5,1.8,2.5,3.9,3,6"/>
<path class="st10" d="M335.8,58.3c-0.1-0.4-0.3-0.7-0.4-1.1c-1.8-6.7,1.8-13.9,8.4-16.3c7.1-2.6,14.9,1,17.4,8.1s-1,14.9-8.1,17.4
	c-2.2,0.8-4.5,1-6.7,0.7"/>
<circle class="st11" cx="461.6" cy="138.6" r="11.6"/>
</svg>
