<?xml version="1.0" encoding="utf-8"?>
<!-- Generator: Adobe Illustrator 21.0.2, SVG Export Plug-In . SVG Version: 6.00 Build 0)  -->
<svg version="1.1" xmlns="http://www.w3.org/2000/svg" xmlns:xlink="http://www.w3.org/1999/xlink" x="0px" y="0px"
	 viewBox="0 0 512 512" style="enable-background:new 0 0 512 512;" xml:space="preserve">
<style type="text/css">
	.st0{fill:#E5F5FC;}
	.st1{fill:#88C9FF;}
	.st2{fill:#CAD0D8;}
	.st3{fill:#51565F;}
	.st4{clip-path:url(#SVGID_2_);}
	.st5{clip-path:url(#SVGID_4_);fill:#568CE2;}
	.st6{clip-path:url(#SVGID_6_);}
	.st7{clip-path:url(#SVGID_8_);fill:#51565F;}
	.st8{clip-path:url(#SVGID_10_);}
	.st9{clip-path:url(#SVGID_12_);fill:none;stroke:#3B9DFF;stroke-width:6;stroke-miterlimit:10;}
	.st10{fill:#CAD0D8;stroke:#51565F;stroke-width:6;stroke-linecap:round;stroke-miterlimit:10;}
	.st11{fill:#EF9D75;}
	.st12{fill:none;stroke:#F47027;stroke-width:6;stroke-linecap:round;stroke-miterlimit:10;}
	.st13{fill:#4184E5;}
</style>
<g id="Capa_1">
	<path class="st0" d="M384,199.5c0,4.6-1.8,8.7-4.8,11.7s-7.1,4.8-11.7,4.8H295v1h-21c-3.9,0-7.4,1.6-9.9,4.1s-4.1,6-4.1,9.9
		c0,7.7,6.3,14,14,14h21v1h28c8.3,0,15,6.7,15,15c0,4.1-1.7,7.9-4.4,10.6c-2.7,2.7-6.5,4.4-10.6,4.4H120c-8.3,0-15-6.7-15-15
		c0-4.1,1.7-7.9,4.4-10.6c2.7-2.7,6.5-4.4,10.6-4.4h11v-1h9c3.9,0,7.4-1.6,9.9-4.1s4.1-6,4.1-9.9c0-7.7-6.3-14-14-14h-9v-1h-18.5
		c-9.1,0-16.5-7.4-16.5-16.5c0-4.6,1.8-8.7,4.8-11.7s7.1-4.8,11.7-4.8H144l0,0c2.1-0.1,4.1-1,5.5-2.5c1.5-1.5,2.5-3.7,2.5-6
		c0-4.5-3.5-8.2-8-8.5l0,0H68.5c-5.8,0-10.5-4.7-10.5-10.5c0-2.9,1.2-5.5,3.1-7.4c1.9-1.9,4.5-3.1,7.4-3.1H138
		c3.9,0,7.4-1.6,9.9-4.1s4.1-6,4.1-9.9c0-7.7-6.3-14-14-14h-23.5c-9.1,0-16.5-7.4-16.5-16.5c0-4.6,1.8-8.7,4.8-11.7
		s7.1-4.8,11.7-4.8h255c9.1,0,16.5,7.4,16.5,16.5c0,4.6-1.8,8.7-4.8,11.7s-7.1,4.8-11.7,4.8H295v0.3c-2.7,0.6-5,1.9-6.9,3.8
		c-2.5,2.5-4.1,6-4.1,9.9c0,6.7,4.7,12.3,11,13.7v0.3h15.5c5.8,0,10.5,4.7,10.5,10.5c0,2.9-1.2,5.5-3.1,7.4s-4.5,3.1-7.4,3.1H284
		v0.1c-1.7,0.3-3.3,1.1-4.5,2.3c-1.5,1.5-2.5,3.7-2.5,6c0,4.2,3,7.7,7,8.4v0.1h83.5C376.6,183,384,190.4,384,199.5z"/>
	<path class="st0" d="M92.8,337.4H54.3c-5.6,0-10.2-4.5-10.2-10.2l0,0c0-5.6,4.5-10.2,10.2-10.2h38.5c5.6,0,10.2,4.5,10.2,10.2l0,0
		C103,332.9,98.4,337.4,92.8,337.4z"/>
	<path class="st0" d="M475.2,118h-63.5c-9.3,0-16.8-7.5-16.8-16.8l0,0c0-9.3,7.5-16.8,16.8-16.8h63.5c9.3,0,16.8,7.5,16.8,16.8l0,0
		C492,110.5,484.5,118,475.2,118z"/>
	<g transform="translate(9 1)">
		<path class="st1" d="M396.3,256l20.1,20.1c6.7,6.7,6.7,20.1,0,26.8L302.6,416.8c-6.7,6.7-20.1,6.7-26.8,0l-20.1-20.1L396.3,256z
			 M249,108.7l13.4,13.4L121.7,262.7l-13.4-13.4c-6.7-6.7-6.7-20.1,0-26.8l113.9-113.9C228.9,102,242.3,102,249,108.7z"/>
		<g>
			<path class="st2" d="M339.1,337.8c-1.7-1.7-4.7-2-6.7,0s-1.7,5,0,6.7s4.7,2,6.7,0S340.8,339.4,339.1,337.8L339.1,337.8z"/>
			<polygon class="st2" points="248.7,394.7 389.3,254 255.4,120.1 114.7,260.7 			"/>
		</g>
	</g>
	<path class="st3" d="M420.1,303.6L306.2,417.5c-7.7,7.7-22.4,7.7-30.1,0L256,397.4c-1-1-1-2.3,0-3.3l127.3-127.3c1-1,2.3-1,3.3,0
		s1,2.3,0,3.3L261,395.7l18.4,18.4c5.7,5.7,17.8,5.7,23.4,0l113.9-113.9c5.7-5.7,5.7-17.8,0-23.4L264.4,124.4L138.8,250
		c-1,1-2.3,1-3.3,0s-1-2.3,0-3.3l127.3-127.3c1-1,2.3-1,3.3,0l154.1,154.1C427.8,281.2,427.8,295.9,420.1,303.6z M349.8,347.1
		c-2.7,2.7-7.4,2.7-10,0s-2.7-7.4,0-10s7.4-2.7,10,0S352.4,344.5,349.8,347.1z M343.1,340.4c-1,1-1,2.3,0,3.3s2.3,1,3.3,0
		s1-2.3,0-3.3S344.1,339.4,343.1,340.4z M245.9,384c-1,1-2.3,1-3.3,0l-134-134c-7.7-7.7-7.7-22.4,0-30.1L222.5,106
		c7.7-7.7,22.4-7.7,30.1,0c1,1,1,2.3,0,3.3s-2.3,1-3.3,0c-5.7-5.7-17.8-5.7-23.4,0L112,223.2c-5.7,5.7-5.7,17.8,0,23.4l134,134
		C246.9,381.6,246.9,383,245.9,384z M292.8,189.7c-0.3,0.3-1,1-1.7,1h-53.6c-0.7,0-1-0.3-1.7-1s-1-1-1-1.7c0-1.3,1-2.3,2.3-2.3h53.6
		c0.7,0,1,0.3,1.7,1s1,1,1,1.7C293.5,189.1,293.2,189.4,292.8,189.7z M272.7,169.6c-0.3,0.3-1,1-1.7,1h-13.4c-0.7,0-1-0.3-1.7-1
		s-1-1-1-1.7c0-1.3,1-2.3,2.3-2.3h13.4c0.7,0,1,0.3,1.7,1s1,1,1,1.7C273.4,169,273.1,169.3,272.7,169.6z"/>
	<g>
		<g>
			<g id="Ilustración_2">
				<defs>
					<rect id="SVGID_1_" x="54" y="44" width="30" height="30"/>
				</defs>
				<clipPath id="SVGID_2_">
					<use xlink:href="#SVGID_1_"  style="overflow:visible;"/>
				</clipPath>
				<g class="st4">
					<g>
						<defs>
							<rect id="SVGID_3_" x="54" y="44" width="30" height="30"/>
						</defs>
						<clipPath id="SVGID_4_">
							<use xlink:href="#SVGID_3_"  style="overflow:visible;"/>
						</clipPath>
						<path class="st5" d="M84,59c0,1.1-0.4,2.1-1.2,2.8C82.1,62.5,81.1,63,80,63h-7v7c0,2.2-1.8,4-4,4s-4-1.8-4-4v-7h-7
							c-2.2,0-4-1.8-4-4s1.8-4,4-4h7v-7c0-2.2,1.8-4,4-4c1.1,0,2.1,0.5,2.8,1.2c0.7,0.7,1.2,1.7,1.2,2.8v7h7C82.2,55,84,56.8,84,59"
							/>
					</g>
				</g>
			</g>
			<g>
				<g>
					<g id="Ilustración_4">
						<defs>
							<rect id="SVGID_5_" x="420.7" y="361.3" width="20.3" height="20.3"/>
						</defs>
						<clipPath id="SVGID_6_">
							<use xlink:href="#SVGID_5_"  style="overflow:visible;"/>
						</clipPath>
						<g class="st6">
							<g>
								<defs>
									<rect id="SVGID_7_" x="420.7" y="361.3" width="20.3" height="20.3"/>
								</defs>
								<clipPath id="SVGID_8_">
									<use xlink:href="#SVGID_7_"  style="overflow:visible;"/>
								</clipPath>
								<path class="st7" d="M441,371.5c0,1.5-1.2,2.7-2.7,2.7h-4.7v4.7c0,0.7-0.3,1.4-0.8,1.9s-1.2,0.8-1.9,0.8
									c-1.5,0-2.7-1.2-2.7-2.7v-4.7h-4.7c-0.7,0-1.4-0.3-1.9-0.8s-0.8-1.2-0.8-1.9c0-1.5,1.2-2.7,2.7-2.7h4.7V364
									c0-1.5,1.2-2.7,2.7-2.7s2.7,1.2,2.7,2.7v4.7h4.7C439.8,368.8,441,370,441,371.5"/>
							</g>
						</g>
					</g>
					<g>
						<g>
							<g id="Ilustración_3">
								<defs>
									<rect id="SVGID_9_" x="385" y="417" width="22.9" height="22.9"/>
								</defs>
								<clipPath id="SVGID_10_">
									<use xlink:href="#SVGID_9_"  style="overflow:visible;"/>
								</clipPath>
								<g class="st8">
									<g>
										<defs>
											<rect id="SVGID_11_" x="385" y="417" width="22.9" height="22.9"/>
										</defs>
										<clipPath id="SVGID_12_">
											<use xlink:href="#SVGID_11_"  style="overflow:visible;"/>
										</clipPath>
										<circle class="st9" cx="396.5" cy="428.5" r="9.4"/>
									</g>
								</g>
							</g>
							<path class="st10" d="M333.9,53.9c-0.2-0.5-0.4-1.1-0.5-1.6c-2.7-9.7,2.5-20,12.2-23.5c10.2-3.7,21.4,1.5,25.1,11.7
								s-1.5,21.4-11.7,25.1c-3.2,1.2-6.5,1.5-9.6,1"/>
							<path class="st11" d="M427.3,68.2c-0.9,1-2.5,1.1-3.6,0.1l-3.3-3l-3,3.3c-0.5,0.5-1.1,0.8-1.8,0.8c-0.6,0-1.3-0.2-1.8-0.7
								c-1-0.9-1.1-2.5-0.1-3.6l3-3.3l-3.3-3c-0.5-0.5-0.8-1.1-0.8-1.8c0-0.6,0.2-1.3,0.7-1.8c0.9-1,2.5-1.1,3.6-0.1l3.3,3l3-3.3
								c0.9-1,2.5-1.1,3.6-0.1c1,0.9,1.1,2.5,0.1,3.6l-3,3.3l3.3,3C428.2,65.6,428.2,67.2,427.3,68.2z"/>
							<path class="st11" d="M156.3,471.2c-0.9,1-2.5,1.1-3.6,0.1l-3.3-3l-3,3.3c-0.5,0.5-1.1,0.8-1.8,0.8c-0.6,0-1.3-0.2-1.8-0.7
								c-1-0.9-1.1-2.5-0.1-3.6l3-3.3l-3.3-3c-0.5-0.5-0.8-1.1-0.8-1.8c0-0.6,0.2-1.3,0.7-1.8c0.9-1,2.5-1.1,3.6-0.1l3.3,3l3-3.3
								c0.9-1,2.5-1.1,3.6-0.1s1.1,2.5,0.1,3.6l-3,3.3l3.3,3C157.2,468.6,157.2,470.2,156.3,471.2z"/>
							<path class="st12" d="M51.4,256.6c-0.2,0.2-0.5,0.4-0.7,0.6c-4.6,3.3-11,2.6-14.8-1.8c-3.9-4.6-3.4-11.5,1.2-15.5
								s11.5-3.4,15.5,1.2c1.2,1.4,2,3.1,2.4,4.9"/>
						</g>
					</g>
				</g>
			</g>
		</g>
	</g>
</g>
<g id="Capa_2">
	<path class="st13" d="M210.2,411.4c0,1.2-1,2.3-2.3,2.3h-42.1c-1.2,0-2.3-1-2.3-2.3s1-2.3,2.3-2.3H208
		C209.2,409.1,210.2,410.1,210.2,411.4z"/>
	<path class="st3" d="M229,288c-4.4-4.4-10.3-6.8-16.5-6.8s-12.1,2.4-16.5,6.8c-4.4,4.4-6.8,10.3-6.8,16.5c0,6.2,2.4,12.1,6.8,16.5
		c4.4,4.4,10.3,6.8,16.5,6.8s12.1-2.4,16.5-6.8c4.4-4.4,6.8-10.3,6.8-16.5C235.8,298.3,233.4,292.4,229,288z M225.8,317.8
		c-3.5,3.6-8.3,5.5-13.3,5.5c-5,0-9.8-2-13.3-5.5c-3.6-3.5-5.5-8.3-5.5-13.3c0-5,2-9.8,5.5-13.3c3.5-3.6,8.3-5.5,13.3-5.5
		c5,0,9.8,2,13.3,5.5c3.6,3.6,5.5,8.3,5.5,13.3C231.3,309.5,229.4,314.3,225.8,317.8z"/>
	<g>
		<g>
			<g>
				<path class="st11" d="M210.2,411.4c0,1.2-1,2.3-2.3,2.3h-42.1c-1.2,0-2.3-1-2.3-2.3s1-2.3,2.3-2.3H208
					C209.2,409.1,210.2,410.1,210.2,411.4z"/>
				<path class="st1" d="M179.1,309.8c-1.2,0.9-2.6,1.4-4.2,1.4c-3.7,0-6.8-3-6.8-6.8c0-3.7,3-6.8,6.8-6.8c1.5,0,3,0.5,4.2,1.5
					C178.5,302.7,178.5,306.3,179.1,309.8z"/>
				<path class="st1" d="M253.9,363.2c0,3.7-3,6.8-6.8,6.8c-2.9,0-5.4-1.9-6.4-4.5c0,0,0-0.1,0-0.1c-0.2-0.7-0.4-1.4-0.4-2.2
					c0-2.7,1.6-5.1,4-6.2c0,0,0,0,0.1,0c0.8-0.4,1.8-0.6,2.7-0.6C250.9,356.5,253.9,359.5,253.9,363.2z"/>
				<path class="st2" d="M133.5,363.2c0,3.7-3,6.8-6.8,6.8c-3.7,0-6.8-3-6.8-6.8c0-3.7,3-6.8,6.8-6.8
					C130.4,356.5,133.5,359.5,133.5,363.2z"/>
				<path class="st11" d="M220.5,353.3c-0.7-0.9-1.8-1.5-3-1.5h-56.8c-1.2,0-2.2,0.5-3,1.5c-0.7,0.9-1,2.1-0.7,3.2l7.9,31.6
					c1.1,4.4,5,7.4,9.5,7.4h29.4c4.5,0,8.4-3,9.5-7.4l4.5-18.2h-22.7c-1.2,0-2.3-1-2.3-2.3c0-1.2,1-2.2,2.3-2.2h23.8l2.2-8.9
					C221.4,355.4,221.2,354.3,220.5,353.3z M201.9,379.4c0-1.2,1-2.2,2.2-2.2c1.2,0,2.3,1,2.3,2.2v0.3c0,1.2-1,2.2-2.3,2.2
					c-1.2,0-2.2-1-2.2-2.2V379.4z M173.3,379.7c0,1.2-1,2.2-2.2,2.2c-1.2,0-2.3-1-2.3-2.2v-0.3c0-1.2,1-2.2,2.3-2.2
					c1.2,0,2.3,1,2.2,2.2V379.7z M182.3,379.7c0,1.2-1,2.2-2.3,2.2s-2.3-1-2.3-2.2v-0.3c0-1.2,1-2.2,2.3-2.2s2.3,1,2.3,2.2V379.7z
					 M182.3,367.7c0,2.9-2.4,5.3-5.3,5.3h-6c-2.9,0-5.3-2.4-5.3-5.3v-6c0-2.9,2.4-5.3,5.3-5.3h6c2.9,0,5.3,2.4,5.3,5.3V367.7z"/>
				<path class="st11" d="M191.4,330c0.8,0.9,1.7,1.7,2.7,2.4h-34.4c-5.4,0-9.8-4.4-9.8-9.8v-6c0-22,17.9-39.9,39.9-39.9
					c2.5,0,5,0.2,7.5,0.7c-2.1,1.3-4,2.9-5.9,4.7c-4,4-6.8,8.8-8.4,14c-1.6-0.8-3.4-1.3-5.3-1.3c-6.2,0-11.3,5.1-11.3,11.3
					c0,6.2,5.1,11.3,11.3,11.3c1.8,0,3.7-0.5,5.3-1.3C184.6,321.1,187.4,325.9,191.4,330z"/>
				<path class="st0" d="M233.3,283.8c-5.7-5.7-13.2-8.6-20.8-8.6s-15,2.9-20.8,8.6c-11.4,11.5-11.4,30.1,0,41.5
					c11.5,11.4,30.1,11.4,41.5,0C244.7,313.8,244.7,295.2,233.3,283.8z M229,321c-4.4,4.4-10.3,6.8-16.5,6.8s-12.1-2.4-16.5-6.8
					c-4.4-4.4-6.8-10.3-6.8-16.5c0-6.2,2.4-12.1,6.8-16.5c4.4-4.4,10.3-6.8,16.5-6.8s12.1,2.4,16.5,6.8c4.4,4.4,6.8,10.3,6.8,16.5
					C235.8,310.8,233.4,316.6,229,321z"/>
				<path class="st1" d="M171.1,378v0.3c0,1.2-1,2.2-2.2,2.2c-1.2,0-2.3-1-2.3-2.2V378c0-1.2,1-2.2,2.3-2.2
					C170.1,375.7,171.1,376.7,171.1,378z"/>
				<path class="st1" d="M204.2,378v0.3c0,1.2-1,2.2-2.3,2.2c-1.2,0-2.2-1-2.2-2.2V378c0-1.2,1-2.2,2.2-2.2
					C203.2,375.7,204.2,376.7,204.2,378z"/>
				<path class="st3" d="M229,288c-4.4-4.4-10.3-6.8-16.5-6.8s-12.1,2.4-16.5,6.8c-4.4,4.4-6.8,10.3-6.8,16.5
					c0,6.2,2.4,12.1,6.8,16.5c4.4,4.4,10.3,6.8,16.5,6.8s12.1-2.4,16.5-6.8c4.4-4.4,6.8-10.3,6.8-16.5
					C235.8,298.3,233.4,292.4,229,288z M225.8,317.8c-3.5,3.6-8.3,5.5-13.3,5.5c-5,0-9.8-2-13.3-5.5c-3.6-3.5-5.5-8.3-5.5-13.3
					c0-5,2-9.8,5.5-13.3c3.5-3.6,8.3-5.5,13.3-5.5c5,0,9.8,2,13.3,5.5c3.6,3.6,5.5,8.3,5.5,13.3
					C231.3,309.5,229.4,314.3,225.8,317.8z"/>
				<path class="st1" d="M231.3,304.5c0,5-2,9.8-5.5,13.3c-3.5,3.6-8.3,5.5-13.3,5.5c-5,0-9.8-2-13.3-5.5c-3.6-3.5-5.5-8.3-5.5-13.3
					c0-5,2-9.8,5.5-13.3c3.5-3.6,8.3-5.5,13.3-5.5c5,0,9.8,2,13.3,5.5C229.4,294.8,231.3,299.5,231.3,304.5z"/>
				<path class="st1" d="M180.2,378v0.3c0,1.2-1,2.2-2.3,2.2s-2.3-1-2.3-2.2V378c0-1.2,1-2.2,2.3-2.2S180.2,376.7,180.2,378z"/>
				<path class="st1" d="M174.9,354.9h-6c-2.9,0-5.3,2.4-5.3,5.3v6c0,2.9,2.4,5.3,5.3,5.3h6c2.9,0,5.3-2.4,5.3-5.3v-6
					C180.2,357.3,177.8,354.9,174.9,354.9z M175.6,366.2c0,0.4-0.3,0.8-0.8,0.8h-6c-0.4,0-0.8-0.3-0.8-0.8v-6c0-0.4,0.3-0.8,0.8-0.8
					h6c0.4,0,0.8,0.3,0.8,0.8V366.2z"/>
				<path class="st1" d="M175.6,360.2v6c0,0.4-0.3,0.8-0.8,0.8h-6c-0.4,0-0.8-0.3-0.8-0.8v-6c0-0.4,0.3-0.8,0.8-0.8h6
					C175.3,359.5,175.6,359.8,175.6,360.2z"/>
			</g>
		</g>
	</g>
	<path class="st3" d="M168.9,375.7c-1.2,0-2.3,1-2.3,2.2v0.3c0,1.2,1,2.2,2.3,2.2c1.2,0,2.2-1,2.2-2.2V378
		C171.1,376.7,170.1,375.7,168.9,375.7z M174.9,354.9h-6c-2.9,0-5.3,2.4-5.3,5.3v6c0,2.9,2.4,5.3,5.3,5.3h6c2.9,0,5.3-2.4,5.3-5.3
		v-6C180.2,357.3,177.8,354.9,174.9,354.9z M175.6,366.2c0,0.4-0.3,0.8-0.8,0.8h-6c-0.4,0-0.8-0.3-0.8-0.8v-6c0-0.4,0.3-0.8,0.8-0.8
		h6c0.4,0,0.8,0.3,0.8,0.8V366.2z M177.9,375.7c-1.2,0-2.3,1-2.3,2.2v0.3c0,1.2,1,2.2,2.3,2.2s2.3-1,2.3-2.2V378
		C180.2,376.7,179.1,375.7,177.9,375.7z M202,375.7c-1.2,0-2.2,1-2.2,2.2v0.3c0,1.2,1,2.2,2.2,2.2c1.2,0,2.3-1,2.3-2.2V378
		C204.2,376.7,203.2,375.7,202,375.7z M202,375.7c-1.2,0-2.2,1-2.2,2.2v0.3c0,1.2,1,2.2,2.2,2.2c1.2,0,2.3-1,2.3-2.2V378
		C204.2,376.7,203.2,375.7,202,375.7z M177.9,375.7c-1.2,0-2.3,1-2.3,2.2v0.3c0,1.2,1,2.2,2.3,2.2s2.3-1,2.3-2.2V378
		C180.2,376.7,179.1,375.7,177.9,375.7z M174.9,354.9h-6c-2.9,0-5.3,2.4-5.3,5.3v6c0,2.9,2.4,5.3,5.3,5.3h6c2.9,0,5.3-2.4,5.3-5.3
		v-6C180.2,357.3,177.8,354.9,174.9,354.9z M175.6,366.2c0,0.4-0.3,0.8-0.8,0.8h-6c-0.4,0-0.8-0.3-0.8-0.8v-6c0-0.4,0.3-0.8,0.8-0.8
		h6c0.4,0,0.8,0.3,0.8,0.8V366.2z M168.9,375.7c-1.2,0-2.3,1-2.3,2.2v0.3c0,1.2,1,2.2,2.3,2.2c1.2,0,2.2-1,2.2-2.2V378
		C171.1,376.7,170.1,375.7,168.9,375.7z M168.9,375.7c-1.2,0-2.3,1-2.3,2.2v0.3c0,1.2,1,2.2,2.3,2.2c1.2,0,2.2-1,2.2-2.2V378
		C171.1,376.7,170.1,375.7,168.9,375.7z M174.9,354.9h-6c-2.9,0-5.3,2.4-5.3,5.3v6c0,2.9,2.4,5.3,5.3,5.3h6c2.9,0,5.3-2.4,5.3-5.3
		v-6C180.2,357.3,177.8,354.9,174.9,354.9z M175.6,366.2c0,0.4-0.3,0.8-0.8,0.8h-6c-0.4,0-0.8-0.3-0.8-0.8v-6c0-0.4,0.3-0.8,0.8-0.8
		h6c0.4,0,0.8,0.3,0.8,0.8V366.2z M177.9,375.7c-1.2,0-2.3,1-2.3,2.2v0.3c0,1.2,1,2.2,2.3,2.2s2.3-1,2.3-2.2V378
		C180.2,376.7,179.1,375.7,177.9,375.7z M202,375.7c-1.2,0-2.2,1-2.2,2.2v0.3c0,1.2,1,2.2,2.2,2.2c1.2,0,2.3-1,2.3-2.2V378
		C204.2,376.7,203.2,375.7,202,375.7z M202,375.7c-1.2,0-2.2,1-2.2,2.2v0.3c0,1.2,1,2.2,2.2,2.2c1.2,0,2.3-1,2.3-2.2V378
		C204.2,376.7,203.2,375.7,202,375.7z M177.9,375.7c-1.2,0-2.3,1-2.3,2.2v0.3c0,1.2,1,2.2,2.3,2.2s2.3-1,2.3-2.2V378
		C180.2,376.7,179.1,375.7,177.9,375.7z M174.9,354.9h-6c-2.9,0-5.3,2.4-5.3,5.3v6c0,2.9,2.4,5.3,5.3,5.3h6c2.9,0,5.3-2.4,5.3-5.3
		v-6C180.2,357.3,177.8,354.9,174.9,354.9z M175.6,366.2c0,0.4-0.3,0.8-0.8,0.8h-6c-0.4,0-0.8-0.3-0.8-0.8v-6c0-0.4,0.3-0.8,0.8-0.8
		h6c0.4,0,0.8,0.3,0.8,0.8V366.2z M168.9,375.7c-1.2,0-2.3,1-2.3,2.2v0.3c0,1.2,1,2.2,2.3,2.2c1.2,0,2.2-1,2.2-2.2V378
		C171.1,376.7,170.1,375.7,168.9,375.7z M168.9,375.7c-1.2,0-2.3,1-2.3,2.2v0.3c0,1.2,1,2.2,2.3,2.2c1.2,0,2.2-1,2.2-2.2V378
		C171.1,376.7,170.1,375.7,168.9,375.7z M174.9,354.9h-6c-2.9,0-5.3,2.4-5.3,5.3v6c0,2.9,2.4,5.3,5.3,5.3h6c2.9,0,5.3-2.4,5.3-5.3
		v-6C180.2,357.3,177.8,354.9,174.9,354.9z M175.6,366.2c0,0.4-0.3,0.8-0.8,0.8h-6c-0.4,0-0.8-0.3-0.8-0.8v-6c0-0.4,0.3-0.8,0.8-0.8
		h6c0.4,0,0.8,0.3,0.8,0.8V366.2z M177.9,375.7c-1.2,0-2.3,1-2.3,2.2v0.3c0,1.2,1,2.2,2.3,2.2s2.3-1,2.3-2.2V378
		C180.2,376.7,179.1,375.7,177.9,375.7z M202,375.7c-1.2,0-2.2,1-2.2,2.2v0.3c0,1.2,1,2.2,2.2,2.2c1.2,0,2.3-1,2.3-2.2V378
		C204.2,376.7,203.2,375.7,202,375.7z M202,375.7c-1.2,0-2.2,1-2.2,2.2v0.3c0,1.2,1,2.2,2.2,2.2c1.2,0,2.3-1,2.3-2.2V378
		C204.2,376.7,203.2,375.7,202,375.7z M177.9,375.7c-1.2,0-2.3,1-2.3,2.2v0.3c0,1.2,1,2.2,2.3,2.2s2.3-1,2.3-2.2V378
		C180.2,376.7,179.1,375.7,177.9,375.7z M174.9,354.9h-6c-2.9,0-5.3,2.4-5.3,5.3v6c0,2.9,2.4,5.3,5.3,5.3h6c2.9,0,5.3-2.4,5.3-5.3
		v-6C180.2,357.3,177.8,354.9,174.9,354.9z M175.6,366.2c0,0.4-0.3,0.8-0.8,0.8h-6c-0.4,0-0.8-0.3-0.8-0.8v-6c0-0.4,0.3-0.8,0.8-0.8
		h6c0.4,0,0.8,0.3,0.8,0.8V366.2z M168.9,375.7c-1.2,0-2.3,1-2.3,2.2v0.3c0,1.2,1,2.2,2.3,2.2c1.2,0,2.2-1,2.2-2.2V378
		C171.1,376.7,170.1,375.7,168.9,375.7z M247.1,351.9c-0.9,0-1.8,0.1-2.7,0.3L232.4,332c1.4-1,2.8-2.2,4.1-3.5
		c13.2-13.2,13.2-34.7,0-47.9c-9.7-9.7-23.8-12.3-35.8-7.8c-4.4-1.4-9-2.2-13.7-2.2c-24.5,0-44.4,19.9-44.4,44.4v6
		c0,7.9,6.4,14.3,14.3,14.3h41.7c9.5,4.3,20.7,4,30-1l11.8,19.8c-2.7,2.1-4.5,5.3-4.5,9c0,0.3,0,0.5,0,0.8h-14.5l2-7.8
		c0.6-2.5,0.1-5.1-1.5-7.1c-1.6-2-4-3.2-6.5-3.2h-56.8c-2.6,0-5,1.2-6.5,3.2c-1.6,2-2.1,4.6-1.5,7.1l2,7.8H138c0-0.2,0-0.5,0-0.8
		c0-6.2-5.1-11.3-11.3-11.3c-6.2,0-11.3,5.1-11.3,11.3c0,5.5,3.9,10,9,11.1v19.8h-3.2c-1.5,0-3,0.7-4,1.9c-1,1.2-1.4,2.7-1.2,4.3
		l1.9,11.5c0.2,1.2,1.4,2.1,2.6,1.9s2.1-1.4,1.8-2.6l-1.9-11.6c0-0.3,0.1-0.5,0.2-0.6c0.1-0.1,0.3-0.3,0.6-0.3h11
		c0.3,0,0.5,0.2,0.6,0.3c0.1,0.1,0.2,0.3,0.2,0.6L131,411c-0.2,1.2,0.6,2.4,1.8,2.6c0.1,0,0.2,0,0.4,0c1.1,0,2-0.8,2.2-1.9l1.9-11.5
		c0.3-1.5-0.2-3.1-1.2-4.3c-1-1.2-2.5-1.9-4-1.9H129v-19.8c3.4-0.7,6.2-2.9,7.7-5.8h16.9l4.8,19.3c1.6,6.4,7.3,10.8,13.9,10.8h29.4
		c6.6,0,12.3-4.5,13.9-10.8l4.8-19.3h16.9c1.9,3.6,5.7,6,10,6c6.2,0,11.3-5.1,11.3-11.3C258.4,357,253.4,351.9,247.1,351.9z
		 M156.8,330.9c-5.4,0-9.8-4.4-9.8-9.8v-6c0-22,17.9-39.9,39.9-39.9c2.5,0,5,0.2,7.5,0.7c-2.1,1.3-4,2.9-5.9,4.7
		c-4,4-6.8,8.8-8.4,14c-1.6-0.8-3.4-1.3-5.3-1.3c-6.2,0-11.3,5.1-11.3,11.3c0,6.2,5.1,11.3,11.3,11.3c1.8,0,3.7-0.5,5.3-1.3
		c1.6,5.1,4.4,9.9,8.4,14c0.8,0.9,1.7,1.7,2.7,2.4H156.8z M179.1,309.8c-1.2,0.9-2.6,1.4-4.2,1.4c-3.7,0-6.8-3-6.8-6.8
		c0-3.7,3-6.8,6.8-6.8c1.5,0,3,0.5,4.2,1.5C178.5,302.7,178.5,306.3,179.1,309.8z M191.8,325.3c-11.4-11.4-11.4-30.1,0-41.5
		c5.7-5.7,13.2-8.6,20.8-8.6s15,2.9,20.8,8.6c11.5,11.5,11.5,30.1,0,41.5C221.8,336.7,203.2,336.7,191.8,325.3z M126.7,370
		c-3.7,0-6.8-3-6.8-6.8c0-3.7,3-6.8,6.8-6.8c3.7,0,6.8,3,6.8,6.8C133.5,367,130.4,370,126.7,370z M219,355.1l-2.2,8.9h-23.8
		c-1.2,0-2.3,1-2.3,2.2c0,1.2,1,2.3,2.3,2.3h22.7l-4.5,18.2c-1.1,4.4-5,7.4-9.5,7.4h-29.4c-4.5,0-8.4-3-9.5-7.4l-7.9-31.6
		c-0.3-1.1,0-2.3,0.7-3.2c0.7-0.9,1.8-1.5,3-1.5h56.8c1.2,0,2.2,0.5,3,1.5C219,352.8,219.3,354,219,355.1z M247.1,370
		c-2.9,0-5.4-1.9-6.4-4.5c0,0,0-0.1,0-0.1c-0.2-0.7-0.4-1.4-0.4-2.2c0-2.7,1.6-5.1,4-6.2c0,0,0,0,0.1,0c0.8-0.4,1.8-0.6,2.7-0.6
		c3.7,0,6.8,3,6.8,6.8C253.9,367,250.9,370,247.1,370z M202,380.5c1.2,0,2.3-1,2.3-2.2V378c0-1.2-1-2.2-2.3-2.2
		c-1.2,0-2.2,1-2.2,2.2v0.3C199.7,379.5,200.7,380.5,202,380.5z M177.9,375.7c-1.2,0-2.3,1-2.3,2.2v0.3c0,1.2,1,2.2,2.3,2.2
		s2.3-1,2.3-2.2V378C180.2,376.7,179.1,375.7,177.9,375.7z M174.9,354.9h-6c-2.9,0-5.3,2.4-5.3,5.3v6c0,2.9,2.4,5.3,5.3,5.3h6
		c2.9,0,5.3-2.4,5.3-5.3v-6C180.2,357.3,177.8,354.9,174.9,354.9z M175.6,366.2c0,0.4-0.3,0.8-0.8,0.8h-6c-0.4,0-0.8-0.3-0.8-0.8v-6
		c0-0.4,0.3-0.8,0.8-0.8h6c0.4,0,0.8,0.3,0.8,0.8V366.2z M168.9,375.7c-1.2,0-2.3,1-2.3,2.2v0.3c0,1.2,1,2.2,2.3,2.2
		c1.2,0,2.2-1,2.2-2.2V378C171.1,376.7,170.1,375.7,168.9,375.7z M168.9,375.7c-1.2,0-2.3,1-2.3,2.2v0.3c0,1.2,1,2.2,2.3,2.2
		c1.2,0,2.2-1,2.2-2.2V378C171.1,376.7,170.1,375.7,168.9,375.7z M174.9,354.9h-6c-2.9,0-5.3,2.4-5.3,5.3v6c0,2.9,2.4,5.3,5.3,5.3h6
		c2.9,0,5.3-2.4,5.3-5.3v-6C180.2,357.3,177.8,354.9,174.9,354.9z M175.6,366.2c0,0.4-0.3,0.8-0.8,0.8h-6c-0.4,0-0.8-0.3-0.8-0.8v-6
		c0-0.4,0.3-0.8,0.8-0.8h6c0.4,0,0.8,0.3,0.8,0.8V366.2z M177.9,375.7c-1.2,0-2.3,1-2.3,2.2v0.3c0,1.2,1,2.2,2.3,2.2s2.3-1,2.3-2.2
		V378C180.2,376.7,179.1,375.7,177.9,375.7z M202,375.7c-1.2,0-2.2,1-2.2,2.2v0.3c0,1.2,1,2.2,2.2,2.2c1.2,0,2.3-1,2.3-2.2V378
		C204.2,376.7,203.2,375.7,202,375.7z M202,375.7c-1.2,0-2.2,1-2.2,2.2v0.3c0,1.2,1,2.2,2.2,2.2c1.2,0,2.3-1,2.3-2.2V378
		C204.2,376.7,203.2,375.7,202,375.7z M177.9,375.7c-1.2,0-2.3,1-2.3,2.2v0.3c0,1.2,1,2.2,2.3,2.2s2.3-1,2.3-2.2V378
		C180.2,376.7,179.1,375.7,177.9,375.7z M174.9,354.9h-6c-2.9,0-5.3,2.4-5.3,5.3v6c0,2.9,2.4,5.3,5.3,5.3h6c2.9,0,5.3-2.4,5.3-5.3
		v-6C180.2,357.3,177.8,354.9,174.9,354.9z M175.6,366.2c0,0.4-0.3,0.8-0.8,0.8h-6c-0.4,0-0.8-0.3-0.8-0.8v-6c0-0.4,0.3-0.8,0.8-0.8
		h6c0.4,0,0.8,0.3,0.8,0.8V366.2z M168.9,375.7c-1.2,0-2.3,1-2.3,2.2v0.3c0,1.2,1,2.2,2.3,2.2c1.2,0,2.2-1,2.2-2.2V378
		C171.1,376.7,170.1,375.7,168.9,375.7z M168.9,375.7c-1.2,0-2.3,1-2.3,2.2v0.3c0,1.2,1,2.2,2.3,2.2c1.2,0,2.2-1,2.2-2.2V378
		C171.1,376.7,170.1,375.7,168.9,375.7z M174.9,354.9h-6c-2.9,0-5.3,2.4-5.3,5.3v6c0,2.9,2.4,5.3,5.3,5.3h6c2.9,0,5.3-2.4,5.3-5.3
		v-6C180.2,357.3,177.8,354.9,174.9,354.9z M175.6,366.2c0,0.4-0.3,0.8-0.8,0.8h-6c-0.4,0-0.8-0.3-0.8-0.8v-6c0-0.4,0.3-0.8,0.8-0.8
		h6c0.4,0,0.8,0.3,0.8,0.8V366.2z M177.9,375.7c-1.2,0-2.3,1-2.3,2.2v0.3c0,1.2,1,2.2,2.3,2.2s2.3-1,2.3-2.2V378
		C180.2,376.7,179.1,375.7,177.9,375.7z M202,375.7c-1.2,0-2.2,1-2.2,2.2v0.3c0,1.2,1,2.2,2.2,2.2c1.2,0,2.3-1,2.3-2.2V378
		C204.2,376.7,203.2,375.7,202,375.7z M202,375.7c-1.2,0-2.2,1-2.2,2.2v0.3c0,1.2,1,2.2,2.2,2.2c1.2,0,2.3-1,2.3-2.2V378
		C204.2,376.7,203.2,375.7,202,375.7z M177.9,375.7c-1.2,0-2.3,1-2.3,2.2v0.3c0,1.2,1,2.2,2.3,2.2s2.3-1,2.3-2.2V378
		C180.2,376.7,179.1,375.7,177.9,375.7z M174.9,354.9h-6c-2.9,0-5.3,2.4-5.3,5.3v6c0,2.9,2.4,5.3,5.3,5.3h6c2.9,0,5.3-2.4,5.3-5.3
		v-6C180.2,357.3,177.8,354.9,174.9,354.9z M175.6,366.2c0,0.4-0.3,0.8-0.8,0.8h-6c-0.4,0-0.8-0.3-0.8-0.8v-6c0-0.4,0.3-0.8,0.8-0.8
		h6c0.4,0,0.8,0.3,0.8,0.8V366.2z M168.9,375.7c-1.2,0-2.3,1-2.3,2.2v0.3c0,1.2,1,2.2,2.3,2.2c1.2,0,2.2-1,2.2-2.2V378
		C171.1,376.7,170.1,375.7,168.9,375.7z"/>
</g>
<g id="Capa_3">
	<path class="st11" d="M375.9,137.5c-2.8,7.8-10.3,13.3-18.8,13.3s-16-5.5-18.8-13.3h-17.8v43.2c0,5.5-4.5,10-10,10
		c-5.5,0-10-4.5-10-10v-16.6h-10c-1.8,0-3.3-1.5-3.3-3.3c0-1.8,1.5-3.3,3.3-3.3h10v-19.9h-29.9v6.6c1.8,0,3.3,1.5,3.3,3.3v6.6
		c0,1.8,1.5,3.3,3.3,3.3c1.8,0,3.3,1.5,3.3,3.3v109.6h109.6c1.8,0,3.3,1.5,3.3,3.3c0,1.8-1.5,3.3-3.3,3.3h-113
		c-1.8,0-3.3,1.5-3.3,3.3v13.3c0,1.8,1.5,3.3,3.3,3.3h126.3c1.8,0,3.3-1.5,3.3-3.3v-13.3c0-1.8-1.5-3.3-3.3-3.3
		c-1.8,0-3.3-1.5-3.3-3.3V164.1h-69.8c-1.8,0-3.3-1.5-3.3-3.3c0-1.8,1.5-3.3,3.3-3.3h73.1c1.8,0,3.3-1.5,3.3-3.3v-6.6
		c0-1.8,1.5-3.3,3.3-3.3c0.2,0,0.5,0,0.7,0.1v-6.7H375.9z M313.9,253.8c0,1.8-1.5,3.3-3.3,3.3c-1.8,0-3.3-1.5-3.3-3.3v-53.2
		c0-1.8,1.5-3.3,3.3-3.3c1.8,0,3.3,1.5,3.3,3.3V253.8z M367,180.7c0-1.8,1.5-3.3,3.3-3.3c1.8,0,3.3,1.5,3.3,3.3v73.1
		c0,1.8-1.5,3.3-3.3,3.3c-1.8,0-3.3-1.5-3.3-3.3V180.7z M337.1,180.7c0-1.8,1.5-3.3,3.3-3.3c1.8,0,3.3,1.5,3.3,3.3v73.1
		c0,1.8-1.5,3.3-3.3,3.3c-1.8,0-3.3-1.5-3.3-3.3V180.7z"/>
	<path class="st0" d="M284.3,157.1c0-1.8,1.5-3.3,3.3-3.3h10v-19.9h19.9v43.2c0,5.5-4.5,10-10,10c-5.5,0-10-4.5-10-10v-16.6h-10
		C285.8,160.5,284.3,159,284.3,157.1z"/>
	<g>
		<g>
			<g>
				<path class="st3" d="M310.9,197v53.2c0,1.8-1.5,3.3-3.3,3.3c-1.8,0-3.3-1.5-3.3-3.3V197c0-1.8,1.5-3.3,3.3-3.3
					C309.4,193.7,310.9,195.2,310.9,197z"/>
				<path class="st3" d="M384,104c-6.5,0-12.8,2.4-17.7,6.8c-3.7-2.2-7.9-3.5-12.2-3.5c-5.8,0-11.3,2.2-15.5,6
					c-5.6-7.9-14.5-12.6-24.4-12.6c-7.4,0-14.4,2.7-19.9,7.6c-2.2-0.7-4.4-1-6.7-1c-12.8,0-23.3,10.4-23.3,23.3
					c0,1.8,1.5,3.3,3.3,3.3h29.9v19.9h-10c-1.8,0-3.3,1.5-3.3,3.3c0,1.8,1.5,3.3,3.3,3.3h10v16.6c0,5.5,4.5,10,10,10
					c5.5,0,10-4.5,10-10v-43.2h17.8c2.8,7.8,10.3,13.3,18.8,13.3s16-5.5,18.8-13.3h34.4c1.8,0,3.3-1.5,3.3-3.3
					C410.6,115.9,398.6,104,384,104z M370.3,127.2c-1.6,0-2.9,1.1-3.3,2.7c-0.3,1.4-0.8,2.8-1.5,4c-2.3,4-6.7,6.6-11.5,6.6
					s-9.2-2.6-11.5-6.6c-0.7-1.2-1.2-2.6-1.5-4c-0.3-1.5-1.7-2.7-3.3-2.7h-23.6c-1.8,0-3.3,1.5-3.3,3.3v46.5c0,1.8-1.5,3.3-3.3,3.3
					s-3.3-1.5-3.3-3.3v-46.5c0-1.8-1.5-3.3-3.3-3.3h-29.6c1.5-7.6,8.2-13.3,16.3-13.3c2.1,0,4.2,0.4,6.2,1.2
					c1.2,0.5,2.7,0.2,3.6-0.8c4.4-4.6,10.4-7.1,16.7-7.1c8.9,0,16.9,5,20.8,13c0.5,1,1.5,1.7,2.7,1.8c1.1,0.1,2.3-0.4,3-1.3
					c3.2-4.3,8.1-6.8,13.4-6.8c3.8,0,7.5,1.3,10.5,3.7c1.4,1.1,3.4,1,4.6-0.4c3.8-4.2,9.2-6.7,14.8-6.7c9.9,0,18.1,7.2,19.7,16.6
					H370.3z"/>
				<path class="st3" d="M403.9,159.9v107.5c1.5,0.6,2.9,1.5,4,2.6c1.6,1.8,2.7,4.2,2.7,6.8V290c0,2.6-1,5-2.7,6.8
					c-1.8,2-4.4,3.2-7.3,3.2H274.3c-5.5,0-10-4.5-10-10v-13.3c0-3,1.3-5.6,3.3-7.4c1-0.9,2.1-1.5,3.3-2V159.9
					c-1.2-0.4-2.4-1.1-3.3-2c-2-1.8-3.3-4.5-3.3-7.4v-6.6c0-1.8,1.5-3.3,3.3-3.3c1.8,0,3.3,1.5,3.3,3.3v6.6c0,1.8,1.5,3.3,3.3,3.3
					c1.8,0,3.3,1.5,3.3,3.3v109.6h109.6c1.8,0,3.3,1.5,3.3,3.3c0,1.8-1.5,3.3-3.3,3.3h-113c-1.8,0-3.3,1.5-3.3,3.3V290
					c0,1.8,1.5,3.3,3.3,3.3h126.3c1.8,0,3.3-1.5,3.3-3.3v-13.3c0-1.8-1.5-3.3-3.3-3.3c-1.8,0-3.3-1.5-3.3-3.3V160.5h-69.8
					c-1.8,0-3.3-1.5-3.3-3.3c0-1.8,1.5-3.3,3.3-3.3h73.1c1.8,0,3.3-1.5,3.3-3.3v-6.6c0-1.8,1.5-3.3,3.3-3.3c0.2,0,0.5,0,0.7,0.1
					c1.5,0.3,2.7,1.6,2.7,3.2v6.6c0,2.6-1,5-2.7,6.8C406.8,158.4,405.4,159.3,403.9,159.9z"/>
				<path class="st3" d="M433.8,167.1h-19.9c-1.8,0-3.3,1.5-3.3,3.3s1.5,3.3,3.3,3.3h19.9c5.5,0,10,4.5,10,10v59.8
					c0,5.5-4.5,10-10,10h-19.9c-1.8,0-3.3,1.5-3.3,3.3c0,1.8,1.5,3.3,3.3,3.3h19.9c9.2,0,16.6-7.5,16.6-16.6v-59.8
					C450.4,174.6,443,167.1,433.8,167.1z"/>
				<path class="st3" d="M413.9,240.2c-1.8,0-3.3,1.5-3.3,3.3c0,1.8,1.5,3.3,3.3,3.3h19.9c1.8,0,3.3-1.5,3.3-3.3v-59.8
					c0-1.8-1.5-3.3-3.3-3.3h-19.9c-1.8,0-3.3,1.5-3.3,3.3s1.5,3.3,3.3,3.3h16.6v53.2H413.9z"/>
				<path class="st3" d="M340.8,177.1v73.1c0,1.8-1.5,3.3-3.3,3.3c-1.8,0-3.3-1.5-3.3-3.3v-73.1c0-1.8,1.5-3.3,3.3-3.3
					C339.3,173.8,340.8,175.2,340.8,177.1z"/>
				<path class="st3" d="M370.7,177.1v73.1c0,1.8-1.5,3.3-3.3,3.3c-1.8,0-3.3-1.5-3.3-3.3v-73.1c0-1.8,1.5-3.3,3.3-3.3
					C369.2,173.8,370.7,175.2,370.7,177.1z"/>
			</g>
		</g>
	</g>
</g>
<g id="Capa_4">
</g>
</svg>
