<?xml version="1.0" encoding="utf-8"?>
<!-- Generator: Adobe Illustrator 21.0.2, SVG Export Plug-In . SVG Version: 6.00 Build 0)  -->
<svg version="1.1" id="Capa_1" xmlns="http://www.w3.org/2000/svg" xmlns:xlink="http://www.w3.org/1999/xlink" x="0px" y="0px"
	 viewBox="0 0 512 512" style="enable-background:new 0 0 512 512;" xml:space="preserve">
<style type="text/css">
	.st0{opacity:0.52;fill:#EF9D75;}
	.st1{opacity:0.65;fill:#EF9D75;}
	.st2{fill:#E5F5FC;}
	.st3{opacity:0.5;fill:#EF9D75;}
	.st4{opacity:0.53;fill:#EF9D75;}
	.st5{fill:#88C9FF;}
	.st6{fill:#AAB1BA;}
	.st7{fill:#CAD0D8;}
	.st8{fill:#51565F;}
	.st9{clip-path:url(#SVGID_2_);}
	.st10{clip-path:url(#SVGID_4_);fill:#568CE2;}
	.st11{fill:#EF9D75;}
	.st12{fill:none;stroke:#88C9FF;stroke-width:6;stroke-linecap:round;stroke-miterlimit:10;}
	.st13{fill:none;stroke:#88C9FF;stroke-width:6;stroke-miterlimit:10;}
	.st14{fill:none;stroke:#E5F5FC;stroke-width:6;stroke-miterlimit:10;}
	.st15{fill:#F2F2F2;stroke:#51565F;stroke-width:7;stroke-linecap:round;stroke-linejoin:round;stroke-miterlimit:10;}
	.st16{fill:#88C9FF;stroke:#51565F;stroke-width:3;stroke-linecap:round;stroke-linejoin:round;stroke-miterlimit:10;}
	.st17{fill:#EF9D75;stroke:#51565F;stroke-width:3;stroke-linecap:round;stroke-linejoin:round;stroke-miterlimit:10;}
	.st18{fill:#F2F2F2;}
</style>
<image style="display:none;overflow:visible;enable-background:new    ;" width="400" height="300" xlink:href="../../../../Wallpaper/icon_portfolio27_1x.png"  transform="matrix(2.065 0 0 2.065 -136 -75)">
</image>
<path class="st0" d="M296,62h-96c-9.4,0-17-7.6-17-17l0,0c0-9.4,7.6-17,17-17h96c9.4,0,17,7.6,17,17l0,0C313,54.4,305.4,62,296,62z"
	/>
<path class="st1" d="M317,329h-96c-9.4,0-17-7.6-17-17l0,0c0-9.4,7.6-17,17-17h96c9.4,0,17,7.6,17,17l0,0
	C334,321.4,326.4,329,317,329z"/>
<path class="st2" d="M446.5,215h-19c-9.1,0-16.5-7.4-16.5-16.5l0,0c0-9.1,7.4-16.5,16.5-16.5h19c9.1,0,16.5,7.4,16.5,16.5l0,0
	C463,207.6,455.6,215,446.5,215z"/>
<path class="st3" d="M44.5,165h-29C9.7,165,5,160.3,5,154.5l0,0c0-5.8,4.7-10.5,10.5-10.5h29c5.8,0,10.5,4.7,10.5,10.5l0,0
	C55,160.3,50.3,165,44.5,165z"/>
<path class="st4" d="M390,198.5c0,4.6-1.8,8.7-4.8,11.7s-7.1,4.8-11.7,4.8H301v1h-21c-3.9,0-7.4,1.6-9.9,4.1s-4.1,6-4.1,9.9
	c0,7.7,6.3,14,14,14h21v1h28c8.3,0,15,6.7,15,15c0,4.1-1.7,7.9-4.4,10.6c-2.7,2.7-6.5,4.4-10.6,4.4H126c-8.3,0-15-6.7-15-15
	c0-4.1,1.7-7.9,4.4-10.6c2.7-2.7,6.5-4.4,10.6-4.4h11v-1h9c3.9,0,7.4-1.6,9.9-4.1s4.1-6,4.1-9.9c0-7.7-6.3-14-14-14h-9v-1h-18.5
	c-9.1,0-16.5-7.4-16.5-16.5c0-4.6,1.8-8.7,4.8-11.7s7.1-4.8,11.7-4.8H150l0,0c2.1-0.1,4.1-1,5.5-2.5c1.5-1.5,2.5-3.7,2.5-6
	c0-4.5-3.5-8.2-8-8.5l0,0H74.5c-5.8,0-10.5-4.7-10.5-10.5c0-2.9,1.2-5.5,3.1-7.4s4.5-3.1,7.4-3.1H144c3.9,0,7.4-1.6,9.9-4.1
	s4.1-6,4.1-9.9c0-7.7-6.3-14-14-14h-23.5c-9.1,0-16.5-7.4-16.5-16.5c0-4.6,1.8-8.7,4.8-11.7s7.1-4.8,11.7-4.8h255
	c9.1,0,16.5,7.4,16.5,16.5c0,4.6-1.8,8.7-4.8,11.7s-7.1,4.8-11.7,4.8H301v0.3c-2.7,0.6-5,1.9-6.9,3.8c-2.5,2.5-4.1,6-4.1,9.9
	c0,6.7,4.7,12.3,11,13.7v0.3h15.5c5.8,0,10.5,4.7,10.5,10.5c0,2.9-1.2,5.5-3.1,7.4s-4.5,3.1-7.4,3.1H290v0.1
	c-1.7,0.3-3.3,1.1-4.5,2.3c-1.5,1.5-2.5,3.7-2.5,6c0,4.2,3,7.7,7,8.4v0.1h83.5C382.6,182,390,189.4,390,198.5z"/>
<g transform="translate(15 1)">
	<path class="st5" d="M389,148.6v22.7H218.4v-22.7c0-11.4,11.4-22.7,22.7-22.7h125.1C377.7,125.8,389,137.2,389,148.6z M389,398.8
		v34.1c0,11.4-11.4,22.7-22.7,22.7H241.2c-11.4,0-22.7-11.4-22.7-22.7v-34.1H389z"/>
	<g>
		<path class="st6" d="M290.7,415.5c2.8,0,5.7,2.8,5.7,5.7c0,2.8-2.8,5.7-5.7,5.7c-2.8,0-5.7-2.8-5.7-5.7
			C285,418.4,287.9,415.5,290.7,415.5L290.7,415.5z"/>
		<polygon class="st7" points="205.4,392.8 376,392.8 376,165.3 205.4,165.3 		"/>
	</g>
</g>
<path class="st8" d="M368.3,453.5H243.2c-13.1,0-25.6-12.5-25.6-25.6v-34.1c0-1.7,1.1-2.8,2.8-2.8h147.8c1.7,0,2.8,1.1,2.8,2.8
	s-1.1,2.8-2.8,2.8h-145v31.3c0,9.7,10.2,19.9,19.9,19.9h125.1c9.7,0,19.9-10.2,19.9-19.9V169.2h-145c-1.7,0-2.8-1.1-2.8-2.8
	s1.1-2.8,2.8-2.8H391c1.7,0,2.8,1.1,2.8,2.8V428C393.9,441,381.4,453.5,368.3,453.5z M305.7,430.7c-4.5,0-8.5-4-8.5-8.5
	s4-8.5,8.5-8.5s8.5,4,8.5,8.5S310.3,430.7,305.7,430.7z M305.7,419.4c-1.7,0-2.8,1.1-2.8,2.8c0,1.7,1.1,2.8,2.8,2.8
	c1.7,0,2.8-1.1,2.8-2.8C308.6,420.5,307.4,419.4,305.7,419.4z M220.4,373.9c-1.7,0-2.8-1.1-2.8-2.8V143.6
	c0-13.1,12.5-25.6,25.6-25.6h125.1c13.1,0,25.6,12.5,25.6,25.6c0,1.7-1.1,2.8-2.8,2.8s-2.8-1.1-2.8-2.8c0-9.7-10.2-19.9-19.9-19.9
	H243.2c-9.7,0-19.9,10.2-19.9,19.9V371C223.3,372.7,222.2,373.9,220.4,373.9z M356.9,248.8c-0.6,0-1.7,0-2.3-0.6l-45.5-45.5
	c-0.6-0.6-0.6-1.1-0.6-2.3c0-1.1,0-1.7,0.6-2.3c1.1-1.1,2.8-1.1,4,0l45.5,45.5c0.6,0.6,0.6,1.1,0.6,2.3c0,1.1,0,1.7-0.6,2.3
	S357.5,248.8,356.9,248.8z M356.9,214.7c-0.6,0-1.7,0-2.3-0.6l-11.4-11.4c-0.6-0.6-0.6-1.1-0.6-2.3c0-1.1,0-1.7,0.6-2.3
	c1.1-1.1,2.8-1.1,4,0l11.4,11.4c0.6,0.6,0.6,1.1,0.6,2.3c0,1.1,0,1.7-0.6,2.3S357.5,214.7,356.9,214.7z M334.2,146.4h-22.7
	c-1.7,0-2.8-1.1-2.8-2.8s1.1-2.8,2.8-2.8h22.7c1.7,0,2.8,1.1,2.8,2.8C337,145.3,335.9,146.4,334.2,146.4z"/>
<g>
	<g>
		<g id="Ilustración_2">
			<defs>
				<rect id="SVGID_1_" x="104.6" y="100.3" width="30" height="30"/>
			</defs>
			<clipPath id="SVGID_2_">
				<use xlink:href="#SVGID_1_"  style="overflow:visible;"/>
			</clipPath>
			<g class="st9">
				<g>
					<defs>
						<rect id="SVGID_3_" x="104.6" y="100.3" width="30" height="30"/>
					</defs>
					<clipPath id="SVGID_4_">
						<use xlink:href="#SVGID_3_"  style="overflow:visible;"/>
					</clipPath>
					<path class="st10" d="M134.6,115.3c0,1.1-0.4,2.1-1.2,2.8c-0.7,0.7-1.7,1.2-2.8,1.2h-7v7c0,2.2-1.8,4-4,4s-4-1.8-4-4v-7h-7
						c-2.2,0-4-1.8-4-4s1.8-4,4-4h7v-7c0-2.2,1.8-4,4-4c1.1,0,2.1,0.5,2.8,1.2c0.7,0.7,1.2,1.7,1.2,2.8v7h7
						C132.8,111.3,134.6,113.1,134.6,115.3"/>
				</g>
			</g>
		</g>
		<path class="st8" d="M136,115c0,2.2-1.8,4-4,4h-7v7c0,1.1-0.5,2.1-1.2,2.8s-1.7,1.2-2.8,1.2c-2.2,0-4-1.8-4-4v-7h-7
			c-1.1,0-2.1-0.5-2.8-1.2c-0.7-0.7-1.2-1.7-1.2-2.8c0-2.2,1.8-4,4-4h7v-7c0-2.2,1.8-4,4-4s4,1.8,4,4v7h7
			C134.2,111,136,112.8,136,115z"/>
		<path class="st8" d="M441,43c0,2.2-1.8,4-4,4h-7v7c0,1.1-0.5,2.1-1.2,2.8S427.1,58,426,58c-2.2,0-4-1.8-4-4v-7h-7
			c-1.1,0-2.1-0.5-2.8-1.2c-0.7-0.7-1.2-1.7-1.2-2.8c0-2.2,1.8-4,4-4h7v-7c0-2.2,1.8-4,4-4s4,1.8,4,4v7h7C439.2,39,441,40.8,441,43z
			"/>
		<path class="st11" d="M52,425c-1,1-2.6,1-3.6,0l-3.2-3.2L42,425c-0.5,0.5-1.2,0.7-1.8,0.8c-0.7,0-1.3-0.3-1.8-0.8
			c-1-1-1-2.6,0-3.6l3.2-3.2l-3.2-3.2c-0.5-0.5-0.7-1.2-0.8-1.8c0-0.7,0.3-1.3,0.8-1.8c1-1,2.6-1,3.6,0l3.2,3.2l3.2-3.2
			c1-1,2.6-1,3.6,0s1,2.6,0,3.6l-3.2,3.2l3.2,3.2C53,422.4,53,424,52,425z"/>
		<path class="st11" d="M482,273c-1,1-2.6,1-3.6,0l-3.2-3.2L472,273c-0.5,0.5-1.2,0.7-1.8,0.8c-0.7,0-1.3-0.3-1.8-0.8
			c-1-1-1-2.6,0-3.6l3.2-3.2l-3.2-3.2c-0.5-0.5-0.7-1.2-0.8-1.8c0-0.7,0.3-1.3,0.8-1.8c1-1,2.6-1,3.6,0l3.2,3.2l3.2-3.2
			c1-1,2.6-1,3.6,0s1,2.6,0,3.6l-3.2,3.2l3.2,3.2C483,270.4,483,272,482,273z"/>
		<path class="st12" d="M349.4,71.9c-0.3,0.3-0.6,0.5-0.9,0.7c-5.7,4.1-13.6,3.2-18.3-2.2c-4.9-5.7-4.2-14.3,1.5-19.2
			s14.3-4.2,19.2,1.5c1.5,1.8,2.5,3.9,3,6"/>
		<circle class="st13" cx="56.6" cy="249.6" r="11.6"/>
		<circle class="st14" cx="440.6" cy="427.6" r="11.6"/>
	</g>
</g>
<path class="st15" d="M488.7,332H310c-3.9,0-7-3.1-7-7V186c0-3.9,3.1-7,7-7h178.7c3.9,0,7,3.1,7,7v139
	C495.7,328.9,492.5,332,488.7,332z"/>
<path class="st11" d="M428.1,199l-4-4c-1.2-1.2-3.2-1.2-4.4,0L389,225.7c-0.5,0.5-1.2,0.5-1.7,0l-8.6-8.6c-1.2-1.2-3.2-1.2-4.4,0
	l-4,4c-1.2,1.2-1.2,3.2,0,4.4l15.7,15.7c1.2,1.2,3.2,1.2,4.4,0l37.7-37.8C429.3,202.2,429.3,200.3,428.1,199z"/>
<g>
	<path class="st8" d="M384,243.3c-1.2,0-2.2-0.5-3.1-1.3l-15.7-15.7c-1.7-1.7-1.7-4.4,0-6.1l4-4c1.7-1.7,4.4-1.7,6.1,0l8.6,8.6
		l30.6-30.6c1.7-1.7,4.4-1.7,6.1,0l4,4l0,0c1.7,1.7,1.7,4.4,0,6.1l-37.7,37.8C386.2,242.9,385.1,243.3,384,243.3
		C384,243.3,384,243.3,384,243.3z M372.3,217.4c-0.5,0-1,0.2-1.3,0.5l-4,4c-0.7,0.7-0.7,1.9,0,2.6l15.7,15.7
		c0.4,0.4,0.8,0.5,1.3,0.5c0,0,0,0,0,0c0.5,0,1-0.2,1.3-0.5l37.7-37.8c0.7-0.7,0.7-1.9,0-2.6l0,0l-4-4c-0.7-0.7-1.9-0.7-2.6,0
		l-30.6,30.6c-1,1-2.5,1-3.5,0l-8.6-8.6C373.3,217.6,372.8,217.4,372.3,217.4z"/>
	<path class="st8" d="M397.6,225.7c-0.3,0-0.6-0.1-0.9-0.4c-0.5-0.5-0.5-1.3,0-1.7l0.4-0.4c0.5-0.5,1.3-0.5,1.7,0
		c0.5,0.5,0.5,1.3,0,1.7l-0.4,0.4C398.2,225.5,397.9,225.7,397.6,225.7z"/>
	<path class="st8" d="M384.4,238.8c-0.3,0-0.6-0.1-0.9-0.4c-0.5-0.5-0.5-1.3,0-1.7l9.9-9.9c0.5-0.5,1.3-0.5,1.7,0
		c0.5,0.5,0.5,1.3,0,1.7l-9.9,9.9C385,238.7,384.7,238.8,384.4,238.8z"/>
</g>
<rect x="452.2" y="309.3" class="st16" width="30.6" height="12.7"/>
<rect x="410.7" y="309.3" class="st17" width="30.6" height="12.7"/>
<path class="st8" d="M473.6,264.3H329.9c-0.8,0-1.5-0.7-1.5-1.5l0,0c0-0.8,0.7-1.5,1.5-1.5h143.8c0.8,0,1.5,0.7,1.5,1.5l0,0
	C475.2,263.6,474.5,264.3,473.6,264.3z"/>
<path class="st8" d="M329.9,270.7h75.8v3.1h-75.8c-0.9,0-1.5-0.7-1.5-1.5C328.4,271.4,329,270.7,329.9,270.7z"/>
<path class="st8" d="M475.2,272.3c0,0.8-0.7,1.5-1.5,1.5H426v-3.1h47.6C474.5,270.7,475.2,271.4,475.2,272.3z"/>
<path class="st8" d="M329.9,280H362v3.1h-32.1c-0.9,0-1.5-0.7-1.5-1.5C328.4,280.7,329,280,329.9,280z"/>
<rect x="381.7" y="280" class="st8" width="55.3" height="3.1"/>
<path class="st8" d="M475.2,281.6c0,0.8-0.7,1.5-1.5,1.5H458V280h15.6C474.5,280,475.2,280.7,475.2,281.6z"/>
<g>
	<path class="st18" d="M216.3,369.1c-1,1.6-0.5,3.7,1.1,4.7s3.7,0.5,4.7-1.1l6.7-10.5l4,3.6c-0.2,0.2-0.4,0.5-0.6,0.7
		c-0.8,1.4-0.5,3.1,0.6,4.2c0.2,0.2,0.4,0.4,0.7,0.5c4.5,2.6,5.4,6.6,5.4,9.5c-0.1,4.6-2.4,9.4-6.1,13c-1.4,1.4-3,2.6-4.8,3.6
		c-2.5,1.3-5,2.7-7.5,4.2c-23.4,13.4-41,26.4-52.6,38.9L101.5,402c3.2-8.7,4-15.3,4.8-21.6c1.1-8.6,2.1-16.7,9.5-29.6l22.3-38.7
		c1.7-3,6.4-4.2,9.4-2.5c1.5,0.8,2.6,2.4,3.1,4.2s0.3,3.7-0.6,5.2c-1,1.6-0.4,3.7,1.2,4.7c1.6,0.9,3.8,0.4,4.7-1.3l0,0l5.1-8.9
		c1.4-2.4,3.6-4.1,6.2-4.8c2.6-0.7,5.4-0.3,7.8,1c4.9,2.8,6.6,9.2,3.8,14.1c-0.9,1.7-0.4,3.8,1.3,4.7c1.6,1,3.7,0.4,4.7-1.2l0,0
		l3.4-5.9c2.8-4.9,9.2-6.6,14.1-3.8c2.4,1.4,4.1,3.6,4.8,6.2c0.7,2.7,0.3,5.4-1,7.8c-0.9,1.6-0.4,3.6,1.1,4.6c1.6,1,3.6,0.6,4.7-0.9
		l20.9-29.3l15.9-22.3c6.3-8.6,11-5.9,12.6-5c2.2,1.3,3.7,3.2,4.1,5.6s-0.1,5.1-1.6,7.7l-31,50.2L216.3,369.1z"/>
	<g>
		<g>
			<path class="st8" d="M263.7,292c1.5-2.6,2-5.3,1.6-7.7s-1.8-4.3-4.1-5.6c-1.5-0.9-6.2-3.6-12.6,5L232.8,306l-20.9,29.3
				c-1.1,1.5-3.1,1.9-4.7,0.9c-1.5-1-2-3-1.1-4.6c1.4-2.4,1.7-5.2,1-7.8c-0.7-2.7-2.4-4.9-4.8-6.2c-4.9-2.8-11.2-1.2-14.1,3.8
				l-3.4,5.9l0,0c-1,1.6-3,2.2-4.7,1.2c-1.6-0.9-2.2-3-1.3-4.7c2.8-4.9,1.2-11.2-3.8-14.1c-2.4-1.4-5.2-1.7-7.8-1
				c-2.7,0.7-4.9,2.4-6.2,4.8l-5.1,8.9l0,0c-1,1.6-3.1,2.2-4.7,1.3c-1.6-1-2.2-3-1.2-4.7c0.9-1.5,1.1-3.4,0.6-5.2
				c-0.5-1.8-1.6-3.3-3.1-4.2c-3-1.7-7.6-0.5-9.4,2.5l-22.3,38.7c-7.4,12.9-8.4,21-9.5,29.6c-0.8,6.4-1.6,12.9-4.8,21.6l66.4,38.4
				c11.6-12.5,29.2-25.5,52.6-38.9c2.5-1.4,5-2.8,7.5-4.2c1.8-1,3.4-2.2,4.8-3.6c3.7-3.6,6-8.5,6.1-13c0-2.9-0.9-6.9-5.4-9.5
				c-0.3-0.1-0.5-0.3-0.7-0.5v-4.9c1.1-1.1,2.8-1.3,4.1-0.5c5.8,3.3,8.9,8.8,8.8,15.5c-0.1,8.3-5.2,16.9-13,21.7
				c-0.5,0.3-1,0.6-1.5,0.9c-2.4,1.3-4.9,2.7-7.4,4.1c-24,13.7-41.8,27-52.8,39.6c-0.7,0.8-1.6,1.2-2.6,1.2c-0.6,0-1.2-0.2-1.7-0.5
				l-71.4-41.2c-1.5-0.9-2.1-2.7-1.5-4.3c3.7-9.3,4.6-16.1,5.4-22.7c1.1-8.9,2.2-18.1,10.4-32.2l22.3-38.7c3.6-6.2,12.5-8.6,18.8-5
				c2.1,1.2,3.8,3,5,5.2c2.3-3.3,5.7-5.7,9.6-6.8c4.4-1.2,9.1-0.6,13,1.7c3.8,2.2,6.4,5.6,7.7,9.4c5.4-4.4,13.2-5.3,19.5-1.6
				c3.7,2.1,6.4,5.5,7.8,9.6l19.5-27l10.3-14.5c8.7-11.8,17.2-9.4,21.6-6.9c4,2.3,6.6,6,7.4,10.3c0.7,4-0.1,8.4-2.5,12.5l-36.8,59.7
				l-10.7,17.4c-1,1.6-3.1,2.1-4.7,1.1c-1.6-1-2.1-3.1-1.1-4.7l16.5-26.9L263.7,292z"/>
			<path class="st8" d="M232.8,365.8v4.9c-1.1-1.1-1.4-2.8-0.6-4.2C232.4,366.3,232.6,366,232.8,365.8z"/>
		</g>
	</g>
</g>
</svg>
