<svg id="Capa_1" data-name="Capa 1" xmlns="http://www.w3.org/2000/svg" xmlns:xlink="http://www.w3.org/1999/xlink" viewBox="0 0 512 512"><defs><style>.cls-1,.cls-12{fill:none;}.cls-2{fill:#ef9d75;}.cls-3{fill:#f4f4f4;}.cls-4{opacity:0.86;}.cls-5{fill:#51565f;}.cls-6{fill:#4367bf;}.cls-7{fill:#4b74c6;}.cls-8{fill:#88c9ff;}.cls-9{fill:#45abff;}.cls-10{fill:#568ce2;}.cls-11{fill:#5b94d8;}.cls-12{stroke:#3b9dff;stroke-miterlimit:10;stroke-width:6px;}.cls-13{fill:#fff;}.cls-14{clip-path:url(#clip-path);}.cls-15{fill:#e5f5fc;}</style><clipPath id="clip-path"><rect class="cls-1" x="162.27" y="386.6" width="160.45" height="69.7"/></clipPath></defs><title>ngx-canaima</title><g id="Capa_4" data-name="Capa 4"><path class="cls-2" d="M258.8,3.48l-1.7-.58L25,84.69,19,86.8l6,49.85L40.7,267.1,56.5,398.8,257.3,509.1l1.5-.83L459.1,397.2l12.7-105.5L496.7,85.2ZM466.9,242.4,448.4,389.6,258.8,494.47l-2.4,1.33L67.4,391,47.5,217.8l-14-122L256.8,16.3l2,.68L485.6,94.4Z"/><polygon class="cls-3" points="485.6 94.4 466.9 242.4 448.4 389.6 258.8 494.47 256.4 495.8 67.4 391 47.5 217.8 33.5 95.8 256.8 16.3 258.8 16.98 485.6 94.4"/></g><g id="Capa_1-2" data-name="Capa 1" class="cls-4"><g id="Capa_3" data-name="Capa 3"><path class="cls-5" d="M444.7,366.9c-.5-4.3-1.2-10.6-2.2-18.7-1.6-13.7-4-32.6-7-56.4-5.1-40.5-10.4-81.4-10.4-81.8l-.5-4.3-14.7,1.8-14.8-72.9-23-5.5-12.4-17L345,121.2l-30.3-6.1-28.4-1.7-11.54,20.4-.06.1-54.47.95-14.33.25-47.3-12.7L139.7,140l-2.2,67-27.7,22.3-.3,1.5C88.2,331.1,84.2,350.5,83.4,354.6l-7,24.3h5.7l41.61,0q2.11,0,4.26,0h8.93l49.8,0c1.43,0,2.86,0,4.3,0h11.4l36,0,38.79,0h4.4l74.42,0h23c34,0,57.27.06,61.11.15l1.7.6,1.8-1.5C445.7,376.3,445.6,375.5,444.7,366.9Zm-8.3,3.4-4.93,0c-8.86,0-24.89,0-54.31,0-1.46,0-2.95,0-4.48,0H335.4l-53.8,0c-1.45,0-2.92,0-4.4,0h-4.3l-25.33,0h-4.84l-40.33,0H186.7l-50.2,0H122.34l-27.64,0H87.9l4-13.9v-.3c1-5.8,18.6-88.3,25.8-122.1l28.4-22.9,2.2-67.3L161,132l.08,0,41.74,11.25,2,.53h.1l4.72-.08h0l11.36-.2h0l51.9-.9,4.3-.07,2.6,0,1.8-3.17,9.6-16.93h.1l22.1,1.29,33.3,6.7,0,0,10.78-6.68,0,0,2.33,3.18,1.86,2.53,5.38,7.35,20.8,4.9,15.3,75.4,14.1-1.8c7.3,56.4,17.3,135.9,19.2,155Z"/><path class="cls-6" d="M418,221.1c-.2-1.9-.5-3.8-.7-5.7l-9.9,1.2-4.2.5-14.5-71.3-.8-4.1L369,137.2l-1.9-.5-5.3-7.3-.08,0-9.62,6-.15,0L318.8,128.7l-22.2-1.3h0L285.2,147.5H285l-3.4.06-4.4.08-4.3.07-43.42.76h0l-19.25.33h0l-.3-.08-5.23-1.41L199.75,146l-33.35-9,0,0L154,148.56l-.36.35-2.2,67.29-.1.08L123,239.1c-7.2,33.8-24.8,116.3-25.8,122.1v.3l-2.5,8.8h0l27.61,0H136.5l50.2,0H191c1.48,0,2.94,0,4.4,0h7l40.38,0H277.2c1.48,0,3,0,4.4,0l53.8,0h21c.73,0,1.45,0,2.17,0q2.09,0,4.11,0h14.47c29.49,0,45.55.09,54.33.15l4.93,0C434.5,351.8,425.1,276.9,418,221.1ZM262.9,246.8a4.6,4.6,0,1,1-4.6,4.6A4.6,4.6,0,0,1,262.9,246.8Z"/><path class="cls-7" d="M361.6,129.4l-9.7,6-33.3-6.7-22.2-1.3L285,147.5l-75,1.3L166.2,137l-12.7,12-2.2,67.3L123,239.2C115.8,273,98.2,355.4,97.2,361.3v.3l-2.5,8.8H87.9l4-13.9v-.3c1-5.8,18.6-88.3,25.8-122.1l28.4-22.9,2.2-67.3L161.1,132l43.8,11.8,75-1.3,11.4-20.1,22.2,1.3,33.3,6.7,10.8-6.7Z"/></g><path class="cls-8" d="M241,146.7a39.83,39.83,0,0,0-4.91.31c-1.29.17-2.56.4-3.8.68l-.93.23c-.63.17-1.25.34-1.87.54h0a38.66,38.66,0,0,0-27,36.93V382.3h74.8V146.7ZM262.9,256a4.6,4.6,0,1,1,4.6-4.6A4.6,4.6,0,0,1,262.9,256Z"/><path class="cls-9" d="M277.2,138.1v8.6H241a38.64,38.64,0,0,0-38.6,38.7V382.3H191V176.8a38.73,38.73,0,0,1,38.7-38.7Z"/><path class="cls-5" d="M229.7,133.8a42.74,42.74,0,0,0-26.86,9.45s0,0,0,0c-1.07.85-2.09,1.76-3.07,2.71l0,.05a42.89,42.89,0,0,0-13,30.77V386.6h94.9V133.8ZM272.9,378H195.4V176.7a34.28,34.28,0,0,1,14.44-27.94l0,0a34.15,34.15,0,0,1,11.1-5.2h0a34.24,34.24,0,0,1,8.7-1.12h43.2Z"/><path class="cls-5" d="M209.8,222.4h0v45.8h0v25.5a4.6,4.6,0,0,1-9.2,0V268.2h0V222.5h0V197a4.6,4.6,0,0,1,9.2,0v25A.3.3,0,0,1,209.8,222.4Z"/><path class="cls-5" d="M226.1,267.7v37.1a4.6,4.6,0,1,1-9.2,0V267.7a4.6,4.6,0,1,1,9.2,0Z"/><path class="cls-5" d="M250,230.5v66.7a4.6,4.6,0,1,1-9.2,0V230.5a4.59,4.59,0,0,1,4.6-4.6A4.65,4.65,0,0,1,250,230.5Z"/><path class="cls-5" d="M267.5,277v19.7a4.6,4.6,0,0,1-9.2,0v-29a4.6,4.6,0,1,1,9.2,0Z"/><circle class="cls-5" cx="262.9" cy="251.4" r="4.6"/><path class="cls-6" d="M373.6,374.5l-35-164.2h-42l-5.4,53.6-28.3,18.3s-13.2,81.1-12.9,83.3l-4.6,9Zm-119.3-9.3c.4-4.8,7.5-49.7,12.5-80.4l28.4-18.4,5.2-51.8H335l33.2,155.6H252.5l2-3.9Z"/><path class="cls-5" d="M342.1,206H292.7l-5.6,55.4-28.2,18.2-.3,1.9c-10.1,62.3-12.4,78.3-12.8,82.7l-7.4,14.6H379Zm-7,8.6,33.2,155.6H252.5l2-3.9-.1-1c.4-4.8,7.5-49.7,12.5-80.4l28.4-18.4,5.2-51.8h34.6Z"/><path class="cls-10" d="M368.3,370.2H261.5c1-8.3,7.7-50.3,12.4-79.4l28.4-18.4,5.2-51.8h28.9Z"/><path class="cls-11" d="M336.4,220.6H307.5l-5.2,51.8-28.4,18.4c-4.7,29.1-11.4,71-12.4,79.4h-9l2-3.9-.1-1c.4-4.8,7.5-49.7,12.5-80.5l28.4-18.4,5.2-51.8h34.6Z"/><path class="cls-10" d="M206,93.3a3.63,3.63,0,0,1-1.2,2.8,4,4,0,0,1-2.8,1.2h-7v7a4,4,0,1,1-8,0v-7h-7a4,4,0,0,1,0-8h7v-7a4,4,0,0,1,8,0v7h7A4,4,0,0,1,206,93.3Z"/><circle class="cls-12" cx="310.4" cy="72.3" r="13.6"/><path class="cls-13" d="M332.1,335.8a33.66,33.66,0,0,1,26.5,32.8,33,33,0,0,1-2.9,13.7H129.3a33,33,0,0,1-2.9-13.7,33.49,33.49,0,0,1,55.9-25,24.78,24.78,0,0,1,44.7,5.7,24.34,24.34,0,0,1,10.4-2.3,24.62,24.62,0,0,1,15.9,5.8,33.2,33.2,0,0,1,55.4-13.6,32.84,32.84,0,0,1,16.2-4.2A33.8,33.8,0,0,1,332.1,335.8Z"/><path class="cls-13" d="M331.4,340.1c14.3,3.3,25.1,16.7,25.1,32.8a34.58,34.58,0,0,1-2.8,13.7H139.2a34.58,34.58,0,0,1-2.8-13.7,34,34,0,0,1,18-30.3,30.46,30.46,0,0,1,35,5.3,23.33,23.33,0,0,1,20-11.7c10.6,0,19.5,7.3,22.5,17.4a22.17,22.17,0,0,1,9.9-2.3,22.71,22.71,0,0,1,15.1,5.8c3.8-13.6,15.8-23.5,30-23.5a30.54,30.54,0,0,1,22.4,9.9,29.76,29.76,0,0,1,22.1-3.4Z"/><path class="cls-5" d="M358.2,386.3H126.7l-1.1-2.3a36.74,36.74,0,0,1-3.3-15.4,37.87,37.87,0,0,1,21.3-33.9,36.71,36.71,0,0,1,16.3-3.7,37.56,37.56,0,0,1,21.7,6.9,28.83,28.83,0,0,1,47.8,6.3,28.05,28.05,0,0,1,8.2-1.2,29.75,29.75,0,0,1,14,3.6,37.19,37.19,0,0,1,58-12.2,38,38,0,0,1,15.5-3.4,35.68,35.68,0,0,1,8,.9,37.76,37.76,0,0,1,29.6,36.7,37.07,37.07,0,0,1-3.3,15.4Zm-226.2-8H352.9a29,29,0,0,0,1.6-9.7,29.73,29.73,0,0,0-23.3-28.9h0a31.83,31.83,0,0,0-6.2-.7,29.86,29.86,0,0,0-14.3,3.7l-2.7,1.5-2.1-2.2a29.11,29.11,0,0,0-48.6,11.9l-1.7,5.8-4.7-3.9a21,21,0,0,0-13.4-4.9,20.16,20.16,0,0,0-8.7,2l-4.2,1.9-1.4-4.4a20.73,20.73,0,0,0-19.9-14.6,21,21,0,0,0-17.7,9.8l-2.5,4-3.5-3.2a29.45,29.45,0,0,0-49.2,22A26.74,26.74,0,0,0,132,378.3Z"/></g><g id="Ilustración_5" data-name="Ilustración 5"><g class="cls-14"><g class="cls-14"><path class="cls-15" d="M321.75,428.53a5.34,5.34,0,0,1-2.36,4.24,9.65,9.65,0,0,1-5.71,1.75H278.21v.36H267.94a8.19,8.19,0,0,0-4.84,1.49,4.54,4.54,0,0,0-2,3.59c0,2.81,3.07,5.08,6.85,5.08h10.27v.36h13.7c4.05,0,7.34,2.44,7.34,5.45a4.84,4.84,0,0,1-2.15,3.85,8.73,8.73,0,0,1-5.19,1.6H192.6c-4.05,0-7.34-2.44-7.34-5.45a4.84,4.84,0,0,1,2.15-3.85,8.73,8.73,0,0,1,5.19-1.6H198V445h4.4a8.19,8.19,0,0,0,4.84-1.49,4.54,4.54,0,0,0,2-3.59c0-2.81-3.07-5.08-6.85-5.08H198v-.36h-9c-4.46,0-8.07-2.68-8.07-6a5.34,5.34,0,0,1,2.36-4.24,9.65,9.65,0,0,1,5.71-1.75h15.41a4.92,4.92,0,0,0,2.7-.9,2.75,2.75,0,0,0,1.22-2.18c0-1.64-1.73-3-3.91-3.08H167.41c-2.84,0-5.14-1.71-5.14-3.81a3.39,3.39,0,0,1,1.51-2.69,6.12,6.12,0,0,1,3.63-1.12h34a8.19,8.19,0,0,0,4.84-1.49,4.54,4.54,0,0,0,2-3.59c0-2.81-3.07-5.08-6.85-5.08h-11.5c-4.46,0-8.07-2.68-8.07-6a5.34,5.34,0,0,1,2.36-4.24,9.65,9.65,0,0,1,5.71-1.75H314.65c4.46,0,8.07,2.68,8.07,6a5.34,5.34,0,0,1-2.36,4.24,9.65,9.65,0,0,1-5.71,1.75H278.21v.12a7.8,7.8,0,0,0-3.38,1.37,4.54,4.54,0,0,0-2,3.59c0,2.43,2.3,4.47,5.38,5v.12h7.58c2.84,0,5.14,1.71,5.14,3.81a3.39,3.39,0,0,1-1.51,2.69,6.12,6.12,0,0,1-3.63,1.12h-13v.05a4.73,4.73,0,0,0-2.21.85,2.75,2.75,0,0,0-1.22,2.18c0,1.52,1.48,2.78,3.42,3v0h40.85c4.46,0,8.07,2.68,8.07,6"/></g></g></g></svg>