<?xml version="1.0" encoding="UTF-8" standalone="no"?>
<!DOCTYPE svg PUBLIC "-//W3C//DTD SVG 1.1//EN"
 "http://www.w3.org/Graphics/SVG/1.1/DTD/svg11.dtd">
<!-- Generated by graphviz version 2.40.1 (20161225.0304)
 -->
<!-- Title: dependencies Pages: 1 -->
<svg width="504pt" height="284pt"
 viewBox="0.00 0.00 504.00 284.00" xmlns="http://www.w3.org/2000/svg" xmlns:xlink="http://www.w3.org/1999/xlink">
<g id="graph0" class="graph" transform="scale(1 1) rotate(0) translate(4 280)">
<title>dependencies</title>
<polygon fill="#ffffff" stroke="transparent" points="-4,4 -4,-280 500,-280 500,4 -4,4"/>
<text text-anchor="start" x="227.0091" y="-42.4" font-family="sans-serif" font-weight="bold" font-size="14.00" fill="#000000">Legend</text>
<polygon fill="#ffffb3" stroke="transparent" points="14,-10 14,-30 34,-30 34,-10 14,-10"/>
<text text-anchor="start" x="37.629" y="-15.4" font-family="sans-serif" font-size="14.00" fill="#000000"> &#160;Declarations</text>
<polygon fill="#8dd3c7" stroke="transparent" points="127,-10 127,-30 147,-30 147,-10 127,-10"/>
<text text-anchor="start" x="150.7251" y="-15.4" font-family="sans-serif" font-size="14.00" fill="#000000"> &#160;Module</text>
<polygon fill="#80b1d3" stroke="transparent" points="213,-10 213,-30 233,-30 233,-10 213,-10"/>
<text text-anchor="start" x="236.7812" y="-15.4" font-family="sans-serif" font-size="14.00" fill="#000000"> &#160;Bootstrap</text>
<polygon fill="#fdb462" stroke="transparent" points="310,-10 310,-30 330,-30 330,-10 310,-10"/>
<text text-anchor="start" x="333.6732" y="-15.4" font-family="sans-serif" font-size="14.00" fill="#000000"> &#160;Providers</text>
<polygon fill="#fb8072" stroke="transparent" points="406,-10 406,-30 426,-30 426,-10 406,-10"/>
<text text-anchor="start" x="429.7258" y="-15.4" font-family="sans-serif" font-size="14.00" fill="#000000"> &#160;Exports</text>
<g id="clust1" class="cluster">
<title>cluster_ButtonsModule</title>
<polygon fill="none" stroke="#000000" stroke-dasharray="1,5" points="85,-70 85,-268 411,-268 411,-70 85,-70"/>
</g>
<g id="clust2" class="cluster">
<title>cluster_ButtonsModule_declarations</title>
<polygon fill="none" stroke="#000000" points="97,-78 97,-130 399,-130 399,-78 97,-78"/>
</g>
<g id="clust6" class="cluster">
<title>cluster_ButtonsModule_exports</title>
<polygon fill="none" stroke="#000000" points="93,-208 93,-260 403,-260 403,-208 93,-208"/>
</g>
<!-- AsButtonDirective -->
<g id="node1" class="node">
<title>AsButtonDirective</title>
<polygon fill="#ffffb3" stroke="#000000" points="390.7521,-122 269.2479,-122 269.2479,-86 390.7521,-86 390.7521,-122"/>
<text text-anchor="middle" x="330" y="-99.8" font-family="Times,serif" font-size="14.00" fill="#000000">AsButtonDirective</text>
</g>
<!-- ButtonsModule -->
<g id="node3" class="node">
<title>ButtonsModule</title>
<polygon fill="#8dd3c7" stroke="#000000" points="230.6123,-187 227.6123,-191 206.6123,-191 203.6123,-187 127.3877,-187 127.3877,-151 230.6123,-151 230.6123,-187"/>
<text text-anchor="middle" x="179" y="-164.8" font-family="Times,serif" font-size="14.00" fill="#000000">ButtonsModule</text>
</g>
<!-- AsButtonDirective&#45;&gt;ButtonsModule -->
<g id="edge1" class="edge">
<title>AsButtonDirective&#45;&gt;ButtonsModule</title>
<path fill="none" stroke="#000000" d="M350.3753,-122.0225C350.3753,-139.3734 350.3753,-163 350.3753,-163 350.3753,-163 240.8833,-163 240.8833,-163"/>
<polygon fill="#000000" stroke="#000000" points="240.8833,-159.5001 230.8833,-163 240.8833,-166.5001 240.8833,-159.5001"/>
</g>
<!-- AsIconButtonDirective -->
<g id="node2" class="node">
<title>AsIconButtonDirective</title>
<polygon fill="#ffffb3" stroke="#000000" points="251.1275,-122 104.8725,-122 104.8725,-86 251.1275,-86 251.1275,-122"/>
<text text-anchor="middle" x="178" y="-99.8" font-family="Times,serif" font-size="14.00" fill="#000000">AsIconButtonDirective</text>
</g>
<!-- AsIconButtonDirective&#45;&gt;ButtonsModule -->
<g id="edge2" class="edge">
<title>AsIconButtonDirective&#45;&gt;ButtonsModule</title>
<path fill="none" stroke="#000000" d="M179,-122.1061C179,-122.1061 179,-140.991 179,-140.991"/>
<polygon fill="#000000" stroke="#000000" points="175.5001,-140.9909 179,-150.991 182.5001,-140.991 175.5001,-140.9909"/>
</g>
<!-- AsButtonDirective  -->
<g id="node4" class="node">
<title>AsButtonDirective </title>
<polygon fill="#fb8072" stroke="#000000" points="394.7521,-252 269.2479,-252 269.2479,-216 394.7521,-216 394.7521,-252"/>
<text text-anchor="middle" x="332" y="-229.8" font-family="Times,serif" font-size="14.00" fill="#000000">AsButtonDirective </text>
</g>
<!-- ButtonsModule&#45;&gt;AsButtonDirective  -->
<g id="edge3" class="edge">
<title>ButtonsModule&#45;&gt;AsButtonDirective </title>
<path fill="none" stroke="#000000" stroke-dasharray="5,2" d="M230.7251,-175C267.3069,-175 309.8747,-175 309.8747,-175 309.8747,-175 309.8747,-205.9775 309.8747,-205.9775"/>
<polygon fill="#000000" stroke="#000000" points="306.3748,-205.9774 309.8747,-215.9775 313.3748,-205.9775 306.3748,-205.9774"/>
</g>
<!-- AsIconButtonDirective  -->
<g id="node5" class="node">
<title>AsIconButtonDirective </title>
<polygon fill="#fb8072" stroke="#000000" points="251.1271,-252 100.8729,-252 100.8729,-216 251.1271,-216 251.1271,-252"/>
<text text-anchor="middle" x="176" y="-229.8" font-family="Times,serif" font-size="14.00" fill="#000000">AsIconButtonDirective </text>
</g>
<!-- ButtonsModule&#45;&gt;AsIconButtonDirective  -->
<g id="edge4" class="edge">
<title>ButtonsModule&#45;&gt;AsIconButtonDirective </title>
<path fill="none" stroke="#000000" stroke-dasharray="5,2" d="M179,-187.1061C179,-187.1061 179,-205.991 179,-205.991"/>
<polygon fill="#000000" stroke="#000000" points="175.5001,-205.9909 179,-215.991 182.5001,-205.991 175.5001,-205.9909"/>
</g>
</g>
</svg>
