<?xml version="1.0" encoding="UTF-8" standalone="no"?>
<!DOCTYPE svg PUBLIC "-//W3C//DTD SVG 1.1//EN"
 "http://www.w3.org/Graphics/SVG/1.1/DTD/svg11.dtd">
<!-- Generated by graphviz version 2.40.1 (20161225.0304)
 -->
<!-- Title: dependencies Pages: 1 -->
<svg width="504pt" height="284pt"
 viewBox="0.00 0.00 504.00 284.00" xmlns="http://www.w3.org/2000/svg" xmlns:xlink="http://www.w3.org/1999/xlink">
<g id="graph0" class="graph" transform="scale(1 1) rotate(0) translate(4 280)">
<title>dependencies</title>
<polygon fill="#ffffff" stroke="transparent" points="-4,4 -4,-280 500,-280 500,4 -4,4"/>
<text text-anchor="start" x="227.0091" y="-42.4" font-family="sans-serif" font-weight="bold" font-size="14.00" fill="#000000">Legend</text>
<polygon fill="#ffffb3" stroke="transparent" points="14,-10 14,-30 34,-30 34,-10 14,-10"/>
<text text-anchor="start" x="37.629" y="-15.4" font-family="sans-serif" font-size="14.00" fill="#000000"> &#160;Declarations</text>
<polygon fill="#8dd3c7" stroke="transparent" points="127,-10 127,-30 147,-30 147,-10 127,-10"/>
<text text-anchor="start" x="150.7251" y="-15.4" font-family="sans-serif" font-size="14.00" fill="#000000"> &#160;Module</text>
<polygon fill="#80b1d3" stroke="transparent" points="213,-10 213,-30 233,-30 233,-10 213,-10"/>
<text text-anchor="start" x="236.7812" y="-15.4" font-family="sans-serif" font-size="14.00" fill="#000000"> &#160;Bootstrap</text>
<polygon fill="#fdb462" stroke="transparent" points="310,-10 310,-30 330,-30 330,-10 310,-10"/>
<text text-anchor="start" x="333.6732" y="-15.4" font-family="sans-serif" font-size="14.00" fill="#000000"> &#160;Providers</text>
<polygon fill="#fb8072" stroke="transparent" points="406,-10 406,-30 426,-30 426,-10 406,-10"/>
<text text-anchor="start" x="429.7258" y="-15.4" font-family="sans-serif" font-size="14.00" fill="#000000"> &#160;Exports</text>
<g id="clust1" class="cluster">
<title>cluster_EmptyStateModule</title>
<polygon fill="none" stroke="#000000" stroke-dasharray="1,5" points="95,-70 95,-268 401,-268 401,-70 95,-70"/>
</g>
<g id="clust2" class="cluster">
<title>cluster_EmptyStateModule_declarations</title>
<polygon fill="none" stroke="#000000" points="231,-78 231,-130 393,-130 393,-78 231,-78"/>
</g>
<g id="clust4" class="cluster">
<title>cluster_EmptyStateModule_imports</title>
<polygon fill="none" stroke="#000000" points="103,-78 103,-130 223,-130 223,-78 103,-78"/>
</g>
<g id="clust5" class="cluster">
<title>cluster_EmptyStateModule_exports</title>
<polygon fill="none" stroke="#000000" points="165,-208 165,-260 331,-260 331,-208 165,-208"/>
</g>
<!-- EmptyStateComponent -->
<g id="node1" class="node">
<title>EmptyStateComponent</title>
<polygon fill="#ffffb3" stroke="#000000" points="385.1596,-122 238.8404,-122 238.8404,-86 385.1596,-86 385.1596,-122"/>
<text text-anchor="middle" x="312" y="-99.8" font-family="Times,serif" font-size="14.00" fill="#000000">EmptyStateComponent</text>
</g>
<!-- EmptyStateModule -->
<g id="node2" class="node">
<title>EmptyStateModule</title>
<polygon fill="#8dd3c7" stroke="#000000" points="310.3767,-187 307.3767,-191 286.3767,-191 283.3767,-187 185.6233,-187 185.6233,-151 310.3767,-151 310.3767,-187"/>
<text text-anchor="middle" x="248" y="-164.8" font-family="Times,serif" font-size="14.00" fill="#000000">EmptyStateModule</text>
</g>
<!-- EmptyStateComponent&#45;&gt;EmptyStateModule -->
<g id="edge1" class="edge">
<title>EmptyStateComponent&#45;&gt;EmptyStateModule</title>
<path fill="none" stroke="#000000" d="M274.5544,-122.1061C274.5544,-122.1061 274.5544,-140.991 274.5544,-140.991"/>
<polygon fill="#000000" stroke="#000000" points="271.0544,-140.9909 274.5544,-150.991 278.0544,-140.991 271.0544,-140.9909"/>
</g>
<!-- EmptyStateComponent  -->
<g id="node4" class="node">
<title>EmptyStateComponent </title>
<polygon fill="#fb8072" stroke="#000000" points="323.1593,-252 172.8407,-252 172.8407,-216 323.1593,-216 323.1593,-252"/>
<text text-anchor="middle" x="248" y="-229.8" font-family="Times,serif" font-size="14.00" fill="#000000">EmptyStateComponent </text>
</g>
<!-- EmptyStateModule&#45;&gt;EmptyStateComponent  -->
<g id="edge3" class="edge">
<title>EmptyStateModule&#45;&gt;EmptyStateComponent </title>
<path fill="none" stroke="#000000" stroke-dasharray="5,2" d="M248,-187.1061C248,-187.1061 248,-205.991 248,-205.991"/>
<polygon fill="#000000" stroke="#000000" points="244.5001,-205.9909 248,-215.991 251.5001,-205.991 244.5001,-205.9909"/>
</g>
<!-- ButtonsModule -->
<g id="node3" class="node">
<title>ButtonsModule</title>
<polygon fill="#8dd3c7" stroke="#000000" points="214.6123,-122 211.6123,-126 190.6123,-126 187.6123,-122 111.3877,-122 111.3877,-86 214.6123,-86 214.6123,-122"/>
<text text-anchor="middle" x="163" y="-99.8" font-family="Times,serif" font-size="14.00" fill="#000000">ButtonsModule</text>
</g>
<!-- ButtonsModule&#45;&gt;EmptyStateModule -->
<g id="edge2" class="edge">
<title>ButtonsModule&#45;&gt;EmptyStateModule</title>
<path fill="none" stroke="#000000" d="M200.0589,-122.1061C200.0589,-122.1061 200.0589,-140.991 200.0589,-140.991"/>
<polygon fill="#000000" stroke="#000000" points="196.559,-140.9909 200.0589,-150.991 203.559,-140.991 196.559,-140.9909"/>
</g>
</g>
</svg>
