<?xml version="1.0" encoding="UTF-8" standalone="no"?>
<!DOCTYPE svg PUBLIC "-//W3C//DTD SVG 1.1//EN"
 "http://www.w3.org/Graphics/SVG/1.1/DTD/svg11.dtd">
<!-- Generated by graphviz version 2.40.1 (20161225.0304)
 -->
<!-- Title: dependencies Pages: 1 -->
<svg width="3278pt" height="284pt"
 viewBox="0.00 0.00 3278.00 284.00" xmlns="http://www.w3.org/2000/svg" xmlns:xlink="http://www.w3.org/1999/xlink">
<g id="graph0" class="graph" transform="scale(1 1) rotate(0) translate(4 280)">
<title>dependencies</title>
<polygon fill="#ffffff" stroke="transparent" points="-4,4 -4,-280 3274,-280 3274,4 -4,4"/>
<text text-anchor="start" x="1614.0091" y="-42.4" font-family="sans-serif" font-weight="bold" font-size="14.00" fill="#000000">Legend</text>
<polygon fill="#ffffb3" stroke="transparent" points="1401,-10 1401,-30 1421,-30 1421,-10 1401,-10"/>
<text text-anchor="start" x="1424.629" y="-15.4" font-family="sans-serif" font-size="14.00" fill="#000000"> &#160;Declarations</text>
<polygon fill="#8dd3c7" stroke="transparent" points="1514,-10 1514,-30 1534,-30 1534,-10 1514,-10"/>
<text text-anchor="start" x="1537.7251" y="-15.4" font-family="sans-serif" font-size="14.00" fill="#000000"> &#160;Module</text>
<polygon fill="#80b1d3" stroke="transparent" points="1600,-10 1600,-30 1620,-30 1620,-10 1600,-10"/>
<text text-anchor="start" x="1623.7812" y="-15.4" font-family="sans-serif" font-size="14.00" fill="#000000"> &#160;Bootstrap</text>
<polygon fill="#fdb462" stroke="transparent" points="1697,-10 1697,-30 1717,-30 1717,-10 1697,-10"/>
<text text-anchor="start" x="1720.6732" y="-15.4" font-family="sans-serif" font-size="14.00" fill="#000000"> &#160;Providers</text>
<polygon fill="#fb8072" stroke="transparent" points="1793,-10 1793,-30 1813,-30 1813,-10 1793,-10"/>
<text text-anchor="start" x="1816.7258" y="-15.4" font-family="sans-serif" font-size="14.00" fill="#000000"> &#160;Exports</text>
<g id="clust1" class="cluster">
<title>cluster_ButtonsModule</title>
<polygon fill="none" stroke="#000000" stroke-dasharray="1,5" points="8,-70 8,-268 334,-268 334,-70 8,-70"/>
</g>
<g id="clust2" class="cluster">
<title>cluster_ButtonsModule_declarations</title>
<polygon fill="none" stroke="#000000" points="20,-78 20,-130 322,-130 322,-78 20,-78"/>
</g>
<g id="clust6" class="cluster">
<title>cluster_ButtonsModule_exports</title>
<polygon fill="none" stroke="#000000" points="16,-208 16,-260 326,-260 326,-208 16,-208"/>
</g>
<g id="clust9" class="cluster">
<title>cluster_DynamicFormsModule</title>
<polygon fill="none" stroke="#000000" stroke-dasharray="1,5" points="342,-70 342,-268 1852,-268 1852,-70 342,-70"/>
</g>
<g id="clust10" class="cluster">
<title>cluster_DynamicFormsModule_declarations</title>
<polygon fill="none" stroke="#000000" points="554,-78 554,-130 1844,-130 1844,-78 554,-78"/>
</g>
<g id="clust18" class="cluster">
<title>cluster_DynamicFormsModule_exports</title>
<polygon fill="none" stroke="#000000" points="441,-208 441,-260 1753,-260 1753,-208 441,-208"/>
</g>
<g id="clust20" class="cluster">
<title>cluster_DynamicFormsModule_providers</title>
<polygon fill="none" stroke="#000000" points="350,-78 350,-130 546,-130 546,-78 350,-78"/>
</g>
<g id="clust21" class="cluster">
<title>cluster_GridListsModule</title>
<polygon fill="none" stroke="#000000" stroke-dasharray="1,5" points="1860,-70 1860,-268 2200,-268 2200,-70 1860,-70"/>
</g>
<g id="clust22" class="cluster">
<title>cluster_GridListsModule_declarations</title>
<polygon fill="none" stroke="#000000" points="1872,-78 1872,-130 2189,-130 2189,-78 1872,-78"/>
</g>
<g id="clust26" class="cluster">
<title>cluster_GridListsModule_exports</title>
<polygon fill="none" stroke="#000000" points="1868,-208 1868,-260 2192,-260 2192,-208 1868,-208"/>
</g>
<g id="clust29" class="cluster">
<title>cluster_HeaderModule</title>
<polygon fill="none" stroke="#000000" stroke-dasharray="1,5" points="2208,-70 2208,-268 2366,-268 2366,-70 2208,-70"/>
</g>
<g id="clust30" class="cluster">
<title>cluster_HeaderModule_declarations</title>
<polygon fill="none" stroke="#000000" points="2218,-78 2218,-130 2356,-130 2356,-78 2218,-78"/>
</g>
<g id="clust33" class="cluster">
<title>cluster_HeaderModule_exports</title>
<polygon fill="none" stroke="#000000" points="2216,-208 2216,-260 2358,-260 2358,-208 2216,-208"/>
</g>
<g id="clust36" class="cluster">
<title>cluster_NavmenuModule</title>
<polygon fill="none" stroke="#000000" stroke-dasharray="1,5" points="2374,-70 2374,-268 2546,-268 2546,-70 2374,-70"/>
</g>
<g id="clust37" class="cluster">
<title>cluster_NavmenuModule_declarations</title>
<polygon fill="none" stroke="#000000" points="2384,-78 2384,-130 2536,-130 2536,-78 2384,-78"/>
</g>
<g id="clust40" class="cluster">
<title>cluster_NavmenuModule_exports</title>
<polygon fill="none" stroke="#000000" points="2382,-208 2382,-260 2538,-260 2538,-208 2382,-208"/>
</g>
<g id="clust43" class="cluster">
<title>cluster_SegmentModule</title>
<polygon fill="none" stroke="#000000" stroke-dasharray="1,5" points="2554,-70 2554,-268 2720,-268 2720,-70 2554,-70"/>
</g>
<g id="clust44" class="cluster">
<title>cluster_SegmentModule_declarations</title>
<polygon fill="none" stroke="#000000" points="2564,-78 2564,-130 2710,-130 2710,-78 2564,-78"/>
</g>
<g id="clust47" class="cluster">
<title>cluster_SegmentModule_exports</title>
<polygon fill="none" stroke="#000000" points="2562,-208 2562,-260 2712,-260 2712,-208 2562,-208"/>
</g>
<g id="clust50" class="cluster">
<title>cluster_ToolbarModule</title>
<polygon fill="none" stroke="#000000" stroke-dasharray="1,5" points="2728,-70 2728,-268 3262,-268 3262,-70 2728,-70"/>
</g>
<g id="clust51" class="cluster">
<title>cluster_ToolbarModule_declarations</title>
<polygon fill="none" stroke="#000000" points="2946,-78 2946,-130 3254,-130 3254,-78 2946,-78"/>
</g>
<g id="clust55" class="cluster">
<title>cluster_ToolbarModule_exports</title>
<polygon fill="none" stroke="#000000" points="2863,-208 2863,-260 3178,-260 3178,-208 2863,-208"/>
</g>
<g id="clust57" class="cluster">
<title>cluster_ToolbarModule_providers</title>
<polygon fill="none" stroke="#000000" points="2736,-78 2736,-130 2938,-130 2938,-78 2736,-78"/>
</g>
<!-- AsButtonDirective -->
<g id="node1" class="node">
<title>AsButtonDirective</title>
<polygon fill="#ffffb3" stroke="#000000" points="313.7521,-122 192.2479,-122 192.2479,-86 313.7521,-86 313.7521,-122"/>
<text text-anchor="middle" x="253" y="-99.8" font-family="Times,serif" font-size="14.00" fill="#000000">AsButtonDirective</text>
</g>
<!-- ButtonsModule -->
<g id="node3" class="node">
<title>ButtonsModule</title>
<polygon fill="#8dd3c7" stroke="#000000" points="153.6123,-187 150.6123,-191 129.6123,-191 126.6123,-187 50.3877,-187 50.3877,-151 153.6123,-151 153.6123,-187"/>
<text text-anchor="middle" x="102" y="-164.8" font-family="Times,serif" font-size="14.00" fill="#000000">ButtonsModule</text>
</g>
<!-- AsButtonDirective&#45;&gt;ButtonsModule -->
<g id="edge1" class="edge">
<title>AsButtonDirective&#45;&gt;ButtonsModule</title>
<path fill="none" stroke="#000000" d="M273.3753,-122.2921C273.3753,-144.2057 273.3753,-178 273.3753,-178 273.3753,-178 163.8833,-178 163.8833,-178"/>
<polygon fill="#000000" stroke="#000000" points="163.8833,-174.5001 153.8833,-178 163.8833,-181.5001 163.8833,-174.5001"/>
</g>
<!-- AsIconButtonDirective -->
<g id="node2" class="node">
<title>AsIconButtonDirective</title>
<polygon fill="#ffffb3" stroke="#000000" points="174.1275,-122 27.8725,-122 27.8725,-86 174.1275,-86 174.1275,-122"/>
<text text-anchor="middle" x="101" y="-99.8" font-family="Times,serif" font-size="14.00" fill="#000000">AsIconButtonDirective</text>
</g>
<!-- AsIconButtonDirective&#45;&gt;ButtonsModule -->
<g id="edge2" class="edge">
<title>AsIconButtonDirective&#45;&gt;ButtonsModule</title>
<path fill="none" stroke="#000000" d="M102,-122.1061C102,-122.1061 102,-140.991 102,-140.991"/>
<polygon fill="#000000" stroke="#000000" points="98.5001,-140.9909 102,-150.991 105.5001,-140.991 98.5001,-140.9909"/>
</g>
<!-- AsButtonDirective  -->
<g id="node4" class="node">
<title>AsButtonDirective </title>
<polygon fill="#fb8072" stroke="#000000" points="317.7521,-252 192.2479,-252 192.2479,-216 317.7521,-216 317.7521,-252"/>
<text text-anchor="middle" x="255" y="-229.8" font-family="Times,serif" font-size="14.00" fill="#000000">AsButtonDirective </text>
</g>
<!-- ButtonsModule&#45;&gt;AsButtonDirective  -->
<g id="edge3" class="edge">
<title>ButtonsModule&#45;&gt;AsButtonDirective </title>
<path fill="none" stroke="#000000" stroke-dasharray="5,2" d="M153.7251,-183C190.3069,-183 232.8747,-183 232.8747,-183 232.8747,-183 232.8747,-205.8757 232.8747,-205.8757"/>
<polygon fill="#000000" stroke="#000000" points="229.3748,-205.8757 232.8747,-215.8757 236.3748,-205.8757 229.3748,-205.8757"/>
</g>
<!-- AsIconButtonDirective  -->
<g id="node5" class="node">
<title>AsIconButtonDirective </title>
<polygon fill="#fb8072" stroke="#000000" points="174.1271,-252 23.8729,-252 23.8729,-216 174.1271,-216 174.1271,-252"/>
<text text-anchor="middle" x="99" y="-229.8" font-family="Times,serif" font-size="14.00" fill="#000000">AsIconButtonDirective </text>
</g>
<!-- ButtonsModule&#45;&gt;AsIconButtonDirective  -->
<g id="edge4" class="edge">
<title>ButtonsModule&#45;&gt;AsIconButtonDirective </title>
<path fill="none" stroke="#000000" stroke-dasharray="5,2" d="M102,-187.1061C102,-187.1061 102,-205.991 102,-205.991"/>
<polygon fill="#000000" stroke="#000000" points="98.5001,-205.9909 102,-215.991 105.5001,-205.991 98.5001,-205.9909"/>
</g>
<!-- DynamicFormComponent -->
<g id="node6" class="node">
<title>DynamicFormComponent</title>
<polygon fill="#ffffb3" stroke="#000000" points="1836.4832,-122 1673.5168,-122 1673.5168,-86 1836.4832,-86 1836.4832,-122"/>
<text text-anchor="middle" x="1755" y="-99.8" font-family="Times,serif" font-size="14.00" fill="#000000">DynamicFormComponent</text>
</g>
<!-- DynamicFormsModule -->
<g id="node12" class="node">
<title>DynamicFormsModule</title>
<polygon fill="#8dd3c7" stroke="#000000" points="1193.1456,-187 1190.1456,-191 1169.1456,-191 1166.1456,-187 1046.8544,-187 1046.8544,-151 1193.1456,-151 1193.1456,-187"/>
<text text-anchor="middle" x="1120" y="-164.8" font-family="Times,serif" font-size="14.00" fill="#000000">DynamicFormsModule</text>
</g>
<!-- DynamicFormComponent&#45;&gt;DynamicFormsModule -->
<g id="edge5" class="edge">
<title>DynamicFormComponent&#45;&gt;DynamicFormsModule</title>
<path fill="none" stroke="#000000" d="M1709.375,-122.1061C1709.375,-141.3391 1709.375,-169 1709.375,-169 1709.375,-169 1203.1563,-169 1203.1563,-169"/>
<polygon fill="#000000" stroke="#000000" points="1203.1564,-165.5001 1193.1563,-169 1203.1563,-172.5001 1203.1564,-165.5001"/>
</g>
<!-- DynamicFormInputComponent -->
<g id="node7" class="node">
<title>DynamicFormInputComponent</title>
<polygon fill="#ffffb3" stroke="#000000" points="1655.035,-122 1462.965,-122 1462.965,-86 1655.035,-86 1655.035,-122"/>
<text text-anchor="middle" x="1559" y="-99.8" font-family="Times,serif" font-size="14.00" fill="#000000">DynamicFormInputComponent</text>
</g>
<!-- DynamicFormInputComponent&#45;&gt;DynamicFormsModule -->
<g id="edge6" class="edge">
<title>DynamicFormInputComponent&#45;&gt;DynamicFormsModule</title>
<path fill="none" stroke="#000000" d="M1511.875,-122.0225C1511.875,-139.3734 1511.875,-163 1511.875,-163 1511.875,-163 1203.249,-163 1203.249,-163"/>
<polygon fill="#000000" stroke="#000000" points="1203.249,-159.5001 1193.249,-163 1203.249,-166.5001 1203.249,-159.5001"/>
</g>
<!-- DynamicFormSelectComponent -->
<g id="node8" class="node">
<title>DynamicFormSelectComponent</title>
<polygon fill="#ffffb3" stroke="#000000" points="1444.6909,-122 1247.3091,-122 1247.3091,-86 1444.6909,-86 1444.6909,-122"/>
<text text-anchor="middle" x="1346" y="-99.8" font-family="Times,serif" font-size="14.00" fill="#000000">DynamicFormSelectComponent</text>
</g>
<!-- DynamicFormSelectComponent&#45;&gt;DynamicFormsModule -->
<g id="edge7" class="edge">
<title>DynamicFormSelectComponent&#45;&gt;DynamicFormsModule</title>
<path fill="none" stroke="#000000" d="M1297.375,-122.2396C1297.375,-137.5706 1297.375,-157 1297.375,-157 1297.375,-157 1203.1693,-157 1203.1693,-157"/>
<polygon fill="#000000" stroke="#000000" points="1203.1693,-153.5001 1193.1693,-157 1203.1692,-160.5001 1203.1693,-153.5001"/>
</g>
<!-- DynamicFormCheckboxComponent -->
<g id="node9" class="node">
<title>DynamicFormCheckboxComponent</title>
<polygon fill="#ffffb3" stroke="#000000" points="1229.7491,-122 1010.2509,-122 1010.2509,-86 1229.7491,-86 1229.7491,-122"/>
<text text-anchor="middle" x="1120" y="-99.8" font-family="Times,serif" font-size="14.00" fill="#000000">DynamicFormCheckboxComponent</text>
</g>
<!-- DynamicFormCheckboxComponent&#45;&gt;DynamicFormsModule -->
<g id="edge8" class="edge">
<title>DynamicFormCheckboxComponent&#45;&gt;DynamicFormsModule</title>
<path fill="none" stroke="#000000" d="M1120,-122.1061C1120,-122.1061 1120,-140.991 1120,-140.991"/>
<polygon fill="#000000" stroke="#000000" points="1116.5001,-140.9909 1120,-150.991 1123.5001,-140.991 1116.5001,-140.9909"/>
</g>
<!-- DynamicFormRadioComponent -->
<g id="node10" class="node">
<title>DynamicFormRadioComponent</title>
<polygon fill="#ffffb3" stroke="#000000" points="992.4255,-122 795.5745,-122 795.5745,-86 992.4255,-86 992.4255,-122"/>
<text text-anchor="middle" x="894" y="-99.8" font-family="Times,serif" font-size="14.00" fill="#000000">DynamicFormRadioComponent</text>
</g>
<!-- DynamicFormRadioComponent&#45;&gt;DynamicFormsModule -->
<g id="edge9" class="edge">
<title>DynamicFormRadioComponent&#45;&gt;DynamicFormsModule</title>
<path fill="none" stroke="#000000" d="M948.794,-122.1871C948.794,-137.1824 948.794,-156 948.794,-156 948.794,-156 1036.3997,-156 1036.3997,-156"/>
<polygon fill="#000000" stroke="#000000" points="1036.3997,-159.5001 1046.3997,-156 1036.3996,-152.5001 1036.3997,-159.5001"/>
</g>
<!-- DynamicFormTextAreaComponent -->
<g id="node11" class="node">
<title>DynamicFormTextAreaComponent</title>
<polygon fill="#ffffb3" stroke="#000000" points="777.8375,-122 562.1625,-122 562.1625,-86 777.8375,-86 777.8375,-122"/>
<text text-anchor="middle" x="670" y="-99.8" font-family="Times,serif" font-size="14.00" fill="#000000">DynamicFormTextAreaComponent</text>
</g>
<!-- DynamicFormTextAreaComponent&#45;&gt;DynamicFormsModule -->
<g id="edge10" class="edge">
<title>DynamicFormTextAreaComponent&#45;&gt;DynamicFormsModule</title>
<path fill="none" stroke="#000000" d="M732.4781,-122.027C732.4781,-138.3976 732.4781,-160 732.4781,-160 732.4781,-160 1036.6545,-160 1036.6545,-160"/>
<polygon fill="#000000" stroke="#000000" points="1036.6545,-163.5001 1046.6545,-160 1036.6545,-156.5001 1036.6545,-163.5001"/>
</g>
<!-- DynamicFormComponent  -->
<g id="node13" class="node">
<title>DynamicFormComponent </title>
<polygon fill="#fb8072" stroke="#000000" points="1745.4839,-252 1578.5161,-252 1578.5161,-216 1745.4839,-216 1745.4839,-252"/>
<text text-anchor="middle" x="1662" y="-229.8" font-family="Times,serif" font-size="14.00" fill="#000000">DynamicFormComponent </text>
</g>
<!-- DynamicFormsModule&#45;&gt;DynamicFormComponent  -->
<g id="edge11" class="edge">
<title>DynamicFormsModule&#45;&gt;DynamicFormComponent </title>
<path fill="none" stroke="#000000" stroke-dasharray="5,2" d="M1193.336,-175C1331.5884,-175 1617.0128,-175 1617.0128,-175 1617.0128,-175 1617.0128,-205.9775 1617.0128,-205.9775"/>
<polygon fill="#000000" stroke="#000000" points="1613.5129,-205.9774 1617.0128,-215.9775 1620.5129,-205.9775 1613.5129,-205.9774"/>
</g>
<!-- DynamicFormInputComponent  -->
<g id="node14" class="node">
<title>DynamicFormInputComponent </title>
<polygon fill="#fb8072" stroke="#000000" points="1561.0344,-252 1364.9656,-252 1364.9656,-216 1561.0344,-216 1561.0344,-252"/>
<text text-anchor="middle" x="1463" y="-229.8" font-family="Times,serif" font-size="14.00" fill="#000000">DynamicFormInputComponent </text>
</g>
<!-- DynamicFormsModule&#45;&gt;DynamicFormInputComponent  -->
<g id="edge12" class="edge">
<title>DynamicFormsModule&#45;&gt;DynamicFormInputComponent </title>
<path fill="none" stroke="#000000" stroke-dasharray="5,2" d="M1193.3403,-181C1277.7213,-181 1404.7891,-181 1404.7891,-181 1404.7891,-181 1404.7891,-205.7604 1404.7891,-205.7604"/>
<polygon fill="#000000" stroke="#000000" points="1401.2892,-205.7604 1404.7891,-215.7604 1408.2892,-205.7604 1401.2892,-205.7604"/>
</g>
<!-- DynamicFormSelectComponent  -->
<g id="node15" class="node">
<title>DynamicFormSelectComponent </title>
<polygon fill="#fb8072" stroke="#000000" points="1347.191,-252 1146.809,-252 1146.809,-216 1347.191,-216 1347.191,-252"/>
<text text-anchor="middle" x="1247" y="-229.8" font-family="Times,serif" font-size="14.00" fill="#000000">DynamicFormSelectComponent </text>
</g>
<!-- DynamicFormsModule&#45;&gt;DynamicFormSelectComponent  -->
<g id="edge13" class="edge">
<title>DynamicFormsModule&#45;&gt;DynamicFormSelectComponent </title>
<path fill="none" stroke="#000000" stroke-dasharray="5,2" d="M1169.9886,-187.1061C1169.9886,-187.1061 1169.9886,-205.991 1169.9886,-205.991"/>
<polygon fill="#000000" stroke="#000000" points="1166.4887,-205.9909 1169.9886,-215.991 1173.4887,-205.991 1166.4887,-205.9909"/>
</g>
<!-- DynamicFormCheckboxComponent  -->
<g id="node16" class="node">
<title>DynamicFormCheckboxComponent </title>
<polygon fill="#fb8072" stroke="#000000" points="1128.7491,-252 905.2509,-252 905.2509,-216 1128.7491,-216 1128.7491,-252"/>
<text text-anchor="middle" x="1017" y="-229.8" font-family="Times,serif" font-size="14.00" fill="#000000">DynamicFormCheckboxComponent </text>
</g>
<!-- DynamicFormsModule&#45;&gt;DynamicFormCheckboxComponent  -->
<g id="edge14" class="edge">
<title>DynamicFormsModule&#45;&gt;DynamicFormCheckboxComponent </title>
<path fill="none" stroke="#000000" stroke-dasharray="5,2" d="M1087.651,-187.1061C1087.651,-187.1061 1087.651,-205.991 1087.651,-205.991"/>
<polygon fill="#000000" stroke="#000000" points="1084.151,-205.9909 1087.651,-215.991 1091.151,-205.991 1084.151,-205.9909"/>
</g>
<!-- DynamicFormRadioComponent  -->
<g id="node17" class="node">
<title>DynamicFormRadioComponent </title>
<polygon fill="#fb8072" stroke="#000000" points="886.925,-252 687.075,-252 687.075,-216 886.925,-216 886.925,-252"/>
<text text-anchor="middle" x="787" y="-229.8" font-family="Times,serif" font-size="14.00" fill="#000000">DynamicFormRadioComponent </text>
</g>
<!-- DynamicFormsModule&#45;&gt;DynamicFormRadioComponent  -->
<g id="edge15" class="edge">
<title>DynamicFormsModule&#45;&gt;DynamicFormRadioComponent </title>
<path fill="none" stroke="#000000" stroke-dasharray="5,2" d="M1046.7946,-174C964.2428,-174 841.375,-174 841.375,-174 841.375,-174 841.375,-205.998 841.375,-205.998"/>
<polygon fill="#000000" stroke="#000000" points="837.8751,-205.998 841.375,-215.998 844.8751,-205.9981 837.8751,-205.998"/>
</g>
<!-- DynamicFormTextAreaComponent  -->
<g id="node18" class="node">
<title>DynamicFormTextAreaComponent </title>
<polygon fill="#fb8072" stroke="#000000" points="668.8377,-252 449.1623,-252 449.1623,-216 668.8377,-216 668.8377,-252"/>
<text text-anchor="middle" x="559" y="-229.8" font-family="Times,serif" font-size="14.00" fill="#000000">DynamicFormTextAreaComponent </text>
</g>
<!-- DynamicFormsModule&#45;&gt;DynamicFormTextAreaComponent  -->
<g id="edge16" class="edge">
<title>DynamicFormsModule&#45;&gt;DynamicFormTextAreaComponent </title>
<path fill="none" stroke="#000000" stroke-dasharray="5,2" d="M1046.6232,-169C906.6667,-169 615.375,-169 615.375,-169 615.375,-169 615.375,-205.8939 615.375,-205.8939"/>
<polygon fill="#000000" stroke="#000000" points="611.8751,-205.8938 615.375,-215.8939 618.8751,-205.8939 611.8751,-205.8938"/>
</g>
<!-- InputControlService -->
<g id="node19" class="node">
<title>InputControlService</title>
<ellipse fill="#fdb462" stroke="#000000" cx="448" cy="-104" rx="89.7672" ry="18"/>
<text text-anchor="middle" x="448" y="-99.8" font-family="Times,serif" font-size="14.00" fill="#000000">InputControlService</text>
</g>
<!-- InputControlService&#45;&gt;DynamicFormsModule -->
<g id="edge17" class="edge">
<title>InputControlService&#45;&gt;DynamicFormsModule</title>
<path fill="none" stroke="#000000" d="M493.6074,-119.709C493.6074,-137.7829 493.6074,-165 493.6074,-165 493.6074,-165 1036.6111,-165 1036.6111,-165"/>
<polygon fill="#000000" stroke="#000000" points="1036.6112,-168.5001 1046.6111,-165 1036.6111,-161.5001 1036.6112,-168.5001"/>
</g>
<!-- GridListComponent -->
<g id="node20" class="node">
<title>GridListComponent</title>
<polygon fill="#ffffb3" stroke="#000000" points="2181.2688,-122 2052.7312,-122 2052.7312,-86 2181.2688,-86 2181.2688,-122"/>
<text text-anchor="middle" x="2117" y="-99.8" font-family="Times,serif" font-size="14.00" fill="#000000">GridListComponent</text>
</g>
<!-- GridListsModule -->
<g id="node22" class="node">
<title>GridListsModule</title>
<polygon fill="#8dd3c7" stroke="#000000" points="2014.4314,-187 2011.4314,-191 1990.4314,-191 1987.4314,-187 1901.5686,-187 1901.5686,-151 2014.4314,-151 2014.4314,-187"/>
<text text-anchor="middle" x="1958" y="-164.8" font-family="Times,serif" font-size="14.00" fill="#000000">GridListsModule</text>
</g>
<!-- GridListComponent&#45;&gt;GridListsModule -->
<g id="edge18" class="edge">
<title>GridListComponent&#45;&gt;GridListsModule</title>
<path fill="none" stroke="#000000" d="M2138.4614,-122.0225C2138.4614,-139.3734 2138.4614,-163 2138.4614,-163 2138.4614,-163 2024.604,-163 2024.604,-163"/>
<polygon fill="#000000" stroke="#000000" points="2024.604,-159.5001 2014.604,-163 2024.604,-166.5001 2024.604,-159.5001"/>
</g>
<!-- GridListItemComponent -->
<g id="node21" class="node">
<title>GridListItemComponent</title>
<polygon fill="#ffffb3" stroke="#000000" points="2034.4256,-122 1879.5744,-122 1879.5744,-86 2034.4256,-86 2034.4256,-122"/>
<text text-anchor="middle" x="1957" y="-99.8" font-family="Times,serif" font-size="14.00" fill="#000000">GridListItemComponent</text>
</g>
<!-- GridListItemComponent&#45;&gt;GridListsModule -->
<g id="edge19" class="edge">
<title>GridListItemComponent&#45;&gt;GridListsModule</title>
<path fill="none" stroke="#000000" d="M1958,-122.1061C1958,-122.1061 1958,-140.991 1958,-140.991"/>
<polygon fill="#000000" stroke="#000000" points="1954.5001,-140.9909 1958,-150.991 1961.5001,-140.991 1954.5001,-140.9909"/>
</g>
<!-- GridListComponent  -->
<g id="node23" class="node">
<title>GridListComponent </title>
<polygon fill="#fb8072" stroke="#000000" points="2184.2689,-252 2051.7311,-252 2051.7311,-216 2184.2689,-216 2184.2689,-252"/>
<text text-anchor="middle" x="2118" y="-229.8" font-family="Times,serif" font-size="14.00" fill="#000000">GridListComponent </text>
</g>
<!-- GridListsModule&#45;&gt;GridListComponent  -->
<g id="edge20" class="edge">
<title>GridListsModule&#45;&gt;GridListComponent </title>
<path fill="none" stroke="#000000" stroke-dasharray="5,2" d="M2014.339,-175C2052.3222,-175 2095.5386,-175 2095.5386,-175 2095.5386,-175 2095.5386,-205.9775 2095.5386,-205.9775"/>
<polygon fill="#000000" stroke="#000000" points="2092.0387,-205.9774 2095.5386,-215.9775 2099.0387,-205.9775 2092.0387,-205.9774"/>
</g>
<!-- GridListItemComponent  -->
<g id="node24" class="node">
<title>GridListItemComponent </title>
<polygon fill="#fb8072" stroke="#000000" points="2033.925,-252 1876.075,-252 1876.075,-216 2033.925,-216 2033.925,-252"/>
<text text-anchor="middle" x="1955" y="-229.8" font-family="Times,serif" font-size="14.00" fill="#000000">GridListItemComponent </text>
</g>
<!-- GridListsModule&#45;&gt;GridListItemComponent  -->
<g id="edge21" class="edge">
<title>GridListsModule&#45;&gt;GridListItemComponent </title>
<path fill="none" stroke="#000000" stroke-dasharray="5,2" d="M1958,-187.1061C1958,-187.1061 1958,-205.991 1958,-205.991"/>
<polygon fill="#000000" stroke="#000000" points="1954.5001,-205.9909 1958,-215.991 1961.5001,-205.991 1954.5001,-205.9909"/>
</g>
<!-- HeaderComponent -->
<g id="node25" class="node">
<title>HeaderComponent</title>
<polygon fill="#ffffb3" stroke="#000000" points="2347.7437,-122 2226.2563,-122 2226.2563,-86 2347.7437,-86 2347.7437,-122"/>
<text text-anchor="middle" x="2287" y="-99.8" font-family="Times,serif" font-size="14.00" fill="#000000">HeaderComponent</text>
</g>
<!-- HeaderModule -->
<g id="node26" class="node">
<title>HeaderModule</title>
<polygon fill="#8dd3c7" stroke="#000000" points="2336.9608,-187 2333.9608,-191 2312.9608,-191 2309.9608,-187 2237.0392,-187 2237.0392,-151 2336.9608,-151 2336.9608,-187"/>
<text text-anchor="middle" x="2287" y="-164.8" font-family="Times,serif" font-size="14.00" fill="#000000">HeaderModule</text>
</g>
<!-- HeaderComponent&#45;&gt;HeaderModule -->
<g id="edge22" class="edge">
<title>HeaderComponent&#45;&gt;HeaderModule</title>
<path fill="none" stroke="#000000" d="M2287,-122.1061C2287,-122.1061 2287,-140.991 2287,-140.991"/>
<polygon fill="#000000" stroke="#000000" points="2283.5001,-140.9909 2287,-150.991 2290.5001,-140.991 2283.5001,-140.9909"/>
</g>
<!-- HeaderComponent  -->
<g id="node27" class="node">
<title>HeaderComponent </title>
<polygon fill="#fb8072" stroke="#000000" points="2349.7436,-252 2224.2564,-252 2224.2564,-216 2349.7436,-216 2349.7436,-252"/>
<text text-anchor="middle" x="2287" y="-229.8" font-family="Times,serif" font-size="14.00" fill="#000000">HeaderComponent </text>
</g>
<!-- HeaderModule&#45;&gt;HeaderComponent  -->
<g id="edge23" class="edge">
<title>HeaderModule&#45;&gt;HeaderComponent </title>
<path fill="none" stroke="#000000" stroke-dasharray="5,2" d="M2287,-187.1061C2287,-187.1061 2287,-205.991 2287,-205.991"/>
<polygon fill="#000000" stroke="#000000" points="2283.5001,-205.9909 2287,-215.991 2290.5001,-205.991 2283.5001,-205.9909"/>
</g>
<!-- NavmenuComponent -->
<g id="node28" class="node">
<title>NavmenuComponent</title>
<polygon fill="#ffffb3" stroke="#000000" points="2527.759,-122 2392.241,-122 2392.241,-86 2527.759,-86 2527.759,-122"/>
<text text-anchor="middle" x="2460" y="-99.8" font-family="Times,serif" font-size="14.00" fill="#000000">NavmenuComponent</text>
</g>
<!-- NavmenuModule -->
<g id="node29" class="node">
<title>NavmenuModule</title>
<polygon fill="#8dd3c7" stroke="#000000" points="2516.9762,-187 2513.9762,-191 2492.9762,-191 2489.9762,-187 2403.0238,-187 2403.0238,-151 2516.9762,-151 2516.9762,-187"/>
<text text-anchor="middle" x="2460" y="-164.8" font-family="Times,serif" font-size="14.00" fill="#000000">NavmenuModule</text>
</g>
<!-- NavmenuComponent&#45;&gt;NavmenuModule -->
<g id="edge24" class="edge">
<title>NavmenuComponent&#45;&gt;NavmenuModule</title>
<path fill="none" stroke="#000000" d="M2460,-122.1061C2460,-122.1061 2460,-140.991 2460,-140.991"/>
<polygon fill="#000000" stroke="#000000" points="2456.5001,-140.9909 2460,-150.991 2463.5001,-140.991 2456.5001,-140.9909"/>
</g>
<!-- NavmenuComponent  -->
<g id="node30" class="node">
<title>NavmenuComponent </title>
<polygon fill="#fb8072" stroke="#000000" points="2529.759,-252 2390.241,-252 2390.241,-216 2529.759,-216 2529.759,-252"/>
<text text-anchor="middle" x="2460" y="-229.8" font-family="Times,serif" font-size="14.00" fill="#000000">NavmenuComponent </text>
</g>
<!-- NavmenuModule&#45;&gt;NavmenuComponent  -->
<g id="edge25" class="edge">
<title>NavmenuModule&#45;&gt;NavmenuComponent </title>
<path fill="none" stroke="#000000" stroke-dasharray="5,2" d="M2460,-187.1061C2460,-187.1061 2460,-205.991 2460,-205.991"/>
<polygon fill="#000000" stroke="#000000" points="2456.5001,-205.9909 2460,-215.991 2463.5001,-205.991 2456.5001,-205.9909"/>
</g>
<!-- SegmentComponent -->
<g id="node31" class="node">
<title>SegmentComponent</title>
<polygon fill="#ffffb3" stroke="#000000" points="2702.3258,-122 2571.6742,-122 2571.6742,-86 2702.3258,-86 2702.3258,-122"/>
<text text-anchor="middle" x="2637" y="-99.8" font-family="Times,serif" font-size="14.00" fill="#000000">SegmentComponent</text>
</g>
<!-- SegmentModule -->
<g id="node32" class="node">
<title>SegmentModule</title>
<polygon fill="#8dd3c7" stroke="#000000" points="2691.0438,-187 2688.0438,-191 2667.0438,-191 2664.0438,-187 2582.9562,-187 2582.9562,-151 2691.0438,-151 2691.0438,-187"/>
<text text-anchor="middle" x="2637" y="-164.8" font-family="Times,serif" font-size="14.00" fill="#000000">SegmentModule</text>
</g>
<!-- SegmentComponent&#45;&gt;SegmentModule -->
<g id="edge26" class="edge">
<title>SegmentComponent&#45;&gt;SegmentModule</title>
<path fill="none" stroke="#000000" d="M2637,-122.1061C2637,-122.1061 2637,-140.991 2637,-140.991"/>
<polygon fill="#000000" stroke="#000000" points="2633.5001,-140.9909 2637,-150.991 2640.5001,-140.991 2633.5001,-140.9909"/>
</g>
<!-- SegmentComponent  -->
<g id="node33" class="node">
<title>SegmentComponent </title>
<polygon fill="#fb8072" stroke="#000000" points="2703.8255,-252 2570.1745,-252 2570.1745,-216 2703.8255,-216 2703.8255,-252"/>
<text text-anchor="middle" x="2637" y="-229.8" font-family="Times,serif" font-size="14.00" fill="#000000">SegmentComponent </text>
</g>
<!-- SegmentModule&#45;&gt;SegmentComponent  -->
<g id="edge27" class="edge">
<title>SegmentModule&#45;&gt;SegmentComponent </title>
<path fill="none" stroke="#000000" stroke-dasharray="5,2" d="M2637,-187.1061C2637,-187.1061 2637,-205.991 2637,-205.991"/>
<polygon fill="#000000" stroke="#000000" points="2633.5001,-205.9909 2637,-215.991 2640.5001,-205.991 2633.5001,-205.9909"/>
</g>
<!-- BackButtonComponent -->
<g id="node34" class="node">
<title>BackButtonComponent</title>
<polygon fill="#ffffb3" stroke="#000000" points="3246.2162,-122 3097.7838,-122 3097.7838,-86 3246.2162,-86 3246.2162,-122"/>
<text text-anchor="middle" x="3172" y="-99.8" font-family="Times,serif" font-size="14.00" fill="#000000">BackButtonComponent</text>
</g>
<!-- ToolbarModule -->
<g id="node36" class="node">
<title>ToolbarModule</title>
<polygon fill="#8dd3c7" stroke="#000000" points="3068.8683,-187 3065.8683,-191 3044.8683,-191 3041.8683,-187 2965.1317,-187 2965.1317,-151 3068.8683,-151 3068.8683,-187"/>
<text text-anchor="middle" x="3017" y="-164.8" font-family="Times,serif" font-size="14.00" fill="#000000">ToolbarModule</text>
</g>
<!-- BackButtonComponent&#45;&gt;ToolbarModule -->
<g id="edge28" class="edge">
<title>BackButtonComponent&#45;&gt;ToolbarModule</title>
<path fill="none" stroke="#000000" d="M3133.875,-122.1061C3133.875,-141.3391 3133.875,-169 3133.875,-169 3133.875,-169 3078.9437,-169 3078.9437,-169"/>
<polygon fill="#000000" stroke="#000000" points="3078.9437,-165.5001 3068.9437,-169 3078.9437,-172.5001 3078.9437,-165.5001"/>
</g>
<!-- ToolbarComponent -->
<g id="node35" class="node">
<title>ToolbarComponent</title>
<polygon fill="#ffffb3" stroke="#000000" points="3079.6513,-122 2954.3487,-122 2954.3487,-86 3079.6513,-86 3079.6513,-122"/>
<text text-anchor="middle" x="3017" y="-99.8" font-family="Times,serif" font-size="14.00" fill="#000000">ToolbarComponent</text>
</g>
<!-- ToolbarComponent&#45;&gt;ToolbarModule -->
<g id="edge29" class="edge">
<title>ToolbarComponent&#45;&gt;ToolbarModule</title>
<path fill="none" stroke="#000000" d="M3017,-122.1061C3017,-122.1061 3017,-140.991 3017,-140.991"/>
<polygon fill="#000000" stroke="#000000" points="3013.5001,-140.9909 3017,-150.991 3020.5001,-140.991 3013.5001,-140.9909"/>
</g>
<!-- BackButtonComponent  -->
<g id="node37" class="node">
<title>BackButtonComponent </title>
<polygon fill="#fb8072" stroke="#000000" points="3169.7163,-252 3018.2837,-252 3018.2837,-216 3169.7163,-216 3169.7163,-252"/>
<text text-anchor="middle" x="3094" y="-229.8" font-family="Times,serif" font-size="14.00" fill="#000000">BackButtonComponent </text>
</g>
<!-- ToolbarModule&#45;&gt;BackButtonComponent  -->
<g id="edge30" class="edge">
<title>ToolbarModule&#45;&gt;BackButtonComponent </title>
<path fill="none" stroke="#000000" stroke-dasharray="5,2" d="M3043.5381,-187.1061C3043.5381,-187.1061 3043.5381,-205.991 3043.5381,-205.991"/>
<polygon fill="#000000" stroke="#000000" points="3040.0381,-205.9909 3043.5381,-215.991 3047.0381,-205.991 3040.0381,-205.9909"/>
</g>
<!-- ToolbarComponent  -->
<g id="node38" class="node">
<title>ToolbarComponent </title>
<polygon fill="#fb8072" stroke="#000000" points="3000.6509,-252 2871.3491,-252 2871.3491,-216 3000.6509,-216 3000.6509,-252"/>
<text text-anchor="middle" x="2936" y="-229.8" font-family="Times,serif" font-size="14.00" fill="#000000">ToolbarComponent </text>
</g>
<!-- ToolbarModule&#45;&gt;ToolbarComponent  -->
<g id="edge31" class="edge">
<title>ToolbarModule&#45;&gt;ToolbarComponent </title>
<path fill="none" stroke="#000000" stroke-dasharray="5,2" d="M2982.8207,-187.1061C2982.8207,-187.1061 2982.8207,-205.991 2982.8207,-205.991"/>
<polygon fill="#000000" stroke="#000000" points="2979.3207,-205.9909 2982.8207,-215.991 2986.3207,-205.991 2979.3207,-205.9909"/>
</g>
<!-- ToolbarMenuService -->
<g id="node39" class="node">
<title>ToolbarMenuService</title>
<ellipse fill="#fdb462" stroke="#000000" cx="2837" cy="-104" rx="93.1794" ry="18"/>
<text text-anchor="middle" x="2837" y="-99.8" font-family="Times,serif" font-size="14.00" fill="#000000">ToolbarMenuService</text>
</g>
<!-- ToolbarMenuService&#45;&gt;ToolbarModule -->
<g id="edge32" class="edge">
<title>ToolbarMenuService&#45;&gt;ToolbarModule</title>
<path fill="none" stroke="#000000" d="M2900.7571,-117.1537C2900.7571,-136.1469 2900.7571,-169 2900.7571,-169 2900.7571,-169 2954.9985,-169 2954.9985,-169"/>
<polygon fill="#000000" stroke="#000000" points="2954.9985,-172.5001 2964.9985,-169 2954.9984,-165.5001 2954.9985,-172.5001"/>
</g>
</g>
</svg>
