<?xml version="1.0" encoding="UTF-8" standalone="no"?>
<!DOCTYPE svg PUBLIC "-//W3C//DTD SVG 1.1//EN"
 "http://www.w3.org/Graphics/SVG/1.1/DTD/svg11.dtd">
<!-- Generated by graphviz version 2.40.1 (20161225.0304)
 -->
<!-- Title: dependencies Pages: 1 -->
<svg width="1882pt" height="284pt"
 viewBox="0.00 0.00 1882.00 284.00" xmlns="http://www.w3.org/2000/svg" xmlns:xlink="http://www.w3.org/1999/xlink">
<g id="graph0" class="graph" transform="scale(1 1) rotate(0) translate(4 280)">
<title>dependencies</title>
<polygon fill="#ffffff" stroke="transparent" points="-4,4 -4,-280 1878,-280 1878,4 -4,4"/>
<text text-anchor="start" x="916.0091" y="-42.4" font-family="sans-serif" font-weight="bold" font-size="14.00" fill="#000000">Legend</text>
<polygon fill="#ffffb3" stroke="transparent" points="703,-10 703,-30 723,-30 723,-10 703,-10"/>
<text text-anchor="start" x="726.629" y="-15.4" font-family="sans-serif" font-size="14.00" fill="#000000"> &#160;Declarations</text>
<polygon fill="#8dd3c7" stroke="transparent" points="816,-10 816,-30 836,-30 836,-10 816,-10"/>
<text text-anchor="start" x="839.7251" y="-15.4" font-family="sans-serif" font-size="14.00" fill="#000000"> &#160;Module</text>
<polygon fill="#80b1d3" stroke="transparent" points="902,-10 902,-30 922,-30 922,-10 902,-10"/>
<text text-anchor="start" x="925.7812" y="-15.4" font-family="sans-serif" font-size="14.00" fill="#000000"> &#160;Bootstrap</text>
<polygon fill="#fdb462" stroke="transparent" points="999,-10 999,-30 1019,-30 1019,-10 999,-10"/>
<text text-anchor="start" x="1022.6732" y="-15.4" font-family="sans-serif" font-size="14.00" fill="#000000"> &#160;Providers</text>
<polygon fill="#fb8072" stroke="transparent" points="1095,-10 1095,-30 1115,-30 1115,-10 1095,-10"/>
<text text-anchor="start" x="1118.7258" y="-15.4" font-family="sans-serif" font-size="14.00" fill="#000000"> &#160;Exports</text>
<g id="clust1" class="cluster">
<title>cluster_DynamicFormsModule</title>
<polygon fill="none" stroke="#000000" stroke-dasharray="1,5" points="8,-70 8,-268 1518,-268 1518,-70 8,-70"/>
</g>
<g id="clust2" class="cluster">
<title>cluster_DynamicFormsModule_declarations</title>
<polygon fill="none" stroke="#000000" points="220,-78 220,-130 1510,-130 1510,-78 220,-78"/>
</g>
<g id="clust10" class="cluster">
<title>cluster_DynamicFormsModule_exports</title>
<polygon fill="none" stroke="#000000" points="107,-208 107,-260 1419,-260 1419,-208 107,-208"/>
</g>
<g id="clust12" class="cluster">
<title>cluster_DynamicFormsModule_providers</title>
<polygon fill="none" stroke="#000000" points="16,-78 16,-130 212,-130 212,-78 16,-78"/>
</g>
<g id="clust13" class="cluster">
<title>cluster_GridListsModule</title>
<polygon fill="none" stroke="#000000" stroke-dasharray="1,5" points="1526,-70 1526,-268 1866,-268 1866,-70 1526,-70"/>
</g>
<g id="clust14" class="cluster">
<title>cluster_GridListsModule_declarations</title>
<polygon fill="none" stroke="#000000" points="1538,-78 1538,-130 1855,-130 1855,-78 1538,-78"/>
</g>
<g id="clust18" class="cluster">
<title>cluster_GridListsModule_exports</title>
<polygon fill="none" stroke="#000000" points="1534,-208 1534,-260 1858,-260 1858,-208 1534,-208"/>
</g>
<!-- DynamicFormComponent -->
<g id="node1" class="node">
<title>DynamicFormComponent</title>
<polygon fill="#ffffb3" stroke="#000000" points="1502.4832,-122 1339.5168,-122 1339.5168,-86 1502.4832,-86 1502.4832,-122"/>
<text text-anchor="middle" x="1421" y="-99.8" font-family="Times,serif" font-size="14.00" fill="#000000">DynamicFormComponent</text>
</g>
<!-- DynamicFormsModule -->
<g id="node7" class="node">
<title>DynamicFormsModule</title>
<polygon fill="#8dd3c7" stroke="#000000" points="859.1456,-187 856.1456,-191 835.1456,-191 832.1456,-187 712.8544,-187 712.8544,-151 859.1456,-151 859.1456,-187"/>
<text text-anchor="middle" x="786" y="-164.8" font-family="Times,serif" font-size="14.00" fill="#000000">DynamicFormsModule</text>
</g>
<!-- DynamicFormComponent&#45;&gt;DynamicFormsModule -->
<g id="edge1" class="edge">
<title>DynamicFormComponent&#45;&gt;DynamicFormsModule</title>
<path fill="none" stroke="#000000" d="M1375.375,-122.1061C1375.375,-141.3391 1375.375,-169 1375.375,-169 1375.375,-169 869.1563,-169 869.1563,-169"/>
<polygon fill="#000000" stroke="#000000" points="869.1564,-165.5001 859.1563,-169 869.1563,-172.5001 869.1564,-165.5001"/>
</g>
<!-- DynamicFormInputComponent -->
<g id="node2" class="node">
<title>DynamicFormInputComponent</title>
<polygon fill="#ffffb3" stroke="#000000" points="1321.035,-122 1128.965,-122 1128.965,-86 1321.035,-86 1321.035,-122"/>
<text text-anchor="middle" x="1225" y="-99.8" font-family="Times,serif" font-size="14.00" fill="#000000">DynamicFormInputComponent</text>
</g>
<!-- DynamicFormInputComponent&#45;&gt;DynamicFormsModule -->
<g id="edge2" class="edge">
<title>DynamicFormInputComponent&#45;&gt;DynamicFormsModule</title>
<path fill="none" stroke="#000000" d="M1177.875,-122.0225C1177.875,-139.3734 1177.875,-163 1177.875,-163 1177.875,-163 869.249,-163 869.249,-163"/>
<polygon fill="#000000" stroke="#000000" points="869.249,-159.5001 859.249,-163 869.249,-166.5001 869.249,-159.5001"/>
</g>
<!-- DynamicFormSelectComponent -->
<g id="node3" class="node">
<title>DynamicFormSelectComponent</title>
<polygon fill="#ffffb3" stroke="#000000" points="1110.6909,-122 913.3091,-122 913.3091,-86 1110.6909,-86 1110.6909,-122"/>
<text text-anchor="middle" x="1012" y="-99.8" font-family="Times,serif" font-size="14.00" fill="#000000">DynamicFormSelectComponent</text>
</g>
<!-- DynamicFormSelectComponent&#45;&gt;DynamicFormsModule -->
<g id="edge3" class="edge">
<title>DynamicFormSelectComponent&#45;&gt;DynamicFormsModule</title>
<path fill="none" stroke="#000000" d="M963.375,-122.2396C963.375,-137.5706 963.375,-157 963.375,-157 963.375,-157 869.1693,-157 869.1693,-157"/>
<polygon fill="#000000" stroke="#000000" points="869.1693,-153.5001 859.1693,-157 869.1692,-160.5001 869.1693,-153.5001"/>
</g>
<!-- DynamicFormCheckboxComponent -->
<g id="node4" class="node">
<title>DynamicFormCheckboxComponent</title>
<polygon fill="#ffffb3" stroke="#000000" points="895.7491,-122 676.2509,-122 676.2509,-86 895.7491,-86 895.7491,-122"/>
<text text-anchor="middle" x="786" y="-99.8" font-family="Times,serif" font-size="14.00" fill="#000000">DynamicFormCheckboxComponent</text>
</g>
<!-- DynamicFormCheckboxComponent&#45;&gt;DynamicFormsModule -->
<g id="edge4" class="edge">
<title>DynamicFormCheckboxComponent&#45;&gt;DynamicFormsModule</title>
<path fill="none" stroke="#000000" d="M786,-122.1061C786,-122.1061 786,-140.991 786,-140.991"/>
<polygon fill="#000000" stroke="#000000" points="782.5001,-140.9909 786,-150.991 789.5001,-140.991 782.5001,-140.9909"/>
</g>
<!-- DynamicFormRadioComponent -->
<g id="node5" class="node">
<title>DynamicFormRadioComponent</title>
<polygon fill="#ffffb3" stroke="#000000" points="658.4255,-122 461.5745,-122 461.5745,-86 658.4255,-86 658.4255,-122"/>
<text text-anchor="middle" x="560" y="-99.8" font-family="Times,serif" font-size="14.00" fill="#000000">DynamicFormRadioComponent</text>
</g>
<!-- DynamicFormRadioComponent&#45;&gt;DynamicFormsModule -->
<g id="edge5" class="edge">
<title>DynamicFormRadioComponent&#45;&gt;DynamicFormsModule</title>
<path fill="none" stroke="#000000" d="M614.794,-122.2396C614.794,-137.5706 614.794,-157 614.794,-157 614.794,-157 702.3997,-157 702.3997,-157"/>
<polygon fill="#000000" stroke="#000000" points="702.3997,-160.5001 712.3997,-157 702.3996,-153.5001 702.3997,-160.5001"/>
</g>
<!-- DynamicFormTextAreaComponent -->
<g id="node6" class="node">
<title>DynamicFormTextAreaComponent</title>
<polygon fill="#ffffb3" stroke="#000000" points="443.8375,-122 228.1625,-122 228.1625,-86 443.8375,-86 443.8375,-122"/>
<text text-anchor="middle" x="336" y="-99.8" font-family="Times,serif" font-size="14.00" fill="#000000">DynamicFormTextAreaComponent</text>
</g>
<!-- DynamicFormTextAreaComponent&#45;&gt;DynamicFormsModule -->
<g id="edge6" class="edge">
<title>DynamicFormTextAreaComponent&#45;&gt;DynamicFormsModule</title>
<path fill="none" stroke="#000000" d="M398.4781,-122.0225C398.4781,-139.3734 398.4781,-163 398.4781,-163 398.4781,-163 702.6545,-163 702.6545,-163"/>
<polygon fill="#000000" stroke="#000000" points="702.6545,-166.5001 712.6545,-163 702.6545,-159.5001 702.6545,-166.5001"/>
</g>
<!-- DynamicFormComponent  -->
<g id="node8" class="node">
<title>DynamicFormComponent </title>
<polygon fill="#fb8072" stroke="#000000" points="1411.4839,-252 1244.5161,-252 1244.5161,-216 1411.4839,-216 1411.4839,-252"/>
<text text-anchor="middle" x="1328" y="-229.8" font-family="Times,serif" font-size="14.00" fill="#000000">DynamicFormComponent </text>
</g>
<!-- DynamicFormsModule&#45;&gt;DynamicFormComponent  -->
<g id="edge7" class="edge">
<title>DynamicFormsModule&#45;&gt;DynamicFormComponent </title>
<path fill="none" stroke="#000000" stroke-dasharray="5,2" d="M859.336,-175C997.5884,-175 1283.0128,-175 1283.0128,-175 1283.0128,-175 1283.0128,-205.9775 1283.0128,-205.9775"/>
<polygon fill="#000000" stroke="#000000" points="1279.5129,-205.9774 1283.0128,-215.9775 1286.5129,-205.9775 1279.5129,-205.9774"/>
</g>
<!-- DynamicFormInputComponent  -->
<g id="node9" class="node">
<title>DynamicFormInputComponent </title>
<polygon fill="#fb8072" stroke="#000000" points="1227.0344,-252 1030.9656,-252 1030.9656,-216 1227.0344,-216 1227.0344,-252"/>
<text text-anchor="middle" x="1129" y="-229.8" font-family="Times,serif" font-size="14.00" fill="#000000">DynamicFormInputComponent </text>
</g>
<!-- DynamicFormsModule&#45;&gt;DynamicFormInputComponent  -->
<g id="edge8" class="edge">
<title>DynamicFormsModule&#45;&gt;DynamicFormInputComponent </title>
<path fill="none" stroke="#000000" stroke-dasharray="5,2" d="M859.3403,-181C943.7213,-181 1070.7891,-181 1070.7891,-181 1070.7891,-181 1070.7891,-205.7604 1070.7891,-205.7604"/>
<polygon fill="#000000" stroke="#000000" points="1067.2892,-205.7604 1070.7891,-215.7604 1074.2892,-205.7604 1067.2892,-205.7604"/>
</g>
<!-- DynamicFormSelectComponent  -->
<g id="node10" class="node">
<title>DynamicFormSelectComponent </title>
<polygon fill="#fb8072" stroke="#000000" points="1013.191,-252 812.809,-252 812.809,-216 1013.191,-216 1013.191,-252"/>
<text text-anchor="middle" x="913" y="-229.8" font-family="Times,serif" font-size="14.00" fill="#000000">DynamicFormSelectComponent </text>
</g>
<!-- DynamicFormsModule&#45;&gt;DynamicFormSelectComponent  -->
<g id="edge9" class="edge">
<title>DynamicFormsModule&#45;&gt;DynamicFormSelectComponent </title>
<path fill="none" stroke="#000000" stroke-dasharray="5,2" d="M835.9886,-187.1061C835.9886,-187.1061 835.9886,-205.991 835.9886,-205.991"/>
<polygon fill="#000000" stroke="#000000" points="832.4887,-205.9909 835.9886,-215.991 839.4887,-205.991 832.4887,-205.9909"/>
</g>
<!-- DynamicFormCheckboxComponent  -->
<g id="node11" class="node">
<title>DynamicFormCheckboxComponent </title>
<polygon fill="#fb8072" stroke="#000000" points="794.7491,-252 571.2509,-252 571.2509,-216 794.7491,-216 794.7491,-252"/>
<text text-anchor="middle" x="683" y="-229.8" font-family="Times,serif" font-size="14.00" fill="#000000">DynamicFormCheckboxComponent </text>
</g>
<!-- DynamicFormsModule&#45;&gt;DynamicFormCheckboxComponent  -->
<g id="edge10" class="edge">
<title>DynamicFormsModule&#45;&gt;DynamicFormCheckboxComponent </title>
<path fill="none" stroke="#000000" stroke-dasharray="5,2" d="M753.651,-187.1061C753.651,-187.1061 753.651,-205.991 753.651,-205.991"/>
<polygon fill="#000000" stroke="#000000" points="750.151,-205.9909 753.651,-215.991 757.151,-205.991 750.151,-205.9909"/>
</g>
<!-- DynamicFormRadioComponent  -->
<g id="node12" class="node">
<title>DynamicFormRadioComponent </title>
<polygon fill="#fb8072" stroke="#000000" points="552.925,-252 353.075,-252 353.075,-216 552.925,-216 552.925,-252"/>
<text text-anchor="middle" x="453" y="-229.8" font-family="Times,serif" font-size="14.00" fill="#000000">DynamicFormRadioComponent </text>
</g>
<!-- DynamicFormsModule&#45;&gt;DynamicFormRadioComponent  -->
<g id="edge11" class="edge">
<title>DynamicFormsModule&#45;&gt;DynamicFormRadioComponent </title>
<path fill="none" stroke="#000000" stroke-dasharray="5,2" d="M712.7946,-181C630.2428,-181 507.375,-181 507.375,-181 507.375,-181 507.375,-205.7604 507.375,-205.7604"/>
<polygon fill="#000000" stroke="#000000" points="503.8751,-205.7604 507.375,-215.7604 510.8751,-205.7604 503.8751,-205.7604"/>
</g>
<!-- DynamicFormTextAreaComponent  -->
<g id="node13" class="node">
<title>DynamicFormTextAreaComponent </title>
<polygon fill="#fb8072" stroke="#000000" points="334.8377,-252 115.1623,-252 115.1623,-216 334.8377,-216 334.8377,-252"/>
<text text-anchor="middle" x="225" y="-229.8" font-family="Times,serif" font-size="14.00" fill="#000000">DynamicFormTextAreaComponent </text>
</g>
<!-- DynamicFormsModule&#45;&gt;DynamicFormTextAreaComponent  -->
<g id="edge12" class="edge">
<title>DynamicFormsModule&#45;&gt;DynamicFormTextAreaComponent </title>
<path fill="none" stroke="#000000" stroke-dasharray="5,2" d="M712.6232,-175C572.6667,-175 281.375,-175 281.375,-175 281.375,-175 281.375,-205.9775 281.375,-205.9775"/>
<polygon fill="#000000" stroke="#000000" points="277.8751,-205.9774 281.375,-215.9775 284.8751,-205.9775 277.8751,-205.9774"/>
</g>
<!-- InputControlService -->
<g id="node14" class="node">
<title>InputControlService</title>
<ellipse fill="#fdb462" stroke="#000000" cx="114" cy="-104" rx="89.7672" ry="18"/>
<text text-anchor="middle" x="114" y="-99.8" font-family="Times,serif" font-size="14.00" fill="#000000">InputControlService</text>
</g>
<!-- InputControlService&#45;&gt;DynamicFormsModule -->
<g id="edge13" class="edge">
<title>InputControlService&#45;&gt;DynamicFormsModule</title>
<path fill="none" stroke="#000000" d="M159.6074,-119.7347C159.6074,-138.9716 159.6074,-169 159.6074,-169 159.6074,-169 702.6111,-169 702.6111,-169"/>
<polygon fill="#000000" stroke="#000000" points="702.6112,-172.5001 712.6111,-169 702.6111,-165.5001 702.6112,-172.5001"/>
</g>
<!-- GridListComponent -->
<g id="node15" class="node">
<title>GridListComponent</title>
<polygon fill="#ffffb3" stroke="#000000" points="1847.2688,-122 1718.7312,-122 1718.7312,-86 1847.2688,-86 1847.2688,-122"/>
<text text-anchor="middle" x="1783" y="-99.8" font-family="Times,serif" font-size="14.00" fill="#000000">GridListComponent</text>
</g>
<!-- GridListsModule -->
<g id="node17" class="node">
<title>GridListsModule</title>
<polygon fill="#8dd3c7" stroke="#000000" points="1680.4314,-187 1677.4314,-191 1656.4314,-191 1653.4314,-187 1567.5686,-187 1567.5686,-151 1680.4314,-151 1680.4314,-187"/>
<text text-anchor="middle" x="1624" y="-164.8" font-family="Times,serif" font-size="14.00" fill="#000000">GridListsModule</text>
</g>
<!-- GridListComponent&#45;&gt;GridListsModule -->
<g id="edge14" class="edge">
<title>GridListComponent&#45;&gt;GridListsModule</title>
<path fill="none" stroke="#000000" d="M1804.4614,-122.0225C1804.4614,-139.3734 1804.4614,-163 1804.4614,-163 1804.4614,-163 1690.604,-163 1690.604,-163"/>
<polygon fill="#000000" stroke="#000000" points="1690.604,-159.5001 1680.604,-163 1690.604,-166.5001 1690.604,-159.5001"/>
</g>
<!-- GridListItemComponent -->
<g id="node16" class="node">
<title>GridListItemComponent</title>
<polygon fill="#ffffb3" stroke="#000000" points="1700.4256,-122 1545.5744,-122 1545.5744,-86 1700.4256,-86 1700.4256,-122"/>
<text text-anchor="middle" x="1623" y="-99.8" font-family="Times,serif" font-size="14.00" fill="#000000">GridListItemComponent</text>
</g>
<!-- GridListItemComponent&#45;&gt;GridListsModule -->
<g id="edge15" class="edge">
<title>GridListItemComponent&#45;&gt;GridListsModule</title>
<path fill="none" stroke="#000000" d="M1624,-122.1061C1624,-122.1061 1624,-140.991 1624,-140.991"/>
<polygon fill="#000000" stroke="#000000" points="1620.5001,-140.9909 1624,-150.991 1627.5001,-140.991 1620.5001,-140.9909"/>
</g>
<!-- GridListComponent  -->
<g id="node18" class="node">
<title>GridListComponent </title>
<polygon fill="#fb8072" stroke="#000000" points="1850.2689,-252 1717.7311,-252 1717.7311,-216 1850.2689,-216 1850.2689,-252"/>
<text text-anchor="middle" x="1784" y="-229.8" font-family="Times,serif" font-size="14.00" fill="#000000">GridListComponent </text>
</g>
<!-- GridListsModule&#45;&gt;GridListComponent  -->
<g id="edge16" class="edge">
<title>GridListsModule&#45;&gt;GridListComponent </title>
<path fill="none" stroke="#000000" stroke-dasharray="5,2" d="M1680.339,-175C1718.3222,-175 1761.5386,-175 1761.5386,-175 1761.5386,-175 1761.5386,-205.9775 1761.5386,-205.9775"/>
<polygon fill="#000000" stroke="#000000" points="1758.0387,-205.9774 1761.5386,-215.9775 1765.0387,-205.9775 1758.0387,-205.9774"/>
</g>
<!-- GridListItemComponent  -->
<g id="node19" class="node">
<title>GridListItemComponent </title>
<polygon fill="#fb8072" stroke="#000000" points="1699.925,-252 1542.075,-252 1542.075,-216 1699.925,-216 1699.925,-252"/>
<text text-anchor="middle" x="1621" y="-229.8" font-family="Times,serif" font-size="14.00" fill="#000000">GridListItemComponent </text>
</g>
<!-- GridListsModule&#45;&gt;GridListItemComponent  -->
<g id="edge17" class="edge">
<title>GridListsModule&#45;&gt;GridListItemComponent </title>
<path fill="none" stroke="#000000" stroke-dasharray="5,2" d="M1624,-187.1061C1624,-187.1061 1624,-205.991 1624,-205.991"/>
<polygon fill="#000000" stroke="#000000" points="1620.5001,-205.9909 1624,-215.991 1627.5001,-205.991 1620.5001,-205.9909"/>
</g>
</g>
</svg>
