<?xml version="1.0" encoding="UTF-8" standalone="no"?>
<!DOCTYPE svg PUBLIC "-//W3C//DTD SVG 1.1//EN"
 "http://www.w3.org/Graphics/SVG/1.1/DTD/svg11.dtd">
<!-- Generated by graphviz version 2.40.1 (20161225.0304)
 -->
<!-- Title: dependencies Pages: 1 -->
<svg width="3278pt" height="355pt"
 viewBox="0.00 0.00 3278.00 355.00" xmlns="http://www.w3.org/2000/svg" xmlns:xlink="http://www.w3.org/1999/xlink">
<g id="graph0" class="graph" transform="scale(1 1) rotate(0) translate(4 351)">
<title>dependencies</title>
<polygon fill="#ffffff" stroke="transparent" points="-4,4 -4,-351 3274,-351 3274,4 -4,4"/>
<text text-anchor="start" x="1614.0091" y="-42.4" font-family="sans-serif" font-weight="bold" font-size="14.00" fill="#000000">Legend</text>
<polygon fill="#ffffb3" stroke="transparent" points="1401,-10 1401,-30 1421,-30 1421,-10 1401,-10"/>
<text text-anchor="start" x="1424.629" y="-15.4" font-family="sans-serif" font-size="14.00" fill="#000000"> &#160;Declarations</text>
<polygon fill="#8dd3c7" stroke="transparent" points="1514,-10 1514,-30 1534,-30 1534,-10 1514,-10"/>
<text text-anchor="start" x="1537.7251" y="-15.4" font-family="sans-serif" font-size="14.00" fill="#000000"> &#160;Module</text>
<polygon fill="#80b1d3" stroke="transparent" points="1600,-10 1600,-30 1620,-30 1620,-10 1600,-10"/>
<text text-anchor="start" x="1623.7812" y="-15.4" font-family="sans-serif" font-size="14.00" fill="#000000"> &#160;Bootstrap</text>
<polygon fill="#fdb462" stroke="transparent" points="1697,-10 1697,-30 1717,-30 1717,-10 1697,-10"/>
<text text-anchor="start" x="1720.6732" y="-15.4" font-family="sans-serif" font-size="14.00" fill="#000000"> &#160;Providers</text>
<polygon fill="#fb8072" stroke="transparent" points="1793,-10 1793,-30 1813,-30 1813,-10 1793,-10"/>
<text text-anchor="start" x="1816.7258" y="-15.4" font-family="sans-serif" font-size="14.00" fill="#000000"> &#160;Exports</text>
<g id="clust1" class="cluster">
<title>cluster_ButtonsModule</title>
<polygon fill="none" stroke="#000000" stroke-dasharray="1,5" points="8,-70 8,-271 334,-271 334,-70 8,-70"/>
</g>
<g id="clust2" class="cluster">
<title>cluster_ButtonsModule_declarations</title>
<polygon fill="none" stroke="#000000" points="23,-78 23,-130 325,-130 325,-78 23,-78"/>
</g>
<g id="clust6" class="cluster">
<title>cluster_ButtonsModule_exports</title>
<polygon fill="none" stroke="#000000" points="16,-211 16,-263 326,-263 326,-211 16,-211"/>
</g>
<g id="clust9" class="cluster">
<title>cluster_DynamicFormsModule</title>
<polygon fill="none" stroke="#000000" stroke-dasharray="1,5" points="342,-138 342,-339 1852,-339 1852,-138 342,-138"/>
</g>
<g id="clust10" class="cluster">
<title>cluster_DynamicFormsModule_declarations</title>
<polygon fill="none" stroke="#000000" points="554,-146 554,-198 1844,-198 1844,-146 554,-146"/>
</g>
<g id="clust18" class="cluster">
<title>cluster_DynamicFormsModule_exports</title>
<polygon fill="none" stroke="#000000" points="441,-279 441,-331 1753,-331 1753,-279 441,-279"/>
</g>
<g id="clust20" class="cluster">
<title>cluster_DynamicFormsModule_providers</title>
<polygon fill="none" stroke="#000000" points="350,-146 350,-198 546,-198 546,-146 350,-146"/>
</g>
<g id="clust21" class="cluster">
<title>cluster_GridListsModule</title>
<polygon fill="none" stroke="#000000" stroke-dasharray="1,5" points="1860,-70 1860,-271 2200,-271 2200,-70 1860,-70"/>
</g>
<g id="clust22" class="cluster">
<title>cluster_GridListsModule_declarations</title>
<polygon fill="none" stroke="#000000" points="1872,-78 1872,-130 2189,-130 2189,-78 1872,-78"/>
</g>
<g id="clust26" class="cluster">
<title>cluster_GridListsModule_exports</title>
<polygon fill="none" stroke="#000000" points="1868,-211 1868,-263 2192,-263 2192,-211 1868,-211"/>
</g>
<g id="clust29" class="cluster">
<title>cluster_HeaderModule</title>
<polygon fill="none" stroke="#000000" stroke-dasharray="1,5" points="2208,-70 2208,-271 2366,-271 2366,-70 2208,-70"/>
</g>
<g id="clust30" class="cluster">
<title>cluster_HeaderModule_declarations</title>
<polygon fill="none" stroke="#000000" points="2218,-78 2218,-130 2356,-130 2356,-78 2218,-78"/>
</g>
<g id="clust33" class="cluster">
<title>cluster_HeaderModule_exports</title>
<polygon fill="none" stroke="#000000" points="2216,-211 2216,-263 2358,-263 2358,-211 2216,-211"/>
</g>
<g id="clust36" class="cluster">
<title>cluster_NavmenuModule</title>
<polygon fill="none" stroke="#000000" stroke-dasharray="1,5" points="2374,-70 2374,-271 2546,-271 2546,-70 2374,-70"/>
</g>
<g id="clust37" class="cluster">
<title>cluster_NavmenuModule_declarations</title>
<polygon fill="none" stroke="#000000" points="2384,-78 2384,-130 2536,-130 2536,-78 2384,-78"/>
</g>
<g id="clust40" class="cluster">
<title>cluster_NavmenuModule_exports</title>
<polygon fill="none" stroke="#000000" points="2382,-211 2382,-263 2538,-263 2538,-211 2382,-211"/>
</g>
<g id="clust43" class="cluster">
<title>cluster_SegmentModule</title>
<polygon fill="none" stroke="#000000" stroke-dasharray="1,5" points="2554,-70 2554,-271 2720,-271 2720,-70 2554,-70"/>
</g>
<g id="clust44" class="cluster">
<title>cluster_SegmentModule_declarations</title>
<polygon fill="none" stroke="#000000" points="2564,-78 2564,-130 2710,-130 2710,-78 2564,-78"/>
</g>
<g id="clust47" class="cluster">
<title>cluster_SegmentModule_exports</title>
<polygon fill="none" stroke="#000000" points="2562,-211 2562,-263 2712,-263 2712,-211 2562,-211"/>
</g>
<g id="clust50" class="cluster">
<title>cluster_ToolbarModule</title>
<polygon fill="none" stroke="#000000" stroke-dasharray="1,5" points="2728,-70 2728,-271 3262,-271 3262,-70 2728,-70"/>
</g>
<g id="clust51" class="cluster">
<title>cluster_ToolbarModule_declarations</title>
<polygon fill="none" stroke="#000000" points="2946,-78 2946,-130 3254,-130 3254,-78 2946,-78"/>
</g>
<g id="clust55" class="cluster">
<title>cluster_ToolbarModule_exports</title>
<polygon fill="none" stroke="#000000" points="2863,-211 2863,-263 3178,-263 3178,-211 2863,-211"/>
</g>
<g id="clust57" class="cluster">
<title>cluster_ToolbarModule_providers</title>
<polygon fill="none" stroke="#000000" points="2736,-78 2736,-130 2938,-130 2938,-78 2736,-78"/>
</g>
<!-- AsButtonDirective -->
<g id="node1" class="node">
<title>AsButtonDirective</title>
<polygon fill="#ffffb3" stroke="#000000" points="316.7521,-122 195.2479,-122 195.2479,-86 316.7521,-86 316.7521,-122"/>
<text text-anchor="middle" x="256" y="-99.8" font-family="Times,serif" font-size="14.00" fill="#000000">AsButtonDirective</text>
</g>
<!-- ButtonsModule -->
<g id="node3" class="node">
<title>ButtonsModule</title>
<polygon fill="#8dd3c7" stroke="#000000" points="306.6123,-190 303.6123,-194 282.6123,-194 279.6123,-190 203.3877,-190 203.3877,-154 306.6123,-154 306.6123,-190"/>
<text text-anchor="middle" x="255" y="-167.8" font-family="Times,serif" font-size="14.00" fill="#000000">ButtonsModule</text>
</g>
<!-- AsButtonDirective&#45;&gt;ButtonsModule -->
<g id="edge1" class="edge">
<title>AsButtonDirective&#45;&gt;ButtonsModule</title>
<path fill="none" stroke="#000000" d="M255,-122.2228C255,-122.2228 255,-143.7269 255,-143.7269"/>
<polygon fill="#000000" stroke="#000000" points="251.5001,-143.7269 255,-153.7269 258.5001,-143.727 251.5001,-143.7269"/>
</g>
<!-- AsIconButtonDirective -->
<g id="node2" class="node">
<title>AsIconButtonDirective</title>
<polygon fill="#ffffb3" stroke="#000000" points="177.1275,-122 30.8725,-122 30.8725,-86 177.1275,-86 177.1275,-122"/>
<text text-anchor="middle" x="104" y="-99.8" font-family="Times,serif" font-size="14.00" fill="#000000">AsIconButtonDirective</text>
</g>
<!-- AsIconButtonDirective&#45;&gt;ButtonsModule -->
<g id="edge2" class="edge">
<title>AsIconButtonDirective&#45;&gt;ButtonsModule</title>
<path fill="none" stroke="#000000" d="M126.2712,-122.2667C126.2712,-140.5552 126.2712,-166 126.2712,-166 126.2712,-166 193.3828,-166 193.3828,-166"/>
<polygon fill="#000000" stroke="#000000" points="193.3828,-169.5001 203.3828,-166 193.3828,-162.5001 193.3828,-169.5001"/>
</g>
<!-- AsButtonDirective  -->
<g id="node4" class="node">
<title>AsButtonDirective </title>
<polygon fill="#fb8072" stroke="#000000" points="317.7521,-255 192.2479,-255 192.2479,-219 317.7521,-219 317.7521,-255"/>
<text text-anchor="middle" x="255" y="-232.8" font-family="Times,serif" font-size="14.00" fill="#000000">AsButtonDirective </text>
</g>
<!-- ButtonsModule&#45;&gt;AsButtonDirective  -->
<g id="edge3" class="edge">
<title>ButtonsModule&#45;&gt;AsButtonDirective </title>
<path fill="none" stroke="#000000" stroke-dasharray="5,2" d="M255,-190.1061C255,-190.1061 255,-208.991 255,-208.991"/>
<polygon fill="#000000" stroke="#000000" points="251.5001,-208.9909 255,-218.991 258.5001,-208.991 251.5001,-208.9909"/>
</g>
<!-- AsIconButtonDirective  -->
<g id="node5" class="node">
<title>AsIconButtonDirective </title>
<polygon fill="#fb8072" stroke="#000000" points="174.1271,-255 23.8729,-255 23.8729,-219 174.1271,-219 174.1271,-255"/>
<text text-anchor="middle" x="99" y="-232.8" font-family="Times,serif" font-size="14.00" fill="#000000">AsIconButtonDirective </text>
</g>
<!-- ButtonsModule&#45;&gt;AsIconButtonDirective  -->
<g id="edge4" class="edge">
<title>ButtonsModule&#45;&gt;AsIconButtonDirective </title>
<path fill="none" stroke="#000000" stroke-dasharray="5,2" d="M202.9926,-178C150.9232,-178 78.4788,-178 78.4788,-178 78.4788,-178 78.4788,-208.9775 78.4788,-208.9775"/>
<polygon fill="#000000" stroke="#000000" points="74.9789,-208.9774 78.4788,-218.9775 81.9789,-208.9775 74.9789,-208.9774"/>
</g>
<!-- DynamicFormsModule -->
<g id="node12" class="node">
<title>DynamicFormsModule</title>
<polygon fill="#8dd3c7" stroke="#000000" points="1141.1456,-255 1138.1456,-259 1117.1456,-259 1114.1456,-255 994.8544,-255 994.8544,-219 1141.1456,-219 1141.1456,-255"/>
<text text-anchor="middle" x="1068" y="-232.8" font-family="Times,serif" font-size="14.00" fill="#000000">DynamicFormsModule</text>
</g>
<!-- ButtonsModule&#45;&gt;DynamicFormsModule -->
<g id="edge11" class="edge">
<title>ButtonsModule&#45;&gt;DynamicFormsModule</title>
<path fill="none" stroke="#000000" d="M307.013,-172C323.6631,-172 337.8712,-172 337.8712,-172 337.8712,-172 337.8712,-237 337.8712,-237 337.8712,-237 984.6495,-237 984.6495,-237"/>
<polygon fill="#000000" stroke="#000000" points="984.6495,-240.5001 994.6495,-237 984.6495,-233.5001 984.6495,-240.5001"/>
</g>
<!-- DynamicFormComponent -->
<g id="node6" class="node">
<title>DynamicFormComponent</title>
<polygon fill="#ffffb3" stroke="#000000" points="1836.4832,-190 1673.5168,-190 1673.5168,-154 1836.4832,-154 1836.4832,-190"/>
<text text-anchor="middle" x="1755" y="-167.8" font-family="Times,serif" font-size="14.00" fill="#000000">DynamicFormComponent</text>
</g>
<!-- DynamicFormComponent&#45;&gt;DynamicFormsModule -->
<g id="edge5" class="edge">
<title>DynamicFormComponent&#45;&gt;DynamicFormsModule</title>
<path fill="none" stroke="#000000" d="M1709.375,-190.1061C1709.375,-209.3391 1709.375,-237 1709.375,-237 1709.375,-237 1151.2614,-237 1151.2614,-237"/>
<polygon fill="#000000" stroke="#000000" points="1151.2614,-233.5001 1141.2614,-237 1151.2613,-240.5001 1151.2614,-233.5001"/>
</g>
<!-- DynamicFormInputComponent -->
<g id="node7" class="node">
<title>DynamicFormInputComponent</title>
<polygon fill="#ffffb3" stroke="#000000" points="1655.035,-190 1462.965,-190 1462.965,-154 1655.035,-154 1655.035,-190"/>
<text text-anchor="middle" x="1559" y="-167.8" font-family="Times,serif" font-size="14.00" fill="#000000">DynamicFormInputComponent</text>
</g>
<!-- DynamicFormInputComponent&#45;&gt;DynamicFormsModule -->
<g id="edge6" class="edge">
<title>DynamicFormInputComponent&#45;&gt;DynamicFormsModule</title>
<path fill="none" stroke="#000000" d="M1511.875,-190.0225C1511.875,-207.3734 1511.875,-231 1511.875,-231 1511.875,-231 1151.2969,-231 1151.2969,-231"/>
<polygon fill="#000000" stroke="#000000" points="1151.297,-227.5001 1141.2969,-231 1151.2969,-234.5001 1151.297,-227.5001"/>
</g>
<!-- DynamicFormSelectComponent -->
<g id="node8" class="node">
<title>DynamicFormSelectComponent</title>
<polygon fill="#ffffb3" stroke="#000000" points="1444.6909,-190 1247.3091,-190 1247.3091,-154 1444.6909,-154 1444.6909,-190"/>
<text text-anchor="middle" x="1346" y="-167.8" font-family="Times,serif" font-size="14.00" fill="#000000">DynamicFormSelectComponent</text>
</g>
<!-- DynamicFormSelectComponent&#45;&gt;DynamicFormsModule -->
<g id="edge7" class="edge">
<title>DynamicFormSelectComponent&#45;&gt;DynamicFormsModule</title>
<path fill="none" stroke="#000000" d="M1297.375,-190.2396C1297.375,-205.5706 1297.375,-225 1297.375,-225 1297.375,-225 1151.2063,-225 1151.2063,-225"/>
<polygon fill="#000000" stroke="#000000" points="1151.2064,-221.5001 1141.2063,-225 1151.2063,-228.5001 1151.2064,-221.5001"/>
</g>
<!-- DynamicFormCheckboxComponent -->
<g id="node9" class="node">
<title>DynamicFormCheckboxComponent</title>
<polygon fill="#ffffb3" stroke="#000000" points="1229.7491,-190 1010.2509,-190 1010.2509,-154 1229.7491,-154 1229.7491,-190"/>
<text text-anchor="middle" x="1120" y="-167.8" font-family="Times,serif" font-size="14.00" fill="#000000">DynamicFormCheckboxComponent</text>
</g>
<!-- DynamicFormCheckboxComponent&#45;&gt;DynamicFormsModule -->
<g id="edge8" class="edge">
<title>DynamicFormCheckboxComponent&#45;&gt;DynamicFormsModule</title>
<path fill="none" stroke="#000000" d="M1075.7241,-190.1061C1075.7241,-190.1061 1075.7241,-208.991 1075.7241,-208.991"/>
<polygon fill="#000000" stroke="#000000" points="1072.2241,-208.9909 1075.7241,-218.991 1079.2241,-208.991 1072.2241,-208.9909"/>
</g>
<!-- DynamicFormRadioComponent -->
<g id="node10" class="node">
<title>DynamicFormRadioComponent</title>
<polygon fill="#ffffb3" stroke="#000000" points="992.4255,-190 795.5745,-190 795.5745,-154 992.4255,-154 992.4255,-190"/>
<text text-anchor="middle" x="894" y="-167.8" font-family="Times,serif" font-size="14.00" fill="#000000">DynamicFormRadioComponent</text>
</g>
<!-- DynamicFormRadioComponent&#45;&gt;DynamicFormsModule -->
<g id="edge9" class="edge">
<title>DynamicFormRadioComponent&#45;&gt;DynamicFormsModule</title>
<path fill="none" stroke="#000000" d="M992.3976,-172C998.5905,-172 1002.4015,-172 1002.4015,-172 1002.4015,-172 1002.4015,-208.8939 1002.4015,-208.8939"/>
<polygon fill="#000000" stroke="#000000" points="998.9015,-208.8938 1002.4015,-218.8939 1005.9015,-208.8939 998.9015,-208.8938"/>
</g>
<!-- DynamicFormTextAreaComponent -->
<g id="node11" class="node">
<title>DynamicFormTextAreaComponent</title>
<polygon fill="#ffffb3" stroke="#000000" points="777.8375,-190 562.1625,-190 562.1625,-154 777.8375,-154 777.8375,-190"/>
<text text-anchor="middle" x="670" y="-167.8" font-family="Times,serif" font-size="14.00" fill="#000000">DynamicFormTextAreaComponent</text>
</g>
<!-- DynamicFormTextAreaComponent&#45;&gt;DynamicFormsModule -->
<g id="edge10" class="edge">
<title>DynamicFormTextAreaComponent&#45;&gt;DynamicFormsModule</title>
<path fill="none" stroke="#000000" d="M732.4781,-190.2396C732.4781,-205.5706 732.4781,-225 732.4781,-225 732.4781,-225 984.7829,-225 984.7829,-225"/>
<polygon fill="#000000" stroke="#000000" points="984.7829,-228.5001 994.7829,-225 984.7829,-221.5001 984.7829,-228.5001"/>
</g>
<!-- DynamicFormComponent  -->
<g id="node13" class="node">
<title>DynamicFormComponent </title>
<polygon fill="#fb8072" stroke="#000000" points="1745.4839,-323 1578.5161,-323 1578.5161,-287 1745.4839,-287 1745.4839,-323"/>
<text text-anchor="middle" x="1662" y="-300.8" font-family="Times,serif" font-size="14.00" fill="#000000">DynamicFormComponent </text>
</g>
<!-- DynamicFormsModule&#45;&gt;DynamicFormComponent  -->
<g id="edge12" class="edge">
<title>DynamicFormsModule&#45;&gt;DynamicFormComponent </title>
<path fill="none" stroke="#000000" stroke-dasharray="5,2" d="M1141.1884,-243C1290.6604,-243 1617.0128,-243 1617.0128,-243 1617.0128,-243 1617.0128,-276.7333 1617.0128,-276.7333"/>
<polygon fill="#000000" stroke="#000000" points="1613.5129,-276.7333 1617.0128,-286.7333 1620.5129,-276.7333 1613.5129,-276.7333"/>
</g>
<!-- DynamicFormInputComponent  -->
<g id="node14" class="node">
<title>DynamicFormInputComponent </title>
<polygon fill="#fb8072" stroke="#000000" points="1561.0344,-323 1364.9656,-323 1364.9656,-287 1561.0344,-287 1561.0344,-323"/>
<text text-anchor="middle" x="1463" y="-300.8" font-family="Times,serif" font-size="14.00" fill="#000000">DynamicFormInputComponent </text>
</g>
<!-- DynamicFormsModule&#45;&gt;DynamicFormInputComponent  -->
<g id="edge13" class="edge">
<title>DynamicFormsModule&#45;&gt;DynamicFormInputComponent </title>
<path fill="none" stroke="#000000" stroke-dasharray="5,2" d="M1141.4936,-249C1240.5902,-249 1404.7891,-249 1404.7891,-249 1404.7891,-249 1404.7891,-276.973 1404.7891,-276.973"/>
<polygon fill="#000000" stroke="#000000" points="1401.2892,-276.973 1404.7891,-286.973 1408.2892,-276.973 1401.2892,-276.973"/>
</g>
<!-- DynamicFormSelectComponent  -->
<g id="node15" class="node">
<title>DynamicFormSelectComponent </title>
<polygon fill="#fb8072" stroke="#000000" points="1347.191,-323 1146.809,-323 1146.809,-287 1347.191,-287 1347.191,-323"/>
<text text-anchor="middle" x="1247" y="-300.8" font-family="Times,serif" font-size="14.00" fill="#000000">DynamicFormSelectComponent </text>
</g>
<!-- DynamicFormsModule&#45;&gt;DynamicFormSelectComponent  -->
<g id="edge14" class="edge">
<title>DynamicFormsModule&#45;&gt;DynamicFormSelectComponent </title>
<path fill="none" stroke="#000000" stroke-dasharray="5,2" d="M1134.9736,-255.2228C1134.9736,-275.3652 1134.9736,-305 1134.9736,-305 1134.9736,-305 1136.5404,-305 1136.5404,-305"/>
<polygon fill="#000000" stroke="#000000" points="1136.5404,-308.5001 1146.5404,-305 1136.5404,-301.5001 1136.5404,-308.5001"/>
</g>
<!-- DynamicFormCheckboxComponent  -->
<g id="node16" class="node">
<title>DynamicFormCheckboxComponent </title>
<polygon fill="#fb8072" stroke="#000000" points="1128.7491,-323 905.2509,-323 905.2509,-287 1128.7491,-287 1128.7491,-323"/>
<text text-anchor="middle" x="1017" y="-300.8" font-family="Times,serif" font-size="14.00" fill="#000000">DynamicFormCheckboxComponent </text>
</g>
<!-- DynamicFormsModule&#45;&gt;DynamicFormCheckboxComponent  -->
<g id="edge15" class="edge">
<title>DynamicFormsModule&#45;&gt;DynamicFormCheckboxComponent </title>
<path fill="none" stroke="#000000" stroke-dasharray="5,2" d="M1061.651,-255.2228C1061.651,-255.2228 1061.651,-276.7269 1061.651,-276.7269"/>
<polygon fill="#000000" stroke="#000000" points="1058.151,-276.7269 1061.651,-286.7269 1065.151,-276.727 1058.151,-276.7269"/>
</g>
<!-- DynamicFormRadioComponent  -->
<g id="node17" class="node">
<title>DynamicFormRadioComponent </title>
<polygon fill="#fb8072" stroke="#000000" points="886.925,-323 687.075,-323 687.075,-287 886.925,-287 886.925,-323"/>
<text text-anchor="middle" x="787" y="-300.8" font-family="Times,serif" font-size="14.00" fill="#000000">DynamicFormRadioComponent </text>
</g>
<!-- DynamicFormsModule&#45;&gt;DynamicFormRadioComponent  -->
<g id="edge16" class="edge">
<title>DynamicFormsModule&#45;&gt;DynamicFormRadioComponent </title>
<path fill="none" stroke="#000000" stroke-dasharray="5,2" d="M994.7343,-249C928.5226,-249 841.375,-249 841.375,-249 841.375,-249 841.375,-276.973 841.375,-276.973"/>
<polygon fill="#000000" stroke="#000000" points="837.8751,-276.973 841.375,-286.973 844.8751,-276.973 837.8751,-276.973"/>
</g>
<!-- DynamicFormTextAreaComponent  -->
<g id="node18" class="node">
<title>DynamicFormTextAreaComponent </title>
<polygon fill="#fb8072" stroke="#000000" points="668.8377,-323 449.1623,-323 449.1623,-287 668.8377,-287 668.8377,-323"/>
<text text-anchor="middle" x="559" y="-300.8" font-family="Times,serif" font-size="14.00" fill="#000000">DynamicFormTextAreaComponent </text>
</g>
<!-- DynamicFormsModule&#45;&gt;DynamicFormTextAreaComponent  -->
<g id="edge17" class="edge">
<title>DynamicFormsModule&#45;&gt;DynamicFormTextAreaComponent </title>
<path fill="none" stroke="#000000" stroke-dasharray="5,2" d="M994.7749,-243C866.6722,-243 615.375,-243 615.375,-243 615.375,-243 615.375,-276.7333 615.375,-276.7333"/>
<polygon fill="#000000" stroke="#000000" points="611.8751,-276.7333 615.375,-286.7333 618.8751,-276.7333 611.8751,-276.7333"/>
</g>
<!-- InputControlService -->
<g id="node19" class="node">
<title>InputControlService</title>
<ellipse fill="#fdb462" stroke="#000000" cx="448" cy="-172" rx="89.7672" ry="18"/>
<text text-anchor="middle" x="448" y="-167.8" font-family="Times,serif" font-size="14.00" fill="#000000">InputControlService</text>
</g>
<!-- InputControlService&#45;&gt;DynamicFormsModule -->
<g id="edge18" class="edge">
<title>InputControlService&#45;&gt;DynamicFormsModule</title>
<path fill="none" stroke="#000000" d="M493.6074,-187.8109C493.6074,-205.2874 493.6074,-231 493.6074,-231 493.6074,-231 984.6694,-231 984.6694,-231"/>
<polygon fill="#000000" stroke="#000000" points="984.6694,-234.5001 994.6694,-231 984.6693,-227.5001 984.6694,-234.5001"/>
</g>
<!-- GridListComponent -->
<g id="node20" class="node">
<title>GridListComponent</title>
<polygon fill="#ffffb3" stroke="#000000" points="2181.2688,-122 2052.7312,-122 2052.7312,-86 2181.2688,-86 2181.2688,-122"/>
<text text-anchor="middle" x="2117" y="-99.8" font-family="Times,serif" font-size="14.00" fill="#000000">GridListComponent</text>
</g>
<!-- GridListsModule -->
<g id="node22" class="node">
<title>GridListsModule</title>
<polygon fill="#8dd3c7" stroke="#000000" points="2014.4314,-190 2011.4314,-194 1990.4314,-194 1987.4314,-190 1901.5686,-190 1901.5686,-154 2014.4314,-154 2014.4314,-190"/>
<text text-anchor="middle" x="1958" y="-167.8" font-family="Times,serif" font-size="14.00" fill="#000000">GridListsModule</text>
</g>
<!-- GridListComponent&#45;&gt;GridListsModule -->
<g id="edge19" class="edge">
<title>GridListComponent&#45;&gt;GridListsModule</title>
<path fill="none" stroke="#000000" d="M2095.5386,-122.2667C2095.5386,-140.5552 2095.5386,-166 2095.5386,-166 2095.5386,-166 2024.339,-166 2024.339,-166"/>
<polygon fill="#000000" stroke="#000000" points="2024.3391,-162.5001 2014.339,-166 2024.339,-169.5001 2024.3391,-162.5001"/>
</g>
<!-- GridListItemComponent -->
<g id="node21" class="node">
<title>GridListItemComponent</title>
<polygon fill="#ffffb3" stroke="#000000" points="2034.4256,-122 1879.5744,-122 1879.5744,-86 2034.4256,-86 2034.4256,-122"/>
<text text-anchor="middle" x="1957" y="-99.8" font-family="Times,serif" font-size="14.00" fill="#000000">GridListItemComponent</text>
</g>
<!-- GridListItemComponent&#45;&gt;GridListsModule -->
<g id="edge20" class="edge">
<title>GridListItemComponent&#45;&gt;GridListsModule</title>
<path fill="none" stroke="#000000" d="M1958,-122.2228C1958,-122.2228 1958,-143.7269 1958,-143.7269"/>
<polygon fill="#000000" stroke="#000000" points="1954.5001,-143.7269 1958,-153.7269 1961.5001,-143.727 1954.5001,-143.7269"/>
</g>
<!-- GridListComponent  -->
<g id="node23" class="node">
<title>GridListComponent </title>
<polygon fill="#fb8072" stroke="#000000" points="2184.2689,-255 2051.7311,-255 2051.7311,-219 2184.2689,-219 2184.2689,-255"/>
<text text-anchor="middle" x="2118" y="-232.8" font-family="Times,serif" font-size="14.00" fill="#000000">GridListComponent </text>
</g>
<!-- GridListsModule&#45;&gt;GridListComponent  -->
<g id="edge21" class="edge">
<title>GridListsModule&#45;&gt;GridListComponent </title>
<path fill="none" stroke="#000000" stroke-dasharray="5,2" d="M2014.604,-178C2067.5274,-178 2138.4614,-178 2138.4614,-178 2138.4614,-178 2138.4614,-208.9775 2138.4614,-208.9775"/>
<polygon fill="#000000" stroke="#000000" points="2134.9615,-208.9774 2138.4614,-218.9775 2141.9615,-208.9775 2134.9615,-208.9774"/>
</g>
<!-- GridListItemComponent  -->
<g id="node24" class="node">
<title>GridListItemComponent </title>
<polygon fill="#fb8072" stroke="#000000" points="2033.925,-255 1876.075,-255 1876.075,-219 2033.925,-219 2033.925,-255"/>
<text text-anchor="middle" x="1955" y="-232.8" font-family="Times,serif" font-size="14.00" fill="#000000">GridListItemComponent </text>
</g>
<!-- GridListsModule&#45;&gt;GridListItemComponent  -->
<g id="edge22" class="edge">
<title>GridListsModule&#45;&gt;GridListItemComponent </title>
<path fill="none" stroke="#000000" stroke-dasharray="5,2" d="M1958,-190.1061C1958,-190.1061 1958,-208.991 1958,-208.991"/>
<polygon fill="#000000" stroke="#000000" points="1954.5001,-208.9909 1958,-218.991 1961.5001,-208.991 1954.5001,-208.9909"/>
</g>
<!-- HeaderComponent -->
<g id="node25" class="node">
<title>HeaderComponent</title>
<polygon fill="#ffffb3" stroke="#000000" points="2347.7437,-122 2226.2563,-122 2226.2563,-86 2347.7437,-86 2347.7437,-122"/>
<text text-anchor="middle" x="2287" y="-99.8" font-family="Times,serif" font-size="14.00" fill="#000000">HeaderComponent</text>
</g>
<!-- HeaderModule -->
<g id="node26" class="node">
<title>HeaderModule</title>
<polygon fill="#8dd3c7" stroke="#000000" points="2336.9608,-190 2333.9608,-194 2312.9608,-194 2309.9608,-190 2237.0392,-190 2237.0392,-154 2336.9608,-154 2336.9608,-190"/>
<text text-anchor="middle" x="2287" y="-167.8" font-family="Times,serif" font-size="14.00" fill="#000000">HeaderModule</text>
</g>
<!-- HeaderComponent&#45;&gt;HeaderModule -->
<g id="edge23" class="edge">
<title>HeaderComponent&#45;&gt;HeaderModule</title>
<path fill="none" stroke="#000000" d="M2287,-122.2228C2287,-122.2228 2287,-143.7269 2287,-143.7269"/>
<polygon fill="#000000" stroke="#000000" points="2283.5001,-143.7269 2287,-153.7269 2290.5001,-143.727 2283.5001,-143.7269"/>
</g>
<!-- HeaderComponent  -->
<g id="node27" class="node">
<title>HeaderComponent </title>
<polygon fill="#fb8072" stroke="#000000" points="2349.7436,-255 2224.2564,-255 2224.2564,-219 2349.7436,-219 2349.7436,-255"/>
<text text-anchor="middle" x="2287" y="-232.8" font-family="Times,serif" font-size="14.00" fill="#000000">HeaderComponent </text>
</g>
<!-- HeaderModule&#45;&gt;HeaderComponent  -->
<g id="edge24" class="edge">
<title>HeaderModule&#45;&gt;HeaderComponent </title>
<path fill="none" stroke="#000000" stroke-dasharray="5,2" d="M2287,-190.1061C2287,-190.1061 2287,-208.991 2287,-208.991"/>
<polygon fill="#000000" stroke="#000000" points="2283.5001,-208.9909 2287,-218.991 2290.5001,-208.991 2283.5001,-208.9909"/>
</g>
<!-- NavmenuComponent -->
<g id="node28" class="node">
<title>NavmenuComponent</title>
<polygon fill="#ffffb3" stroke="#000000" points="2527.759,-122 2392.241,-122 2392.241,-86 2527.759,-86 2527.759,-122"/>
<text text-anchor="middle" x="2460" y="-99.8" font-family="Times,serif" font-size="14.00" fill="#000000">NavmenuComponent</text>
</g>
<!-- NavmenuModule -->
<g id="node29" class="node">
<title>NavmenuModule</title>
<polygon fill="#8dd3c7" stroke="#000000" points="2516.9762,-190 2513.9762,-194 2492.9762,-194 2489.9762,-190 2403.0238,-190 2403.0238,-154 2516.9762,-154 2516.9762,-190"/>
<text text-anchor="middle" x="2460" y="-167.8" font-family="Times,serif" font-size="14.00" fill="#000000">NavmenuModule</text>
</g>
<!-- NavmenuComponent&#45;&gt;NavmenuModule -->
<g id="edge25" class="edge">
<title>NavmenuComponent&#45;&gt;NavmenuModule</title>
<path fill="none" stroke="#000000" d="M2460,-122.2228C2460,-122.2228 2460,-143.7269 2460,-143.7269"/>
<polygon fill="#000000" stroke="#000000" points="2456.5001,-143.7269 2460,-153.7269 2463.5001,-143.727 2456.5001,-143.7269"/>
</g>
<!-- NavmenuComponent  -->
<g id="node30" class="node">
<title>NavmenuComponent </title>
<polygon fill="#fb8072" stroke="#000000" points="2529.759,-255 2390.241,-255 2390.241,-219 2529.759,-219 2529.759,-255"/>
<text text-anchor="middle" x="2460" y="-232.8" font-family="Times,serif" font-size="14.00" fill="#000000">NavmenuComponent </text>
</g>
<!-- NavmenuModule&#45;&gt;NavmenuComponent  -->
<g id="edge26" class="edge">
<title>NavmenuModule&#45;&gt;NavmenuComponent </title>
<path fill="none" stroke="#000000" stroke-dasharray="5,2" d="M2460,-190.1061C2460,-190.1061 2460,-208.991 2460,-208.991"/>
<polygon fill="#000000" stroke="#000000" points="2456.5001,-208.9909 2460,-218.991 2463.5001,-208.991 2456.5001,-208.9909"/>
</g>
<!-- SegmentComponent -->
<g id="node31" class="node">
<title>SegmentComponent</title>
<polygon fill="#ffffb3" stroke="#000000" points="2702.3258,-122 2571.6742,-122 2571.6742,-86 2702.3258,-86 2702.3258,-122"/>
<text text-anchor="middle" x="2637" y="-99.8" font-family="Times,serif" font-size="14.00" fill="#000000">SegmentComponent</text>
</g>
<!-- SegmentModule -->
<g id="node32" class="node">
<title>SegmentModule</title>
<polygon fill="#8dd3c7" stroke="#000000" points="2691.0438,-190 2688.0438,-194 2667.0438,-194 2664.0438,-190 2582.9562,-190 2582.9562,-154 2691.0438,-154 2691.0438,-190"/>
<text text-anchor="middle" x="2637" y="-167.8" font-family="Times,serif" font-size="14.00" fill="#000000">SegmentModule</text>
</g>
<!-- SegmentComponent&#45;&gt;SegmentModule -->
<g id="edge27" class="edge">
<title>SegmentComponent&#45;&gt;SegmentModule</title>
<path fill="none" stroke="#000000" d="M2637,-122.2228C2637,-122.2228 2637,-143.7269 2637,-143.7269"/>
<polygon fill="#000000" stroke="#000000" points="2633.5001,-143.7269 2637,-153.7269 2640.5001,-143.727 2633.5001,-143.7269"/>
</g>
<!-- SegmentComponent  -->
<g id="node33" class="node">
<title>SegmentComponent </title>
<polygon fill="#fb8072" stroke="#000000" points="2703.8255,-255 2570.1745,-255 2570.1745,-219 2703.8255,-219 2703.8255,-255"/>
<text text-anchor="middle" x="2637" y="-232.8" font-family="Times,serif" font-size="14.00" fill="#000000">SegmentComponent </text>
</g>
<!-- SegmentModule&#45;&gt;SegmentComponent  -->
<g id="edge28" class="edge">
<title>SegmentModule&#45;&gt;SegmentComponent </title>
<path fill="none" stroke="#000000" stroke-dasharray="5,2" d="M2637,-190.1061C2637,-190.1061 2637,-208.991 2637,-208.991"/>
<polygon fill="#000000" stroke="#000000" points="2633.5001,-208.9909 2637,-218.991 2640.5001,-208.991 2633.5001,-208.9909"/>
</g>
<!-- BackButtonComponent -->
<g id="node34" class="node">
<title>BackButtonComponent</title>
<polygon fill="#ffffb3" stroke="#000000" points="3246.2162,-122 3097.7838,-122 3097.7838,-86 3246.2162,-86 3246.2162,-122"/>
<text text-anchor="middle" x="3172" y="-99.8" font-family="Times,serif" font-size="14.00" fill="#000000">BackButtonComponent</text>
</g>
<!-- ToolbarModule -->
<g id="node36" class="node">
<title>ToolbarModule</title>
<polygon fill="#8dd3c7" stroke="#000000" points="3068.8683,-190 3065.8683,-194 3044.8683,-194 3041.8683,-190 2965.1317,-190 2965.1317,-154 3068.8683,-154 3068.8683,-190"/>
<text text-anchor="middle" x="3017" y="-167.8" font-family="Times,serif" font-size="14.00" fill="#000000">ToolbarModule</text>
</g>
<!-- BackButtonComponent&#45;&gt;ToolbarModule -->
<g id="edge29" class="edge">
<title>BackButtonComponent&#45;&gt;ToolbarModule</title>
<path fill="none" stroke="#000000" d="M3133.875,-122.2228C3133.875,-142.3652 3133.875,-172 3133.875,-172 3133.875,-172 3078.9437,-172 3078.9437,-172"/>
<polygon fill="#000000" stroke="#000000" points="3078.9437,-168.5001 3068.9437,-172 3078.9437,-175.5001 3078.9437,-168.5001"/>
</g>
<!-- ToolbarComponent -->
<g id="node35" class="node">
<title>ToolbarComponent</title>
<polygon fill="#ffffb3" stroke="#000000" points="3079.6513,-122 2954.3487,-122 2954.3487,-86 3079.6513,-86 3079.6513,-122"/>
<text text-anchor="middle" x="3017" y="-99.8" font-family="Times,serif" font-size="14.00" fill="#000000">ToolbarComponent</text>
</g>
<!-- ToolbarComponent&#45;&gt;ToolbarModule -->
<g id="edge30" class="edge">
<title>ToolbarComponent&#45;&gt;ToolbarModule</title>
<path fill="none" stroke="#000000" d="M3017,-122.2228C3017,-122.2228 3017,-143.7269 3017,-143.7269"/>
<polygon fill="#000000" stroke="#000000" points="3013.5001,-143.7269 3017,-153.7269 3020.5001,-143.727 3013.5001,-143.7269"/>
</g>
<!-- BackButtonComponent  -->
<g id="node37" class="node">
<title>BackButtonComponent </title>
<polygon fill="#fb8072" stroke="#000000" points="3169.7163,-255 3018.2837,-255 3018.2837,-219 3169.7163,-219 3169.7163,-255"/>
<text text-anchor="middle" x="3094" y="-232.8" font-family="Times,serif" font-size="14.00" fill="#000000">BackButtonComponent </text>
</g>
<!-- ToolbarModule&#45;&gt;BackButtonComponent  -->
<g id="edge31" class="edge">
<title>ToolbarModule&#45;&gt;BackButtonComponent </title>
<path fill="none" stroke="#000000" stroke-dasharray="5,2" d="M3043.5381,-190.1061C3043.5381,-190.1061 3043.5381,-208.991 3043.5381,-208.991"/>
<polygon fill="#000000" stroke="#000000" points="3040.0381,-208.9909 3043.5381,-218.991 3047.0381,-208.991 3040.0381,-208.9909"/>
</g>
<!-- ToolbarComponent  -->
<g id="node38" class="node">
<title>ToolbarComponent </title>
<polygon fill="#fb8072" stroke="#000000" points="3000.6509,-255 2871.3491,-255 2871.3491,-219 3000.6509,-219 3000.6509,-255"/>
<text text-anchor="middle" x="2936" y="-232.8" font-family="Times,serif" font-size="14.00" fill="#000000">ToolbarComponent </text>
</g>
<!-- ToolbarModule&#45;&gt;ToolbarComponent  -->
<g id="edge32" class="edge">
<title>ToolbarModule&#45;&gt;ToolbarComponent </title>
<path fill="none" stroke="#000000" stroke-dasharray="5,2" d="M2982.8207,-190.1061C2982.8207,-190.1061 2982.8207,-208.991 2982.8207,-208.991"/>
<polygon fill="#000000" stroke="#000000" points="2979.3207,-208.9909 2982.8207,-218.991 2986.3207,-208.991 2979.3207,-208.9909"/>
</g>
<!-- ToolbarMenuService -->
<g id="node39" class="node">
<title>ToolbarMenuService</title>
<ellipse fill="#fdb462" stroke="#000000" cx="2837" cy="-104" rx="93.1794" ry="18"/>
<text text-anchor="middle" x="2837" y="-99.8" font-family="Times,serif" font-size="14.00" fill="#000000">ToolbarMenuService</text>
</g>
<!-- ToolbarMenuService&#45;&gt;ToolbarModule -->
<g id="edge33" class="edge">
<title>ToolbarMenuService&#45;&gt;ToolbarModule</title>
<path fill="none" stroke="#000000" d="M2900.7571,-117.4346C2900.7571,-137.2519 2900.7571,-172 2900.7571,-172 2900.7571,-172 2954.9985,-172 2954.9985,-172"/>
<polygon fill="#000000" stroke="#000000" points="2954.9985,-175.5001 2964.9985,-172 2954.9984,-168.5001 2954.9985,-175.5001"/>
</g>
</g>
</svg>
