<?xml version="1.0" encoding="UTF-8" standalone="no"?>
<!DOCTYPE svg PUBLIC "-//W3C//DTD SVG 1.1//EN"
 "http://www.w3.org/Graphics/SVG/1.1/DTD/svg11.dtd">
<!-- Generated by graphviz version 2.40.1 (20161225.0304)
 -->
<!-- Title: dependencies Pages: 1 -->
<svg width="504pt" height="284pt"
 viewBox="0.00 0.00 504.00 284.00" xmlns="http://www.w3.org/2000/svg" xmlns:xlink="http://www.w3.org/1999/xlink">
<g id="graph0" class="graph" transform="scale(1 1) rotate(0) translate(4 280)">
<title>dependencies</title>
<polygon fill="#ffffff" stroke="transparent" points="-4,4 -4,-280 500,-280 500,4 -4,4"/>
<text text-anchor="start" x="227.0091" y="-42.4" font-family="sans-serif" font-weight="bold" font-size="14.00" fill="#000000">Legend</text>
<polygon fill="#ffffb3" stroke="transparent" points="14,-10 14,-30 34,-30 34,-10 14,-10"/>
<text text-anchor="start" x="37.629" y="-15.4" font-family="sans-serif" font-size="14.00" fill="#000000"> &#160;Declarations</text>
<polygon fill="#8dd3c7" stroke="transparent" points="127,-10 127,-30 147,-30 147,-10 127,-10"/>
<text text-anchor="start" x="150.7251" y="-15.4" font-family="sans-serif" font-size="14.00" fill="#000000"> &#160;Module</text>
<polygon fill="#80b1d3" stroke="transparent" points="213,-10 213,-30 233,-30 233,-10 213,-10"/>
<text text-anchor="start" x="236.7812" y="-15.4" font-family="sans-serif" font-size="14.00" fill="#000000"> &#160;Bootstrap</text>
<polygon fill="#fdb462" stroke="transparent" points="310,-10 310,-30 330,-30 330,-10 310,-10"/>
<text text-anchor="start" x="333.6732" y="-15.4" font-family="sans-serif" font-size="14.00" fill="#000000"> &#160;Providers</text>
<polygon fill="#fb8072" stroke="transparent" points="406,-10 406,-30 426,-30 426,-10 406,-10"/>
<text text-anchor="start" x="429.7258" y="-15.4" font-family="sans-serif" font-size="14.00" fill="#000000"> &#160;Exports</text>
<g id="clust1" class="cluster">
<title>cluster_CardsModule</title>
<polygon fill="none" stroke="#000000" stroke-dasharray="1,5" points="97,-70 97,-268 241,-268 241,-70 97,-70"/>
</g>
<g id="clust2" class="cluster">
<title>cluster_CardsModule_declarations</title>
<polygon fill="none" stroke="#000000" points="109,-78 109,-130 233,-130 233,-78 109,-78"/>
</g>
<g id="clust5" class="cluster">
<title>cluster_CardsModule_exports</title>
<polygon fill="none" stroke="#000000" points="105,-208 105,-260 233,-260 233,-208 105,-208"/>
</g>
<g id="clust8" class="cluster">
<title>cluster_NgxCanaimaModule</title>
<polygon fill="none" stroke="#000000" stroke-dasharray="1,5" points="249,-143 249,-268 399,-268 399,-143 249,-143"/>
</g>
<g id="clust12" class="cluster">
<title>cluster_NgxCanaimaModule_exports</title>
<polygon fill="none" stroke="#000000" points="268,-208 268,-260 380,-260 380,-208 268,-208"/>
</g>
<!-- CardComponent -->
<g id="node1" class="node">
<title>CardComponent</title>
<polygon fill="#ffffb3" stroke="#000000" points="225.0452,-122 116.9548,-122 116.9548,-86 225.0452,-86 225.0452,-122"/>
<text text-anchor="middle" x="171" y="-99.8" font-family="Times,serif" font-size="14.00" fill="#000000">CardComponent</text>
</g>
<!-- CardsModule -->
<g id="node2" class="node">
<title>CardsModule</title>
<polygon fill="#8dd3c7" stroke="#000000" points="217.2064,-187 214.2064,-191 193.2064,-191 190.2064,-187 124.7936,-187 124.7936,-151 217.2064,-151 217.2064,-187"/>
<text text-anchor="middle" x="171" y="-164.8" font-family="Times,serif" font-size="14.00" fill="#000000">CardsModule</text>
</g>
<!-- CardComponent&#45;&gt;CardsModule -->
<g id="edge1" class="edge">
<title>CardComponent&#45;&gt;CardsModule</title>
<path fill="none" stroke="#000000" d="M171,-122.1061C171,-122.1061 171,-140.991 171,-140.991"/>
<polygon fill="#000000" stroke="#000000" points="167.5001,-140.9909 171,-150.991 174.5001,-140.991 167.5001,-140.9909"/>
</g>
<!-- NgxCanaimaModule -->
<g id="node4" class="node">
<title>NgxCanaimaModule</title>
<polygon fill="#8dd3c7" stroke="#000000" points="390.9187,-187 387.9187,-191 366.9187,-191 363.9187,-187 257.0813,-187 257.0813,-151 390.9187,-151 390.9187,-187"/>
<text text-anchor="middle" x="324" y="-164.8" font-family="Times,serif" font-size="14.00" fill="#000000">NgxCanaimaModule</text>
</g>
<!-- CardComponent&#45;&gt;NgxCanaimaModule -->
<g id="edge3" class="edge">
<title>CardComponent&#45;&gt;NgxCanaimaModule</title>
<path fill="none" stroke="#000000" d="M222.3824,-122.027C222.3824,-138.3976 222.3824,-160 222.3824,-160 222.3824,-160 247.0692,-160 247.0692,-160"/>
<polygon fill="#000000" stroke="#000000" points="247.0693,-163.5001 257.0692,-160 247.0692,-156.5001 247.0693,-163.5001"/>
</g>
<!-- CardComponent  -->
<g id="node3" class="node">
<title>CardComponent </title>
<polygon fill="#fb8072" stroke="#000000" points="225.0442,-252 112.9558,-252 112.9558,-216 225.0442,-216 225.0442,-252"/>
<text text-anchor="middle" x="169" y="-229.8" font-family="Times,serif" font-size="14.00" fill="#000000">CardComponent </text>
</g>
<!-- CardsModule&#45;&gt;CardComponent  -->
<g id="edge2" class="edge">
<title>CardsModule&#45;&gt;CardComponent </title>
<path fill="none" stroke="#000000" stroke-dasharray="5,2" d="M171,-187.1061C171,-187.1061 171,-205.991 171,-205.991"/>
<polygon fill="#000000" stroke="#000000" points="167.5001,-205.9909 171,-215.991 174.5001,-205.991 167.5001,-205.9909"/>
</g>
<!-- CardsModule&#45;&gt;NgxCanaimaModule -->
<g id="edge4" class="edge">
<title>CardsModule&#45;&gt;NgxCanaimaModule</title>
<path fill="none" stroke="#000000" d="M217.3202,-169C217.3202,-169 247.2354,-169 247.2354,-169"/>
<polygon fill="#000000" stroke="#000000" points="247.2354,-172.5001 257.2354,-169 247.2353,-165.5001 247.2354,-172.5001"/>
</g>
<!-- NgxCanaimaModule&#45;&gt;CardComponent  -->
<g id="edge6" class="edge">
<title>NgxCanaimaModule&#45;&gt;CardComponent </title>
<path fill="none" stroke="#000000" stroke-dasharray="5,2" d="M257.0875,-178C236.7842,-178 219.7428,-178 219.7428,-178 219.7428,-178 219.7428,-205.973 219.7428,-205.973"/>
<polygon fill="#000000" stroke="#000000" points="216.2429,-205.973 219.7428,-215.973 223.2429,-205.973 216.2429,-205.973"/>
</g>
<!-- CardsModule  -->
<g id="node5" class="node">
<title>CardsModule </title>
<polygon fill="#fb8072" stroke="#000000" points="371.7066,-252 276.2934,-252 276.2934,-216 371.7066,-216 371.7066,-252"/>
<text text-anchor="middle" x="324" y="-229.8" font-family="Times,serif" font-size="14.00" fill="#000000">CardsModule </text>
</g>
<!-- NgxCanaimaModule&#45;&gt;CardsModule  -->
<g id="edge5" class="edge">
<title>NgxCanaimaModule&#45;&gt;CardsModule </title>
<path fill="none" stroke="#000000" stroke-dasharray="5,2" d="M324,-187.1061C324,-187.1061 324,-205.991 324,-205.991"/>
<polygon fill="#000000" stroke="#000000" points="320.5001,-205.9909 324,-215.991 327.5001,-205.991 320.5001,-205.9909"/>
</g>
</g>
</svg>
