<?xml version="1.0" encoding="UTF-8" standalone="no"?>
<!DOCTYPE svg PUBLIC "-//W3C//DTD SVG 1.1//EN"
 "http://www.w3.org/Graphics/SVG/1.1/DTD/svg11.dtd">
<!-- Generated by graphviz version 2.40.1 (20161225.0304)
 -->
<!-- Title: dependencies Pages: 1 -->
<svg width="4352pt" height="290pt"
 viewBox="0.00 0.00 4352.00 290.00" xmlns="http://www.w3.org/2000/svg" xmlns:xlink="http://www.w3.org/1999/xlink">
<g id="graph0" class="graph" transform="scale(1 1) rotate(0) translate(4 286)">
<title>dependencies</title>
<polygon fill="#ffffff" stroke="transparent" points="-4,4 -4,-286 4348,-286 4348,4 -4,4"/>
<text text-anchor="start" x="2151.0091" y="-42.4" font-family="sans-serif" font-weight="bold" font-size="14.00" fill="#000000">Legend</text>
<polygon fill="#ffffb3" stroke="transparent" points="1938,-10 1938,-30 1958,-30 1958,-10 1938,-10"/>
<text text-anchor="start" x="1961.629" y="-15.4" font-family="sans-serif" font-size="14.00" fill="#000000"> &#160;Declarations</text>
<polygon fill="#8dd3c7" stroke="transparent" points="2051,-10 2051,-30 2071,-30 2071,-10 2051,-10"/>
<text text-anchor="start" x="2074.7251" y="-15.4" font-family="sans-serif" font-size="14.00" fill="#000000"> &#160;Module</text>
<polygon fill="#80b1d3" stroke="transparent" points="2137,-10 2137,-30 2157,-30 2157,-10 2137,-10"/>
<text text-anchor="start" x="2160.7812" y="-15.4" font-family="sans-serif" font-size="14.00" fill="#000000"> &#160;Bootstrap</text>
<polygon fill="#fdb462" stroke="transparent" points="2234,-10 2234,-30 2254,-30 2254,-10 2234,-10"/>
<text text-anchor="start" x="2257.6732" y="-15.4" font-family="sans-serif" font-size="14.00" fill="#000000"> &#160;Providers</text>
<polygon fill="#fb8072" stroke="transparent" points="2330,-10 2330,-30 2350,-30 2350,-10 2330,-10"/>
<text text-anchor="start" x="2353.7258" y="-15.4" font-family="sans-serif" font-size="14.00" fill="#000000"> &#160;Exports</text>
<g id="clust1" class="cluster">
<title>cluster_BadgesModule</title>
<polygon fill="none" stroke="#000000" stroke-dasharray="1,5" points="8,-70 8,-274 286,-274 286,-70 8,-70"/>
</g>
<g id="clust2" class="cluster">
<title>cluster_BadgesModule_declarations</title>
<polygon fill="none" stroke="#000000" points="16,-78 16,-130 150,-130 150,-78 16,-78"/>
</g>
<g id="clust4" class="cluster">
<title>cluster_BadgesModule_imports</title>
<polygon fill="none" stroke="#000000" points="158,-78 158,-130 278,-130 278,-78 158,-78"/>
</g>
<g id="clust5" class="cluster">
<title>cluster_BadgesModule_exports</title>
<polygon fill="none" stroke="#000000" points="79,-214 79,-266 215,-266 215,-214 79,-214"/>
</g>
<g id="clust8" class="cluster">
<title>cluster_ButtonsModule</title>
<polygon fill="none" stroke="#000000" stroke-dasharray="1,5" points="294,-138 294,-206 930,-206 930,-138 294,-138"/>
</g>
<g id="clust9" class="cluster">
<title>cluster_ButtonsModule_declarations</title>
<polygon fill="none" stroke="#000000" points="620,-146 620,-198 922,-198 922,-146 620,-146"/>
</g>
<g id="clust13" class="cluster">
<title>cluster_ButtonsModule_exports</title>
<polygon fill="none" stroke="#000000" points="302,-146 302,-198 612,-198 612,-146 302,-146"/>
</g>
<g id="clust16" class="cluster">
<title>cluster_ChipModule</title>
<polygon fill="none" stroke="#000000" stroke-dasharray="1,5" points="2456,-70 2456,-274 2600,-274 2600,-70 2456,-70"/>
</g>
<g id="clust17" class="cluster">
<title>cluster_ChipModule_declarations</title>
<polygon fill="none" stroke="#000000" points="2466,-78 2466,-130 2590,-130 2590,-78 2466,-78"/>
</g>
<g id="clust20" class="cluster">
<title>cluster_ChipModule_exports</title>
<polygon fill="none" stroke="#000000" points="2464,-214 2464,-266 2592,-266 2592,-214 2464,-214"/>
</g>
<g id="clust23" class="cluster">
<title>cluster_CircleFabModule</title>
<polygon fill="none" stroke="#000000" stroke-dasharray="1,5" points="2608,-70 2608,-274 2780,-274 2780,-70 2608,-70"/>
</g>
<g id="clust24" class="cluster">
<title>cluster_CircleFabModule_declarations</title>
<polygon fill="none" stroke="#000000" points="2618,-78 2618,-130 2770,-130 2770,-78 2618,-78"/>
</g>
<g id="clust27" class="cluster">
<title>cluster_CircleFabModule_exports</title>
<polygon fill="none" stroke="#000000" points="2616,-214 2616,-266 2772,-266 2772,-214 2616,-214"/>
</g>
<g id="clust30" class="cluster">
<title>cluster_DynamicFormsModule</title>
<polygon fill="none" stroke="#000000" stroke-dasharray="1,5" points="938,-70 938,-274 2448,-274 2448,-70 938,-70"/>
</g>
<g id="clust31" class="cluster">
<title>cluster_DynamicFormsModule_declarations</title>
<polygon fill="none" stroke="#000000" points="1150,-78 1150,-130 2440,-130 2440,-78 1150,-78"/>
</g>
<g id="clust39" class="cluster">
<title>cluster_DynamicFormsModule_exports</title>
<polygon fill="none" stroke="#000000" points="1037,-214 1037,-266 2349,-266 2349,-214 1037,-214"/>
</g>
<g id="clust41" class="cluster">
<title>cluster_DynamicFormsModule_providers</title>
<polygon fill="none" stroke="#000000" points="946,-78 946,-130 1142,-130 1142,-78 946,-78"/>
</g>
<g id="clust42" class="cluster">
<title>cluster_FabsModule</title>
<polygon fill="none" stroke="#000000" stroke-dasharray="1,5" points="2788,-70 2788,-274 2926,-274 2926,-70 2788,-70"/>
</g>
<g id="clust43" class="cluster">
<title>cluster_FabsModule_declarations</title>
<polygon fill="none" stroke="#000000" points="2798,-78 2798,-130 2916,-130 2916,-78 2798,-78"/>
</g>
<g id="clust46" class="cluster">
<title>cluster_FabsModule_exports</title>
<polygon fill="none" stroke="#000000" points="2796,-214 2796,-266 2918,-266 2918,-214 2796,-214"/>
</g>
<g id="clust49" class="cluster">
<title>cluster_GridListsModule</title>
<polygon fill="none" stroke="#000000" stroke-dasharray="1,5" points="2934,-70 2934,-274 3274,-274 3274,-70 2934,-70"/>
</g>
<g id="clust50" class="cluster">
<title>cluster_GridListsModule_declarations</title>
<polygon fill="none" stroke="#000000" points="2946,-78 2946,-130 3263,-130 3263,-78 2946,-78"/>
</g>
<g id="clust54" class="cluster">
<title>cluster_GridListsModule_exports</title>
<polygon fill="none" stroke="#000000" points="2942,-214 2942,-266 3266,-266 3266,-214 2942,-214"/>
</g>
<g id="clust57" class="cluster">
<title>cluster_HeaderModule</title>
<polygon fill="none" stroke="#000000" stroke-dasharray="1,5" points="3282,-70 3282,-274 3440,-274 3440,-70 3282,-70"/>
</g>
<g id="clust58" class="cluster">
<title>cluster_HeaderModule_declarations</title>
<polygon fill="none" stroke="#000000" points="3292,-78 3292,-130 3430,-130 3430,-78 3292,-78"/>
</g>
<g id="clust61" class="cluster">
<title>cluster_HeaderModule_exports</title>
<polygon fill="none" stroke="#000000" points="3290,-214 3290,-266 3432,-266 3432,-214 3290,-214"/>
</g>
<g id="clust64" class="cluster">
<title>cluster_NavmenuModule</title>
<polygon fill="none" stroke="#000000" stroke-dasharray="1,5" points="3448,-70 3448,-274 3620,-274 3620,-70 3448,-70"/>
</g>
<g id="clust65" class="cluster">
<title>cluster_NavmenuModule_declarations</title>
<polygon fill="none" stroke="#000000" points="3458,-78 3458,-130 3610,-130 3610,-78 3458,-78"/>
</g>
<g id="clust68" class="cluster">
<title>cluster_NavmenuModule_exports</title>
<polygon fill="none" stroke="#000000" points="3456,-214 3456,-266 3612,-266 3612,-214 3456,-214"/>
</g>
<g id="clust71" class="cluster">
<title>cluster_SegmentModule</title>
<polygon fill="none" stroke="#000000" stroke-dasharray="1,5" points="3628,-70 3628,-274 3794,-274 3794,-70 3628,-70"/>
</g>
<g id="clust72" class="cluster">
<title>cluster_SegmentModule_declarations</title>
<polygon fill="none" stroke="#000000" points="3638,-78 3638,-130 3784,-130 3784,-78 3638,-78"/>
</g>
<g id="clust75" class="cluster">
<title>cluster_SegmentModule_exports</title>
<polygon fill="none" stroke="#000000" points="3636,-214 3636,-266 3786,-266 3786,-214 3636,-214"/>
</g>
<g id="clust78" class="cluster">
<title>cluster_ToolbarModule</title>
<polygon fill="none" stroke="#000000" stroke-dasharray="1,5" points="3802,-70 3802,-274 4336,-274 4336,-70 3802,-70"/>
</g>
<g id="clust79" class="cluster">
<title>cluster_ToolbarModule_declarations</title>
<polygon fill="none" stroke="#000000" points="4020,-78 4020,-130 4328,-130 4328,-78 4020,-78"/>
</g>
<g id="clust83" class="cluster">
<title>cluster_ToolbarModule_exports</title>
<polygon fill="none" stroke="#000000" points="3937,-214 3937,-266 4252,-266 4252,-214 3937,-214"/>
</g>
<g id="clust85" class="cluster">
<title>cluster_ToolbarModule_providers</title>
<polygon fill="none" stroke="#000000" points="3810,-78 3810,-130 4012,-130 4012,-78 3810,-78"/>
</g>
<!-- BadgeComponent -->
<g id="node1" class="node">
<title>BadgeComponent</title>
<polygon fill="#ffffb3" stroke="#000000" points="141.5982,-122 24.4018,-122 24.4018,-86 141.5982,-86 141.5982,-122"/>
<text text-anchor="middle" x="83" y="-99.8" font-family="Times,serif" font-size="14.00" fill="#000000">BadgeComponent</text>
</g>
<!-- BadgesModule -->
<g id="node2" class="node">
<title>BadgesModule</title>
<polygon fill="#8dd3c7" stroke="#000000" points="197.2605,-190 194.2605,-194 173.2605,-194 170.2605,-190 96.7395,-190 96.7395,-154 197.2605,-154 197.2605,-190"/>
<text text-anchor="middle" x="147" y="-167.8" font-family="Times,serif" font-size="14.00" fill="#000000">BadgesModule</text>
</g>
<!-- BadgeComponent&#45;&gt;BadgesModule -->
<g id="edge1" class="edge">
<title>BadgeComponent&#45;&gt;BadgesModule</title>
<path fill="none" stroke="#000000" d="M119.0845,-122.2228C119.0845,-122.2228 119.0845,-143.7269 119.0845,-143.7269"/>
<polygon fill="#000000" stroke="#000000" points="115.5846,-143.7269 119.0845,-153.7269 122.5846,-143.727 115.5846,-143.7269"/>
</g>
<!-- BadgeComponent  -->
<g id="node4" class="node">
<title>BadgeComponent </title>
<polygon fill="#fb8072" stroke="#000000" points="207.0989,-258 86.9011,-258 86.9011,-222 207.0989,-222 207.0989,-258"/>
<text text-anchor="middle" x="147" y="-235.8" font-family="Times,serif" font-size="14.00" fill="#000000">BadgeComponent </text>
</g>
<!-- BadgesModule&#45;&gt;BadgeComponent  -->
<g id="edge3" class="edge">
<title>BadgesModule&#45;&gt;BadgeComponent </title>
<path fill="none" stroke="#000000" stroke-dasharray="5,2" d="M147,-190.2228C147,-190.2228 147,-211.7269 147,-211.7269"/>
<polygon fill="#000000" stroke="#000000" points="143.5001,-211.7269 147,-221.7269 150.5001,-211.727 143.5001,-211.7269"/>
</g>
<!-- ButtonsModule -->
<g id="node3" class="node">
<title>ButtonsModule</title>
<polygon fill="#8dd3c7" stroke="#000000" points="269.6123,-122 266.6123,-126 245.6123,-126 242.6123,-122 166.3877,-122 166.3877,-86 269.6123,-86 269.6123,-122"/>
<text text-anchor="middle" x="218" y="-99.8" font-family="Times,serif" font-size="14.00" fill="#000000">ButtonsModule</text>
</g>
<!-- ButtonsModule&#45;&gt;BadgesModule -->
<g id="edge2" class="edge">
<title>ButtonsModule&#45;&gt;BadgesModule</title>
<path fill="none" stroke="#000000" d="M181.912,-122.2228C181.912,-122.2228 181.912,-143.7269 181.912,-143.7269"/>
<polygon fill="#000000" stroke="#000000" points="178.4121,-143.7269 181.912,-153.7269 185.4121,-143.727 178.4121,-143.7269"/>
</g>
<!-- AsButtonDirective  -->
<g id="node7" class="node">
<title>AsButtonDirective </title>
<polygon fill="#fb8072" stroke="#000000" points="603.7521,-190 478.2479,-190 478.2479,-154 603.7521,-154 603.7521,-190"/>
<text text-anchor="middle" x="541" y="-167.8" font-family="Times,serif" font-size="14.00" fill="#000000">AsButtonDirective </text>
</g>
<!-- ButtonsModule&#45;&gt;AsButtonDirective  -->
<g id="edge6" class="edge">
<title>ButtonsModule&#45;&gt;AsButtonDirective </title>
<path fill="none" stroke="#000000" stroke-dasharray="5,2" d="M269.8955,-115C361.2001,-115 541,-115 541,-115 541,-115 541,-143.9648 541,-143.9648"/>
<polygon fill="#000000" stroke="#000000" points="537.5001,-143.9648 541,-153.9648 544.5001,-143.9649 537.5001,-143.9648"/>
</g>
<!-- AsIconButtonDirective  -->
<g id="node8" class="node">
<title>AsIconButtonDirective </title>
<polygon fill="#fb8072" stroke="#000000" points="460.1271,-190 309.8729,-190 309.8729,-154 460.1271,-154 460.1271,-190"/>
<text text-anchor="middle" x="385" y="-167.8" font-family="Times,serif" font-size="14.00" fill="#000000">AsIconButtonDirective </text>
</g>
<!-- ButtonsModule&#45;&gt;AsIconButtonDirective  -->
<g id="edge7" class="edge">
<title>ButtonsModule&#45;&gt;AsIconButtonDirective </title>
<path fill="none" stroke="#000000" stroke-dasharray="5,2" d="M238.4276,-122.2228C238.4276,-142.3652 238.4276,-172 238.4276,-172 238.4276,-172 299.567,-172 299.567,-172"/>
<polygon fill="#000000" stroke="#000000" points="299.5671,-175.5001 309.567,-172 299.567,-168.5001 299.5671,-175.5001"/>
</g>
<!-- DynamicFormsModule -->
<g id="node21" class="node">
<title>DynamicFormsModule</title>
<polygon fill="#8dd3c7" stroke="#000000" points="1737.1456,-190 1734.1456,-194 1713.1456,-194 1710.1456,-190 1590.8544,-190 1590.8544,-154 1737.1456,-154 1737.1456,-190"/>
<text text-anchor="middle" x="1664" y="-167.8" font-family="Times,serif" font-size="14.00" fill="#000000">DynamicFormsModule</text>
</g>
<!-- ButtonsModule&#45;&gt;DynamicFormsModule -->
<g id="edge18" class="edge">
<title>ButtonsModule&#45;&gt;DynamicFormsModule</title>
<path fill="none" stroke="#000000" d="M269.7807,-94C434.2485,-94 933.9962,-94 933.9962,-94 933.9962,-94 933.9962,-172 933.9962,-172 933.9962,-172 1580.6621,-172 1580.6621,-172"/>
<polygon fill="#000000" stroke="#000000" points="1580.6621,-175.5001 1590.6621,-172 1580.662,-168.5001 1580.6621,-175.5001"/>
</g>
<!-- AsButtonDirective -->
<g id="node5" class="node">
<title>AsButtonDirective</title>
<polygon fill="#ffffb3" stroke="#000000" points="913.7521,-190 792.2479,-190 792.2479,-154 913.7521,-154 913.7521,-190"/>
<text text-anchor="middle" x="853" y="-167.8" font-family="Times,serif" font-size="14.00" fill="#000000">AsButtonDirective</text>
</g>
<!-- AsButtonDirective&#45;&gt;ButtonsModule -->
<g id="edge4" class="edge">
<title>AsButtonDirective&#45;&gt;ButtonsModule</title>
<path fill="none" stroke="#000000" d="M853,-153.7157C853,-132.6789 853,-101 853,-101 853,-101 279.6955,-101 279.6955,-101"/>
<polygon fill="#000000" stroke="#000000" points="279.6955,-97.5001 269.6955,-101 279.6954,-104.5001 279.6955,-97.5001"/>
</g>
<!-- AsIconButtonDirective -->
<g id="node6" class="node">
<title>AsIconButtonDirective</title>
<polygon fill="#ffffb3" stroke="#000000" points="774.1275,-190 627.8725,-190 627.8725,-154 774.1275,-154 774.1275,-190"/>
<text text-anchor="middle" x="701" y="-167.8" font-family="Times,serif" font-size="14.00" fill="#000000">AsIconButtonDirective</text>
</g>
<!-- AsIconButtonDirective&#45;&gt;ButtonsModule -->
<g id="edge5" class="edge">
<title>AsIconButtonDirective&#45;&gt;ButtonsModule</title>
<path fill="none" stroke="#000000" d="M701,-153.8314C701,-134.9102 701,-108 701,-108 701,-108 279.6895,-108 279.6895,-108"/>
<polygon fill="#000000" stroke="#000000" points="279.6895,-104.5001 269.6895,-108 279.6894,-111.5001 279.6895,-104.5001"/>
</g>
<!-- ChipComponent -->
<g id="node9" class="node">
<title>ChipComponent</title>
<polygon fill="#ffffb3" stroke="#000000" points="2582.0605,-122 2473.9395,-122 2473.9395,-86 2582.0605,-86 2582.0605,-122"/>
<text text-anchor="middle" x="2528" y="-99.8" font-family="Times,serif" font-size="14.00" fill="#000000">ChipComponent</text>
</g>
<!-- ChipModule -->
<g id="node10" class="node">
<title>ChipModule</title>
<polygon fill="#8dd3c7" stroke="#000000" points="2571.2773,-190 2568.2773,-194 2547.2773,-194 2544.2773,-190 2484.7227,-190 2484.7227,-154 2571.2773,-154 2571.2773,-190"/>
<text text-anchor="middle" x="2528" y="-167.8" font-family="Times,serif" font-size="14.00" fill="#000000">ChipModule</text>
</g>
<!-- ChipComponent&#45;&gt;ChipModule -->
<g id="edge8" class="edge">
<title>ChipComponent&#45;&gt;ChipModule</title>
<path fill="none" stroke="#000000" d="M2528,-122.2228C2528,-122.2228 2528,-143.7269 2528,-143.7269"/>
<polygon fill="#000000" stroke="#000000" points="2524.5001,-143.7269 2528,-153.7269 2531.5001,-143.727 2524.5001,-143.7269"/>
</g>
<!-- ChipComponent  -->
<g id="node11" class="node">
<title>ChipComponent </title>
<polygon fill="#fb8072" stroke="#000000" points="2584.0596,-258 2471.9404,-258 2471.9404,-222 2584.0596,-222 2584.0596,-258"/>
<text text-anchor="middle" x="2528" y="-235.8" font-family="Times,serif" font-size="14.00" fill="#000000">ChipComponent </text>
</g>
<!-- ChipModule&#45;&gt;ChipComponent  -->
<g id="edge9" class="edge">
<title>ChipModule&#45;&gt;ChipComponent </title>
<path fill="none" stroke="#000000" stroke-dasharray="5,2" d="M2528,-190.2228C2528,-190.2228 2528,-211.7269 2528,-211.7269"/>
<polygon fill="#000000" stroke="#000000" points="2524.5001,-211.7269 2528,-221.7269 2531.5001,-211.727 2524.5001,-211.7269"/>
</g>
<!-- CircleFabComponent -->
<g id="node12" class="node">
<title>CircleFabComponent</title>
<polygon fill="#ffffb3" stroke="#000000" points="2762.038,-122 2625.962,-122 2625.962,-86 2762.038,-86 2762.038,-122"/>
<text text-anchor="middle" x="2694" y="-99.8" font-family="Times,serif" font-size="14.00" fill="#000000">CircleFabComponent</text>
</g>
<!-- CircleFabModule -->
<g id="node13" class="node">
<title>CircleFabModule</title>
<polygon fill="#8dd3c7" stroke="#000000" points="2751.2549,-190 2748.2549,-194 2727.2549,-194 2724.2549,-190 2636.7451,-190 2636.7451,-154 2751.2549,-154 2751.2549,-190"/>
<text text-anchor="middle" x="2694" y="-167.8" font-family="Times,serif" font-size="14.00" fill="#000000">CircleFabModule</text>
</g>
<!-- CircleFabComponent&#45;&gt;CircleFabModule -->
<g id="edge10" class="edge">
<title>CircleFabComponent&#45;&gt;CircleFabModule</title>
<path fill="none" stroke="#000000" d="M2694,-122.2228C2694,-122.2228 2694,-143.7269 2694,-143.7269"/>
<polygon fill="#000000" stroke="#000000" points="2690.5001,-143.7269 2694,-153.7269 2697.5001,-143.727 2690.5001,-143.7269"/>
</g>
<!-- CircleFabComponent  -->
<g id="node14" class="node">
<title>CircleFabComponent </title>
<polygon fill="#fb8072" stroke="#000000" points="2764.0372,-258 2623.9628,-258 2623.9628,-222 2764.0372,-222 2764.0372,-258"/>
<text text-anchor="middle" x="2694" y="-235.8" font-family="Times,serif" font-size="14.00" fill="#000000">CircleFabComponent </text>
</g>
<!-- CircleFabModule&#45;&gt;CircleFabComponent  -->
<g id="edge11" class="edge">
<title>CircleFabModule&#45;&gt;CircleFabComponent </title>
<path fill="none" stroke="#000000" stroke-dasharray="5,2" d="M2694,-190.2228C2694,-190.2228 2694,-211.7269 2694,-211.7269"/>
<polygon fill="#000000" stroke="#000000" points="2690.5001,-211.7269 2694,-221.7269 2697.5001,-211.727 2690.5001,-211.7269"/>
</g>
<!-- DynamicFormComponent -->
<g id="node15" class="node">
<title>DynamicFormComponent</title>
<polygon fill="#ffffb3" stroke="#000000" points="2432.4832,-122 2269.5168,-122 2269.5168,-86 2432.4832,-86 2432.4832,-122"/>
<text text-anchor="middle" x="2351" y="-99.8" font-family="Times,serif" font-size="14.00" fill="#000000">DynamicFormComponent</text>
</g>
<!-- DynamicFormComponent&#45;&gt;DynamicFormsModule -->
<g id="edge12" class="edge">
<title>DynamicFormComponent&#45;&gt;DynamicFormsModule</title>
<path fill="none" stroke="#000000" d="M2305.375,-122.2228C2305.375,-142.3652 2305.375,-172 2305.375,-172 2305.375,-172 1747.2614,-172 1747.2614,-172"/>
<polygon fill="#000000" stroke="#000000" points="1747.2614,-168.5001 1737.2614,-172 1747.2613,-175.5001 1747.2614,-168.5001"/>
</g>
<!-- DynamicFormInputComponent -->
<g id="node16" class="node">
<title>DynamicFormInputComponent</title>
<polygon fill="#ffffb3" stroke="#000000" points="2251.035,-122 2058.965,-122 2058.965,-86 2251.035,-86 2251.035,-122"/>
<text text-anchor="middle" x="2155" y="-99.8" font-family="Times,serif" font-size="14.00" fill="#000000">DynamicFormInputComponent</text>
</g>
<!-- DynamicFormInputComponent&#45;&gt;DynamicFormsModule -->
<g id="edge13" class="edge">
<title>DynamicFormInputComponent&#45;&gt;DynamicFormsModule</title>
<path fill="none" stroke="#000000" d="M2107.875,-122.2667C2107.875,-140.5552 2107.875,-166 2107.875,-166 2107.875,-166 1747.2969,-166 1747.2969,-166"/>
<polygon fill="#000000" stroke="#000000" points="1747.297,-162.5001 1737.2969,-166 1747.2969,-169.5001 1747.297,-162.5001"/>
</g>
<!-- DynamicFormSelectComponent -->
<g id="node17" class="node">
<title>DynamicFormSelectComponent</title>
<polygon fill="#ffffb3" stroke="#000000" points="2040.6909,-122 1843.3091,-122 1843.3091,-86 2040.6909,-86 2040.6909,-122"/>
<text text-anchor="middle" x="1942" y="-99.8" font-family="Times,serif" font-size="14.00" fill="#000000">DynamicFormSelectComponent</text>
</g>
<!-- DynamicFormSelectComponent&#45;&gt;DynamicFormsModule -->
<g id="edge14" class="edge">
<title>DynamicFormSelectComponent&#45;&gt;DynamicFormsModule</title>
<path fill="none" stroke="#000000" d="M1893.375,-122.027C1893.375,-138.3976 1893.375,-160 1893.375,-160 1893.375,-160 1747.2063,-160 1747.2063,-160"/>
<polygon fill="#000000" stroke="#000000" points="1747.2064,-156.5001 1737.2063,-160 1747.2063,-163.5001 1747.2064,-156.5001"/>
</g>
<!-- DynamicFormCheckboxComponent -->
<g id="node18" class="node">
<title>DynamicFormCheckboxComponent</title>
<polygon fill="#ffffb3" stroke="#000000" points="1825.7491,-122 1606.2509,-122 1606.2509,-86 1825.7491,-86 1825.7491,-122"/>
<text text-anchor="middle" x="1716" y="-99.8" font-family="Times,serif" font-size="14.00" fill="#000000">DynamicFormCheckboxComponent</text>
</g>
<!-- DynamicFormCheckboxComponent&#45;&gt;DynamicFormsModule -->
<g id="edge15" class="edge">
<title>DynamicFormCheckboxComponent&#45;&gt;DynamicFormsModule</title>
<path fill="none" stroke="#000000" d="M1671.7241,-122.2228C1671.7241,-122.2228 1671.7241,-143.7269 1671.7241,-143.7269"/>
<polygon fill="#000000" stroke="#000000" points="1668.2241,-143.7269 1671.7241,-153.7269 1675.2241,-143.727 1668.2241,-143.7269"/>
</g>
<!-- DynamicFormRadioComponent -->
<g id="node19" class="node">
<title>DynamicFormRadioComponent</title>
<polygon fill="#ffffb3" stroke="#000000" points="1588.4255,-122 1391.5745,-122 1391.5745,-86 1588.4255,-86 1588.4255,-122"/>
<text text-anchor="middle" x="1490" y="-99.8" font-family="Times,serif" font-size="14.00" fill="#000000">DynamicFormRadioComponent</text>
</g>
<!-- DynamicFormRadioComponent&#45;&gt;DynamicFormsModule -->
<g id="edge16" class="edge">
<title>DynamicFormRadioComponent&#45;&gt;DynamicFormsModule</title>
<path fill="none" stroke="#000000" d="M1588.3976,-104C1594.5905,-104 1598.4015,-104 1598.4015,-104 1598.4015,-104 1598.4015,-143.7772 1598.4015,-143.7772"/>
<polygon fill="#000000" stroke="#000000" points="1594.9015,-143.7772 1598.4015,-153.7772 1601.9015,-143.7773 1594.9015,-143.7772"/>
</g>
<!-- DynamicFormTextAreaComponent -->
<g id="node20" class="node">
<title>DynamicFormTextAreaComponent</title>
<polygon fill="#ffffb3" stroke="#000000" points="1373.8375,-122 1158.1625,-122 1158.1625,-86 1373.8375,-86 1373.8375,-122"/>
<text text-anchor="middle" x="1266" y="-99.8" font-family="Times,serif" font-size="14.00" fill="#000000">DynamicFormTextAreaComponent</text>
</g>
<!-- DynamicFormTextAreaComponent&#45;&gt;DynamicFormsModule -->
<g id="edge17" class="edge">
<title>DynamicFormTextAreaComponent&#45;&gt;DynamicFormsModule</title>
<path fill="none" stroke="#000000" d="M1328.4781,-122.027C1328.4781,-138.3976 1328.4781,-160 1328.4781,-160 1328.4781,-160 1580.7829,-160 1580.7829,-160"/>
<polygon fill="#000000" stroke="#000000" points="1580.7829,-163.5001 1590.7829,-160 1580.7829,-156.5001 1580.7829,-163.5001"/>
</g>
<!-- DynamicFormComponent  -->
<g id="node22" class="node">
<title>DynamicFormComponent </title>
<polygon fill="#fb8072" stroke="#000000" points="2341.4839,-258 2174.5161,-258 2174.5161,-222 2341.4839,-222 2341.4839,-258"/>
<text text-anchor="middle" x="2258" y="-235.8" font-family="Times,serif" font-size="14.00" fill="#000000">DynamicFormComponent </text>
</g>
<!-- DynamicFormsModule&#45;&gt;DynamicFormComponent  -->
<g id="edge19" class="edge">
<title>DynamicFormsModule&#45;&gt;DynamicFormComponent </title>
<path fill="none" stroke="#000000" stroke-dasharray="5,2" d="M1737.1884,-178C1886.6604,-178 2213.0128,-178 2213.0128,-178 2213.0128,-178 2213.0128,-211.7333 2213.0128,-211.7333"/>
<polygon fill="#000000" stroke="#000000" points="2209.5129,-211.7333 2213.0128,-221.7333 2216.5129,-211.7333 2209.5129,-211.7333"/>
</g>
<!-- DynamicFormInputComponent  -->
<g id="node23" class="node">
<title>DynamicFormInputComponent </title>
<polygon fill="#fb8072" stroke="#000000" points="2157.0344,-258 1960.9656,-258 1960.9656,-222 2157.0344,-222 2157.0344,-258"/>
<text text-anchor="middle" x="2059" y="-235.8" font-family="Times,serif" font-size="14.00" fill="#000000">DynamicFormInputComponent </text>
</g>
<!-- DynamicFormsModule&#45;&gt;DynamicFormInputComponent  -->
<g id="edge20" class="edge">
<title>DynamicFormsModule&#45;&gt;DynamicFormInputComponent </title>
<path fill="none" stroke="#000000" stroke-dasharray="5,2" d="M1737.4936,-184C1836.5902,-184 2000.7891,-184 2000.7891,-184 2000.7891,-184 2000.7891,-211.973 2000.7891,-211.973"/>
<polygon fill="#000000" stroke="#000000" points="1997.2892,-211.973 2000.7891,-221.973 2004.2892,-211.973 1997.2892,-211.973"/>
</g>
<!-- DynamicFormSelectComponent  -->
<g id="node24" class="node">
<title>DynamicFormSelectComponent </title>
<polygon fill="#fb8072" stroke="#000000" points="1943.191,-258 1742.809,-258 1742.809,-222 1943.191,-222 1943.191,-258"/>
<text text-anchor="middle" x="1843" y="-235.8" font-family="Times,serif" font-size="14.00" fill="#000000">DynamicFormSelectComponent </text>
</g>
<!-- DynamicFormsModule&#45;&gt;DynamicFormSelectComponent  -->
<g id="edge21" class="edge">
<title>DynamicFormsModule&#45;&gt;DynamicFormSelectComponent </title>
<path fill="none" stroke="#000000" stroke-dasharray="5,2" d="M1730.9736,-190.2228C1730.9736,-210.3652 1730.9736,-240 1730.9736,-240 1730.9736,-240 1732.5404,-240 1732.5404,-240"/>
<polygon fill="#000000" stroke="#000000" points="1732.5404,-243.5001 1742.5404,-240 1732.5404,-236.5001 1732.5404,-243.5001"/>
</g>
<!-- DynamicFormCheckboxComponent  -->
<g id="node25" class="node">
<title>DynamicFormCheckboxComponent </title>
<polygon fill="#fb8072" stroke="#000000" points="1724.7491,-258 1501.2509,-258 1501.2509,-222 1724.7491,-222 1724.7491,-258"/>
<text text-anchor="middle" x="1613" y="-235.8" font-family="Times,serif" font-size="14.00" fill="#000000">DynamicFormCheckboxComponent </text>
</g>
<!-- DynamicFormsModule&#45;&gt;DynamicFormCheckboxComponent  -->
<g id="edge22" class="edge">
<title>DynamicFormsModule&#45;&gt;DynamicFormCheckboxComponent </title>
<path fill="none" stroke="#000000" stroke-dasharray="5,2" d="M1657.651,-190.2228C1657.651,-190.2228 1657.651,-211.7269 1657.651,-211.7269"/>
<polygon fill="#000000" stroke="#000000" points="1654.151,-211.7269 1657.651,-221.7269 1661.151,-211.727 1654.151,-211.7269"/>
</g>
<!-- DynamicFormRadioComponent  -->
<g id="node26" class="node">
<title>DynamicFormRadioComponent </title>
<polygon fill="#fb8072" stroke="#000000" points="1482.925,-258 1283.075,-258 1283.075,-222 1482.925,-222 1482.925,-258"/>
<text text-anchor="middle" x="1383" y="-235.8" font-family="Times,serif" font-size="14.00" fill="#000000">DynamicFormRadioComponent </text>
</g>
<!-- DynamicFormsModule&#45;&gt;DynamicFormRadioComponent  -->
<g id="edge23" class="edge">
<title>DynamicFormsModule&#45;&gt;DynamicFormRadioComponent </title>
<path fill="none" stroke="#000000" stroke-dasharray="5,2" d="M1590.7343,-184C1524.5226,-184 1437.375,-184 1437.375,-184 1437.375,-184 1437.375,-211.973 1437.375,-211.973"/>
<polygon fill="#000000" stroke="#000000" points="1433.8751,-211.973 1437.375,-221.973 1440.8751,-211.973 1433.8751,-211.973"/>
</g>
<!-- DynamicFormTextAreaComponent  -->
<g id="node27" class="node">
<title>DynamicFormTextAreaComponent </title>
<polygon fill="#fb8072" stroke="#000000" points="1264.8377,-258 1045.1623,-258 1045.1623,-222 1264.8377,-222 1264.8377,-258"/>
<text text-anchor="middle" x="1155" y="-235.8" font-family="Times,serif" font-size="14.00" fill="#000000">DynamicFormTextAreaComponent </text>
</g>
<!-- DynamicFormsModule&#45;&gt;DynamicFormTextAreaComponent  -->
<g id="edge24" class="edge">
<title>DynamicFormsModule&#45;&gt;DynamicFormTextAreaComponent </title>
<path fill="none" stroke="#000000" stroke-dasharray="5,2" d="M1590.7749,-178C1462.6722,-178 1211.375,-178 1211.375,-178 1211.375,-178 1211.375,-211.7333 1211.375,-211.7333"/>
<polygon fill="#000000" stroke="#000000" points="1207.8751,-211.7333 1211.375,-221.7333 1214.8751,-211.7333 1207.8751,-211.7333"/>
</g>
<!-- InputControlService -->
<g id="node28" class="node">
<title>InputControlService</title>
<ellipse fill="#fdb462" stroke="#000000" cx="1044" cy="-104" rx="89.7672" ry="18"/>
<text text-anchor="middle" x="1044" y="-99.8" font-family="Times,serif" font-size="14.00" fill="#000000">InputControlService</text>
</g>
<!-- InputControlService&#45;&gt;DynamicFormsModule -->
<g id="edge25" class="edge">
<title>InputControlService&#45;&gt;DynamicFormsModule</title>
<path fill="none" stroke="#000000" d="M1089.6074,-119.6452C1089.6074,-138.0122 1089.6074,-166 1089.6074,-166 1089.6074,-166 1580.6694,-166 1580.6694,-166"/>
<polygon fill="#000000" stroke="#000000" points="1580.6694,-169.5001 1590.6694,-166 1580.6693,-162.5001 1580.6694,-169.5001"/>
</g>
<!-- FabComponent -->
<g id="node29" class="node">
<title>FabComponent</title>
<polygon fill="#ffffb3" stroke="#000000" points="2908.3301,-122 2805.6699,-122 2805.6699,-86 2908.3301,-86 2908.3301,-122"/>
<text text-anchor="middle" x="2857" y="-99.8" font-family="Times,serif" font-size="14.00" fill="#000000">FabComponent</text>
</g>
<!-- FabsModule -->
<g id="node30" class="node">
<title>FabsModule</title>
<polygon fill="#8dd3c7" stroke="#000000" points="2899.9916,-190 2896.9916,-194 2875.9916,-194 2872.9916,-190 2814.0084,-190 2814.0084,-154 2899.9916,-154 2899.9916,-190"/>
<text text-anchor="middle" x="2857" y="-167.8" font-family="Times,serif" font-size="14.00" fill="#000000">FabsModule</text>
</g>
<!-- FabComponent&#45;&gt;FabsModule -->
<g id="edge26" class="edge">
<title>FabComponent&#45;&gt;FabsModule</title>
<path fill="none" stroke="#000000" d="M2857,-122.2228C2857,-122.2228 2857,-143.7269 2857,-143.7269"/>
<polygon fill="#000000" stroke="#000000" points="2853.5001,-143.7269 2857,-153.7269 2860.5001,-143.727 2853.5001,-143.7269"/>
</g>
<!-- FabComponent  -->
<g id="node31" class="node">
<title>FabComponent </title>
<polygon fill="#fb8072" stroke="#000000" points="2909.8297,-258 2804.1703,-258 2804.1703,-222 2909.8297,-222 2909.8297,-258"/>
<text text-anchor="middle" x="2857" y="-235.8" font-family="Times,serif" font-size="14.00" fill="#000000">FabComponent </text>
</g>
<!-- FabsModule&#45;&gt;FabComponent  -->
<g id="edge27" class="edge">
<title>FabsModule&#45;&gt;FabComponent </title>
<path fill="none" stroke="#000000" stroke-dasharray="5,2" d="M2857,-190.2228C2857,-190.2228 2857,-211.7269 2857,-211.7269"/>
<polygon fill="#000000" stroke="#000000" points="2853.5001,-211.7269 2857,-221.7269 2860.5001,-211.727 2853.5001,-211.7269"/>
</g>
<!-- GridListComponent -->
<g id="node32" class="node">
<title>GridListComponent</title>
<polygon fill="#ffffb3" stroke="#000000" points="3255.2688,-122 3126.7312,-122 3126.7312,-86 3255.2688,-86 3255.2688,-122"/>
<text text-anchor="middle" x="3191" y="-99.8" font-family="Times,serif" font-size="14.00" fill="#000000">GridListComponent</text>
</g>
<!-- GridListsModule -->
<g id="node34" class="node">
<title>GridListsModule</title>
<polygon fill="#8dd3c7" stroke="#000000" points="3088.4314,-190 3085.4314,-194 3064.4314,-194 3061.4314,-190 2975.5686,-190 2975.5686,-154 3088.4314,-154 3088.4314,-190"/>
<text text-anchor="middle" x="3032" y="-167.8" font-family="Times,serif" font-size="14.00" fill="#000000">GridListsModule</text>
</g>
<!-- GridListComponent&#45;&gt;GridListsModule -->
<g id="edge28" class="edge">
<title>GridListComponent&#45;&gt;GridListsModule</title>
<path fill="none" stroke="#000000" d="M3212.4614,-122.2667C3212.4614,-140.5552 3212.4614,-166 3212.4614,-166 3212.4614,-166 3098.604,-166 3098.604,-166"/>
<polygon fill="#000000" stroke="#000000" points="3098.604,-162.5001 3088.604,-166 3098.604,-169.5001 3098.604,-162.5001"/>
</g>
<!-- GridListItemComponent -->
<g id="node33" class="node">
<title>GridListItemComponent</title>
<polygon fill="#ffffb3" stroke="#000000" points="3108.4256,-122 2953.5744,-122 2953.5744,-86 3108.4256,-86 3108.4256,-122"/>
<text text-anchor="middle" x="3031" y="-99.8" font-family="Times,serif" font-size="14.00" fill="#000000">GridListItemComponent</text>
</g>
<!-- GridListItemComponent&#45;&gt;GridListsModule -->
<g id="edge29" class="edge">
<title>GridListItemComponent&#45;&gt;GridListsModule</title>
<path fill="none" stroke="#000000" d="M3032,-122.2228C3032,-122.2228 3032,-143.7269 3032,-143.7269"/>
<polygon fill="#000000" stroke="#000000" points="3028.5001,-143.7269 3032,-153.7269 3035.5001,-143.727 3028.5001,-143.7269"/>
</g>
<!-- GridListComponent  -->
<g id="node35" class="node">
<title>GridListComponent </title>
<polygon fill="#fb8072" stroke="#000000" points="3258.2689,-258 3125.7311,-258 3125.7311,-222 3258.2689,-222 3258.2689,-258"/>
<text text-anchor="middle" x="3192" y="-235.8" font-family="Times,serif" font-size="14.00" fill="#000000">GridListComponent </text>
</g>
<!-- GridListsModule&#45;&gt;GridListComponent  -->
<g id="edge30" class="edge">
<title>GridListsModule&#45;&gt;GridListComponent </title>
<path fill="none" stroke="#000000" stroke-dasharray="5,2" d="M3088.339,-178C3126.3222,-178 3169.5386,-178 3169.5386,-178 3169.5386,-178 3169.5386,-211.7333 3169.5386,-211.7333"/>
<polygon fill="#000000" stroke="#000000" points="3166.0387,-211.7333 3169.5386,-221.7333 3173.0387,-211.7333 3166.0387,-211.7333"/>
</g>
<!-- GridListItemComponent  -->
<g id="node36" class="node">
<title>GridListItemComponent </title>
<polygon fill="#fb8072" stroke="#000000" points="3107.925,-258 2950.075,-258 2950.075,-222 3107.925,-222 3107.925,-258"/>
<text text-anchor="middle" x="3029" y="-235.8" font-family="Times,serif" font-size="14.00" fill="#000000">GridListItemComponent </text>
</g>
<!-- GridListsModule&#45;&gt;GridListItemComponent  -->
<g id="edge31" class="edge">
<title>GridListsModule&#45;&gt;GridListItemComponent </title>
<path fill="none" stroke="#000000" stroke-dasharray="5,2" d="M3032,-190.2228C3032,-190.2228 3032,-211.7269 3032,-211.7269"/>
<polygon fill="#000000" stroke="#000000" points="3028.5001,-211.7269 3032,-221.7269 3035.5001,-211.727 3028.5001,-211.7269"/>
</g>
<!-- HeaderComponent -->
<g id="node37" class="node">
<title>HeaderComponent</title>
<polygon fill="#ffffb3" stroke="#000000" points="3421.7437,-122 3300.2563,-122 3300.2563,-86 3421.7437,-86 3421.7437,-122"/>
<text text-anchor="middle" x="3361" y="-99.8" font-family="Times,serif" font-size="14.00" fill="#000000">HeaderComponent</text>
</g>
<!-- HeaderModule -->
<g id="node38" class="node">
<title>HeaderModule</title>
<polygon fill="#8dd3c7" stroke="#000000" points="3410.9608,-190 3407.9608,-194 3386.9608,-194 3383.9608,-190 3311.0392,-190 3311.0392,-154 3410.9608,-154 3410.9608,-190"/>
<text text-anchor="middle" x="3361" y="-167.8" font-family="Times,serif" font-size="14.00" fill="#000000">HeaderModule</text>
</g>
<!-- HeaderComponent&#45;&gt;HeaderModule -->
<g id="edge32" class="edge">
<title>HeaderComponent&#45;&gt;HeaderModule</title>
<path fill="none" stroke="#000000" d="M3361,-122.2228C3361,-122.2228 3361,-143.7269 3361,-143.7269"/>
<polygon fill="#000000" stroke="#000000" points="3357.5001,-143.7269 3361,-153.7269 3364.5001,-143.727 3357.5001,-143.7269"/>
</g>
<!-- HeaderComponent  -->
<g id="node39" class="node">
<title>HeaderComponent </title>
<polygon fill="#fb8072" stroke="#000000" points="3423.7436,-258 3298.2564,-258 3298.2564,-222 3423.7436,-222 3423.7436,-258"/>
<text text-anchor="middle" x="3361" y="-235.8" font-family="Times,serif" font-size="14.00" fill="#000000">HeaderComponent </text>
</g>
<!-- HeaderModule&#45;&gt;HeaderComponent  -->
<g id="edge33" class="edge">
<title>HeaderModule&#45;&gt;HeaderComponent </title>
<path fill="none" stroke="#000000" stroke-dasharray="5,2" d="M3361,-190.2228C3361,-190.2228 3361,-211.7269 3361,-211.7269"/>
<polygon fill="#000000" stroke="#000000" points="3357.5001,-211.7269 3361,-221.7269 3364.5001,-211.727 3357.5001,-211.7269"/>
</g>
<!-- NavmenuComponent -->
<g id="node40" class="node">
<title>NavmenuComponent</title>
<polygon fill="#ffffb3" stroke="#000000" points="3601.759,-122 3466.241,-122 3466.241,-86 3601.759,-86 3601.759,-122"/>
<text text-anchor="middle" x="3534" y="-99.8" font-family="Times,serif" font-size="14.00" fill="#000000">NavmenuComponent</text>
</g>
<!-- NavmenuModule -->
<g id="node41" class="node">
<title>NavmenuModule</title>
<polygon fill="#8dd3c7" stroke="#000000" points="3590.9762,-190 3587.9762,-194 3566.9762,-194 3563.9762,-190 3477.0238,-190 3477.0238,-154 3590.9762,-154 3590.9762,-190"/>
<text text-anchor="middle" x="3534" y="-167.8" font-family="Times,serif" font-size="14.00" fill="#000000">NavmenuModule</text>
</g>
<!-- NavmenuComponent&#45;&gt;NavmenuModule -->
<g id="edge34" class="edge">
<title>NavmenuComponent&#45;&gt;NavmenuModule</title>
<path fill="none" stroke="#000000" d="M3534,-122.2228C3534,-122.2228 3534,-143.7269 3534,-143.7269"/>
<polygon fill="#000000" stroke="#000000" points="3530.5001,-143.7269 3534,-153.7269 3537.5001,-143.727 3530.5001,-143.7269"/>
</g>
<!-- NavmenuComponent  -->
<g id="node42" class="node">
<title>NavmenuComponent </title>
<polygon fill="#fb8072" stroke="#000000" points="3603.759,-258 3464.241,-258 3464.241,-222 3603.759,-222 3603.759,-258"/>
<text text-anchor="middle" x="3534" y="-235.8" font-family="Times,serif" font-size="14.00" fill="#000000">NavmenuComponent </text>
</g>
<!-- NavmenuModule&#45;&gt;NavmenuComponent  -->
<g id="edge35" class="edge">
<title>NavmenuModule&#45;&gt;NavmenuComponent </title>
<path fill="none" stroke="#000000" stroke-dasharray="5,2" d="M3534,-190.2228C3534,-190.2228 3534,-211.7269 3534,-211.7269"/>
<polygon fill="#000000" stroke="#000000" points="3530.5001,-211.7269 3534,-221.7269 3537.5001,-211.727 3530.5001,-211.7269"/>
</g>
<!-- SegmentComponent -->
<g id="node43" class="node">
<title>SegmentComponent</title>
<polygon fill="#ffffb3" stroke="#000000" points="3776.3258,-122 3645.6742,-122 3645.6742,-86 3776.3258,-86 3776.3258,-122"/>
<text text-anchor="middle" x="3711" y="-99.8" font-family="Times,serif" font-size="14.00" fill="#000000">SegmentComponent</text>
</g>
<!-- SegmentModule -->
<g id="node44" class="node">
<title>SegmentModule</title>
<polygon fill="#8dd3c7" stroke="#000000" points="3765.0438,-190 3762.0438,-194 3741.0438,-194 3738.0438,-190 3656.9562,-190 3656.9562,-154 3765.0438,-154 3765.0438,-190"/>
<text text-anchor="middle" x="3711" y="-167.8" font-family="Times,serif" font-size="14.00" fill="#000000">SegmentModule</text>
</g>
<!-- SegmentComponent&#45;&gt;SegmentModule -->
<g id="edge36" class="edge">
<title>SegmentComponent&#45;&gt;SegmentModule</title>
<path fill="none" stroke="#000000" d="M3711,-122.2228C3711,-122.2228 3711,-143.7269 3711,-143.7269"/>
<polygon fill="#000000" stroke="#000000" points="3707.5001,-143.7269 3711,-153.7269 3714.5001,-143.727 3707.5001,-143.7269"/>
</g>
<!-- SegmentComponent  -->
<g id="node45" class="node">
<title>SegmentComponent </title>
<polygon fill="#fb8072" stroke="#000000" points="3777.8255,-258 3644.1745,-258 3644.1745,-222 3777.8255,-222 3777.8255,-258"/>
<text text-anchor="middle" x="3711" y="-235.8" font-family="Times,serif" font-size="14.00" fill="#000000">SegmentComponent </text>
</g>
<!-- SegmentModule&#45;&gt;SegmentComponent  -->
<g id="edge37" class="edge">
<title>SegmentModule&#45;&gt;SegmentComponent </title>
<path fill="none" stroke="#000000" stroke-dasharray="5,2" d="M3711,-190.2228C3711,-190.2228 3711,-211.7269 3711,-211.7269"/>
<polygon fill="#000000" stroke="#000000" points="3707.5001,-211.7269 3711,-221.7269 3714.5001,-211.727 3707.5001,-211.7269"/>
</g>
<!-- BackButtonComponent -->
<g id="node46" class="node">
<title>BackButtonComponent</title>
<polygon fill="#ffffb3" stroke="#000000" points="4320.2162,-122 4171.7838,-122 4171.7838,-86 4320.2162,-86 4320.2162,-122"/>
<text text-anchor="middle" x="4246" y="-99.8" font-family="Times,serif" font-size="14.00" fill="#000000">BackButtonComponent</text>
</g>
<!-- ToolbarModule -->
<g id="node48" class="node">
<title>ToolbarModule</title>
<polygon fill="#8dd3c7" stroke="#000000" points="4142.8683,-190 4139.8683,-194 4118.8683,-194 4115.8683,-190 4039.1317,-190 4039.1317,-154 4142.8683,-154 4142.8683,-190"/>
<text text-anchor="middle" x="4091" y="-167.8" font-family="Times,serif" font-size="14.00" fill="#000000">ToolbarModule</text>
</g>
<!-- BackButtonComponent&#45;&gt;ToolbarModule -->
<g id="edge38" class="edge">
<title>BackButtonComponent&#45;&gt;ToolbarModule</title>
<path fill="none" stroke="#000000" d="M4207.875,-122.2228C4207.875,-142.3652 4207.875,-172 4207.875,-172 4207.875,-172 4152.9437,-172 4152.9437,-172"/>
<polygon fill="#000000" stroke="#000000" points="4152.9437,-168.5001 4142.9437,-172 4152.9437,-175.5001 4152.9437,-168.5001"/>
</g>
<!-- ToolbarComponent -->
<g id="node47" class="node">
<title>ToolbarComponent</title>
<polygon fill="#ffffb3" stroke="#000000" points="4153.6513,-122 4028.3487,-122 4028.3487,-86 4153.6513,-86 4153.6513,-122"/>
<text text-anchor="middle" x="4091" y="-99.8" font-family="Times,serif" font-size="14.00" fill="#000000">ToolbarComponent</text>
</g>
<!-- ToolbarComponent&#45;&gt;ToolbarModule -->
<g id="edge39" class="edge">
<title>ToolbarComponent&#45;&gt;ToolbarModule</title>
<path fill="none" stroke="#000000" d="M4091,-122.2228C4091,-122.2228 4091,-143.7269 4091,-143.7269"/>
<polygon fill="#000000" stroke="#000000" points="4087.5001,-143.7269 4091,-153.7269 4094.5001,-143.727 4087.5001,-143.7269"/>
</g>
<!-- BackButtonComponent  -->
<g id="node49" class="node">
<title>BackButtonComponent </title>
<polygon fill="#fb8072" stroke="#000000" points="4243.7163,-258 4092.2837,-258 4092.2837,-222 4243.7163,-222 4243.7163,-258"/>
<text text-anchor="middle" x="4168" y="-235.8" font-family="Times,serif" font-size="14.00" fill="#000000">BackButtonComponent </text>
</g>
<!-- ToolbarModule&#45;&gt;BackButtonComponent  -->
<g id="edge40" class="edge">
<title>ToolbarModule&#45;&gt;BackButtonComponent </title>
<path fill="none" stroke="#000000" stroke-dasharray="5,2" d="M4117.5381,-190.2228C4117.5381,-190.2228 4117.5381,-211.7269 4117.5381,-211.7269"/>
<polygon fill="#000000" stroke="#000000" points="4114.0381,-211.7269 4117.5381,-221.7269 4121.0381,-211.727 4114.0381,-211.7269"/>
</g>
<!-- ToolbarComponent  -->
<g id="node50" class="node">
<title>ToolbarComponent </title>
<polygon fill="#fb8072" stroke="#000000" points="4074.6509,-258 3945.3491,-258 3945.3491,-222 4074.6509,-222 4074.6509,-258"/>
<text text-anchor="middle" x="4010" y="-235.8" font-family="Times,serif" font-size="14.00" fill="#000000">ToolbarComponent </text>
</g>
<!-- ToolbarModule&#45;&gt;ToolbarComponent  -->
<g id="edge41" class="edge">
<title>ToolbarModule&#45;&gt;ToolbarComponent </title>
<path fill="none" stroke="#000000" stroke-dasharray="5,2" d="M4056.8207,-190.2228C4056.8207,-190.2228 4056.8207,-211.7269 4056.8207,-211.7269"/>
<polygon fill="#000000" stroke="#000000" points="4053.3207,-211.7269 4056.8207,-221.7269 4060.3207,-211.727 4053.3207,-211.7269"/>
</g>
<!-- ToolbarMenuService -->
<g id="node51" class="node">
<title>ToolbarMenuService</title>
<ellipse fill="#fdb462" stroke="#000000" cx="3911" cy="-104" rx="93.1794" ry="18"/>
<text text-anchor="middle" x="3911" y="-99.8" font-family="Times,serif" font-size="14.00" fill="#000000">ToolbarMenuService</text>
</g>
<!-- ToolbarMenuService&#45;&gt;ToolbarModule -->
<g id="edge42" class="edge">
<title>ToolbarMenuService&#45;&gt;ToolbarModule</title>
<path fill="none" stroke="#000000" d="M3974.7571,-117.4346C3974.7571,-137.2519 3974.7571,-172 3974.7571,-172 3974.7571,-172 4028.9985,-172 4028.9985,-172"/>
<polygon fill="#000000" stroke="#000000" points="4028.9985,-175.5001 4038.9985,-172 4028.9984,-168.5001 4028.9985,-175.5001"/>
</g>
</g>
</svg>
