<?xml version="1.0" encoding="UTF-8" standalone="no"?>
<!DOCTYPE svg PUBLIC "-//W3C//DTD SVG 1.1//EN"
 "http://www.w3.org/Graphics/SVG/1.1/DTD/svg11.dtd">
<!-- Generated by graphviz version 2.40.1 (20161225.0304)
 -->
<!-- Title: dependencies Pages: 1 -->
<svg width="504pt" height="284pt"
 viewBox="0.00 0.00 504.00 284.00" xmlns="http://www.w3.org/2000/svg" xmlns:xlink="http://www.w3.org/1999/xlink">
<g id="graph0" class="graph" transform="scale(1 1) rotate(0) translate(4 280)">
<title>dependencies</title>
<polygon fill="#ffffff" stroke="transparent" points="-4,4 -4,-280 500,-280 500,4 -4,4"/>
<text text-anchor="start" x="227.0091" y="-42.4" font-family="sans-serif" font-weight="bold" font-size="14.00" fill="#000000">Legend</text>
<polygon fill="#ffffb3" stroke="transparent" points="14,-10 14,-30 34,-30 34,-10 14,-10"/>
<text text-anchor="start" x="37.629" y="-15.4" font-family="sans-serif" font-size="14.00" fill="#000000"> &#160;Declarations</text>
<polygon fill="#8dd3c7" stroke="transparent" points="127,-10 127,-30 147,-30 147,-10 127,-10"/>
<text text-anchor="start" x="150.7251" y="-15.4" font-family="sans-serif" font-size="14.00" fill="#000000"> &#160;Module</text>
<polygon fill="#80b1d3" stroke="transparent" points="213,-10 213,-30 233,-30 233,-10 213,-10"/>
<text text-anchor="start" x="236.7812" y="-15.4" font-family="sans-serif" font-size="14.00" fill="#000000"> &#160;Bootstrap</text>
<polygon fill="#fdb462" stroke="transparent" points="310,-10 310,-30 330,-30 330,-10 310,-10"/>
<text text-anchor="start" x="333.6732" y="-15.4" font-family="sans-serif" font-size="14.00" fill="#000000"> &#160;Providers</text>
<polygon fill="#fb8072" stroke="transparent" points="406,-10 406,-30 426,-30 426,-10 406,-10"/>
<text text-anchor="start" x="429.7258" y="-15.4" font-family="sans-serif" font-size="14.00" fill="#000000"> &#160;Exports</text>
<g id="clust1" class="cluster">
<title>cluster_LoadingModule</title>
<polygon fill="none" stroke="#000000" stroke-dasharray="1,5" points="84,-70 84,-268 412,-268 412,-70 84,-70"/>
</g>
<g id="clust2" class="cluster">
<title>cluster_LoadingModule_declarations</title>
<polygon fill="none" stroke="#000000" points="260,-78 260,-130 404,-130 404,-78 260,-78"/>
</g>
<g id="clust5" class="cluster">
<title>cluster_LoadingModule_exports</title>
<polygon fill="none" stroke="#000000" points="177,-208 177,-260 325,-260 325,-208 177,-208"/>
</g>
<g id="clust7" class="cluster">
<title>cluster_LoadingModule_providers</title>
<polygon fill="none" stroke="#000000" points="92,-78 92,-130 252,-130 252,-78 92,-78"/>
</g>
<!-- LoadingComponent -->
<g id="node1" class="node">
<title>LoadingComponent</title>
<polygon fill="#ffffb3" stroke="#000000" points="395.9902,-122 268.0098,-122 268.0098,-86 395.9902,-86 395.9902,-122"/>
<text text-anchor="middle" x="332" y="-99.8" font-family="Times,serif" font-size="14.00" fill="#000000">LoadingComponent</text>
</g>
<!-- LoadingModule -->
<g id="node2" class="node">
<title>LoadingModule</title>
<polygon fill="#8dd3c7" stroke="#000000" points="304.2078,-187 301.2078,-191 280.2078,-191 277.2078,-187 197.7922,-187 197.7922,-151 304.2078,-151 304.2078,-187"/>
<text text-anchor="middle" x="251" y="-164.8" font-family="Times,serif" font-size="14.00" fill="#000000">LoadingModule</text>
</g>
<!-- LoadingComponent&#45;&gt;LoadingModule -->
<g id="edge1" class="edge">
<title>LoadingComponent&#45;&gt;LoadingModule</title>
<path fill="none" stroke="#000000" d="M286.0544,-122.1061C286.0544,-122.1061 286.0544,-140.991 286.0544,-140.991"/>
<polygon fill="#000000" stroke="#000000" points="282.5544,-140.9909 286.0544,-150.991 289.5544,-140.991 282.5544,-140.9909"/>
</g>
<!-- LoadingComponent  -->
<g id="node3" class="node">
<title>LoadingComponent </title>
<polygon fill="#fb8072" stroke="#000000" points="316.9911,-252 185.0089,-252 185.0089,-216 316.9911,-216 316.9911,-252"/>
<text text-anchor="middle" x="251" y="-229.8" font-family="Times,serif" font-size="14.00" fill="#000000">LoadingComponent </text>
</g>
<!-- LoadingModule&#45;&gt;LoadingComponent  -->
<g id="edge2" class="edge">
<title>LoadingModule&#45;&gt;LoadingComponent </title>
<path fill="none" stroke="#000000" stroke-dasharray="5,2" d="M251,-187.1061C251,-187.1061 251,-205.991 251,-205.991"/>
<polygon fill="#000000" stroke="#000000" points="247.5001,-205.9909 251,-215.991 254.5001,-205.991 247.5001,-205.9909"/>
</g>
<!-- LoadingService -->
<g id="node4" class="node">
<title>LoadingService</title>
<ellipse fill="#fdb462" stroke="#000000" cx="172" cy="-104" rx="72.3516" ry="18"/>
<text text-anchor="middle" x="172" y="-99.8" font-family="Times,serif" font-size="14.00" fill="#000000">LoadingService</text>
</g>
<!-- LoadingService&#45;&gt;LoadingModule -->
<g id="edge3" class="edge">
<title>LoadingService&#45;&gt;LoadingModule</title>
<path fill="none" stroke="#000000" d="M221.0359,-117.468C221.0359,-117.468 221.0359,-140.8642 221.0359,-140.8642"/>
<polygon fill="#000000" stroke="#000000" points="217.536,-140.8641 221.0359,-150.8642 224.536,-140.8642 217.536,-140.8641"/>
</g>
</g>
</svg>
