<svg id="Capa_1" data-name="Capa 1" xmlns="http://www.w3.org/2000/svg" viewBox="0 0 512 512"><defs><style>.cls-1{fill:#f47027;}.cls-2{fill:#f4f4f4;}.cls-3{fill:#333;}.cls-4{fill:#4367bf;}.cls-5{fill:#4b74c6;}.cls-6{fill:#3b9dff;}.cls-7{fill:#45abff;}.cls-8{fill:#568ce2;}.cls-9{fill:#5b94d8;}.cls-10{fill:none;stroke:#3b9dff;stroke-miterlimit:10;stroke-width:6px;}.cls-11{fill:#fff;}</style></defs><title>ngx-canaima</title><g id="Capa_4" data-name="Capa 4"><path class="cls-1" d="M258.8,3.48l-1.7-.58L25,84.69,19,86.8l6,49.85L40.7,267.1,56.5,398.8,257.3,509.1l1.5-.83L459.1,397.2l12.7-105.5L496.7,85.2ZM466.9,242.4,448.4,389.6,258.8,494.47l-2.4,1.33L67.4,391,47.5,217.8l-14-122L256.8,16.3l2,.68L485.6,94.4Z"/><polygon class="cls-2" points="485.6 94.4 466.9 242.4 448.4 389.6 258.8 494.47 256.4 495.8 67.4 391 47.5 217.8 33.5 95.8 256.8 16.3 258.8 16.98 485.6 94.4"/></g><g id="Capa_1-2" data-name="Capa 1"><g id="Capa_3" data-name="Capa 3"><path class="cls-3" d="M444.7,366.9c-.5-4.3-1.2-10.6-2.2-18.7-1.6-13.7-4-32.6-7-56.4-5.1-40.5-10.4-81.4-10.4-81.8l-.5-4.3-14.7,1.8-14.8-72.9-23-5.5-12.4-17L345,121.2l-30.3-6.1-28.4-1.7-11.6,20.5-68.8,1.2-47.3-12.7L139.7,140l-2.2,67-27.7,22.3-.3,1.5C88.2,331.1,84.2,350.5,83.4,354.6h0l-7,24.3h5.7c119.6-.1,345.3-.3,358,0l1.7.6,1.8-1.5C445.7,376.3,445.6,375.5,444.7,366.9Zm-109.3,3.3c-52.4,0-130.7.1-247.5.2l4-13.9v-.3c1-5.8,18.6-88.3,25.8-122.1l28.4-22.9,2.2-67.3L161,132l43.8,11.8,75-1.3,11.4-20.1,22.2,1.3,33.3,6.7,10.8-6.7,9.6,13.1,20.8,4.9,15.3,75.4,14.1-1.8c7.3,56.4,17.3,135.9,19.2,155C426.9,370.2,402.1,370.2,335.4,370.2Z"/><path class="cls-4" d="M436.4,370.3c-9.4-.1-34.3-.2-101-.2-51.4,0-127.6.1-240.7.2l2.5-8.8v-.3c1-5.8,18.6-88.3,25.8-122.1l28.4-22.9,2.2-67.3L166.4,137l43.8,11.8,75-1.3,11.4-20.1,22.2,1.3,33.3,6.7,9.7-6,5.3,7.3,1.9.5,18.9,4.5.8,4.1,14.5,71.3,4.2-.5,9.9-1.2c.2,1.9.5,3.8.7,5.7C425.1,276.9,434.5,351.8,436.4,370.3Z"/><path class="cls-5" d="M361.6,129.4l-9.7,6-33.3-6.7-22.2-1.3L285,147.5l-75,1.3L166.2,137l-12.7,12-2.2,67.3L123,239.2C115.8,273,98.2,355.4,97.2,361.3v.3l-2.5,8.8H87.9l4-13.9v-.3c1-5.8,18.6-88.3,25.8-122.1l28.4-22.9,2.2-67.3L161.1,132l43.8,11.8,75-1.3,11.4-20.1,22.2,1.3,33.3,6.7,10.8-6.7Z"/></g><path class="cls-6" d="M277.2,146.7V382.3H202.4V185.4A38.71,38.71,0,0,1,241,146.7Z"/><path class="cls-7" d="M277.2,138.1v8.6H241a38.64,38.64,0,0,0-38.6,38.7V382.3H191V176.8a38.73,38.73,0,0,1,38.7-38.7Z"/><path class="cls-3" d="M281.5,386.6H186.7V176.8a43.06,43.06,0,0,1,43-43h51.9V386.6ZM195.3,378h77.6V142.4H229.7a34.36,34.36,0,0,0-34.3,34.3V378Z"/><path class="cls-3" d="M209.8,222.4h0v45.8h0v25.5a4.6,4.6,0,0,1-9.2,0V268.2h0V222.5h0V197a4.6,4.6,0,0,1,9.2,0v25A.3.3,0,0,1,209.8,222.4Z"/><path class="cls-3" d="M226.1,267.7v37.1a4.6,4.6,0,1,1-9.2,0V267.7a4.6,4.6,0,1,1,9.2,0Z"/><path class="cls-3" d="M250,230.5v66.7a4.6,4.6,0,1,1-9.2,0V230.5a4.59,4.59,0,0,1,4.6-4.6A4.65,4.65,0,0,1,250,230.5Z"/><path class="cls-3" d="M267.5,277v19.7a4.6,4.6,0,0,1-9.2,0v-29a4.6,4.6,0,1,1,9.2,0Z"/><circle class="cls-3" cx="262.9" cy="251.4" r="4.6"/><path class="cls-4" d="M373.6,374.5l-35-164.2h-42l-5.4,53.6-28.3,18.3s-13.2,81.1-12.9,83.3l-4.6,9Zm-119.3-9.3c.4-4.8,7.5-49.7,12.5-80.4l28.4-18.4,5.2-51.8H335l33.2,155.6H252.5l2-3.9Z"/><path class="cls-3" d="M342.1,206H292.7l-5.6,55.4-28.2,18.2-.3,1.9c-10.1,62.3-12.4,78.3-12.8,82.7l-7.4,14.6H379Zm-7,8.6,33.2,155.6H252.5l2-3.9-.1-1c.4-4.8,7.5-49.7,12.5-80.4l28.4-18.4,5.2-51.8h34.6Z"/><path class="cls-8" d="M368.3,370.2H261.5c1-8.3,7.7-50.3,12.4-79.4l28.4-18.4,5.2-51.8h28.9Z"/><path class="cls-9" d="M336.4,220.6H307.5l-5.2,51.8-28.4,18.4c-4.7,29.1-11.4,71-12.4,79.4h-9l2-3.9-.1-1c.4-4.8,7.5-49.7,12.5-80.5l28.4-18.4,5.2-51.8h34.6Z"/><path class="cls-8" d="M206,93.3a3.63,3.63,0,0,1-1.2,2.8,4,4,0,0,1-2.8,1.2h-7v7a4,4,0,1,1-8,0v-7h-7a4,4,0,0,1,0-8h7v-7a4,4,0,0,1,8,0v7h7A4,4,0,0,1,206,93.3Z"/><circle class="cls-10" cx="310.4" cy="72.3" r="13.6"/><path class="cls-11" d="M332.1,335.8a33.66,33.66,0,0,1,26.5,32.8,33,33,0,0,1-2.9,13.7H129.3a33,33,0,0,1-2.9-13.7,33.49,33.49,0,0,1,55.9-25,24.78,24.78,0,0,1,44.7,5.7,24.34,24.34,0,0,1,10.4-2.3,24.62,24.62,0,0,1,15.9,5.8,33.2,33.2,0,0,1,55.4-13.6,32.84,32.84,0,0,1,16.2-4.2A33.8,33.8,0,0,1,332.1,335.8Z"/><path class="cls-11" d="M331.4,340.1c14.3,3.3,25.1,16.7,25.1,32.8a34.58,34.58,0,0,1-2.8,13.7H139.2a34.58,34.58,0,0,1-2.8-13.7,34,34,0,0,1,18-30.3,30.46,30.46,0,0,1,35,5.3,23.33,23.33,0,0,1,20-11.7c10.6,0,19.5,7.3,22.5,17.4a22.17,22.17,0,0,1,9.9-2.3,22.71,22.71,0,0,1,15.1,5.8c3.8-13.6,15.8-23.5,30-23.5a30.54,30.54,0,0,1,22.4,9.9,29.76,29.76,0,0,1,22.1-3.4Z"/><path class="cls-3" d="M358.2,386.3H126.7l-1.1-2.3a36.74,36.74,0,0,1-3.3-15.4,37.87,37.87,0,0,1,21.3-33.9,36.71,36.71,0,0,1,16.3-3.7,37.56,37.56,0,0,1,21.7,6.9,28.83,28.83,0,0,1,47.8,6.3,28.05,28.05,0,0,1,8.2-1.2,29.75,29.75,0,0,1,14,3.6,37.19,37.19,0,0,1,58-12.2,38,38,0,0,1,15.5-3.4,35.68,35.68,0,0,1,8,.9,37.76,37.76,0,0,1,29.6,36.7,37.07,37.07,0,0,1-3.3,15.4Zm-226.2-8H352.9a29,29,0,0,0,1.6-9.7,29.73,29.73,0,0,0-23.3-28.9h0a31.83,31.83,0,0,0-6.2-.7,29.86,29.86,0,0,0-14.3,3.7l-2.7,1.5-2.1-2.2a29.11,29.11,0,0,0-48.6,11.9l-1.7,5.8-4.7-3.9a21,21,0,0,0-13.4-4.9,20.16,20.16,0,0,0-8.7,2l-4.2,1.9-1.4-4.4a20.73,20.73,0,0,0-19.9-14.6,21,21,0,0,0-17.7,9.8l-2.5,4-3.5-3.2a29.45,29.45,0,0,0-49.2,22A26.74,26.74,0,0,0,132,378.3Z"/></g></svg>