<?xml version="1.0" encoding="UTF-8" standalone="no"?>
<!DOCTYPE svg PUBLIC "-//W3C//DTD SVG 1.1//EN"
 "http://www.w3.org/Graphics/SVG/1.1/DTD/svg11.dtd">
<!-- Generated by graphviz version 2.40.1 (20161225.0304)
 -->
<!-- Title: dependencies Pages: 1 -->
<svg width="504pt" height="284pt"
 viewBox="0.00 0.00 504.00 284.00" xmlns="http://www.w3.org/2000/svg" xmlns:xlink="http://www.w3.org/1999/xlink">
<g id="graph0" class="graph" transform="scale(1 1) rotate(0) translate(4 280)">
<title>dependencies</title>
<polygon fill="#ffffff" stroke="transparent" points="-4,4 -4,-280 500,-280 500,4 -4,4"/>
<text text-anchor="start" x="227.0091" y="-42.4" font-family="sans-serif" font-weight="bold" font-size="14.00" fill="#000000">Legend</text>
<polygon fill="#ffffb3" stroke="transparent" points="14,-10 14,-30 34,-30 34,-10 14,-10"/>
<text text-anchor="start" x="37.629" y="-15.4" font-family="sans-serif" font-size="14.00" fill="#000000"> &#160;Declarations</text>
<polygon fill="#8dd3c7" stroke="transparent" points="127,-10 127,-30 147,-30 147,-10 127,-10"/>
<text text-anchor="start" x="150.7251" y="-15.4" font-family="sans-serif" font-size="14.00" fill="#000000"> &#160;Module</text>
<polygon fill="#80b1d3" stroke="transparent" points="213,-10 213,-30 233,-30 233,-10 213,-10"/>
<text text-anchor="start" x="236.7812" y="-15.4" font-family="sans-serif" font-size="14.00" fill="#000000"> &#160;Bootstrap</text>
<polygon fill="#fdb462" stroke="transparent" points="310,-10 310,-30 330,-30 330,-10 310,-10"/>
<text text-anchor="start" x="333.6732" y="-15.4" font-family="sans-serif" font-size="14.00" fill="#000000"> &#160;Providers</text>
<polygon fill="#fb8072" stroke="transparent" points="406,-10 406,-30 426,-30 426,-10 406,-10"/>
<text text-anchor="start" x="429.7258" y="-15.4" font-family="sans-serif" font-size="14.00" fill="#000000"> &#160;Exports</text>
<g id="clust1" class="cluster">
<title>cluster_PreviewModule</title>
<polygon fill="none" stroke="#000000" stroke-dasharray="1,5" points="62.5,-70 62.5,-268 433.5,-268 433.5,-70 62.5,-70"/>
</g>
<g id="clust2" class="cluster">
<title>cluster_PreviewModule_declarations</title>
<polygon fill="none" stroke="#000000" points="74.5,-78 74.5,-130 422.5,-130 422.5,-78 74.5,-78"/>
</g>
<g id="clust6" class="cluster">
<title>cluster_PreviewModule_exports</title>
<polygon fill="none" stroke="#000000" points="70.5,-208 70.5,-260 425.5,-260 425.5,-208 70.5,-208"/>
</g>
<!-- BgImagePreviewDirective -->
<g id="node1" class="node">
<title>BgImagePreviewDirective</title>
<polygon fill="#ffffb3" stroke="#000000" points="414.2696,-122 248.7304,-122 248.7304,-86 414.2696,-86 414.2696,-122"/>
<text text-anchor="middle" x="331.5" y="-99.8" font-family="Times,serif" font-size="14.00" fill="#000000">BgImagePreviewDirective</text>
</g>
<!-- PreviewModule -->
<g id="node3" class="node">
<title>PreviewModule</title>
<polygon fill="#8dd3c7" stroke="#000000" points="210.4202,-187 207.4202,-191 186.4202,-191 183.4202,-187 104.5798,-187 104.5798,-151 210.4202,-151 210.4202,-187"/>
<text text-anchor="middle" x="157.5" y="-164.8" font-family="Times,serif" font-size="14.00" fill="#000000">PreviewModule</text>
</g>
<!-- BgImagePreviewDirective&#45;&gt;PreviewModule -->
<g id="edge1" class="edge">
<title>BgImagePreviewDirective&#45;&gt;PreviewModule</title>
<path fill="none" stroke="#000000" d="M359.1282,-122.0225C359.1282,-139.3734 359.1282,-163 359.1282,-163 359.1282,-163 220.2121,-163 220.2121,-163"/>
<polygon fill="#000000" stroke="#000000" points="220.2121,-159.5001 210.2121,-163 220.212,-166.5001 220.2121,-159.5001"/>
</g>
<!-- ImagePreviewDirective -->
<g id="node2" class="node">
<title>ImagePreviewDirective</title>
<polygon fill="#ffffb3" stroke="#000000" points="230.9328,-122 82.0672,-122 82.0672,-86 230.9328,-86 230.9328,-122"/>
<text text-anchor="middle" x="156.5" y="-99.8" font-family="Times,serif" font-size="14.00" fill="#000000">ImagePreviewDirective</text>
</g>
<!-- ImagePreviewDirective&#45;&gt;PreviewModule -->
<g id="edge2" class="edge">
<title>ImagePreviewDirective&#45;&gt;PreviewModule</title>
<path fill="none" stroke="#000000" d="M157.5,-122.1061C157.5,-122.1061 157.5,-140.991 157.5,-140.991"/>
<polygon fill="#000000" stroke="#000000" points="154.0001,-140.9909 157.5,-150.991 161.0001,-140.991 154.0001,-140.9909"/>
</g>
<!-- BgImagePreviewDirective  -->
<g id="node4" class="node">
<title>BgImagePreviewDirective </title>
<polygon fill="#fb8072" stroke="#000000" points="417.7696,-252 249.2304,-252 249.2304,-216 417.7696,-216 417.7696,-252"/>
<text text-anchor="middle" x="333.5" y="-229.8" font-family="Times,serif" font-size="14.00" fill="#000000">BgImagePreviewDirective </text>
</g>
<!-- PreviewModule&#45;&gt;BgImagePreviewDirective  -->
<g id="edge3" class="edge">
<title>PreviewModule&#45;&gt;BgImagePreviewDirective </title>
<path fill="none" stroke="#000000" stroke-dasharray="5,2" d="M210.4338,-175C252.4319,-175 304.1218,-175 304.1218,-175 304.1218,-175 304.1218,-205.9775 304.1218,-205.9775"/>
<polygon fill="#000000" stroke="#000000" points="300.6219,-205.9774 304.1218,-215.9775 307.6219,-205.9775 300.6219,-205.9774"/>
</g>
<!-- ImagePreviewDirective  -->
<g id="node5" class="node">
<title>ImagePreviewDirective </title>
<polygon fill="#fb8072" stroke="#000000" points="230.9334,-252 78.0666,-252 78.0666,-216 230.9334,-216 230.9334,-252"/>
<text text-anchor="middle" x="154.5" y="-229.8" font-family="Times,serif" font-size="14.00" fill="#000000">ImagePreviewDirective </text>
</g>
<!-- PreviewModule&#45;&gt;ImagePreviewDirective  -->
<g id="edge4" class="edge">
<title>PreviewModule&#45;&gt;ImagePreviewDirective </title>
<path fill="none" stroke="#000000" stroke-dasharray="5,2" d="M157.5,-187.1061C157.5,-187.1061 157.5,-205.991 157.5,-205.991"/>
<polygon fill="#000000" stroke="#000000" points="154.0001,-205.9909 157.5,-215.991 161.0001,-205.991 154.0001,-205.9909"/>
</g>
</g>
</svg>
