<?xml version="1.0" encoding="UTF-8" standalone="no"?>
<!DOCTYPE svg PUBLIC "-//W3C//DTD SVG 1.1//EN"
 "http://www.w3.org/Graphics/SVG/1.1/DTD/svg11.dtd">
<!-- Generated by graphviz version 2.40.1 (20161225.0304)
 -->
<!-- Title: dependencies Pages: 1 -->
<svg width="550pt" height="284pt"
 viewBox="0.00 0.00 550.00 284.00" xmlns="http://www.w3.org/2000/svg" xmlns:xlink="http://www.w3.org/1999/xlink">
<g id="graph0" class="graph" transform="scale(1 1) rotate(0) translate(4 280)">
<title>dependencies</title>
<polygon fill="#ffffff" stroke="transparent" points="-4,4 -4,-280 546,-280 546,4 -4,4"/>
<text text-anchor="start" x="250.0091" y="-42.4" font-family="sans-serif" font-weight="bold" font-size="14.00" fill="#000000">Legend</text>
<polygon fill="#ffffb3" stroke="transparent" points="37,-10 37,-30 57,-30 57,-10 37,-10"/>
<text text-anchor="start" x="60.629" y="-15.4" font-family="sans-serif" font-size="14.00" fill="#000000"> &#160;Declarations</text>
<polygon fill="#8dd3c7" stroke="transparent" points="150,-10 150,-30 170,-30 170,-10 150,-10"/>
<text text-anchor="start" x="173.7251" y="-15.4" font-family="sans-serif" font-size="14.00" fill="#000000"> &#160;Module</text>
<polygon fill="#80b1d3" stroke="transparent" points="236,-10 236,-30 256,-30 256,-10 236,-10"/>
<text text-anchor="start" x="259.7812" y="-15.4" font-family="sans-serif" font-size="14.00" fill="#000000"> &#160;Bootstrap</text>
<polygon fill="#fdb462" stroke="transparent" points="333,-10 333,-30 353,-30 353,-10 333,-10"/>
<text text-anchor="start" x="356.6732" y="-15.4" font-family="sans-serif" font-size="14.00" fill="#000000"> &#160;Providers</text>
<polygon fill="#fb8072" stroke="transparent" points="429,-10 429,-30 449,-30 449,-10 429,-10"/>
<text text-anchor="start" x="452.7258" y="-15.4" font-family="sans-serif" font-size="14.00" fill="#000000"> &#160;Exports</text>
<g id="clust1" class="cluster">
<title>cluster_PreviewModule</title>
<polygon fill="none" stroke="#000000" stroke-dasharray="1,5" points="8,-70 8,-268 534,-268 534,-70 8,-70"/>
</g>
<g id="clust2" class="cluster">
<title>cluster_PreviewModule_declarations</title>
<polygon fill="none" stroke="#000000" points="21,-78 21,-130 521,-130 521,-78 21,-78"/>
</g>
<g id="clust7" class="cluster">
<title>cluster_PreviewModule_exports</title>
<polygon fill="none" stroke="#000000" points="16,-208 16,-260 526,-260 526,-208 16,-208"/>
</g>
<!-- BgImagePreviewDirective -->
<g id="node1" class="node">
<title>BgImagePreviewDirective</title>
<polygon fill="#ffffb3" stroke="#000000" points="512.7696,-122 347.2304,-122 347.2304,-86 512.7696,-86 512.7696,-122"/>
<text text-anchor="middle" x="430" y="-99.8" font-family="Times,serif" font-size="14.00" fill="#000000">BgImagePreviewDirective</text>
</g>
<!-- PreviewModule -->
<g id="node4" class="node">
<title>PreviewModule</title>
<polygon fill="#8dd3c7" stroke="#000000" points="307.9202,-187 304.9202,-191 283.9202,-191 280.9202,-187 202.0798,-187 202.0798,-151 307.9202,-151 307.9202,-187"/>
<text text-anchor="middle" x="255" y="-164.8" font-family="Times,serif" font-size="14.00" fill="#000000">PreviewModule</text>
</g>
<!-- BgImagePreviewDirective&#45;&gt;PreviewModule -->
<g id="edge1" class="edge">
<title>BgImagePreviewDirective&#45;&gt;PreviewModule</title>
<path fill="none" stroke="#000000" d="M458.2949,-122.0225C458.2949,-139.3734 458.2949,-163 458.2949,-163 458.2949,-163 317.8826,-163 317.8826,-163"/>
<polygon fill="#000000" stroke="#000000" points="317.8827,-159.5001 307.8826,-163 317.8826,-166.5001 317.8827,-159.5001"/>
</g>
<!-- ImagePreviewDirective -->
<g id="node2" class="node">
<title>ImagePreviewDirective</title>
<polygon fill="#ffffb3" stroke="#000000" points="329.4328,-122 180.5672,-122 180.5672,-86 329.4328,-86 329.4328,-122"/>
<text text-anchor="middle" x="255" y="-99.8" font-family="Times,serif" font-size="14.00" fill="#000000">ImagePreviewDirective</text>
</g>
<!-- ImagePreviewDirective&#45;&gt;PreviewModule -->
<g id="edge2" class="edge">
<title>ImagePreviewDirective&#45;&gt;PreviewModule</title>
<path fill="none" stroke="#000000" d="M255,-122.1061C255,-122.1061 255,-140.991 255,-140.991"/>
<polygon fill="#000000" stroke="#000000" points="251.5001,-140.9909 255,-150.991 258.5001,-140.991 251.5001,-140.9909"/>
</g>
<!-- PdfPreviewDirective -->
<g id="node3" class="node">
<title>PdfPreviewDirective</title>
<polygon fill="#ffffb3" stroke="#000000" points="162.8962,-122 29.1038,-122 29.1038,-86 162.8962,-86 162.8962,-122"/>
<text text-anchor="middle" x="96" y="-99.8" font-family="Times,serif" font-size="14.00" fill="#000000">PdfPreviewDirective</text>
</g>
<!-- PdfPreviewDirective&#45;&gt;PreviewModule -->
<g id="edge3" class="edge">
<title>PdfPreviewDirective&#45;&gt;PreviewModule</title>
<path fill="none" stroke="#000000" d="M116.7326,-122.0225C116.7326,-139.3734 116.7326,-163 116.7326,-163 116.7326,-163 191.9376,-163 191.9376,-163"/>
<polygon fill="#000000" stroke="#000000" points="191.9377,-166.5001 201.9376,-163 191.9376,-159.5001 191.9377,-166.5001"/>
</g>
<!-- BgImagePreviewDirective  -->
<g id="node5" class="node">
<title>BgImagePreviewDirective </title>
<polygon fill="#fb8072" stroke="#000000" points="518.2696,-252 349.7304,-252 349.7304,-216 518.2696,-216 518.2696,-252"/>
<text text-anchor="middle" x="434" y="-229.8" font-family="Times,serif" font-size="14.00" fill="#000000">BgImagePreviewDirective </text>
</g>
<!-- PreviewModule&#45;&gt;BgImagePreviewDirective  -->
<g id="edge4" class="edge">
<title>PreviewModule&#45;&gt;BgImagePreviewDirective </title>
<path fill="none" stroke="#000000" stroke-dasharray="5,2" d="M307.9354,-175C350.7494,-175 403.9551,-175 403.9551,-175 403.9551,-175 403.9551,-205.9775 403.9551,-205.9775"/>
<polygon fill="#000000" stroke="#000000" points="400.4552,-205.9774 403.9551,-215.9775 407.4552,-205.9775 400.4552,-205.9774"/>
</g>
<!-- ImagePreviewDirective  -->
<g id="node6" class="node">
<title>ImagePreviewDirective </title>
<polygon fill="#fb8072" stroke="#000000" points="331.4334,-252 178.5666,-252 178.5666,-216 331.4334,-216 331.4334,-252"/>
<text text-anchor="middle" x="255" y="-229.8" font-family="Times,serif" font-size="14.00" fill="#000000">ImagePreviewDirective </text>
</g>
<!-- PreviewModule&#45;&gt;ImagePreviewDirective  -->
<g id="edge5" class="edge">
<title>PreviewModule&#45;&gt;ImagePreviewDirective </title>
<path fill="none" stroke="#000000" stroke-dasharray="5,2" d="M255,-187.1061C255,-187.1061 255,-205.991 255,-205.991"/>
<polygon fill="#000000" stroke="#000000" points="251.5001,-205.9909 255,-215.991 258.5001,-205.991 251.5001,-205.9909"/>
</g>
<!-- PdfPreviewDirective  -->
<g id="node7" class="node">
<title>PdfPreviewDirective </title>
<polygon fill="#fb8072" stroke="#000000" points="160.3956,-252 23.6044,-252 23.6044,-216 160.3956,-216 160.3956,-252"/>
<text text-anchor="middle" x="92" y="-229.8" font-family="Times,serif" font-size="14.00" fill="#000000">PdfPreviewDirective </text>
</g>
<!-- PreviewModule&#45;&gt;PdfPreviewDirective  -->
<g id="edge6" class="edge">
<title>PreviewModule&#45;&gt;PdfPreviewDirective </title>
<path fill="none" stroke="#000000" stroke-dasharray="5,2" d="M201.8739,-175C148.1592,-175 73.0174,-175 73.0174,-175 73.0174,-175 73.0174,-205.9775 73.0174,-205.9775"/>
<polygon fill="#000000" stroke="#000000" points="69.5175,-205.9774 73.0174,-215.9775 76.5175,-205.9775 69.5175,-205.9774"/>
</g>
</g>
</svg>
