<?xml version="1.0" encoding="UTF-8" standalone="no"?>
<!DOCTYPE svg PUBLIC "-//W3C//DTD SVG 1.1//EN"
 "http://www.w3.org/Graphics/SVG/1.1/DTD/svg11.dtd">
<!-- Generated by graphviz version 2.40.1 (20161225.0304)
 -->
<!-- Title: dependencies Pages: 1 -->
<svg width="804pt" height="284pt"
 viewBox="0.00 0.00 804.00 284.00" xmlns="http://www.w3.org/2000/svg" xmlns:xlink="http://www.w3.org/1999/xlink">
<g id="graph0" class="graph" transform="scale(1 1) rotate(0) translate(4 280)">
<title>dependencies</title>
<polygon fill="#ffffff" stroke="transparent" points="-4,4 -4,-280 800,-280 800,4 -4,4"/>
<text text-anchor="start" x="377.0091" y="-42.4" font-family="sans-serif" font-weight="bold" font-size="14.00" fill="#000000">Legend</text>
<polygon fill="#ffffb3" stroke="transparent" points="164,-10 164,-30 184,-30 184,-10 164,-10"/>
<text text-anchor="start" x="187.629" y="-15.4" font-family="sans-serif" font-size="14.00" fill="#000000"> &#160;Declarations</text>
<polygon fill="#8dd3c7" stroke="transparent" points="277,-10 277,-30 297,-30 297,-10 277,-10"/>
<text text-anchor="start" x="300.7251" y="-15.4" font-family="sans-serif" font-size="14.00" fill="#000000"> &#160;Module</text>
<polygon fill="#80b1d3" stroke="transparent" points="363,-10 363,-30 383,-30 383,-10 363,-10"/>
<text text-anchor="start" x="386.7812" y="-15.4" font-family="sans-serif" font-size="14.00" fill="#000000"> &#160;Bootstrap</text>
<polygon fill="#fdb462" stroke="transparent" points="460,-10 460,-30 480,-30 480,-10 460,-10"/>
<text text-anchor="start" x="483.6732" y="-15.4" font-family="sans-serif" font-size="14.00" fill="#000000"> &#160;Providers</text>
<polygon fill="#fb8072" stroke="transparent" points="556,-10 556,-30 576,-30 576,-10 556,-10"/>
<text text-anchor="start" x="579.7258" y="-15.4" font-family="sans-serif" font-size="14.00" fill="#000000"> &#160;Exports</text>
<g id="clust1" class="cluster">
<title>cluster_CardsModule</title>
<polygon fill="none" stroke="#000000" stroke-dasharray="1,5" points="8,-70 8,-268 788,-268 788,-70 8,-70"/>
</g>
<g id="clust2" class="cluster">
<title>cluster_CardsModule_declarations</title>
<polygon fill="none" stroke="#000000" points="24,-78 24,-130 770,-130 770,-78 24,-78"/>
</g>
<g id="clust9" class="cluster">
<title>cluster_CardsModule_exports</title>
<polygon fill="none" stroke="#000000" points="16,-208 16,-260 780,-260 780,-208 16,-208"/>
</g>
<!-- CardComponent -->
<g id="node1" class="node">
<title>CardComponent</title>
<polygon fill="#ffffb3" stroke="#000000" points="762.0452,-122 653.9548,-122 653.9548,-86 762.0452,-86 762.0452,-122"/>
<text text-anchor="middle" x="708" y="-99.8" font-family="Times,serif" font-size="14.00" fill="#000000">CardComponent</text>
</g>
<!-- CardsModule -->
<g id="node6" class="node">
<title>CardsModule</title>
<polygon fill="#8dd3c7" stroke="#000000" points="458.2064,-187 455.2064,-191 434.2064,-191 431.2064,-187 365.7936,-187 365.7936,-151 458.2064,-151 458.2064,-187"/>
<text text-anchor="middle" x="412" y="-164.8" font-family="Times,serif" font-size="14.00" fill="#000000">CardsModule</text>
</g>
<!-- CardComponent&#45;&gt;CardsModule -->
<g id="edge1" class="edge">
<title>CardComponent&#45;&gt;CardsModule</title>
<path fill="none" stroke="#000000" d="M728.174,-122.2667C728.174,-140.5552 728.174,-166 728.174,-166 728.174,-166 468.313,-166 468.313,-166"/>
<polygon fill="#000000" stroke="#000000" points="468.3131,-162.5001 458.313,-166 468.313,-169.5001 468.3131,-162.5001"/>
</g>
<!-- CardImageComponent -->
<g id="node2" class="node">
<title>CardImageComponent</title>
<polygon fill="#ffffb3" stroke="#000000" points="635.5254,-122 492.4746,-122 492.4746,-86 635.5254,-86 635.5254,-122"/>
<text text-anchor="middle" x="564" y="-99.8" font-family="Times,serif" font-size="14.00" fill="#000000">CardImageComponent</text>
</g>
<!-- CardImageComponent&#45;&gt;CardsModule -->
<g id="edge2" class="edge">
<title>CardImageComponent&#45;&gt;CardsModule</title>
<path fill="none" stroke="#000000" d="M588.6708,-122.0091C588.6708,-138.0494 588.6708,-159 588.6708,-159 588.6708,-159 468.4182,-159 468.4182,-159"/>
<polygon fill="#000000" stroke="#000000" points="468.4182,-155.5001 458.4182,-159 468.4181,-162.5001 468.4182,-155.5001"/>
</g>
<!-- CardBgComponent -->
<g id="node3" class="node">
<title>CardBgComponent</title>
<polygon fill="#ffffb3" stroke="#000000" points="474.3809,-122 349.6191,-122 349.6191,-86 474.3809,-86 474.3809,-122"/>
<text text-anchor="middle" x="412" y="-99.8" font-family="Times,serif" font-size="14.00" fill="#000000">CardBgComponent</text>
</g>
<!-- CardBgComponent&#45;&gt;CardsModule -->
<g id="edge3" class="edge">
<title>CardBgComponent&#45;&gt;CardsModule</title>
<path fill="none" stroke="#000000" d="M412,-122.1061C412,-122.1061 412,-140.991 412,-140.991"/>
<polygon fill="#000000" stroke="#000000" points="408.5001,-140.9909 412,-150.991 415.5001,-140.991 408.5001,-140.9909"/>
</g>
<!-- CardDataComponent -->
<g id="node4" class="node">
<title>CardDataComponent</title>
<polygon fill="#ffffb3" stroke="#000000" points="331.4706,-122 196.5294,-122 196.5294,-86 331.4706,-86 331.4706,-122"/>
<text text-anchor="middle" x="264" y="-99.8" font-family="Times,serif" font-size="14.00" fill="#000000">CardDataComponent</text>
</g>
<!-- CardDataComponent&#45;&gt;CardsModule -->
<g id="edge4" class="edge">
<title>CardDataComponent&#45;&gt;CardsModule</title>
<path fill="none" stroke="#000000" d="M285.6618,-122.0091C285.6618,-138.0494 285.6618,-159 285.6618,-159 285.6618,-159 355.6737,-159 355.6737,-159"/>
<polygon fill="#000000" stroke="#000000" points="355.6737,-162.5001 365.6737,-159 355.6737,-155.5001 355.6737,-162.5001"/>
</g>
<!-- CardProfileComponent -->
<g id="node5" class="node">
<title>CardProfileComponent</title>
<polygon fill="#ffffb3" stroke="#000000" points="178.1442,-122 31.8558,-122 31.8558,-86 178.1442,-86 178.1442,-122"/>
<text text-anchor="middle" x="105" y="-99.8" font-family="Times,serif" font-size="14.00" fill="#000000">CardProfileComponent</text>
</g>
<!-- CardProfileComponent&#45;&gt;CardsModule -->
<g id="edge5" class="edge">
<title>CardProfileComponent&#45;&gt;CardsModule</title>
<path fill="none" stroke="#000000" d="M126.6073,-122.2667C126.6073,-140.5552 126.6073,-166 126.6073,-166 126.6073,-166 355.8295,-166 355.8295,-166"/>
<polygon fill="#000000" stroke="#000000" points="355.8296,-169.5001 365.8295,-166 355.8295,-162.5001 355.8296,-169.5001"/>
</g>
<!-- CardComponent  -->
<g id="node7" class="node">
<title>CardComponent </title>
<polygon fill="#fb8072" stroke="#000000" points="772.0442,-252 659.9558,-252 659.9558,-216 772.0442,-216 772.0442,-252"/>
<text text-anchor="middle" x="716" y="-229.8" font-family="Times,serif" font-size="14.00" fill="#000000">CardComponent </text>
</g>
<!-- CardsModule&#45;&gt;CardComponent  -->
<g id="edge6" class="edge">
<title>CardsModule&#45;&gt;CardComponent </title>
<path fill="none" stroke="#000000" stroke-dasharray="5,2" d="M458.2632,-173C538.2874,-173 694.076,-173 694.076,-173 694.076,-173 694.076,-205.698 694.076,-205.698"/>
<polygon fill="#000000" stroke="#000000" points="690.5761,-205.698 694.076,-215.698 697.5761,-205.698 690.5761,-205.698"/>
</g>
<!-- CardImageComponent  -->
<g id="node8" class="node">
<title>CardImageComponent </title>
<polygon fill="#fb8072" stroke="#000000" points="641.5246,-252 494.4754,-252 494.4754,-216 641.5246,-216 641.5246,-252"/>
<text text-anchor="middle" x="568" y="-229.8" font-family="Times,serif" font-size="14.00" fill="#000000">CardImageComponent </text>
</g>
<!-- CardsModule&#45;&gt;CardImageComponent  -->
<g id="edge7" class="edge">
<title>CardsModule&#45;&gt;CardImageComponent </title>
<path fill="none" stroke="#000000" stroke-dasharray="5,2" d="M458.4151,-180C495.5965,-180 541.5792,-180 541.5792,-180 541.5792,-180 541.5792,-205.7181 541.5792,-205.7181"/>
<polygon fill="#000000" stroke="#000000" points="538.0793,-205.718 541.5792,-215.7181 545.0793,-205.7181 538.0793,-205.718"/>
</g>
<!-- CardBgComponent  -->
<g id="node9" class="node">
<title>CardBgComponent </title>
<polygon fill="#fb8072" stroke="#000000" points="476.3814,-252 347.6186,-252 347.6186,-216 476.3814,-216 476.3814,-252"/>
<text text-anchor="middle" x="412" y="-229.8" font-family="Times,serif" font-size="14.00" fill="#000000">CardBgComponent </text>
</g>
<!-- CardsModule&#45;&gt;CardBgComponent  -->
<g id="edge8" class="edge">
<title>CardsModule&#45;&gt;CardBgComponent </title>
<path fill="none" stroke="#000000" stroke-dasharray="5,2" d="M412,-187.1061C412,-187.1061 412,-205.991 412,-205.991"/>
<polygon fill="#000000" stroke="#000000" points="408.5001,-205.9909 412,-215.991 415.5001,-205.991 408.5001,-205.9909"/>
</g>
<!-- CardDataComponent  -->
<g id="node10" class="node">
<title>CardDataComponent </title>
<polygon fill="#fb8072" stroke="#000000" points="330.4714,-252 191.5286,-252 191.5286,-216 330.4714,-216 330.4714,-252"/>
<text text-anchor="middle" x="261" y="-229.8" font-family="Times,serif" font-size="14.00" fill="#000000">CardDataComponent </text>
</g>
<!-- CardsModule&#45;&gt;CardDataComponent  -->
<g id="edge9" class="edge">
<title>CardsModule&#45;&gt;CardDataComponent </title>
<path fill="none" stroke="#000000" stroke-dasharray="5,2" d="M365.7488,-180C315.1326,-180 241.0882,-180 241.0882,-180 241.0882,-180 241.0882,-205.7181 241.0882,-205.7181"/>
<polygon fill="#000000" stroke="#000000" points="237.5883,-205.718 241.0882,-215.7181 244.5883,-205.7181 237.5883,-205.718"/>
</g>
<!-- CardProfileComponent  -->
<g id="node11" class="node">
<title>CardProfileComponent </title>
<polygon fill="#fb8072" stroke="#000000" points="174.1439,-252 23.8561,-252 23.8561,-216 174.1439,-216 174.1439,-252"/>
<text text-anchor="middle" x="99" y="-229.8" font-family="Times,serif" font-size="14.00" fill="#000000">CardProfileComponent </text>
</g>
<!-- CardsModule&#45;&gt;CardProfileComponent  -->
<g id="edge10" class="edge">
<title>CardsModule&#45;&gt;CardProfileComponent </title>
<path fill="none" stroke="#000000" stroke-dasharray="5,2" d="M365.7176,-173C274.2575,-173 79.1427,-173 79.1427,-173 79.1427,-173 79.1427,-205.698 79.1427,-205.698"/>
<polygon fill="#000000" stroke="#000000" points="75.6428,-205.698 79.1427,-215.698 82.6428,-205.698 75.6428,-205.698"/>
</g>
</g>
</svg>
