<?xml version="1.0" encoding="UTF-8" standalone="no"?>
<!DOCTYPE svg PUBLIC "-//W3C//DTD SVG 1.1//EN"
 "http://www.w3.org/Graphics/SVG/1.1/DTD/svg11.dtd">
<!-- Generated by graphviz version 2.40.1 (20161225.0304)
 -->
<!-- Title: dependencies Pages: 1 -->
<svg width="504pt" height="284pt"
 viewBox="0.00 0.00 504.00 284.00" xmlns="http://www.w3.org/2000/svg" xmlns:xlink="http://www.w3.org/1999/xlink">
<g id="graph0" class="graph" transform="scale(1 1) rotate(0) translate(4 280)">
<title>dependencies</title>
<polygon fill="#ffffff" stroke="transparent" points="-4,4 -4,-280 500,-280 500,4 -4,4"/>
<text text-anchor="start" x="227.0091" y="-42.4" font-family="sans-serif" font-weight="bold" font-size="14.00" fill="#000000">Legend</text>
<polygon fill="#ffffb3" stroke="transparent" points="14,-10 14,-30 34,-30 34,-10 14,-10"/>
<text text-anchor="start" x="37.629" y="-15.4" font-family="sans-serif" font-size="14.00" fill="#000000"> &#160;Declarations</text>
<polygon fill="#8dd3c7" stroke="transparent" points="127,-10 127,-30 147,-30 147,-10 127,-10"/>
<text text-anchor="start" x="150.7251" y="-15.4" font-family="sans-serif" font-size="14.00" fill="#000000"> &#160;Module</text>
<polygon fill="#80b1d3" stroke="transparent" points="213,-10 213,-30 233,-30 233,-10 213,-10"/>
<text text-anchor="start" x="236.7812" y="-15.4" font-family="sans-serif" font-size="14.00" fill="#000000"> &#160;Bootstrap</text>
<polygon fill="#fdb462" stroke="transparent" points="310,-10 310,-30 330,-30 330,-10 310,-10"/>
<text text-anchor="start" x="333.6732" y="-15.4" font-family="sans-serif" font-size="14.00" fill="#000000"> &#160;Providers</text>
<polygon fill="#fb8072" stroke="transparent" points="406,-10 406,-30 426,-30 426,-10 406,-10"/>
<text text-anchor="start" x="429.7258" y="-15.4" font-family="sans-serif" font-size="14.00" fill="#000000"> &#160;Exports</text>
<g id="clust1" class="cluster">
<title>cluster_GridListsModule</title>
<polygon fill="none" stroke="#000000" stroke-dasharray="1,5" points="78,-70 78,-268 418,-268 418,-70 78,-70"/>
</g>
<g id="clust2" class="cluster">
<title>cluster_GridListsModule_declarations</title>
<polygon fill="none" stroke="#000000" points="90,-78 90,-130 407,-130 407,-78 90,-78"/>
</g>
<g id="clust6" class="cluster">
<title>cluster_GridListsModule_exports</title>
<polygon fill="none" stroke="#000000" points="86,-208 86,-260 410,-260 410,-208 86,-208"/>
</g>
<!-- GridListComponent -->
<g id="node1" class="node">
<title>GridListComponent</title>
<polygon fill="#ffffb3" stroke="#000000" points="399.2688,-122 270.7312,-122 270.7312,-86 399.2688,-86 399.2688,-122"/>
<text text-anchor="middle" x="335" y="-99.8" font-family="Times,serif" font-size="14.00" fill="#000000">GridListComponent</text>
</g>
<!-- GridListsModule -->
<g id="node3" class="node">
<title>GridListsModule</title>
<polygon fill="#8dd3c7" stroke="#000000" points="232.4314,-187 229.4314,-191 208.4314,-191 205.4314,-187 119.5686,-187 119.5686,-151 232.4314,-151 232.4314,-187"/>
<text text-anchor="middle" x="176" y="-164.8" font-family="Times,serif" font-size="14.00" fill="#000000">GridListsModule</text>
</g>
<!-- GridListComponent&#45;&gt;GridListsModule -->
<g id="edge1" class="edge">
<title>GridListComponent&#45;&gt;GridListsModule</title>
<path fill="none" stroke="#000000" d="M356.4614,-122.0225C356.4614,-139.3734 356.4614,-163 356.4614,-163 356.4614,-163 242.604,-163 242.604,-163"/>
<polygon fill="#000000" stroke="#000000" points="242.604,-159.5001 232.604,-163 242.604,-166.5001 242.604,-159.5001"/>
</g>
<!-- GridListItemComponent -->
<g id="node2" class="node">
<title>GridListItemComponent</title>
<polygon fill="#ffffb3" stroke="#000000" points="252.4256,-122 97.5744,-122 97.5744,-86 252.4256,-86 252.4256,-122"/>
<text text-anchor="middle" x="175" y="-99.8" font-family="Times,serif" font-size="14.00" fill="#000000">GridListItemComponent</text>
</g>
<!-- GridListItemComponent&#45;&gt;GridListsModule -->
<g id="edge2" class="edge">
<title>GridListItemComponent&#45;&gt;GridListsModule</title>
<path fill="none" stroke="#000000" d="M176,-122.1061C176,-122.1061 176,-140.991 176,-140.991"/>
<polygon fill="#000000" stroke="#000000" points="172.5001,-140.9909 176,-150.991 179.5001,-140.991 172.5001,-140.9909"/>
</g>
<!-- GridListComponent  -->
<g id="node4" class="node">
<title>GridListComponent </title>
<polygon fill="#fb8072" stroke="#000000" points="402.2689,-252 269.7311,-252 269.7311,-216 402.2689,-216 402.2689,-252"/>
<text text-anchor="middle" x="336" y="-229.8" font-family="Times,serif" font-size="14.00" fill="#000000">GridListComponent </text>
</g>
<!-- GridListsModule&#45;&gt;GridListComponent  -->
<g id="edge3" class="edge">
<title>GridListsModule&#45;&gt;GridListComponent </title>
<path fill="none" stroke="#000000" stroke-dasharray="5,2" d="M232.339,-175C270.3222,-175 313.5386,-175 313.5386,-175 313.5386,-175 313.5386,-205.9775 313.5386,-205.9775"/>
<polygon fill="#000000" stroke="#000000" points="310.0387,-205.9774 313.5386,-215.9775 317.0387,-205.9775 310.0387,-205.9774"/>
</g>
<!-- GridListItemComponent  -->
<g id="node5" class="node">
<title>GridListItemComponent </title>
<polygon fill="#fb8072" stroke="#000000" points="251.925,-252 94.075,-252 94.075,-216 251.925,-216 251.925,-252"/>
<text text-anchor="middle" x="173" y="-229.8" font-family="Times,serif" font-size="14.00" fill="#000000">GridListItemComponent </text>
</g>
<!-- GridListsModule&#45;&gt;GridListItemComponent  -->
<g id="edge4" class="edge">
<title>GridListsModule&#45;&gt;GridListItemComponent </title>
<path fill="none" stroke="#000000" stroke-dasharray="5,2" d="M176,-187.1061C176,-187.1061 176,-205.991 176,-205.991"/>
<polygon fill="#000000" stroke="#000000" points="172.5001,-205.9909 176,-215.991 179.5001,-205.991 172.5001,-205.9909"/>
</g>
</g>
</svg>
