<?xml version="1.0" encoding="UTF-8" standalone="no"?>
<!DOCTYPE svg PUBLIC "-//W3C//DTD SVG 1.1//EN"
 "http://www.w3.org/Graphics/SVG/1.1/DTD/svg11.dtd">
<!-- Generated by graphviz version 2.40.1 (20161225.0304)
 -->
<!-- Title: dependencies Pages: 1 -->
<svg width="582pt" height="284pt"
 viewBox="0.00 0.00 582.00 284.00" xmlns="http://www.w3.org/2000/svg" xmlns:xlink="http://www.w3.org/1999/xlink">
<g id="graph0" class="graph" transform="scale(1 1) rotate(0) translate(4 280)">
<title>dependencies</title>
<polygon fill="#ffffff" stroke="transparent" points="-4,4 -4,-280 578,-280 578,4 -4,4"/>
<text text-anchor="start" x="266.0091" y="-42.4" font-family="sans-serif" font-weight="bold" font-size="14.00" fill="#000000">Legend</text>
<polygon fill="#ffffb3" stroke="transparent" points="53,-10 53,-30 73,-30 73,-10 53,-10"/>
<text text-anchor="start" x="76.629" y="-15.4" font-family="sans-serif" font-size="14.00" fill="#000000"> &#160;Declarations</text>
<polygon fill="#8dd3c7" stroke="transparent" points="166,-10 166,-30 186,-30 186,-10 166,-10"/>
<text text-anchor="start" x="189.7251" y="-15.4" font-family="sans-serif" font-size="14.00" fill="#000000"> &#160;Module</text>
<polygon fill="#80b1d3" stroke="transparent" points="252,-10 252,-30 272,-30 272,-10 252,-10"/>
<text text-anchor="start" x="275.7812" y="-15.4" font-family="sans-serif" font-size="14.00" fill="#000000"> &#160;Bootstrap</text>
<polygon fill="#fdb462" stroke="transparent" points="349,-10 349,-30 369,-30 369,-10 349,-10"/>
<text text-anchor="start" x="372.6732" y="-15.4" font-family="sans-serif" font-size="14.00" fill="#000000"> &#160;Providers</text>
<polygon fill="#fb8072" stroke="transparent" points="445,-10 445,-30 465,-30 465,-10 445,-10"/>
<text text-anchor="start" x="468.7258" y="-15.4" font-family="sans-serif" font-size="14.00" fill="#000000"> &#160;Exports</text>
<g id="clust1" class="cluster">
<title>cluster_MediaUploaderModule</title>
<polygon fill="none" stroke="#000000" stroke-dasharray="1,5" points="8,-70 8,-268 566,-268 566,-70 8,-70"/>
</g>
<g id="clust2" class="cluster">
<title>cluster_MediaUploaderModule_declarations</title>
<polygon fill="none" stroke="#000000" points="372,-78 372,-130 558,-130 558,-78 372,-78"/>
</g>
<g id="clust4" class="cluster">
<title>cluster_MediaUploaderModule_imports</title>
<polygon fill="none" stroke="#000000" points="242,-78 242,-130 364,-130 364,-78 242,-78"/>
</g>
<g id="clust5" class="cluster">
<title>cluster_MediaUploaderModule_exports</title>
<polygon fill="none" stroke="#000000" points="209,-208 209,-260 397,-260 397,-208 209,-208"/>
</g>
<g id="clust7" class="cluster">
<title>cluster_MediaUploaderModule_providers</title>
<polygon fill="none" stroke="#000000" points="16,-78 16,-130 234,-130 234,-78 16,-78"/>
</g>
<!-- MediaUploaderComponent -->
<g id="node1" class="node">
<title>MediaUploaderComponent</title>
<polygon fill="#ffffb3" stroke="#000000" points="549.6839,-122 380.3161,-122 380.3161,-86 549.6839,-86 549.6839,-122"/>
<text text-anchor="middle" x="465" y="-99.8" font-family="Times,serif" font-size="14.00" fill="#000000">MediaUploaderComponent</text>
</g>
<!-- MediaUploaderModule -->
<g id="node2" class="node">
<title>MediaUploaderModule</title>
<polygon fill="#8dd3c7" stroke="#000000" points="376.9017,-187 373.9017,-191 352.9017,-191 349.9017,-187 229.0983,-187 229.0983,-151 376.9017,-151 376.9017,-187"/>
<text text-anchor="middle" x="303" y="-164.8" font-family="Times,serif" font-size="14.00" fill="#000000">MediaUploaderModule</text>
</g>
<!-- MediaUploaderComponent&#45;&gt;MediaUploaderModule -->
<g id="edge1" class="edge">
<title>MediaUploaderComponent&#45;&gt;MediaUploaderModule</title>
<path fill="none" stroke="#000000" d="M384.875,-122.1061C384.875,-141.3391 384.875,-169 384.875,-169 384.875,-169 384.06,-169 384.06,-169"/>
<polygon fill="#000000" stroke="#000000" points="386.7252,-165.5001 376.7252,-169 386.7251,-172.5001 386.7252,-165.5001"/>
</g>
<!-- MediaUploaderComponent  -->
<g id="node4" class="node">
<title>MediaUploaderComponent </title>
<polygon fill="#fb8072" stroke="#000000" points="389.1841,-252 216.8159,-252 216.8159,-216 389.1841,-216 389.1841,-252"/>
<text text-anchor="middle" x="303" y="-229.8" font-family="Times,serif" font-size="14.00" fill="#000000">MediaUploaderComponent </text>
</g>
<!-- MediaUploaderModule&#45;&gt;MediaUploaderComponent  -->
<g id="edge3" class="edge">
<title>MediaUploaderModule&#45;&gt;MediaUploaderComponent </title>
<path fill="none" stroke="#000000" stroke-dasharray="5,2" d="M303,-187.1061C303,-187.1061 303,-205.991 303,-205.991"/>
<polygon fill="#000000" stroke="#000000" points="299.5001,-205.9909 303,-215.991 306.5001,-205.991 299.5001,-205.9909"/>
</g>
<!-- PreviewModule -->
<g id="node3" class="node">
<title>PreviewModule</title>
<polygon fill="#8dd3c7" stroke="#000000" points="355.9202,-122 352.9202,-126 331.9202,-126 328.9202,-122 250.0798,-122 250.0798,-86 355.9202,-86 355.9202,-122"/>
<text text-anchor="middle" x="303" y="-99.8" font-family="Times,serif" font-size="14.00" fill="#000000">PreviewModule</text>
</g>
<!-- PreviewModule&#45;&gt;MediaUploaderModule -->
<g id="edge2" class="edge">
<title>PreviewModule&#45;&gt;MediaUploaderModule</title>
<path fill="none" stroke="#000000" d="M303,-122.1061C303,-122.1061 303,-140.991 303,-140.991"/>
<polygon fill="#000000" stroke="#000000" points="299.5001,-140.9909 303,-150.991 306.5001,-140.991 299.5001,-140.9909"/>
</g>
<!-- MediaUploaderService -->
<g id="node5" class="node">
<title>MediaUploaderService</title>
<ellipse fill="#fdb462" stroke="#000000" cx="125" cy="-104" rx="100.6804" ry="18"/>
<text text-anchor="middle" x="125" y="-99.8" font-family="Times,serif" font-size="14.00" fill="#000000">MediaUploaderService</text>
</g>
<!-- MediaUploaderService&#45;&gt;MediaUploaderModule -->
<g id="edge4" class="edge">
<title>MediaUploaderService&#45;&gt;MediaUploaderModule</title>
<path fill="none" stroke="#000000" d="M221.1241,-109.5419C221.1241,-125.2607 221.1241,-169 221.1241,-169 221.1241,-169 221.9391,-169 221.9391,-169"/>
<polygon fill="#000000" stroke="#000000" points="219.2741,-172.5001 229.274,-169 219.274,-165.5001 219.2741,-172.5001"/>
</g>
</g>
</svg>
