<?xml version="1.0" encoding="UTF-8" standalone="no"?>
<!DOCTYPE svg PUBLIC "-//W3C//DTD SVG 1.1//EN"
 "http://www.w3.org/Graphics/SVG/1.1/DTD/svg11.dtd">
<!-- Generated by graphviz version 2.40.1 (20161225.0304)
 -->
<!-- Title: dependencies Pages: 1 -->
<svg width="558pt" height="284pt"
 viewBox="0.00 0.00 558.00 284.00" xmlns="http://www.w3.org/2000/svg" xmlns:xlink="http://www.w3.org/1999/xlink">
<g id="graph0" class="graph" transform="scale(1 1) rotate(0) translate(4 280)">
<title>dependencies</title>
<polygon fill="#ffffff" stroke="transparent" points="-4,4 -4,-280 554,-280 554,4 -4,4"/>
<text text-anchor="start" x="254.0091" y="-42.4" font-family="sans-serif" font-weight="bold" font-size="14.00" fill="#000000">Legend</text>
<polygon fill="#ffffb3" stroke="transparent" points="41,-10 41,-30 61,-30 61,-10 41,-10"/>
<text text-anchor="start" x="64.629" y="-15.4" font-family="sans-serif" font-size="14.00" fill="#000000"> &#160;Declarations</text>
<polygon fill="#8dd3c7" stroke="transparent" points="154,-10 154,-30 174,-30 174,-10 154,-10"/>
<text text-anchor="start" x="177.7251" y="-15.4" font-family="sans-serif" font-size="14.00" fill="#000000"> &#160;Module</text>
<polygon fill="#80b1d3" stroke="transparent" points="240,-10 240,-30 260,-30 260,-10 240,-10"/>
<text text-anchor="start" x="263.7812" y="-15.4" font-family="sans-serif" font-size="14.00" fill="#000000"> &#160;Bootstrap</text>
<polygon fill="#fdb462" stroke="transparent" points="337,-10 337,-30 357,-30 357,-10 337,-10"/>
<text text-anchor="start" x="360.6732" y="-15.4" font-family="sans-serif" font-size="14.00" fill="#000000"> &#160;Providers</text>
<polygon fill="#fb8072" stroke="transparent" points="433,-10 433,-30 453,-30 453,-10 433,-10"/>
<text text-anchor="start" x="456.7258" y="-15.4" font-family="sans-serif" font-size="14.00" fill="#000000"> &#160;Exports</text>
<g id="clust1" class="cluster">
<title>cluster_ToolbarModule</title>
<polygon fill="none" stroke="#000000" stroke-dasharray="1,5" points="8,-70 8,-268 542,-268 542,-70 8,-70"/>
</g>
<g id="clust2" class="cluster">
<title>cluster_ToolbarModule_declarations</title>
<polygon fill="none" stroke="#000000" points="226,-78 226,-130 534,-130 534,-78 226,-78"/>
</g>
<g id="clust6" class="cluster">
<title>cluster_ToolbarModule_exports</title>
<polygon fill="none" stroke="#000000" points="143,-208 143,-260 458,-260 458,-208 143,-208"/>
</g>
<g id="clust8" class="cluster">
<title>cluster_ToolbarModule_providers</title>
<polygon fill="none" stroke="#000000" points="16,-78 16,-130 218,-130 218,-78 16,-78"/>
</g>
<!-- BackButtonComponent -->
<g id="node1" class="node">
<title>BackButtonComponent</title>
<polygon fill="#ffffb3" stroke="#000000" points="526.2162,-122 377.7838,-122 377.7838,-86 526.2162,-86 526.2162,-122"/>
<text text-anchor="middle" x="452" y="-99.8" font-family="Times,serif" font-size="14.00" fill="#000000">BackButtonComponent</text>
</g>
<!-- ToolbarModule -->
<g id="node3" class="node">
<title>ToolbarModule</title>
<polygon fill="#8dd3c7" stroke="#000000" points="348.8683,-187 345.8683,-191 324.8683,-191 321.8683,-187 245.1317,-187 245.1317,-151 348.8683,-151 348.8683,-187"/>
<text text-anchor="middle" x="297" y="-164.8" font-family="Times,serif" font-size="14.00" fill="#000000">ToolbarModule</text>
</g>
<!-- BackButtonComponent&#45;&gt;ToolbarModule -->
<g id="edge1" class="edge">
<title>BackButtonComponent&#45;&gt;ToolbarModule</title>
<path fill="none" stroke="#000000" d="M413.875,-122.1061C413.875,-141.3391 413.875,-169 413.875,-169 413.875,-169 358.9437,-169 358.9437,-169"/>
<polygon fill="#000000" stroke="#000000" points="358.9437,-165.5001 348.9437,-169 358.9437,-172.5001 358.9437,-165.5001"/>
</g>
<!-- ToolbarComponent -->
<g id="node2" class="node">
<title>ToolbarComponent</title>
<polygon fill="#ffffb3" stroke="#000000" points="359.6513,-122 234.3487,-122 234.3487,-86 359.6513,-86 359.6513,-122"/>
<text text-anchor="middle" x="297" y="-99.8" font-family="Times,serif" font-size="14.00" fill="#000000">ToolbarComponent</text>
</g>
<!-- ToolbarComponent&#45;&gt;ToolbarModule -->
<g id="edge2" class="edge">
<title>ToolbarComponent&#45;&gt;ToolbarModule</title>
<path fill="none" stroke="#000000" d="M297,-122.1061C297,-122.1061 297,-140.991 297,-140.991"/>
<polygon fill="#000000" stroke="#000000" points="293.5001,-140.9909 297,-150.991 300.5001,-140.991 293.5001,-140.9909"/>
</g>
<!-- BackButtonComponent  -->
<g id="node4" class="node">
<title>BackButtonComponent </title>
<polygon fill="#fb8072" stroke="#000000" points="449.7163,-252 298.2837,-252 298.2837,-216 449.7163,-216 449.7163,-252"/>
<text text-anchor="middle" x="374" y="-229.8" font-family="Times,serif" font-size="14.00" fill="#000000">BackButtonComponent </text>
</g>
<!-- ToolbarModule&#45;&gt;BackButtonComponent  -->
<g id="edge3" class="edge">
<title>ToolbarModule&#45;&gt;BackButtonComponent </title>
<path fill="none" stroke="#000000" stroke-dasharray="5,2" d="M323.5381,-187.1061C323.5381,-187.1061 323.5381,-205.991 323.5381,-205.991"/>
<polygon fill="#000000" stroke="#000000" points="320.0381,-205.9909 323.5381,-215.991 327.0381,-205.991 320.0381,-205.9909"/>
</g>
<!-- ToolbarComponent  -->
<g id="node5" class="node">
<title>ToolbarComponent </title>
<polygon fill="#fb8072" stroke="#000000" points="280.6509,-252 151.3491,-252 151.3491,-216 280.6509,-216 280.6509,-252"/>
<text text-anchor="middle" x="216" y="-229.8" font-family="Times,serif" font-size="14.00" fill="#000000">ToolbarComponent </text>
</g>
<!-- ToolbarModule&#45;&gt;ToolbarComponent  -->
<g id="edge4" class="edge">
<title>ToolbarModule&#45;&gt;ToolbarComponent </title>
<path fill="none" stroke="#000000" stroke-dasharray="5,2" d="M262.8207,-187.1061C262.8207,-187.1061 262.8207,-205.991 262.8207,-205.991"/>
<polygon fill="#000000" stroke="#000000" points="259.3207,-205.9909 262.8207,-215.991 266.3207,-205.991 259.3207,-205.9909"/>
</g>
<!-- ToolbarMenuService -->
<g id="node6" class="node">
<title>ToolbarMenuService</title>
<ellipse fill="#fdb462" stroke="#000000" cx="117" cy="-104" rx="93.1794" ry="18"/>
<text text-anchor="middle" x="117" y="-99.8" font-family="Times,serif" font-size="14.00" fill="#000000">ToolbarMenuService</text>
</g>
<!-- ToolbarMenuService&#45;&gt;ToolbarModule -->
<g id="edge5" class="edge">
<title>ToolbarMenuService&#45;&gt;ToolbarModule</title>
<path fill="none" stroke="#000000" d="M180.7571,-117.1537C180.7571,-136.1469 180.7571,-169 180.7571,-169 180.7571,-169 234.9985,-169 234.9985,-169"/>
<polygon fill="#000000" stroke="#000000" points="234.9985,-172.5001 244.9985,-169 234.9984,-165.5001 234.9985,-172.5001"/>
</g>
</g>
</svg>
